<svg width="32" height="32" viewBox="0 0 32 32" fill="none" xmlns="http://www.w3.org/2000/svg">
<g clip-path="url(#clip0_3101_466)">
<path d="M31.0625 13.9277H27.5681V12.927C27.5681 11.5323 26.8614 10.2998 25.7876 9.56794C26.1209 9.10569 26.3181 8.53913 26.3181 7.927C26.3181 6.37619 25.0564 5.1145 23.5056 5.1145C21.9547 5.1145 20.6931 6.37619 20.6931 7.927C20.6931 8.53913 20.8902 9.10575 21.2235 9.56794C20.1497 10.2998 19.4431 11.5323 19.4431 12.927V13.9277H14.0625V10.427C14.0625 9.90925 13.6428 9.4895 13.125 9.4895H9.375C8.85725 9.4895 8.4375 9.90925 8.4375 10.427V13.9277H0.9375C0.41975 13.9277 0 14.3474 0 14.8652V31.0623C0 31.58 0.41975 31.9998 0.9375 31.9998H31.0625C31.5803 31.9998 32 31.58 32 31.0623V14.8652C32 14.3474 31.5803 13.9277 31.0625 13.9277ZM22.5681 7.927C22.5681 7.41006 22.9886 6.9895 23.5056 6.9895C24.0226 6.9895 24.4431 7.41006 24.4431 7.927C24.4431 8.44394 24.0226 8.8645 23.5056 8.8645C22.9886 8.8645 22.5681 8.44394 22.5681 7.927ZM21.3181 12.927C21.3181 11.7208 22.2994 10.7395 23.5056 10.7395C24.7118 10.7395 25.6931 11.7208 25.6931 12.927V13.9277H21.3181V12.927ZM10.3125 11.3645H12.1875V13.9277H10.3125V11.3645ZM30.125 30.1248H25.4907V26.3754H25.7552C26.2729 26.3754 26.6927 25.9556 26.6927 25.4379C26.6927 24.9201 26.2729 24.5004 25.7552 24.5004H25.4907V21.0375H26.7769C27.2946 21.0375 27.7144 20.6178 27.7144 20.1C27.7144 19.5823 27.2946 19.1625 26.7769 19.1625H22.3296C21.8118 19.1625 21.3921 19.5823 21.3921 20.1C21.3921 20.6178 21.8118 21.0375 22.3296 21.0375H23.6157V24.5004H23.3512C22.8335 24.5004 22.4137 24.9201 22.4137 25.4379C22.4137 25.9556 22.8335 26.3754 23.3512 26.3754H23.6157V30.1248H16.8106V26.3754H17.075C17.5928 26.3754 18.0125 25.9556 18.0125 25.4379C18.0125 24.9201 17.5928 24.5004 17.075 24.5004H16.8106V21.0375H18.0967C18.6144 21.0375 19.0342 20.6178 19.0342 20.1C19.0342 19.5823 18.6144 19.1625 18.0967 19.1625H13.6494C13.1316 19.1625 12.7119 19.5823 12.7119 20.1C12.7119 20.6178 13.1316 21.0375 13.6494 21.0375H14.9356V24.5004H14.6711C14.1533 24.5004 13.7336 24.9201 13.7336 25.4379C13.7336 25.9556 14.1533 26.3754 14.6711 26.3754H14.9356V30.1248H8.13037V26.3754H8.39481C8.91256 26.3754 9.33231 25.9556 9.33231 25.4379C9.33231 24.9201 8.91256 24.5004 8.39481 24.5004H8.13037V21.0375H9.4165C9.93425 21.0375 10.354 20.6178 10.354 20.1C10.354 19.5823 9.93425 19.1625 9.4165 19.1625H4.96919C4.45144 19.1625 4.03169 19.5823 4.03169 20.1C4.03169 20.6178 4.45144 21.0375 4.96919 21.0375H6.25537V24.5004H5.99087C5.47312 24.5004 5.05337 24.9201 5.05337 25.4379C5.05337 25.9556 5.47312 26.3754 5.99087 26.3754H6.25537V30.1248H1.875V15.8027H30.125V30.1248Z" fill="#999797"/>
<path d="M0.9375 1.87524H5.05231V3.75024H4.4165C3.89875 3.75024 3.479 4.16999 3.479 4.68774C3.479 5.20549 3.89875 5.62524 4.4165 5.62524H7.56313C8.08088 5.62524 8.50062 5.20549 8.50062 4.68774C8.50062 4.16999 8.08088 3.75024 7.56313 3.75024H6.92731V1.87524H12.4676V3.75024H11.8318C11.3141 3.75024 10.8943 4.16999 10.8943 4.68774C10.8943 5.20549 11.3141 5.62524 11.8318 5.62524H14.9784C15.4962 5.62524 15.9159 5.20549 15.9159 4.68774C15.9159 4.16999 15.4962 3.75024 14.9784 3.75024H14.3426V1.87524H31.0625C31.5803 1.87524 32 1.45549 32 0.937744C32 0.419994 31.5803 0.000244141 31.0625 0.000244141H0.9375C0.41975 0.000244141 0 0.419994 0 0.937744C0 1.45549 0.41975 1.87524 0.9375 1.87524Z" fill="#999797"/>
</g>
<defs>
<clipPath id="clip0_3101_466">
<rect width="32" height="32" fill="white"/>
</clipPath>
</defs>
</svg>
