<svg width="32" height="32" viewBox="0 0 32 32" fill="none" xmlns="http://www.w3.org/2000/svg">
<path d="M11.3125 15.0625H7.5625C7.04475 15.0625 6.625 15.4822 6.625 16V18.8125H1.9375C1.41975 18.8125 1 19.2322 1 19.75V31.0625C1 31.5803 1.41975 32 1.9375 32H16.9375C17.4553 32 17.875 31.5803 17.875 31.0625V30.125H27.25V31.0625C27.25 31.5803 27.6697 32 28.1875 32C28.7053 32 29.125 31.5803 29.125 31.0625V30.125H30.0625C30.5803 30.125 31 29.7053 31 29.1875V10.375C31 9.85725 30.5803 9.4375 30.0625 9.4375H26.3125V0.9375C26.3125 0.41975 25.8928 0 25.375 0H19.75C19.2322 0 18.8125 0.41975 18.8125 0.9375V9.4375H15.0625C14.5447 9.4375 14.125 9.85725 14.125 10.375V18.8125H12.25V16C12.25 15.4822 11.8303 15.0625 11.3125 15.0625ZM29.125 28.25H17.875V26.375H29.125V28.25ZM20.6875 1.875H24.4375V9.4375H20.6875V1.875ZM16 11.3125H29.125V24.5H17.875V19.75C17.875 19.2322 17.4553 18.8125 16.9375 18.8125H16V11.3125ZM14.125 20.6875H16V30.125H14.125V20.6875ZM8.5 16.9375H10.375V18.8125H8.5V16.9375ZM4.75 30.125H2.875V20.6875H4.75V30.125ZM12.25 30.125H6.625V20.6875H12.25V30.125Z" fill="#999797"/>
<path d="M18.8125 15.0625H23.5V16C23.5 16.5178 23.9197 16.9375 24.4375 16.9375C24.9553 16.9375 25.375 16.5178 25.375 16V15.0625H26.3125C26.8303 15.0625 27.25 14.6428 27.25 14.125C27.25 13.6072 26.8303 13.1875 26.3125 13.1875H18.8125C18.2947 13.1875 17.875 13.6072 17.875 14.125C17.875 14.6428 18.2947 15.0625 18.8125 15.0625Z" fill="#999797"/>
</svg>
