<svg width="32" height="32" viewBox="0 0 32 32" fill="none" xmlns="http://www.w3.org/2000/svg">
<path d="M28.8358 25.0956L27.1464 18.791C26.7653 17.3686 25.6495 16.3362 24.3167 15.9902L23.3871 12.5212C23.2531 12.0211 22.7391 11.7243 22.2389 11.8583L19.5523 12.5782L17.6288 5.39937C20.0285 3.80919 18.919 0.0125625 16.0008 0C13.0825 0.012625 11.9733 3.80969 14.3728 5.39937L12.4493 12.5781L9.76263 11.8582C9.26251 11.7242 8.74845 12.0211 8.61445 12.5211L7.68488 15.9901C6.35213 16.3362 5.23632 17.3686 4.8552 18.7909L3.16588 25.0956C2.53051 27.4669 3.9427 29.9129 6.31388 30.5483L11.1636 31.8478C13.0416 32.3511 14.9656 31.5691 16.0008 30.0444C17.036 31.5691 18.96 32.3511 20.838 31.8478L25.6878 30.5483C28.059 29.9129 29.4712 27.4669 28.8358 25.0956ZM18.2158 14.8774L21.8187 13.912L22.373 15.9807L17.6028 17.2589L18.1851 15.0856C18.2038 15.0161 18.2133 14.9464 18.2158 14.8774ZM16.0008 1.875C16.5913 1.875 17.0717 2.35544 17.0717 2.94587C17.0179 4.36444 14.9836 4.36412 14.93 2.94587C14.93 2.35537 15.4104 1.875 16.0008 1.875ZM16.0008 6.56812L17.7412 13.0634L16.0008 13.5298L14.2604 13.0634L16.0008 6.56812ZM10.1829 13.912L16.1314 15.5059L15.5771 17.5746L9.62857 15.9807L10.1829 13.912ZM14.8053 28.2145C14.4374 29.5871 13.0216 30.4046 11.649 30.0368L6.7992 28.7372C5.42663 28.3694 4.6092 26.9536 4.97701 25.5809L5.17626 24.8372C5.46307 25.0486 5.7932 25.2108 6.15757 25.3084L8.09838 25.8285C9.81651 26.2889 10.9434 25.1692 11.3143 24.611L12.9829 25.0581C14.3291 25.4189 15.1813 26.8112 14.8053 28.2145ZM16.4946 21.9098L15.7439 24.711C15.1573 24.0056 14.3583 23.4855 13.4682 23.247L11.8003 22.8001C11.723 21.5723 10.8761 20.4732 9.62426 20.1378C8.41263 19.8604 7.9502 21.5827 9.13801 21.9487L9.13901 21.9489C9.70876 22.1016 10.048 22.6899 9.8952 23.2602C9.74363 23.8257 9.16251 24.1724 8.58363 24.0173L6.64382 23.4975C6.06451 23.3422 5.7352 22.7512 5.88663 22.1859L6.66632 19.2761C6.96245 18.1709 8.10251 17.5127 9.2077 17.8089L15.0274 19.3683C16.1325 19.6646 16.7907 20.8047 16.4946 21.9098ZM25.2024 28.7372L20.3526 30.0368C18.9801 30.4046 17.5641 29.5871 17.1964 28.2146L16.9714 27.3748L18.3057 22.3952C18.6139 21.2447 18.3783 20.075 17.7578 19.1586L22.7939 17.8091C23.8991 17.5129 25.0392 18.1711 25.3353 19.2763L27.0247 25.5809C27.3924 26.9536 26.5751 28.3694 25.2024 28.7372Z" fill="#999797"/>
</svg>
