<svg width="32" height="32" viewBox="0 0 32 32" fill="none" xmlns="http://www.w3.org/2000/svg">
<g clip-path="url(#clip0_3127_317)">
<path d="M17.5223 10.1416C17.8888 9.77498 18.4839 9.77482 18.8514 10.1406C19.2187 10.5063 19.2197 11.0992 18.8533 11.4658L15.8934 14.4248C15.5433 14.7889 14.9133 14.7889 14.5633 14.4248L12.8953 12.7578C12.529 12.3912 12.5299 11.7973 12.8973 11.4316C13.2647 11.0661 13.8599 11.0672 14.2264 11.4336L15.2283 12.4355L17.5223 10.1416Z" fill="#999797"/>
<path fill-rule="evenodd" clip-rule="evenodd" d="M15.8738 4.81348C19.9949 4.81348 23.3482 8.16429 23.3484 12.2832C23.3484 16.4023 19.995 19.7539 15.8738 19.7539C11.7528 19.7537 8.40019 16.4021 8.40019 12.2832C8.4004 8.16447 11.753 4.81371 15.8738 4.81348ZM15.8738 6.68848C12.7895 6.68871 10.2803 9.19859 10.2801 12.2832C10.2801 15.368 12.7894 17.8777 15.8738 17.8779C18.9584 17.8779 21.4685 15.3681 21.4685 12.2832C21.4683 9.19845 18.9584 6.68848 15.8738 6.68848Z" fill="#999797"/>
<path fill-rule="evenodd" clip-rule="evenodd" d="M15.8748 0C16.8978 0 17.8572 0.400472 18.576 1.12793C19.0119 1.5693 19.6376 1.77269 20.2498 1.67188C21.2578 1.50589 22.2685 1.74521 23.0955 2.34473C23.9243 2.94554 24.4653 3.83321 24.6189 4.84473C24.7124 5.45894 25.1 5.99215 25.6551 6.27051C26.5681 6.72852 27.2451 7.51553 27.5613 8.48633C27.8778 9.45827 27.7938 10.4934 27.324 11.4014C27.0383 11.9535 27.0381 12.6129 27.324 13.165C27.794 14.0732 27.8779 15.1089 27.5613 16.0811C27.2451 17.0518 26.5682 17.8389 25.6551 18.2969C25.1001 18.5753 24.7133 19.1084 24.6199 19.7227C24.4765 20.6662 23.9953 21.5019 23.2586 22.0977C23.8772 24.4543 24.9859 26.6892 26.5633 28.748C27.134 29.4447 26.3602 30.5224 25.5154 30.2061L21.6189 28.8896L20.0896 31.5361C19.7669 32.1355 18.8376 32.1594 18.4851 31.5762C17.421 29.9274 16.5577 28.0773 15.906 26.0576C15.254 28.0779 14.3915 29.928 13.3279 31.5762C12.9755 32.1594 12.0463 32.1356 11.7234 31.5361L10.1932 28.8896L6.29667 30.2061C5.45248 30.522 4.67789 29.4448 5.24882 28.748C6.81664 26.7017 7.92249 24.4811 8.54374 22.1387C7.77784 21.5407 7.27748 20.6881 7.13066 19.7227C7.03722 19.1084 6.64959 18.5752 6.09452 18.2969C5.18145 17.8389 4.5045 17.0518 4.18827 16.0811C3.87165 15.1089 3.95656 14.0732 4.42656 13.165C4.71216 12.6129 4.71226 11.9534 4.42656 11.4014C3.95673 10.4934 3.87189 9.45836 4.18827 8.48633C4.50441 7.51567 5.18155 6.72854 6.09452 6.27051C6.64953 5.99216 7.03717 5.45896 7.13066 4.84473C7.28433 3.83334 7.82538 2.94554 8.65409 2.34473C9.48103 1.74526 10.4916 1.50596 11.4998 1.67188C12.1117 1.77288 12.7377 1.5693 13.1736 1.12793C13.8923 0.400422 14.8518 3.30463e-05 15.8748 0ZM11.5008 22.8945C11.092 22.9619 10.6823 22.9623 10.285 22.8994C9.83253 24.5083 9.17299 26.0614 8.3123 27.5449L10.3211 26.8672C10.7455 26.7238 11.2134 26.8996 11.4373 27.2871L12.5457 29.2051C13.3451 27.7171 13.9881 26.074 14.4676 24.2979C13.9879 24.1067 13.5478 23.8173 13.1736 23.4385C12.7378 22.9974 12.1128 22.7939 11.5008 22.8945ZM20.2498 22.8945C19.6379 22.7937 19.0119 22.9971 18.576 23.4385C18.2163 23.8025 17.7967 24.0852 17.3387 24.2764C17.8182 26.0604 18.4634 27.7106 19.2664 29.2051L20.3758 27.2871C20.5997 26.8997 21.0664 26.7237 21.491 26.8672L23.4998 27.5449C22.6372 26.0582 21.9774 24.5017 21.5252 22.8896C21.1092 22.9623 20.6792 22.9652 20.2498 22.8945ZM15.8748 1.875C15.359 1.87503 14.8751 2.07734 14.5125 2.44434C13.6484 3.31916 12.4081 3.72244 11.1941 3.52246C10.6858 3.43865 10.1756 3.55902 9.75859 3.86133C9.33985 4.16495 9.06679 4.61439 8.98906 5.12598C8.80433 6.34049 8.03787 7.39418 6.93925 7.94531C6.47809 8.17661 6.13619 8.57466 5.97636 9.06543C5.81607 9.55749 5.85875 10.0814 6.09648 10.541C6.661 11.6318 6.66092 12.9346 6.09648 14.0254C5.8586 14.485 5.81605 15.0098 5.97636 15.502C6.13624 15.9925 6.47822 16.3899 6.93925 16.6211C8.03804 17.1722 8.80437 18.2268 8.98906 19.4414C9.06684 19.9528 9.34006 20.4015 9.75859 20.7051C10.1756 21.0074 10.6858 21.1287 11.1941 21.0449C11.3991 21.0112 11.6048 20.9942 11.8094 20.9941C12.8161 20.9941 13.7943 21.3951 14.5125 22.1221C14.8752 22.4892 15.359 22.6914 15.8748 22.6914C16.3907 22.6914 16.8744 22.4892 17.2371 22.1221C18.1012 21.2473 19.3417 20.8449 20.5555 21.0449C21.0638 21.1288 21.5739 21.0074 21.991 20.7051C22.4096 20.4015 22.6828 19.9528 22.7605 19.4414C22.9452 18.2268 23.7117 17.1723 24.8103 16.6211C25.2714 16.3898 25.6144 15.9926 25.7742 15.502C25.9345 15.0098 25.8909 14.485 25.6531 14.0254C25.0887 12.9346 25.0886 11.6318 25.6531 10.541C25.891 10.0815 25.9345 9.55749 25.7742 9.06543C25.6144 8.57462 25.2715 8.17662 24.8103 7.94531C23.7118 7.39421 22.9452 6.34037 22.7605 5.12598C22.6828 4.61432 22.4098 4.16495 21.991 3.86133C21.5739 3.55908 21.0637 3.43871 20.5555 3.52246C19.3416 3.72222 18.1012 3.3191 17.2371 2.44434C16.8744 2.07739 16.3905 1.875 15.8748 1.875Z" fill="#999797"/>
</g>
<defs>
<clipPath id="clip0_3127_317">
<rect width="32" height="32" fill="white"/>
</clipPath>
</defs>
</svg>
