<svg width="32" height="32" viewBox="0 0 32 32" fill="none" xmlns="http://www.w3.org/2000/svg">
<g clip-path="url(#clip0_3101_444)">
<path d="M30.4374 17.3218H30.0586C30.2763 16.8791 30.3989 16.3818 30.3989 15.8565C30.3989 14.0146 28.8965 12.5161 27.0498 12.5161C25.203 12.5161 23.7007 14.0146 23.7007 15.8565C23.7007 16.3819 23.8233 16.8792 24.0409 17.3218H23.662C23.1443 17.3218 22.7245 17.7416 22.7245 18.2593C22.7245 18.7771 23.1443 19.1968 23.662 19.1968H24.3275V20.8591C18.8648 22.5316 13.1351 22.5316 7.67241 20.8591V19.1968H8.33784C8.85559 19.1968 9.27534 18.7771 9.27534 18.2593C9.27534 17.7416 8.85559 17.3218 8.33784 17.3218H7.95903C8.17666 16.8791 8.29928 16.3818 8.29928 15.8565C8.29928 14.0146 6.79685 12.5161 4.95017 12.5161C3.10349 12.5161 1.60112 14.0146 1.60112 15.8565C1.60112 16.3819 1.72375 16.8792 1.94137 17.3218H1.5625C1.04475 17.3218 0.625 17.7416 0.625 18.2593C0.625 18.7771 1.04475 19.1968 1.5625 19.1968H2.22793V31.0625C2.22793 31.5803 2.64768 32 3.16543 32H6.73485C7.2526 32 7.67235 31.5803 7.67235 31.0625V26.5674C10.4091 27.3505 13.2045 27.7426 15.9999 27.7426C18.7953 27.7426 21.5907 27.3505 24.3274 26.5674V31.0625C24.3274 31.5803 24.7472 32 25.2649 32H28.8343C29.3521 32 29.7718 31.5803 29.7718 31.0625V19.1968H30.4374C30.9552 19.1968 31.3749 18.7771 31.3749 18.2593C31.3749 17.7416 30.9552 17.3218 30.4374 17.3218ZM27.0498 14.3911C27.8626 14.3911 28.524 15.0485 28.524 15.8565C28.524 16.6645 27.8626 17.3218 27.0498 17.3218C26.237 17.3218 25.5757 16.6645 25.5757 15.8565C25.5757 15.0485 26.237 14.3911 27.0498 14.3911ZM4.9503 14.3911C5.7631 14.3911 6.42441 15.0485 6.42441 15.8565C6.42441 16.6645 5.7631 17.3218 4.9503 17.3218C4.13749 17.3218 3.47624 16.6645 3.47624 15.8565C3.47624 15.0485 4.13749 14.3911 4.9503 14.3911ZM5.79754 30.125H4.10311V19.1968H5.79754V30.125ZM7.67253 24.6126V22.8154C13.1464 24.3818 18.8538 24.3818 24.3276 22.8154V24.6126C18.8652 26.2847 13.135 26.2847 7.67253 24.6126ZM27.8971 30.125H26.2027V19.1968H27.8971V30.125Z" fill="#999797"/>
<path d="M13.1845 5.88236L12.8412 7.88398C12.7809 8.23567 12.9254 8.59117 13.2141 8.80092C13.5029 9.01067 13.8856 9.03836 14.2014 8.87229L15.999 7.92729L17.7966 8.87229C17.9338 8.94442 18.0836 8.97998 18.2328 8.97998C18.4271 8.97998 18.6206 8.91961 18.7839 8.80092C19.0726 8.59117 19.2172 8.23573 19.1569 7.88398L18.8136 5.88236L20.2678 4.46479C20.5234 4.21573 20.6154 3.84317 20.5051 3.50379C20.3948 3.16442 20.1014 2.91704 19.7483 2.86573L17.7386 2.57373L16.8398 0.752605C16.6819 0.432605 16.356 0.22998 15.9991 0.22998C15.6423 0.22998 15.3164 0.432605 15.1584 0.752543L14.2597 2.57373L12.2499 2.86573C11.8968 2.91704 11.6034 3.16442 11.4932 3.50379C11.3829 3.84317 11.4749 4.21573 11.7304 4.46479L13.1845 5.88236ZM15.0169 4.35829C15.3223 4.31392 15.5863 4.12211 15.7228 3.84542L15.999 3.28573L16.2752 3.84542C16.4118 4.12211 16.6757 4.31392 16.9811 4.35829L17.5988 4.44804L17.1519 4.88367C16.9309 5.09904 16.8301 5.40936 16.8823 5.71348L16.9878 6.32867L16.4353 6.03823C16.2987 5.96642 16.1489 5.93054 15.9991 5.93054C15.8493 5.93054 15.6994 5.96642 15.5628 6.03823L15.0104 6.32867L15.1159 5.71348C15.168 5.40936 15.0672 5.09904 14.8463 4.88367L14.3993 4.44804L15.0169 4.35829Z" fill="#999797"/>
<path d="M5.4375 5.91748H7.92706C8.44481 5.91748 8.86456 5.49773 8.86456 4.97998C8.86456 4.46223 8.44481 4.04248 7.92706 4.04248H5.4375C4.91975 4.04248 4.5 4.46223 4.5 4.97998C4.5 5.49773 4.91975 5.91748 5.4375 5.91748Z" fill="#999797"/>
<path d="M8.18171 7.20341L5.88171 8.1561C5.40334 8.35423 5.17621 8.90266 5.37434 9.38104C5.5239 9.7421 5.87296 9.96004 6.24084 9.96004C6.3604 9.96004 6.4819 9.93704 6.59921 9.88841L8.89921 8.93573C9.37759 8.7376 9.60471 8.18916 9.40659 7.71079C9.20846 7.23241 8.66009 7.00535 8.18171 7.20341Z" fill="#999797"/>
<path d="M23.1005 8.93573L25.4006 9.88841C25.5179 9.93698 25.6394 9.96004 25.7589 9.96004C26.1268 9.96004 26.4759 9.7421 26.6254 9.38104C26.8236 8.90266 26.5964 8.35429 26.1181 8.1561L23.818 7.20341C23.3395 7.00535 22.7912 7.23241 22.5931 7.71079C22.395 8.18916 22.6221 8.73754 23.1005 8.93573Z" fill="#999797"/>
<path d="M24.0723 4.04248C23.5545 4.04248 23.1348 4.46223 23.1348 4.97998C23.1348 5.49773 23.5545 5.91748 24.0723 5.91748H26.5618C27.0795 5.91748 27.4993 5.49773 27.4993 4.97998C27.4993 4.46223 27.0795 4.04248 26.5618 4.04248H24.0723Z" fill="#999797"/>
<path d="M23.4596 2.82823C23.5792 2.82823 23.7007 2.80523 23.818 2.7566L26.1181 1.80392C26.5964 1.60579 26.8236 1.05735 26.6255 0.578979C26.4273 0.100604 25.8788 -0.126521 25.4005 0.0716039L23.1005 1.02429C22.6221 1.22242 22.395 1.77085 22.5931 2.24923C22.7426 2.61029 23.0917 2.82823 23.4596 2.82823Z" fill="#999797"/>
<path d="M5.88171 1.80385L8.18171 2.75654C8.29903 2.8051 8.42053 2.82817 8.54009 2.82817C8.90796 2.82817 9.25709 2.61023 9.40659 2.24917C9.60471 1.77079 9.37759 1.22242 8.89921 1.02423L6.59921 0.0715421C6.1209 -0.126458 5.57246 0.100605 5.37434 0.57898C5.17621 1.05735 5.40334 1.60573 5.88171 1.80385Z" fill="#999797"/>
</g>
<defs>
<clipPath id="clip0_3101_444">
<rect width="32" height="32" fill="white"/>
</clipPath>
</defs>
</svg>
