<svg width="32" height="32" viewBox="0 0 32 32" fill="none" xmlns="http://www.w3.org/2000/svg">
<g clip-path="url(#clip0_2_4372)">
<path d="M25.5312 5.93778H23.9688V2.18691C23.9688 1.48709 23.6302 0.824469 23.0631 0.414406C22.4961 0.00434357 21.7607 -0.109719 21.0961 0.109531L5.7835 5.15991C4.88494 5.45634 4.28125 6.29122 4.28125 7.23734V24.7083V29.8125C4.28125 31.0187 5.26256 32 6.46875 32H25.5312C26.7374 32 27.7188 31.0187 27.7188 29.8125V8.12528C27.7188 6.91916 26.7374 5.93778 25.5312 5.93778ZM25.8438 29.8125C25.8438 29.9848 25.7036 30.125 25.5312 30.125H6.46875C6.29644 30.125 6.15625 29.9848 6.15625 29.8125V23.7709V8.12528C6.15625 7.95297 6.29644 7.81278 6.46875 7.81278H25.5312C25.7036 7.81278 25.8438 7.95297 25.8438 8.12528V29.8125ZM21.6834 1.89016C21.8154 1.84666 21.9161 1.89878 21.9644 1.93372C22.0128 1.96866 22.0938 2.04797 22.0938 2.18691V5.93784H9.41113L21.6834 1.89016Z" fill="white"/>
<path d="M9.75 18.6552H10.8864H22.25C22.7677 18.6552 23.1875 18.2355 23.1875 17.7177C23.1875 17.2 22.7677 16.7802 22.25 16.7802H21.9784C21.5743 14.1928 19.5249 12.1434 16.9375 11.7393V11.2695C16.9375 10.7518 16.5177 10.332 16 10.332C15.4823 10.332 15.0625 10.7518 15.0625 11.2695V11.7393C12.4751 12.1434 10.4257 14.1928 10.0216 16.7802H9.75C9.23225 16.7802 8.8125 17.2 8.8125 17.7177C8.8125 18.2355 9.23225 18.6552 9.75 18.6552ZM16 13.5416C17.9805 13.5416 19.6434 14.9275 20.0701 16.7802H11.9299C12.3566 14.9275 14.0196 13.5416 16 13.5416Z" fill="white"/>
<path d="M10.1135 21.188C9.59578 21.188 9.17603 21.6077 9.17603 22.1255C9.17603 22.6432 9.59578 23.063 10.1135 23.063H14.6135C15.1313 23.063 15.551 22.6432 15.551 22.1255C15.551 21.6077 15.1313 21.188 14.6135 21.188H10.1135Z" fill="white"/>
<path d="M22.0156 24.938H9.98438C9.46662 24.938 9.04688 25.3577 9.04688 25.8755C9.04688 26.3932 9.46662 26.813 9.98438 26.813H22.0156C22.5334 26.813 22.9531 26.3932 22.9531 25.8755C22.9531 25.3577 22.5334 24.938 22.0156 24.938Z" fill="white"/>
</g>
<defs>
<clipPath id="clip0_2_4372">
<rect width="32" height="32" fill="white"/>
</clipPath>
</defs>
</svg>
