<svg width="32" height="32" viewBox="0 0 32 32" fill="none" xmlns="http://www.w3.org/2000/svg">
<g clip-path="url(#clip0_2_4366)">
<path d="M23.4146 29.6584H9.95119V24.5852H16.1951C16.8416 24.5852 17.3658 24.061 17.3658 23.4144C17.3658 22.7679 16.8416 22.2437 16.1951 22.2437H8.7805C8.13394 22.2437 7.60975 22.7679 7.60975 23.4144V29.6583H2.34144C2.34144 17.4991 2.34144 18.3652 2.34144 8.5853C2.34144 7.93874 1.81725 7.41455 1.17069 7.41455C0.524125 7.41455 0 7.93874 0 8.5853V30.8291C0 31.4756 0.524188 31.9998 1.17075 31.9998H23.4146C24.0612 31.9998 24.5854 31.4756 24.5854 30.8291C24.5854 30.1825 24.0613 29.6584 23.4146 29.6584Z" fill="white"/>
<path d="M30.8293 0C30.4411 0 1.558 0 1.17069 0C0.524188 0 0 0.524188 0 1.17075C0 1.81731 0.524188 2.3415 1.17075 2.3415H7.41463V8.58537C7.41463 9.23194 7.93881 9.75613 8.58537 9.75613C9.23194 9.75613 9.75613 9.23194 9.75613 8.58537V2.34144H22.2439V8.58531C22.2439 9.23188 22.7681 9.75606 23.4147 9.75606H29.6586V14.8289C29.1096 14.8289 17.7183 14.8289 17.1707 14.8289V8.954C17.1707 8.30744 16.6466 7.78325 16 7.78325C15.3534 7.78325 14.8293 8.30744 14.8293 8.954V15.9997C14.8293 16.6462 15.3534 17.1704 16 17.1704C24.9304 17.1704 20.7058 17.1704 29.6586 17.1704V30.8293C29.6586 31.4759 30.1828 32.0001 30.8293 32.0001C31.4759 32.0001 32.0001 31.4759 32.0001 30.8293C32.0001 30.4421 32.0001 1.559 32.0001 1.17075C32 0.524188 31.4758 0 30.8293 0ZM29.6586 7.41463H24.5854V2.34144H29.6586V7.41463Z" fill="white"/>
</g>
<defs>
<clipPath id="clip0_2_4366">
<rect width="32" height="32" fill="white"/>
</clipPath>
</defs>
</svg>
