<svg width="32" height="32" viewBox="0 0 32 32" fill="none" xmlns="http://www.w3.org/2000/svg">
<g clip-path="url(#clip0_2_4357)">
<path d="M27.9832 0.9375C27.9832 0.41975 27.5625 0 27.0447 0C22.0842 0 17.8182 3.03006 15.9999 7.3365C14.1816 3.03006 9.91541 0 4.9541 0C4.43635 0 4.0166 0.41975 4.0166 0.9375C4.0166 7.22963 8.89129 12.4045 15.0624 12.8843V19.0125C15.0624 19.5303 15.4822 19.95 15.9999 19.95C16.5177 19.95 16.9374 19.5303 16.9374 19.0125V12.8843C23.1085 12.4045 27.9832 7.22963 27.9832 0.9375ZM5.93916 1.9225C10.7284 2.38744 14.5499 6.20894 15.0149 10.9982C10.226 10.5329 6.40454 6.71144 5.93916 1.9225ZM16.985 10.9983C17.4499 6.20931 21.2711 2.38794 26.0607 1.92262C25.5952 6.7115 21.7739 10.5329 16.985 10.9983Z" fill="white" fill-opacity="0.6"/>
<path d="M10.1358 18.8515C8.96144 17.6772 7.08931 17.6591 5.89169 18.7612V14.9946C5.89169 12.2646 3.67031 10.0415 0.938563 10.0415H0.9375C0.41975 10.0415 0 10.4613 0 10.979V23.029C0 23.2776 0.0988125 23.5161 0.274625 23.6919L6.025 29.4424V31.0624C6.025 31.5801 6.44475 31.9999 6.9625 31.9999H13.9917C14.5094 31.9999 14.9292 31.5801 14.9292 31.0624V25.6971C14.9292 24.3737 14.4139 23.1296 13.4782 22.1939L10.1358 18.8515ZM13.0542 30.1249H7.9V29.0541C7.9 28.8054 7.80119 28.567 7.62537 28.3912L1.875 22.6407V12.0641C3.64637 12.6327 4.01669 14.2741 4.01669 14.9947V21.0208C4.01669 21.2694 4.1155 21.5078 4.29131 21.6836L8.308 25.7003C8.67412 26.0664 9.26775 26.0664 9.63381 25.7003C9.99994 25.3343 9.99994 24.7406 9.63381 24.3745L7.12337 21.8641C6.65737 21.398 6.657 20.6438 7.12337 20.1774C7.58969 19.7111 8.34356 19.7109 8.81006 20.1774L12.1524 23.5198C12.734 24.1013 13.0542 24.8746 13.0542 25.6971L13.0542 30.1249Z" fill="white" fill-opacity="0.6"/>
<path d="M31.0624 10.0415H31.0614C28.3297 10.0415 26.1083 12.2646 26.1083 14.9946V18.7612C24.9107 17.6591 23.0386 17.6772 21.8642 18.8515L18.5217 22.1939C17.5861 23.1296 17.0708 24.3737 17.0708 25.6971V31.0623C17.0708 31.5801 17.4906 31.9998 18.0083 31.9998H25.0374C25.5552 31.9998 25.9749 31.5801 25.9749 31.0623V29.4423L31.7253 23.6919C31.9011 23.5161 31.9999 23.2776 31.9999 23.029V10.979C31.9999 10.4612 31.5802 10.0415 31.0624 10.0415ZM30.1249 22.6406L24.3745 28.3911C24.1987 28.5669 24.0999 28.8053 24.0999 29.0539V30.1248H18.9457V25.6971C18.9457 24.8745 19.266 24.1013 19.8476 23.5198L23.1899 20.1773C23.6564 19.7109 24.4104 19.7111 24.8766 20.1773C25.343 20.6438 25.3426 21.3979 24.8766 21.864L22.3662 24.3744C22.0001 24.7406 22.0001 25.3341 22.3662 25.7003C22.7322 26.0664 23.3259 26.0663 23.692 25.7003L27.7087 21.6836C27.8845 21.5078 27.9833 21.2693 27.9833 21.0207V14.9946C27.9833 14.274 28.3536 12.6326 30.125 12.0641V22.6406H30.1249Z" fill="white" fill-opacity="0.6"/>
</g>
<defs>
<clipPath id="clip0_2_4357">
<rect width="32" height="32" fill="white"/>
</clipPath>
</defs>
</svg>
