<svg width="32" height="32" viewBox="0 0 32 32" fill="none" xmlns="http://www.w3.org/2000/svg">
<g clip-path="url(#clip0_2_4388)">
<path d="M25.9115 3.75H24.3452C24.1792 3.75 24.0198 3.81612 23.9026 3.93375C23.7858 4.05087 23.7203 4.20956 23.7203 4.375H23.7202V10C23.7202 10.3451 24.0001 10.625 24.3452 10.625C24.6903 10.625 24.9702 10.3451 24.9702 10V8.17831C25.3053 8.17656 25.6955 8.17475 25.9115 8.17475C27.1485 8.17475 28.155 7.18231 28.155 5.96244C28.155 4.74256 27.1485 3.75 25.9115 3.75ZM25.9115 6.92475C25.6964 6.92475 25.3113 6.92644 24.9777 6.92825C24.976 6.58375 24.9742 6.18238 24.9742 5.96244C24.9742 5.77531 24.9731 5.3595 24.9722 5.00006H25.9115C26.45 5.00006 26.905 5.44081 26.905 5.96244C26.905 6.48406 26.45 6.92475 25.9115 6.92475Z" fill="white"/>
<path d="M19.158 18.9516L17.9949 15.0747C17.5553 13.6094 16.2322 12.625 14.7024 12.625H7.17256C5.64281 12.625 4.31969 13.6094 3.88006 15.0747L2.717 18.9516C1.16638 19.2837 0 20.6642 0 22.3125V27.3125C0 27.8302 0.41975 28.25 0.9375 28.25H1.25V29.1875C1.25 30.7383 2.51169 32 4.0625 32C5.61331 32 6.875 30.7383 6.875 29.1875V28.25H15V29.1875C15 30.7383 16.2617 32 17.8125 32C19.3633 32 20.625 30.7383 20.625 29.1875V28.25H20.9375C21.4552 28.25 21.875 27.8302 21.875 27.3125V22.3125C21.875 20.6642 20.7086 19.2837 19.158 18.9516ZM5.67594 15.6135C5.87581 14.9475 6.47725 14.5 7.17256 14.5H14.7025C15.3978 14.5 15.9992 14.9475 16.1991 15.6135L17.1775 18.875H4.6975L5.67594 15.6135ZM3.4375 20.75H18.4375C19.2991 20.75 20 21.4509 20 22.3125V22.625H18.4375C17.9198 22.625 17.5 23.0448 17.5 23.5625C17.5 24.0802 17.9198 24.5 18.4375 24.5H20V26.375H1.875V24.5H3.4375C3.95525 24.5 4.375 24.0802 4.375 23.5625C4.375 23.0448 3.95525 22.625 3.4375 22.625H1.875V22.3125C1.875 21.4509 2.57594 20.75 3.4375 20.75ZM5 29.1875C5 29.7044 4.57944 30.125 4.0625 30.125C3.54556 30.125 3.125 29.7044 3.125 29.1875V28.25H5V29.1875ZM18.75 29.1875C18.75 29.7044 18.3294 30.125 17.8125 30.125C17.2956 30.125 16.875 29.7044 16.875 29.1875V28.25H18.75V29.1875Z" fill="white"/>
<path d="M29.8125 0H21.6875C20.4813 0 19.5 0.981313 19.5 2.1875V12.1875C19.5 13.3937 20.4813 14.375 21.6875 14.375H24.8125V30.125H23.25C22.7322 30.125 22.3125 30.5448 22.3125 31.0625C22.3125 31.5802 22.7322 32 23.25 32H28.25C28.7677 32 29.1875 31.5802 29.1875 31.0625C29.1875 30.5448 28.7677 30.125 28.25 30.125H26.6875V14.375H29.8125C31.0187 14.375 32 13.3937 32 12.1875V2.1875C32 0.981313 31.0187 0 29.8125 0ZM30.125 12.1875C30.125 12.3598 29.9848 12.5 29.8125 12.5H21.6875C21.5152 12.5 21.375 12.3598 21.375 12.1875V2.1875C21.375 2.01519 21.5152 1.875 21.6875 1.875H29.8125C29.9848 1.875 30.125 2.01519 30.125 2.1875V12.1875Z" fill="white"/>
<path d="M8.4375 24.5H13.4375C13.9552 24.5 14.375 24.0803 14.375 23.5625C14.375 23.0447 13.9552 22.625 13.4375 22.625H8.4375C7.91975 22.625 7.5 23.0447 7.5 23.5625C7.5 24.0803 7.91975 24.5 8.4375 24.5Z" fill="white"/>
</g>
<defs>
<clipPath id="clip0_2_4388">
<rect width="32" height="32" fill="white"/>
</clipPath>
</defs>
</svg>
