<svg width="32" height="32" viewBox="0 0 32 32" fill="none" xmlns="http://www.w3.org/2000/svg">
<g clip-path="url(#clip0_2_4343)">
<path d="M30.5848 5.79862L26.5835 8.16781H24.0278V7.53275C24.0278 6.1515 22.904 5.02781 21.5228 5.02781H9.6685V4.64612C9.6685 3.11812 10.9116 1.875 12.4396 1.875H21.0305C21.5483 1.875 21.968 1.45525 21.968 0.9375C21.968 0.41975 21.5483 0 21.0305 0H12.4396C9.87775 0 7.7935 2.08419 7.7935 4.64606V5.02775H6.255C5.09125 5.02775 4.11044 5.82544 3.83031 6.90275H0.9375C0.41975 6.90275 0 7.3225 0 7.84025V12.2129C0 12.7307 0.41975 13.1504 0.9375 13.1504H3.75V17.3928C3.75 18.7741 4.87375 19.8978 6.255 19.8978H12.3639L6.92956 30.6391C6.69581 31.1011 6.88088 31.6651 7.34288 31.8988C7.80531 32.1328 8.36913 31.9471 8.60262 31.4855L12.9514 22.89V31.0623C12.9514 31.58 13.3711 31.9998 13.8889 31.9998C14.4066 31.9998 14.8264 31.58 14.8264 31.0623V22.89L19.1751 31.4855C19.409 31.9477 19.9731 32.1325 20.4349 31.8988C20.8969 31.6651 21.0819 31.1011 20.8482 30.6391L15.4138 19.8978H21.5228C22.904 19.8978 24.0278 18.7741 24.0278 17.3928V16.7577H26.5835L30.5848 19.1269C31.2066 19.495 32 19.0487 32 18.3202V6.60525C32 5.88025 31.2092 5.429 30.5848 5.79862ZM1.875 11.2754V8.77775H3.75V11.2754H1.875ZM22.1528 17.3928C22.1528 17.7402 21.8701 18.0228 21.5228 18.0228H6.255C5.90763 18.0228 5.625 17.7402 5.625 17.3928C5.625 15.5095 5.625 9.58212 5.625 7.53269C5.625 7.18531 5.90763 6.90269 6.255 6.90269H21.5228C21.8701 6.90269 22.1528 7.18525 22.1528 7.53269V17.3928ZM24.0278 10.0428H25.9028V14.8827H24.0278V10.0428ZM30.125 16.6757L27.7778 15.2859V9.63969L30.125 8.24994V16.6757Z" fill="white"/>
<path d="M15.3111 8.77783H8.41162C7.89387 8.77783 7.47412 9.19758 7.47412 9.71533V15.2105C7.47412 15.7282 7.89387 16.148 8.41162 16.148H15.3111C15.8288 16.148 16.2486 15.7282 16.2486 15.2105V9.71533C16.2486 9.19758 15.8288 8.77783 15.3111 8.77783ZM14.3736 14.273H9.34912V10.6528H14.3736V14.273Z" fill="white"/>
<path d="M19.3403 10.6528C19.8581 10.6528 20.2778 10.2331 20.2778 9.71533C20.2778 9.19757 19.8581 8.77783 19.3403 8.77783C18.8226 8.77783 18.4028 9.19757 18.4028 9.71533C18.4028 10.2331 18.8226 10.6528 19.3403 10.6528Z" fill="white"/>
<path d="M19.3403 14.4028C19.8581 14.4028 20.2778 13.9831 20.2778 13.4653C20.2778 12.9476 19.8581 12.5278 19.3403 12.5278C18.8226 12.5278 18.4028 12.9476 18.4028 13.4653C18.4028 13.9831 18.8226 14.4028 19.3403 14.4028Z" fill="white"/>
</g>
<defs>
<clipPath id="clip0_2_4343">
<rect width="32" height="32" fill="white"/>
</clipPath>
</defs>
</svg>
