<svg width="32" height="32" viewBox="0 0 32 32" fill="none" xmlns="http://www.w3.org/2000/svg">
<g clip-path="url(#clip0_2_4352)">
<path d="M31.9778 30.8597L29.4153 19.2972C29.3201 18.8679 28.9396 18.5625 28.5 18.5625H23.9005C25.8372 16.5363 26.9375 13.8134 26.9375 11C26.9375 4.93456 22.0309 0 16 0C9.96902 0 5.06246 4.93456 5.06246 11C5.06246 13.8134 6.16271 16.5363 8.09946 18.5625H3.49996C3.06034 18.5625 2.67977 18.8679 2.58465 19.2971L0.609899 28.2077C0.590149 28.2679 0.576149 28.3299 0.568836 28.3931L0.022211 30.8597C-0.039289 31.1372 0.028461 31.4277 0.206398 31.6494C0.384273 31.8711 0.653211 32 0.937461 32H31.0625C31.3467 32 31.6157 31.8711 31.7936 31.6493C31.9715 31.4276 32.0393 31.1372 31.9778 30.8597ZM16 1.875C20.997 1.875 25.0625 5.9685 25.0625 11C25.0625 13.5346 24.0428 15.8848 22.1912 17.6178C21.105 18.6344 20.028 19.7785 18.8988 21.1152L16 24.5472L13.1011 21.1153C11.9721 19.7786 10.8951 18.6346 9.80877 17.6178C7.95721 15.8848 6.93746 13.5346 6.93746 11C6.93746 5.9685 11.0029 1.875 16 1.875ZM4.25246 20.4375H9.98434C10.4857 20.9665 10.9925 21.5314 11.5109 22.1394L2.86034 26.7191L4.25246 20.4375ZM2.32765 29.1226L12.7498 23.6051L15.2838 26.6049C15.4619 26.8158 15.7239 26.9375 16 26.9375C16.276 26.9375 16.538 26.8158 16.7162 26.6049L20.3312 22.3251C20.905 21.6459 21.4635 21.0201 22.0156 20.4374H26.3825L17.5855 30.125H2.10552L2.32765 29.1226ZM20.1171 30.125L27.9764 21.4704L29.8945 30.125H20.1171Z" fill="white"/>
<path d="M14.5184 16.7331L15.5349 17.3139C15.679 17.3963 15.8395 17.4375 16 17.4375C16.1605 17.4375 16.3211 17.3963 16.4651 17.3139L17.4816 16.7331C19.2516 15.7217 20.7218 14.2515 21.7331 12.4816C22.1939 11.6753 22.4375 10.7581 22.4375 9.82931C22.4375 7.75231 20.7477 6.0625 18.6707 6.0625C17.6656 6.0625 16.7204 6.45363 16.0092 7.16375L16 7.17294L15.9908 7.16381C15.2796 6.45363 14.3344 6.0625 13.3293 6.0625C11.2523 6.0625 9.5625 7.75231 9.5625 9.82931C9.5625 10.7581 9.80606 11.6753 10.2669 12.4816C11.2782 14.2516 12.7484 15.7218 14.5184 16.7331ZM13.3293 7.9375C13.8341 7.9375 14.3088 8.13394 14.666 8.49063L15.3376 9.16119C15.7036 9.52656 16.2964 9.52662 16.6624 9.16119L17.3339 8.49063C17.6911 8.13394 18.1659 7.9375 18.6707 7.9375C19.7138 7.9375 20.5625 8.78619 20.5625 9.82931C20.5625 10.4323 20.4044 11.0278 20.1052 11.5513C19.2598 13.0308 18.0309 14.2597 16.5513 15.1052L16.0001 15.4202L15.4487 15.1052C13.9692 14.2598 12.7404 13.0309 11.8949 11.5513C11.5957 11.0278 11.4376 10.4323 11.4376 9.82931C11.4375 8.78619 12.2862 7.9375 13.3293 7.9375Z" fill="white"/>
</g>
<defs>
<clipPath id="clip0_2_4352">
<rect width="32" height="32" fill="white"/>
</clipPath>
</defs>
</svg>
