<svg width="32" height="32" viewBox="0 0 32 32" fill="none" xmlns="http://www.w3.org/2000/svg">
<g clip-path="url(#clip0_3101_314)">
<path d="M29.1875 18.8125H21.4284L31.7616 7.2497C32.1066 6.86364 32.0733 6.27095 31.6873 5.92595C31.3013 5.58095 30.7085 5.61427 30.3635 6.00027L18.9138 18.8125H13.0862L1.63656 6.00033C1.29156 5.6142 0.698875 5.58102 0.312813 5.92602C-0.07325 6.27102 -0.106562 6.86364 0.2385 7.24977L10.5716 18.8125H2.8125C1.26169 18.8125 0 20.0742 0 21.625V25.375C0 26.9258 1.26169 28.1875 2.8125 28.1875H29.1875C30.7383 28.1875 32 26.9258 32 25.375V21.625C32 20.0742 30.7384 18.8125 29.1875 18.8125ZM30.125 25.375C30.125 25.892 29.7044 26.3125 29.1875 26.3125H2.8125C2.29556 26.3125 1.875 25.892 1.875 25.375V21.625C1.875 21.1081 2.29556 20.6875 2.8125 20.6875H29.1875C29.7044 20.6875 30.125 21.1081 30.125 21.625V25.375Z" fill="#999797"/>
<path d="M17.875 24.4375C18.3928 24.4375 18.8125 24.0178 18.8125 23.5C18.8125 22.9822 18.3928 22.5625 17.875 22.5625C17.3572 22.5625 16.9375 22.9822 16.9375 23.5C16.9375 24.0178 17.3572 24.4375 17.875 24.4375Z" fill="#999797"/>
<path d="M21.625 24.4375C22.1428 24.4375 22.5625 24.0178 22.5625 23.5C22.5625 22.9822 22.1428 22.5625 21.625 22.5625C21.1072 22.5625 20.6875 22.9822 20.6875 23.5C20.6875 24.0178 21.1072 24.4375 21.625 24.4375Z" fill="#999797"/>
<path d="M25.375 24.4375C25.8928 24.4375 26.3125 24.0178 26.3125 23.5C26.3125 22.9822 25.8928 22.5625 25.375 22.5625C24.8572 22.5625 24.4375 22.9822 24.4375 23.5C24.4375 24.0178 24.8572 24.4375 25.375 24.4375Z" fill="#999797"/>
<path d="M23.1624 8.01119C23.5208 7.63756 23.5085 7.04413 23.135 6.68569C21.2038 4.83288 18.6698 3.8125 15.9998 3.8125C13.3297 3.8125 10.7957 4.83288 8.86464 6.68563C8.49101 7.04406 8.4787 7.6375 8.8372 8.01112C9.1957 8.38475 9.7892 8.397 10.1628 8.03856C11.743 6.52244 13.816 5.6875 15.9998 5.6875C18.1836 5.6875 20.2565 6.52244 21.8368 8.03862C22.2102 8.39687 22.8037 8.385 23.1624 8.01119Z" fill="#999797"/>
<path d="M20.5626 10.7096C20.9205 10.3355 20.9074 9.74206 20.5332 9.38412C19.3054 8.20944 17.6951 7.5625 15.9992 7.5625C14.3033 7.5625 12.6931 8.20944 11.4652 9.38412C11.0911 9.74206 11.078 10.3355 11.4358 10.7096C11.7938 11.0838 12.3872 11.0968 12.7613 10.739C13.6386 9.89969 14.7885 9.4375 15.9992 9.4375C17.2099 9.4375 18.3598 9.89969 19.2371 10.7389C19.6111 11.0967 20.2045 11.0839 20.5626 10.7096Z" fill="#999797"/>
<path d="M14.0717 12.0784C13.695 12.4336 13.6775 13.027 14.0328 13.4037C14.388 13.7804 14.9812 13.7979 15.358 13.4426C15.5325 13.2781 15.7608 13.1875 16.0009 13.1875C16.241 13.1875 16.4693 13.2781 16.6438 13.4427C17.0194 13.7969 17.6129 13.7816 17.969 13.4038C18.3243 13.0271 18.3068 12.4337 17.9301 12.0785C17.4063 11.5846 16.7212 11.3125 16.0009 11.3125C15.2807 11.3125 14.5955 11.5846 14.0717 12.0784Z" fill="#999797"/>
</g>
<defs>
<clipPath id="clip0_3101_314">
<rect width="32" height="32" fill="white"/>
</clipPath>
</defs>
</svg>
