<svg width="32" height="32" viewBox="0 0 32 32" fill="none" xmlns="http://www.w3.org/2000/svg">
<g clip-path="url(#clip0_67_244)">
<path d="M24.075 6.57352C23.9647 6.23414 23.6713 5.98677 23.3182 5.93546L18.5451 5.24189L16.4067 0.815332C16.2502 0.491457 15.9222 0.285645 15.5625 0.285645C15.2028 0.285645 14.8748 0.491457 14.7183 0.815332L12.58 5.24189L7.80683 5.93546C7.4537 5.98677 7.16027 6.23414 7.05008 6.57352C6.93977 6.91289 7.03177 7.28546 7.28733 7.53452L10.7448 10.9047L9.92852 15.6635C9.8682 16.0152 10.0128 16.3707 10.3015 16.5805C10.5901 16.7901 10.9728 16.8179 11.2888 16.6518L12.7238 15.8975C12.6037 19.3226 12.0899 21.7926 11.7019 23.2092L9.64108 23.8961C9.25827 24.0239 9.00002 24.3821 9.00002 24.7856V30.4106H8.06252C7.54477 30.4106 7.12502 30.8304 7.12502 31.3481C7.12502 31.8659 7.54477 32.2856 8.06252 32.2856H23.0625C23.5803 32.2856 24 31.8659 24 31.3481C24 30.8304 23.5803 30.4106 23.0625 30.4106H22.125V24.7856C22.125 24.3821 21.8668 24.0239 21.484 23.8963L19.4231 23.2093C19.0351 21.7926 18.5213 19.3227 18.4013 15.8976L19.8362 16.652C20.1553 16.8196 20.5376 16.7883 20.8235 16.5806C21.1122 16.3708 21.2568 16.0154 21.1965 15.6636L20.3803 10.9048L23.8377 7.53464C24.0933 7.28552 24.1853 6.91296 24.075 6.57352ZM20.25 30.4106H10.875V25.4614C12.4377 24.9405 14.622 24.2124 15.5625 23.8989C15.9984 24.0442 19.1999 25.1113 20.25 25.4614V30.4106ZM17.32 22.5083L15.859 22.0213C15.6666 21.9571 15.4585 21.9571 15.2661 22.0213L13.8051 22.5083C14.1929 20.7608 14.5863 18.1967 14.6222 14.8995L15.5625 14.4051L16.5028 14.8995C16.5387 18.1967 16.9321 20.7608 17.32 22.5083ZM18.7186 9.90614C18.4976 10.1215 18.3968 10.4318 18.449 10.736L19.0274 14.1083L15.9988 12.5161C15.8622 12.4443 15.7124 12.4085 15.5626 12.4085C15.4128 12.4085 15.2629 12.4443 15.1263 12.5161L12.0978 14.1083L12.6762 10.736C12.7284 10.4318 12.6276 10.1215 12.4066 9.90614L9.95645 7.51783L13.3425 7.02583C13.6506 6.98108 13.9165 6.78621 14.0519 6.50589L15.5625 3.37839L17.0733 6.50589C17.2088 6.78621 17.4746 6.98108 17.7827 7.02583L21.1688 7.51783L18.7186 9.90614Z" fill="white" fill-opacity="0.6"/>
<path d="M17.4375 26.6606H13.6875C13.1697 26.6606 12.75 27.0804 12.75 27.5981C12.75 28.1159 13.1697 28.5356 13.6875 28.5356H17.4375C17.9552 28.5356 18.375 28.1159 18.375 27.5981C18.375 27.0804 17.9552 26.6606 17.4375 26.6606Z" fill="white" fill-opacity="0.6"/>
<path d="M5.25 8.78564C5.25 8.26789 4.83025 7.84814 4.3125 7.84814H2.4375C1.91975 7.84814 1.5 8.26789 1.5 8.78564C1.5 9.30339 1.91975 9.72314 2.4375 9.72314H4.3125C4.83025 9.72314 5.25 9.30339 5.25 8.78564Z" fill="white" fill-opacity="0.6"/>
<path d="M28.6875 7.84814H26.8125C26.2947 7.84814 25.875 8.26789 25.875 8.78564C25.875 9.30339 26.2947 9.72314 26.8125 9.72314H28.6875C29.2053 9.72314 29.625 9.30339 29.625 8.78564C29.625 8.26789 29.2053 7.84814 28.6875 7.84814Z" fill="white" fill-opacity="0.6"/>
<path d="M4.81006 12.2244L3.07775 12.9419C2.59944 13.1401 2.37225 13.6885 2.57037 14.1669C2.76819 14.6445 3.31619 14.8727 3.79531 14.6742L5.52762 13.9567C6.00594 13.7586 6.23312 13.2102 6.035 12.7318C5.83687 12.2534 5.28837 12.0263 4.81006 12.2244Z" fill="white" fill-opacity="0.6"/>
<path d="M27.3296 2.89677L25.5973 3.61427C25.119 3.8124 24.8918 4.36084 25.0899 4.83921C25.2877 5.31684 25.8357 5.54502 26.3148 5.34659L28.0472 4.62909C28.5255 4.43096 28.7527 3.88252 28.5545 3.40415C28.3564 2.92577 27.8079 2.69871 27.3296 2.89677Z" fill="white" fill-opacity="0.6"/>
<path d="M28.0472 12.9419L26.3148 12.2244C25.8363 12.0263 25.288 12.2534 25.0899 12.7318C24.8918 13.2102 25.119 13.7586 25.5973 13.9567L27.3296 14.6742C27.8108 14.8734 28.3575 14.6425 28.5545 14.1669C28.7527 13.6885 28.5255 13.1401 28.0472 12.9419Z" fill="white" fill-opacity="0.6"/>
<path d="M5.52762 3.61427L3.79531 2.89677C3.31681 2.69871 2.7685 2.92577 2.57037 3.40415C2.37225 3.88252 2.59944 4.4309 3.07775 4.62909L4.81006 5.34659C5.29125 5.54577 5.83794 5.31484 6.035 4.83921C6.23312 4.36084 6.006 3.8124 5.52762 3.61427Z" fill="white" fill-opacity="0.6"/>
</g>
<defs>
<clipPath id="clip0_67_244">
<rect width="32" height="32" fill="white"/>
</clipPath>
</defs>
</svg>
