<svg width="32" height="32" viewBox="0 0 32 32" fill="none" xmlns="http://www.w3.org/2000/svg">
<g clip-path="url(#clip0_3101_439)">
<path d="M27.8483 17.1228C30.1376 17.1228 32 15.2604 32 12.9711V11.3679C32 10.8496 31.5798 10.4294 31.0615 10.4294C29.3472 10.4282 28.0872 10.2685 26.7141 11.4696L26.3827 9.86296L27.0642 9.69289C29.2854 9.13856 30.6413 6.88059 30.0871 4.65941L29.6989 3.10406C29.5734 2.60111 29.0639 2.29538 28.561 2.42065L27.0056 2.80885C24.8292 3.30448 23.3976 5.68828 23.9827 7.84226L24.3661 9.37872C25.0029 12.7174 26.1001 15.3975 24.3249 18.6638C23.4328 20.3182 21.9851 21.6256 20.2487 22.3451L17.6879 23.406C17.333 23.5536 17.0537 23.9499 17.1162 24.3924C17.3392 26.1789 17.3531 27.5195 18.8992 28.7399C19.7757 29.4198 20.8779 29.7143 21.9656 29.5729L23.5557 29.3692C24.0378 29.3074 24.3873 28.8903 24.3748 28.4147C24.3739 28.383 24.3715 28.3511 24.3674 28.3189C24.1444 26.5324 24.1305 25.1918 22.5844 23.9715C22.395 23.8251 22.1958 23.6965 21.9886 23.5864C22.4211 23.3467 22.8341 23.0752 23.2253 22.7759L24.328 23.4558C25.2736 24.04 26.3952 24.2163 27.4651 23.9614C29.3759 23.4883 29.9443 22.2688 30.8822 20.736C31.0523 20.4602 31.0624 20.1309 30.9384 19.8563C30.864 19.6915 30.7413 19.5464 30.5758 19.4444C29.2447 18.632 28.2904 17.8425 26.6505 18.0049C26.7487 17.7145 26.8337 17.4202 26.9049 17.1227H27.8483V17.1228ZM22.3018 26.9674L22.3862 27.6266L21.727 27.7111C21.1244 27.7881 20.5278 27.6261 20.0471 27.2547C19.5664 26.8831 19.2591 26.3466 19.1819 25.7439L19.0974 25.0848L19.7566 25.0003C20.3592 24.923 20.9558 25.0852 21.4366 25.4567C21.9172 25.8283 22.2245 26.3648 22.3018 26.9674ZM29.4584 12.3065H30.1229V12.9711C30.1229 14.2253 29.1025 15.2457 27.8483 15.2457H27.1838V14.5811C27.1838 13.3269 28.2042 12.3065 29.4584 12.3065ZM26.0609 5.66588C26.3737 5.1451 26.8706 4.77717 27.4601 4.63007L28.1048 4.46913L28.2657 5.11381C28.5694 6.33071 27.8264 7.56782 26.6096 7.87148L25.9648 8.03242L25.8039 7.38761C25.6569 6.79825 25.7481 6.18673 26.0609 5.66588ZM28.2261 20.201L28.7918 20.5498L28.443 21.1154C28.1242 21.6326 27.6231 21.9946 27.0319 22.1348C26.4407 22.275 25.8303 22.1767 25.3132 21.8578L24.7475 21.5091L25.0963 20.9435C25.7545 19.876 27.1587 19.5428 28.2261 20.201Z" fill="#999797"/>
<path d="M14.8896 24.2263C14.8748 23.9083 14.6747 23.551 14.3122 23.4058L11.7514 22.3449C10.0149 21.6254 8.56729 20.318 7.6752 18.6637C5.89916 15.3958 6.99836 12.7135 7.63397 9.37858C8.07554 7.63927 8.54076 6.3914 7.54843 4.69932C6.97746 3.74867 6.07048 3.07721 4.99456 2.80865L3.43914 2.42045C3.28196 2.38128 3.12416 2.38416 2.97761 2.42208C2.65524 2.50543 2.3875 2.75809 2.30121 3.1038L1.91301 4.65922C1.35869 6.88033 2.71475 9.13837 4.93587 9.69269L5.6174 9.86276L5.28596 11.4694C4.55368 10.8229 3.59307 10.4293 2.54167 10.4293H0.93858C0.420233 10.4293 0 10.8495 0 11.3679V12.971C0 15.2603 1.86245 17.1227 4.15171 17.1227H5.09505C5.17114 17.4405 5.26305 17.7548 5.36993 18.0646C3.74618 17.9161 2.79597 18.7052 1.4797 19.507C1.04652 19.7703 0.897345 20.3545 1.17329 20.7985C1.17335 20.7987 1.17347 20.7988 1.1736 20.799C2.11331 22.3344 2.67877 23.5497 4.59041 24.0239C5.66032 24.279 6.78199 24.1025 7.72751 23.5184L8.84524 22.8293C9.21554 23.1074 9.60486 23.3609 10.0114 23.5863C9.80434 23.6965 9.60499 23.825 9.41564 23.9714C7.86999 25.1904 7.85504 26.5357 7.63272 28.3189C7.62859 28.351 7.62615 28.3829 7.62533 28.4147C7.61288 28.8902 7.96241 29.3073 8.4444 29.3691C8.85268 29.4126 10.1843 29.6192 10.5706 29.6072C11.4838 29.6072 12.3665 29.3074 13.1009 28.7398C14.6468 27.5201 14.6613 26.1769 14.8839 24.3923C14.8857 24.3503 14.8937 24.3282 14.8896 24.2263ZM3.7343 5.1138L3.89523 4.46906L4.54004 4.63C5.75687 4.93372 6.49979 6.17077 6.19613 7.38761L6.03526 8.03235L5.39045 7.87141C4.17355 7.56775 3.43063 6.33064 3.7343 5.1138ZM1.87716 12.971V12.3064H2.54174C3.79593 12.3064 4.81629 13.3268 4.81629 14.581V15.2455H4.15171C2.89752 15.2455 1.87716 14.2252 1.87716 12.971ZM5.02372 22.1974C4.43254 22.0572 3.9314 21.6951 3.61259 21.1779L3.26382 20.6123L3.82947 20.2635C4.89707 19.6052 6.30119 19.9385 6.95932 21.006L7.30809 21.5716L6.74238 21.9204C6.22522 22.2393 5.61496 22.3377 5.02372 22.1974ZM11.953 27.2545C11.4723 27.6261 10.8755 27.7878 10.273 27.7109L9.61387 27.6264L9.69834 26.9673C9.82868 25.7514 11.0339 24.8197 12.2435 25.0002L12.9027 25.0847L12.8182 25.7438C12.741 26.3464 12.4337 26.8829 11.953 27.2545Z" fill="#999797"/>
<path d="M20.0425 20.0111C20.237 20.0111 20.4307 19.9507 20.5943 19.8319C20.8895 19.6173 21.0336 19.2512 20.9638 18.893L20.1833 14.8869L23.1695 12.1047C23.4365 11.856 23.5351 11.475 23.4224 11.128C23.3096 10.7809 23.0059 10.5307 22.6437 10.4864L18.5924 9.99074L16.8692 6.29086C16.5391 5.57216 15.4974 5.57247 15.1675 6.29086L13.4443 9.99074L9.39303 10.4864C9.0308 10.5307 8.72708 10.7809 8.61432 11.128C8.50157 11.475 8.60018 11.856 8.86718 12.1047L11.8534 14.8869L11.0728 18.893C11.0031 19.2512 11.1472 19.6173 11.4424 19.8319C11.7376 20.0464 12.1304 20.0703 12.4495 19.8932L16.0184 17.9129L19.5873 19.8932C19.7294 19.9721 19.8862 20.0111 20.0425 20.0111ZM16.4738 16.0187C16.1906 15.8616 15.8463 15.8616 15.563 16.0187L13.3008 17.2741L13.7955 14.7347C13.8575 14.4167 13.7511 14.0893 13.5141 13.8685L11.6212 12.1049L14.1892 11.7907C14.5108 11.7514 14.7893 11.549 14.9261 11.2553L16.0184 8.91013L17.1107 11.2553C17.2475 11.549 17.526 11.7514 17.8476 11.7907L20.4156 12.1049L18.5227 13.8685C18.2856 14.0892 18.1793 14.4167 18.2412 14.7347L18.736 17.2741L16.4738 16.0187Z" fill="#999797"/>
</g>
<defs>
<clipPath id="clip0_3101_439">
<rect width="32" height="32" fill="white"/>
</clipPath>
</defs>
</svg>
