<svg width="32" height="32" viewBox="0 0 32 32" fill="none" xmlns="http://www.w3.org/2000/svg">
<g clip-path="url(#clip0_2_5099)">
<path d="M28.4713 5.88062H7.93061C5.98404 5.88062 4.40041 7.46424 4.40041 9.41081V14.5123H1.01228C0.454028 14.5123 0.00146484 14.9649 0.00146484 15.5232C0.00146484 16.0814 0.454028 16.534 1.01228 16.534H4.40041V19.2481H2.70997C2.15172 19.2481 1.69916 19.7006 1.69916 20.2589C1.69916 20.8171 2.15172 21.2697 2.70997 21.2697H4.40035V22.5901C4.40035 24.5367 5.98398 26.1203 7.93054 26.1203H28.4713C30.4178 26.1203 32.0015 24.5367 32.0015 22.5901V9.41087C32.0015 7.46431 30.4179 5.88062 28.4713 5.88062ZM7.93061 7.90231H28.4713C28.8298 7.90231 29.1593 8.02824 29.4185 8.23787L19.6076 15.4371C18.7794 16.0448 17.6225 16.0448 16.7943 15.4371L6.98348 8.23787C7.24254 8.02824 7.5721 7.90231 7.93061 7.90231ZM29.9799 22.5901C29.9799 23.422 29.3032 24.0987 28.4713 24.0987H7.93061C7.09879 24.0987 6.42204 23.422 6.42204 22.5901V21.2697H10.2284C10.7867 21.2697 11.2392 20.8171 11.2392 20.2589C11.2392 19.7006 10.7867 19.2481 10.2284 19.2481H6.42204V10.3334L15.5983 17.0669C16.3646 17.6293 17.2826 17.9103 18.2009 17.9103C19.119 17.9103 20.0374 17.6292 20.8036 17.0669L29.9798 10.3334L29.9799 22.5901Z" fill="#F43900"/>
</g>
<defs>
<clipPath id="clip0_2_5099">
<rect width="32" height="32" fill="white"/>
</clipPath>
</defs>
</svg>
