<svg width="32" height="32" viewBox="0 0 32 32" fill="none" xmlns="http://www.w3.org/2000/svg">
<g clip-path="url(#clip0_3101_290)">
<path d="M31.9231 30.6885L26.2764 17.5142C26.1279 17.1682 25.7876 16.9438 25.4114 16.9438H21.8252C23.2766 14.4082 24.4702 11.6018 24.4702 9.22729C24.4702 -3.00074 7.52978 -3.14991 7.52978 9.22729C7.52978 11.6018 8.72339 14.4082 10.1748 16.9438H6.58862C6.21216 16.9438 5.87182 17.1682 5.72363 17.5142L0.0769011 30.6885C-0.188724 31.3081 0.266354 32.0002 0.941891 32.0002H31.0581C31.7322 32.0002 32.1892 31.3096 31.9231 30.6885ZM24.7905 18.8259L27.5769 25.3264C27.4897 25.3718 18.4209 30.0811 18.356 30.1182H16.386C16.3362 30.0625 16.7595 30.488 10.6257 24.355L14.0327 22.6113C14.7273 23.4978 15.2139 24.061 15.2898 24.1484C15.6648 24.5801 16.3354 24.5793 16.71 24.1484C16.8674 23.9673 18.7859 21.7444 20.6758 18.8259H24.7905ZM16 1.8872C19.1729 1.8872 22.5879 4.18432 22.5879 9.22729C22.5879 13.4675 17.8347 19.7778 16 22.0552C14.1653 19.7776 9.41211 13.4675 9.41211 9.22729C9.41211 4.15698 12.7207 1.8872 16 1.8872ZM7.20923 18.8259C11.7683 18.8259 11.2502 18.8267 11.3232 18.8245C11.8533 19.6431 12.3855 20.407 12.8806 21.0867L4.37426 25.4402L7.20923 18.8259ZM3.21338 28.1487L8.86523 25.2561L13.728 30.1182H2.36914L3.21338 28.1487ZM22.4351 30.1182L28.3206 27.061L29.6309 30.1182H22.4351Z" fill="#999797"/>
<path d="M18.8245 8.47461C18.8245 6.91797 17.5579 5.65137 16.0012 5.65137C14.4443 5.65137 13.1777 6.91797 13.1777 8.47461C13.1777 10.0313 14.4443 11.2976 16.0012 11.2976C17.5579 11.2976 18.8245 10.0313 18.8245 8.47461ZM15.0601 8.47461C15.0601 7.95557 15.4822 7.53345 16.0012 7.53345C16.52 7.53345 16.9424 7.95557 16.9424 8.47461C16.9424 8.99341 16.52 9.41553 16.0012 9.41553C15.4822 9.41553 15.0601 8.99341 15.0601 8.47461Z" fill="#999797"/>
</g>
<defs>
<clipPath id="clip0_3101_290">
<rect width="32" height="32" fill="white"/>
</clipPath>
</defs>
</svg>
