<svg width="32" height="32" viewBox="0 0 32 32" fill="none" xmlns="http://www.w3.org/2000/svg">
<g clip-path="url(#clip0_3101_390)">
<path d="M29.1886 5.13472C28.4083 3.18391 26.7255 1.71503 24.6871 1.20541L19.9774 0.0279699C19.6973 -0.0419676 19.4006 0.0209074 19.1731 0.198532C18.9455 0.376157 18.8125 0.648782 18.8125 0.93747C18.8125 2.48828 17.5508 3.74997 16 3.74997C14.4492 3.74997 13.1875 2.48828 13.1875 0.93747C13.1875 0.648782 13.0545 0.37622 12.8269 0.198532C12.5994 0.020845 12.3028 -0.0419676 12.0226 0.0279699L7.31289 1.20541C5.23101 1.72591 3.52489 3.19478 2.74776 5.13753L0.0659479 11.9045C-0.0291771 12.1446 -0.0211146 12.4132 0.0883229 12.6472C0.197698 12.881 0.39876 13.0595 0.64401 13.1403L5.68751 14.803V31.0625C5.68751 31.5802 6.10726 32 6.62501 32H25.375C25.8928 32 26.3125 31.5802 26.3125 31.0625V14.803L31.356 13.1403C31.6025 13.059 31.8043 12.8793 31.9133 12.6438C32.0223 12.4083 32.0288 12.1382 31.9313 11.8977L29.1886 5.13472ZM26.3125 12.8288V8.49997C26.3125 7.98222 25.8928 7.56247 25.375 7.56247C24.8573 7.56247 24.4375 7.98222 24.4375 8.49997V30.125H7.56251C7.56251 29.5322 7.56251 9.02566 7.56251 8.49997C7.56251 7.98222 7.14276 7.56247 6.62501 7.56247C6.10726 7.56247 5.68751 7.98222 5.68751 8.49997V12.8288L2.17545 11.671L4.48982 5.83109C5.03457 4.46916 6.29057 3.39372 7.7677 3.02447L11.4589 2.10166C11.9777 4.12509 13.8169 5.62497 16 5.62497C18.1831 5.62497 20.0223 4.12509 20.5412 2.10159L24.2324 3.02441C25.6884 3.38841 26.8904 4.43759 27.4494 5.83522L29.8171 11.6735L26.3125 12.8288Z" fill="#999797"/>
<path d="M22.2118 11.5187C21.9263 11.2896 21.5334 11.2477 21.2059 11.4114L18.2944 12.8672L16.8386 9.95575C16.6798 9.63813 16.3552 9.4375 16.0001 9.4375C15.6451 9.4375 15.3204 9.63813 15.1616 9.95575L13.7058 12.8672L10.7943 11.4114C10.4669 11.2477 10.074 11.2896 9.78845 11.5187C9.50282 11.7478 9.37676 12.1222 9.46551 12.4774L11.3405 19.9774C11.4449 20.3947 11.8199 20.6875 12.2501 20.6875H19.7501C20.1803 20.6875 20.5553 20.3947 20.6596 19.9774L22.5346 12.4774C22.6234 12.1222 22.4973 11.7478 22.2118 11.5187ZM19.0181 18.8125H12.9821L11.7789 14.0001L13.7058 14.9635C14.1689 15.1951 14.7321 15.0073 14.9636 14.5442L16.0001 12.4713L17.0366 14.5442C17.2681 15.0074 17.8313 15.1951 18.2944 14.9635L20.2213 14.0001L19.0181 18.8125Z" fill="#999797"/>
</g>
<defs>
<clipPath id="clip0_3101_390">
<rect width="32" height="32" fill="white"/>
</clipPath>
</defs>
</svg>
