<svg width="32" height="32" viewBox="0 0 32 32" fill="none" xmlns="http://www.w3.org/2000/svg">
<path d="M17.875 9.4375C18.3928 9.4375 18.8125 9.01777 18.8125 8.5C18.8125 7.98223 18.3928 7.5625 17.875 7.5625C17.3572 7.5625 16.9375 7.98223 16.9375 8.5C16.9375 9.01777 17.3572 9.4375 17.875 9.4375Z" fill="#F43900"/>
<path d="M21.625 9.4375C22.1428 9.4375 22.5625 9.01777 22.5625 8.5C22.5625 7.98223 22.1428 7.5625 21.625 7.5625C21.1072 7.5625 20.6875 7.98223 20.6875 8.5C20.6875 9.01777 21.1072 9.4375 21.625 9.4375Z" fill="#F43900"/>
<path d="M25.375 9.4375C25.8928 9.4375 26.3125 9.01777 26.3125 8.5C26.3125 7.98223 25.8928 7.5625 25.375 7.5625C24.8572 7.5625 24.4375 7.98223 24.4375 8.5C24.4375 9.01777 24.8572 9.4375 25.375 9.4375Z" fill="#F43900"/>
<path d="M21.0758 30.0625C22.6193 30.0625 23.875 28.8008 23.875 27.25V23.5C23.875 23.0967 23.6171 22.7386 23.2346 22.6108L17.6229 20.7358C17.3482 20.6441 17.0468 20.6844 16.8058 20.8449L14.4194 22.4359C11.8583 21.2206 8.83119 18.2204 7.62719 15.7048L9.21756 13.3192C9.37813 13.0783 9.41844 12.7767 9.32669 12.5021L7.45169 6.89038C7.32387 6.50788 6.96581 6.25 6.5625 6.25H2.8125C1.26169 6.25 0 7.50569 0 9.04919C0 14.229 2.35525 19.5452 6.46187 23.6346C10.564 27.7196 15.8906 30.0625 21.0758 30.0625ZM2.8125 8.125H5.88731L7.40294 12.661L5.7825 15.0916C5.61125 15.3485 5.57744 15.6732 5.69212 15.9598C6.31556 17.5184 7.56319 19.2713 9.20512 20.8958C10.8363 22.5094 12.5978 23.7434 14.1652 24.3704C14.4518 24.485 14.7766 24.4512 15.0334 24.28L17.4641 22.6596L22 24.1752V27.25C22 27.7757 21.5941 28.1875 21.0758 28.1875C11.2063 28.1875 1.875 18.8866 1.875 9.04919C1.875 8.53094 2.28681 8.125 2.8125 8.125Z" fill="#F43900"/>
<path d="M17.5163 18.7411C17.8665 18.8862 18.2698 18.806 18.5379 18.5379L22.0133 15.0625H25.375C29.028 15.0625 32 12.1186 32 8.5C32 4.88144 29.028 1.9375 25.375 1.9375H17.875C14.2564 1.9375 11.3125 4.88144 11.3125 8.5C11.3125 11.8003 13.7614 14.5394 16.9375 14.9958V17.875C16.9375 18.2542 17.1659 18.596 17.5163 18.7411ZM13.1875 8.5C13.1875 5.91531 15.2903 3.8125 17.875 3.8125H25.375C27.9941 3.8125 30.125 5.91531 30.125 8.5C30.125 11.0847 27.9941 13.1875 25.375 13.1875H21.625C21.3763 13.1875 21.1379 13.2863 20.9621 13.4621L18.8125 15.6117V14.125C18.8125 13.6073 18.3927 13.1875 17.875 13.1875C15.2903 13.1875 13.1875 11.0847 13.1875 8.5Z" fill="#F43900"/>
</svg>
