<svg width="32" height="32" viewBox="0 0 32 32" fill="none" xmlns="http://www.w3.org/2000/svg">
<g clip-path="url(#clip0_3123_246)">
<path d="M27.9833 0.9375C27.9833 0.41975 27.5626 0 27.0448 0C22.0843 0 17.8183 3.03006 16 7.3365C14.1817 3.03006 9.91551 0 4.95419 0C4.43644 0 4.01669 0.41975 4.01669 0.9375C4.01669 7.22963 8.89138 12.4045 15.0625 12.8843V19.0125C15.0625 19.5303 15.4823 19.95 16 19.95C16.5178 19.95 16.9375 19.5303 16.9375 19.0125V12.8843C23.1086 12.4045 27.9833 7.22963 27.9833 0.9375ZM5.93926 1.9225C10.7285 2.38744 14.55 6.20894 15.0149 10.9982C10.2261 10.5329 6.40463 6.71144 5.93926 1.9225ZM16.9851 10.9983C17.4499 6.20931 21.2712 2.38794 26.0608 1.92262C25.5953 6.7115 21.7739 10.5329 16.9851 10.9983Z" fill="#999797"/>
<path d="M10.1358 18.8516C8.96144 17.6773 7.08931 17.6592 5.89169 18.7613V14.9948C5.89169 12.2647 3.67031 10.0416 0.938563 10.0416H0.9375C0.41975 10.0416 0 10.4614 0 10.9791V23.0291C0 23.2778 0.0988125 23.5162 0.274625 23.692L6.025 29.4425V31.0625C6.025 31.5803 6.44475 32 6.9625 32H13.9917C14.5094 32 14.9292 31.5803 14.9292 31.0625V25.6973C14.9292 24.3738 14.4139 23.1297 13.4782 22.1941L10.1358 18.8516ZM13.0542 30.125H7.9V29.0542C7.9 28.8056 7.80119 28.5671 7.62537 28.3913L1.875 22.6408V12.0642C3.64637 12.6328 4.01669 14.2742 4.01669 14.9948V21.0209C4.01669 21.2696 4.1155 21.5079 4.29131 21.6838L8.308 25.7004C8.67412 26.0665 9.26775 26.0666 9.63381 25.7004C9.99994 25.3344 9.99994 24.7407 9.63381 24.3746L7.12337 21.8642C6.65737 21.3981 6.657 20.6439 7.12337 20.1775C7.58969 19.7112 8.34356 19.7111 8.81006 20.1775L12.1524 23.5199C12.734 24.1014 13.0542 24.8747 13.0542 25.6973L13.0542 30.125Z" fill="#999797"/>
<path d="M31.0625 10.0417C28.3307 10.0417 26.1084 12.2648 26.1084 14.9948V18.7614C24.9107 17.6593 23.0386 17.6774 21.8642 18.8517L18.5218 22.1941C17.5862 23.1297 17.0709 24.3739 17.0709 25.6973V31.0625C17.0709 31.5803 17.4906 32 18.0084 32H25.0375C25.5552 32 25.975 31.5803 25.975 31.0625V29.4425L31.7254 23.6921C31.9012 23.5162 32 23.2778 32 23.0292V10.9792C32 10.4614 31.5802 10.0417 31.0625 10.0417ZM30.125 22.6408L24.3746 28.3913C24.1988 28.5671 24.1 28.8055 24.1 29.0541V30.125H18.9458V25.6973C18.9458 24.8747 19.266 24.1014 19.8476 23.5199L23.19 20.1775C23.6565 19.7111 24.4104 19.7112 24.8767 20.1775C25.343 20.6439 25.3427 21.3981 24.8767 21.8642L22.3662 24.3746C22.0002 24.7407 22.0002 25.3343 22.3662 25.7004C22.7323 26.0666 23.3259 26.0665 23.692 25.7004L27.7087 21.6838C27.8845 21.5079 27.9834 21.2695 27.9834 21.0209V14.9948C27.9834 14.2742 28.3537 12.6328 30.125 12.0642L30.125 22.6408Z" fill="#999797"/>
</g>
<defs>
<clipPath id="clip0_3123_246">
<rect width="32" height="32" fill="white"/>
</clipPath>
</defs>
</svg>
