<svg width="32" height="32" viewBox="0 0 32 32" fill="none" xmlns="http://www.w3.org/2000/svg">
<path d="M10.9124 8.40825V0.9375C10.9124 0.41975 10.4927 0 9.97492 0H5.9583C5.44055 0 5.0208 0.41975 5.0208 0.9375V8.40825C0.906109 10.7431 1.00411 14.3939 1.00411 19.0125V31.0625C1.00411 31.5803 1.42386 32 1.94161 32H13.9916C14.5094 32 14.9291 31.5803 14.9291 31.0625V19.0125C14.9291 14.4414 15.0462 10.7539 10.9124 8.40825ZM13.0541 26.1083H6.8958V19.95H13.0541V26.1083ZM5.9583 18.075C5.44055 18.075 5.0208 18.4948 5.0208 19.0125V27.0458C5.0208 27.5636 5.44055 27.9833 5.9583 27.9833H13.0541V30.125H2.87911V19.0125C2.87911 14.0496 2.87911 11.5586 6.37755 9.80937C6.69517 9.65056 6.8958 9.32594 6.8958 8.97081V1.875H9.03748V8.97081C9.03748 9.32594 9.23811 9.6505 9.55573 9.80937C12.8265 11.4447 13.0393 13.7289 13.0532 18.075H5.9583Z" fill="#999797"/>
<path d="M30.9973 14.9957V10.979C30.9973 10.4613 30.5775 10.0415 30.0598 10.0415H18.0098C17.492 10.0415 17.0723 10.4613 17.0723 10.979V14.9957C17.0723 22.6968 20.5066 24.5846 23.0972 24.9124V30.1249H20.018C18.7741 30.1744 18.7751 31.9508 20.018 31.9999H28.0513C29.2952 31.9503 29.2943 30.1739 28.0513 30.1249H24.9721V24.9124C27.5629 24.5846 30.9973 22.6968 30.9973 14.9957ZM18.9473 11.9166H29.1223V14.0583H18.9473V11.9166ZM24.0348 23.0957C20.7486 23.0957 19.158 20.4753 18.9665 15.9332H29.1031C28.9119 20.4711 27.3236 23.0957 24.0348 23.0957Z" fill="#999797"/>
</svg>
