<svg width="20" height="21" viewBox="0 0 20 21" fill="none" xmlns="http://www.w3.org/2000/svg">
<path d="M10 0.571289C4.4772 0.571289 0 5.04849 0 10.5713C0 15.2609 3.2288 19.1961 7.5844 20.2769V13.6273H5.5224V10.5713H7.5844V9.25449C7.5844 5.85089 9.1248 4.27329 12.4664 4.27329C13.1 4.27329 14.1932 4.39769 14.6404 4.52169V7.29169C14.4044 7.26689 13.9944 7.25449 13.4852 7.25449C11.8456 7.25449 11.212 7.87569 11.212 9.49049V10.5713H14.4784L13.9172 13.6273H11.212V20.4981C16.1636 19.9001 20.0004 15.6841 20.0004 10.5713C20 5.04849 15.5228 0.571289 10 0.571289Z" fill="#F43900"/>
</svg>
