<svg width="20" height="21" viewBox="0 0 20 21" fill="none" xmlns="http://www.w3.org/2000/svg">
<g clip-path="url(#clip0_134_430)">
<path d="M10 2.37207C12.6719 2.37207 12.9883 2.38379 14.0391 2.43066C15.0156 2.47363 15.543 2.6377 15.8945 2.77441C16.3594 2.9541 16.6953 3.17285 17.043 3.52051C17.3945 3.87207 17.6094 4.2041 17.7891 4.66895C17.9258 5.02051 18.0898 5.55176 18.1328 6.52441C18.1797 7.5791 18.1914 7.89551 18.1914 10.5635C18.1914 13.2354 18.1797 13.5518 18.1328 14.6025C18.0898 15.5791 17.9258 16.1064 17.7891 16.458C17.6094 16.9229 17.3906 17.2588 17.043 17.6064C16.6914 17.958 16.3594 18.1729 15.8945 18.3525C15.543 18.4893 15.0117 18.6533 14.0391 18.6963C12.9844 18.7432 12.668 18.7549 10 18.7549C7.32813 18.7549 7.01172 18.7432 5.96094 18.6963C4.98438 18.6533 4.45703 18.4893 4.10547 18.3525C3.64063 18.1729 3.30469 17.9541 2.95703 17.6064C2.60547 17.2549 2.39063 16.9229 2.21094 16.458C2.07422 16.1064 1.91016 15.5752 1.86719 14.6025C1.82031 13.5479 1.80859 13.2314 1.80859 10.5635C1.80859 7.8916 1.82031 7.5752 1.86719 6.52441C1.91016 5.54785 2.07422 5.02051 2.21094 4.66895C2.39063 4.2041 2.60938 3.86816 2.95703 3.52051C3.30859 3.16895 3.64063 2.9541 4.10547 2.77441C4.45703 2.6377 4.98828 2.47363 5.96094 2.43066C7.01172 2.38379 7.32813 2.37207 10 2.37207ZM10 0.571289C7.28516 0.571289 6.94531 0.583008 5.87891 0.629883C4.81641 0.676758 4.08594 0.848633 3.45313 1.09473C2.79297 1.35254 2.23438 1.69238 1.67969 2.25098C1.12109 2.80566 0.78125 3.36426 0.523438 4.02051C0.277344 4.65723 0.105469 5.38379 0.0585938 6.44629C0.0117188 7.5166 0 7.85645 0 10.5713C0 13.2861 0.0117188 13.626 0.0585938 14.6924C0.105469 15.7549 0.277344 16.4854 0.523438 17.1182C0.78125 17.7783 1.12109 18.3369 1.67969 18.8916C2.23438 19.4463 2.79297 19.79 3.44922 20.0439C4.08594 20.29 4.8125 20.4619 5.875 20.5088C6.94141 20.5557 7.28125 20.5674 9.99609 20.5674C12.7109 20.5674 13.0508 20.5557 14.1172 20.5088C15.1797 20.4619 15.9102 20.29 16.543 20.0439C17.1992 19.79 17.7578 19.4463 18.3125 18.8916C18.8672 18.3369 19.2109 17.7783 19.4648 17.1221C19.7109 16.4854 19.8828 15.7588 19.9297 14.6963C19.9766 13.6299 19.9883 13.29 19.9883 10.5752C19.9883 7.86035 19.9766 7.52051 19.9297 6.4541C19.8828 5.3916 19.7109 4.66113 19.4648 4.02832C19.2188 3.36426 18.8789 2.80566 18.3203 2.25098C17.7656 1.69629 17.207 1.35254 16.5508 1.09863C15.9141 0.852539 15.1875 0.680664 14.125 0.633789C13.0547 0.583008 12.7148 0.571289 10 0.571289Z" fill="#F43900"/>
<path d="M10 5.43457C7.16406 5.43457 4.86328 7.73535 4.86328 10.5713C4.86328 13.4072 7.16406 15.708 10 15.708C12.8359 15.708 15.1367 13.4072 15.1367 10.5713C15.1367 7.73535 12.8359 5.43457 10 5.43457ZM10 13.9033C8.16016 13.9033 6.66797 12.4111 6.66797 10.5713C6.66797 8.73145 8.16016 7.23926 10 7.23926C11.8398 7.23926 13.332 8.73145 13.332 10.5713C13.332 12.4111 11.8398 13.9033 10 13.9033Z" fill="#F43900"/>
<path d="M16.5391 5.23145C16.5391 5.89551 16 6.43067 15.3398 6.43067C14.6758 6.43067 14.1406 5.8916 14.1406 5.23145C14.1406 4.56738 14.6797 4.03223 15.3398 4.03223C16 4.03223 16.5391 4.57129 16.5391 5.23145Z" fill="#F43900"/>
</g>
<defs>
<clipPath id="clip0_134_430">
<rect width="20" height="20" fill="white" transform="translate(0 0.571289)"/>
</clipPath>
</defs>
</svg>
