<svg width="20" height="21" viewBox="0 0 20 21" fill="none" xmlns="http://www.w3.org/2000/svg">
<path d="M18.5195 0.571289H1.47656C0.660156 0.571289 0 1.21582 0 2.0127V19.126C0 19.9229 0.660156 20.5713 1.47656 20.5713H18.5195C19.3359 20.5713 20 19.9229 20 19.1299V2.0127C20 1.21582 19.3359 0.571289 18.5195 0.571289ZM5.93359 17.6143H2.96484V8.06738H5.93359V17.6143ZM4.44922 6.7666C3.49609 6.7666 2.72656 5.99707 2.72656 5.04785C2.72656 4.09863 3.49609 3.3291 4.44922 3.3291C5.39844 3.3291 6.16797 4.09863 6.16797 5.04785C6.16797 5.99316 5.39844 6.7666 4.44922 6.7666ZM17.043 17.6143H14.0781V12.9736C14.0781 11.8682 14.0586 10.4424 12.5352 10.4424C10.9922 10.4424 10.7578 11.6494 10.7578 12.8955V17.6143H7.79688V8.06738H10.6406V9.37207H10.6797C11.0742 8.62207 12.043 7.8291 13.4844 7.8291C16.4883 7.8291 17.043 9.80566 17.043 12.376V17.6143V17.6143Z" fill="#F43900"/>
</svg>
