<svg width="20" height="15" viewBox="0 0 20 15" fill="none" xmlns="http://www.w3.org/2000/svg">
<path d="M19.8008 3.57129C19.8008 3.57129 19.6055 2.19238 19.0039 1.58691C18.2422 0.790039 17.3906 0.786133 17 0.739258C14.2031 0.536133 10.0039 0.536133 10.0039 0.536133H9.99609C9.99609 0.536133 5.79687 0.536133 3 0.739258C2.60938 0.786133 1.75781 0.790039 0.996094 1.58691C0.394531 2.19238 0.203125 3.57129 0.203125 3.57129C0.203125 3.57129 0 5.19238 0 6.80957V8.3252C0 9.94238 0.199219 11.5635 0.199219 11.5635C0.199219 11.5635 0.394531 12.9424 0.992187 13.5479C1.75391 14.3447 2.75391 14.3174 3.19922 14.4033C4.80078 14.5557 10 14.6025 10 14.6025C10 14.6025 14.2031 14.5947 17 14.3955C17.3906 14.3486 18.2422 14.3447 19.0039 13.5479C19.6055 12.9424 19.8008 11.5635 19.8008 11.5635C19.8008 11.5635 20 9.94629 20 8.3252V6.80957C20 5.19238 19.8008 3.57129 19.8008 3.57129ZM7.93359 10.165V4.54395L13.3359 7.36426L7.93359 10.165Z" fill="#F43900"/>
</svg>
