<svg width="23" height="22" viewBox="0 0 23 22" fill="none" xmlns="http://www.w3.org/2000/svg">
<path d="M11.7823 7.99583C11.6601 7.99583 11.5455 8.01493 11.4385 8.05313C11.3316 8.09132 11.2323 8.15625 11.1406 8.24792L6.92396 12.4646C6.7559 12.6326 6.67188 12.8465 6.67188 13.1062C6.67188 13.366 6.7559 13.5799 6.92396 13.7479C7.09201 13.916 7.3059 14 7.56563 14C7.82535 14 8.03924 13.916 8.20729 13.7479L11.7823 10.1729L15.3573 13.7479C15.5253 13.916 15.7392 14 15.999 14C16.2587 14 16.4726 13.916 16.6406 13.7479C16.8087 13.5799 16.8927 13.366 16.8927 13.1063C16.8927 12.8465 16.8087 12.6326 16.6406 12.4646L12.424 8.24792C12.3323 8.15625 12.233 8.09132 12.126 8.05313C12.0191 8.01493 11.9045 7.99583 11.7823 7.99583Z" fill="white"/>
</svg>
