<svg width="23" height="22" viewBox="0 0 23 22" fill="none" xmlns="http://www.w3.org/2000/svg">
<path d="M11.8917 14.0042C11.7694 14.0042 11.6549 13.9851 11.5479 13.9469C11.441 13.9087 11.3417 13.8437 11.25 13.7521L7.03333 9.53542C6.86528 9.36736 6.78125 9.15347 6.78125 8.89375C6.78125 8.63403 6.86528 8.42014 7.03333 8.25208C7.20139 8.08403 7.41528 8 7.675 8C7.93472 8 8.14861 8.08403 8.31667 8.25208L11.8917 11.8271L15.4667 8.25208C15.6347 8.08403 15.8486 8 16.1083 8C16.3681 8 16.5819 8.08403 16.75 8.25208C16.9181 8.42014 17.0021 8.63403 17.0021 8.89375C17.0021 9.15347 16.9181 9.36736 16.75 9.53542L12.5333 13.7521C12.4417 13.8437 12.3424 13.9087 12.2354 13.9469C12.1285 13.9851 12.0139 14.0042 11.8917 14.0042Z" fill="#F43900"/>
</svg>
