<svg width="23" height="22" viewBox="0 0 23 22" fill="none" xmlns="http://www.w3.org/2000/svg">
<path d="M11.8915 7.99583C12.0138 7.99583 12.1283 8.01493 12.2353 8.05312C12.3422 8.09132 12.4415 8.15625 12.5332 8.24792L16.7499 12.4646C16.9179 12.6326 17.002 12.8465 17.002 13.1062C17.002 13.366 16.9179 13.5799 16.7499 13.7479C16.5818 13.916 16.3679 14 16.1082 14C15.8485 14 15.6346 13.916 15.4665 13.7479L11.8915 10.1729L8.31654 13.7479C8.14848 13.916 7.93459 14 7.67487 14C7.41515 14 7.20126 13.916 7.0332 13.7479C6.86515 13.5799 6.78112 13.366 6.78112 13.1062C6.78112 12.8465 6.86515 12.6326 7.0332 12.4646L11.2499 8.24792C11.3415 8.15625 11.4408 8.09132 11.5478 8.05312C11.6547 8.01493 11.7693 7.99583 11.8915 7.99583Z" fill="#F43900"/>
</svg>
