<svg width="23" height="23" viewBox="0 0 23 23" fill="none" xmlns="http://www.w3.org/2000/svg">
<path d="M11.8917 14.777C11.7694 14.777 11.6549 14.7579 11.5479 14.7197C11.441 14.6815 11.3417 14.6166 11.25 14.5249L7.03333 10.3082C6.86528 10.1402 6.78125 9.9263 6.78125 9.66658C6.78125 9.40685 6.86528 9.19297 7.03333 9.02491C7.20139 8.85685 7.41528 8.77283 7.675 8.77283C7.93472 8.77283 8.14861 8.85685 8.31667 9.02491L11.8917 12.5999L15.4667 9.02491C15.6347 8.85685 15.8486 8.77283 16.1083 8.77283C16.3681 8.77283 16.5819 8.85685 16.75 9.02491C16.9181 9.19297 17.0021 9.40685 17.0021 9.66658C17.0021 9.9263 16.9181 10.1402 16.75 10.3082L12.5333 14.5249C12.4417 14.6166 12.3424 14.6815 12.2354 14.7197C12.1285 14.7579 12.0139 14.777 11.8917 14.777Z" fill="white"/>
</svg>
