<svg width="32" height="32" viewBox="0 0 32 32" fill="none" xmlns="http://www.w3.org/2000/svg">
<g clip-path="url(#clip0_2_4917)">
<path d="M31.0625 14.7172H29.1327V0.9375C29.1327 0.41975 28.713 0 28.1952 0H3.80475C3.287 0 2.86725 0.41975 2.86725 0.9375V14.7172H0.9375C0.41975 14.7172 0 15.1369 0 15.6547V19.411C0 19.9287 0.41975 20.3485 0.9375 20.3485H1.9375V31.0625C1.9375 31.5802 2.35725 32 2.875 32H29.125C29.6427 32 30.0625 31.5802 30.0625 31.0625V20.3484H31.0625C31.5802 20.3484 32 19.9287 32 19.4109V15.6546C32 15.1369 31.5802 14.7172 31.0625 14.7172ZM27.2577 14.7172H23.7569C19.7501 12.991 16.9375 9.00256 16.9375 4.3685V1.875H27.2577V14.7172ZM20.1172 14.7172H11.8828C13.6966 13.2974 15.13 11.4127 16 9.24294C16.87 11.4127 18.3034 13.2974 20.1172 14.7172ZM4.74225 1.875H15.0625V4.3685C15.0625 9.00256 12.2499 12.9911 8.24306 14.7172H4.74225V1.875ZM5.6875 20.3484V26.1811H3.8125V20.3484H5.6875ZM22.5625 26.1811V20.3484H24.4375V26.1811H22.5625ZM20.6875 26.1811H18.8125V20.3484H20.6875V26.1811ZM16.9375 26.1811H15.0625V20.3484H16.9375V26.1811ZM13.1875 26.1811H11.3125V20.3484H13.1875V26.1811ZM9.4375 26.1811H7.5625V20.3484H9.4375V26.1811ZM28.1875 30.125H3.8125V28.0561H28.1875V30.125ZM28.1875 26.1811H26.3125V20.3484H28.1875V26.1811ZM30.125 18.4734H1.875V16.5921H30.125V18.4734Z" fill="#F43900"/>
</g>
<defs>
<clipPath id="clip0_2_4917">
<rect width="32" height="32" fill="white"/>
</clipPath>
</defs>
</svg>
