<svg width="32" height="32" viewBox="0 0 32 32" fill="none" xmlns="http://www.w3.org/2000/svg">
<g clip-path="url(#clip0_2_4945)">
<path d="M31.0625 0H27.25C26.7323 0 26.3125 0.41975 26.3125 0.9375V3.75H16.9375V2.8125C16.9375 2.29475 16.5177 1.875 16 1.875H5.6875V0.9375C5.6875 0.41975 5.26775 0 4.75 0H0.9375C0.41975 0 0 0.41975 0 0.9375V31.0625C0 31.5802 0.41975 32 0.9375 32H4.75C5.26775 32 5.6875 31.5802 5.6875 31.0625V27.9681C5.96325 28.0672 6.27425 28.125 6.625 28.125C7.45425 28.125 8.06363 27.8053 8.5 27.3668C8.93637 27.8053 9.54575 28.125 10.375 28.125C11.2043 28.125 11.8136 27.8053 12.25 27.3668C12.6864 27.8053 13.2957 28.125 14.125 28.125C16.0736 28.125 16.8119 26.3624 16.9301 25.4304L16.9375 15H26.3125V31.0625C26.3125 31.5802 26.7323 32 27.25 32H31.0625C31.5802 32 32 31.5802 32 31.0625V0.9375C32 0.41975 31.5802 0 31.0625 0ZM3.8125 30.125H1.875V1.875H3.8125V30.125ZM15.0625 25.2346C15.0437 25.327 14.9864 25.5649 14.8597 25.7898C14.6313 26.1953 14.3601 26.25 14.125 26.25C13.8978 26.25 13.6353 26.1994 13.4101 25.8239C13.2292 25.5222 13.1796 25.1901 13.1791 25.1868L13.1801 25.1946L13.1792 25.1947C13.1269 24.7803 12.8014 24.4374 12.3679 24.3824C11.8541 24.3172 11.3851 24.6809 11.32 25.1946C11.3196 25.1975 11.2707 25.5041 11.1097 25.7899C10.8812 26.1953 10.6101 26.25 10.375 26.25C10.1478 26.25 9.88525 26.1994 9.66012 25.8239C9.47925 25.5223 9.42956 25.1901 9.42906 25.1868L9.43013 25.1946L9.42919 25.1947C9.37694 24.7803 9.05144 24.4374 8.61794 24.3824C8.10425 24.3172 7.63506 24.6809 7.57 25.1946C7.56963 25.1975 7.52069 25.5041 7.35975 25.7899C7.13125 26.1953 6.86013 26.25 6.625 26.25C6.39781 26.25 6.13525 26.1994 5.91012 25.8239C5.76894 25.5884 5.70781 25.335 5.6875 25.2333V3.75H7.5625V21.5625C7.5625 22.0802 7.98225 22.5 8.5 22.5C9.01775 22.5 9.4375 22.0802 9.4375 21.5625V3.75H11.3125V21.5625C11.3125 22.0802 11.7323 22.5 12.25 22.5C12.7677 22.5 13.1875 22.0802 13.1875 21.5625V3.75H15.0625V25.2346ZM16.9375 5.625H18.9737C18.8697 5.91844 18.8125 6.23387 18.8125 6.5625C18.8125 7.08025 19.2323 7.5 19.75 7.5C20.2677 7.5 20.6875 7.08025 20.6875 6.5625C20.6875 6.04556 21.1081 5.625 21.625 5.625C22.1419 5.625 22.5625 6.04556 22.5625 6.5625C22.5625 6.91194 22.3701 7.23025 22.0603 7.39325C21.2135 7.83881 20.6875 8.76138 20.6875 9.80094V9.81075L16.9375 12.3108V5.625ZM19.0964 13.125L21.625 11.4392L24.1536 13.125H19.0964ZM26.3125 12.3108L22.5625 9.81075V9.80094C22.5625 9.47 22.7116 9.16925 22.9334 9.05256C23.8611 8.56437 24.4375 7.61025 24.4375 6.5625C24.4375 6.23387 24.3803 5.91844 24.2763 5.625H26.3125V12.3108ZM30.125 30.125H28.1875V1.875H30.125V30.125Z" fill="white" fill-opacity="0.6"/>
</g>
<defs>
<clipPath id="clip0_2_4945">
<rect width="32" height="32" fill="white"/>
</clipPath>
</defs>
</svg>
