<svg width="32" height="32" viewBox="0 0 32 32" fill="none" xmlns="http://www.w3.org/2000/svg">
<g clip-path="url(#clip0_2_4931)">
<path d="M28.2985 30.9017L27.2882 25.1009C26.9842 23.355 25.5695 21.9954 23.6841 21.6373L20.8534 21.0995C21.8704 19.9534 22.4891 18.4464 22.4891 16.7973L22.4999 8.59044C23.7234 7.89119 24.5084 6.5745 24.5084 5.13344C24.5084 2.93963 22.7236 1.15488 20.5298 1.15488C20.1228 1.15488 19.7181 1.21769 19.3322 1.33913C18.442 0.480625 17.2619 0 16 0C14.738 0 13.5579 0.480625 12.6676 1.33913C12.2817 1.21769 11.877 1.15488 11.47 1.15488C9.27617 1.15488 7.49142 2.93969 7.49142 5.13344C7.49142 6.5745 8.27642 7.89119 9.49998 8.59044L9.51073 16.7973C9.51073 18.4459 10.1291 19.9526 11.1456 21.0986L8.31379 21.6369C6.42823 21.9954 5.01367 23.3555 4.70992 25.1019L3.70135 30.9019C3.65398 31.1745 3.72942 31.4542 3.90754 31.666C4.08567 31.8778 4.34829 32.0001 4.62498 32.0001H27.375C27.6517 32.0001 27.9144 31.8778 28.0925 31.6659C28.2706 31.4541 28.346 31.1743 28.2985 30.9017ZM11.3857 16.7972V15.0625H20.614L20.6142 16.7972C20.6142 19.3414 18.5442 21.4114 15.9999 21.4114C13.4557 21.4114 11.3857 19.3414 11.3857 16.7972ZM11.375 13.1875V11.3125H20.625V13.1875H11.375ZM9.36635 5.13344C9.36635 3.9735 10.31 3.02988 11.4699 3.02988C11.8257 3.02988 12.1631 3.11525 12.4728 3.28375C12.8785 3.50431 13.3846 3.39663 13.6652 3.02988C14.2268 2.29588 15.0778 1.875 16 1.875C16.9221 1.875 17.7731 2.29588 18.3346 3.02981C18.6153 3.39669 19.1213 3.50444 19.527 3.28369C19.8368 3.11525 20.1742 3.02981 20.5299 3.02981C21.6899 3.02981 22.6335 3.9735 22.6335 5.13338C22.6335 6.01737 22.0752 6.81281 21.2442 7.11275C20.8726 7.24687 20.625 7.59956 20.625 7.99456V9.42612H11.375V7.99456C11.375 7.59956 11.1274 7.24687 10.7558 7.11275C9.92473 6.81288 9.36635 6.01737 9.36635 5.13344ZM6.55729 25.4231C6.72854 24.4384 7.53579 23.6934 8.66404 23.4789L13.15 22.6261C13.5402 22.8176 13.952 22.9714 14.381 23.0819L11.4586 24.8184C11.1743 24.9873 11 25.2936 11 25.6244V30.1251H5.7396L6.55729 25.4231ZM12.8749 30.125V26.1577C12.8749 26.1577 18.773 22.6637 18.8479 22.627L23.3342 23.4792C24.4623 23.6936 25.2696 24.4382 25.441 25.4226L26.26 30.125H12.8749Z" fill="white" fill-opacity="0.6"/>
<path d="M16.3125 26.375H15.6875C15.1697 26.375 14.75 26.7947 14.75 27.3125C14.75 27.8303 15.1697 28.25 15.6875 28.25H16.3125C16.8303 28.25 17.25 27.8303 17.25 27.3125C17.25 26.7947 16.8303 26.375 16.3125 26.375Z" fill="white" fill-opacity="0.6"/>
</g>
<defs>
<clipPath id="clip0_2_4931">
<rect width="32" height="32" fill="white"/>
</clipPath>
</defs>
</svg>
