<svg width="32" height="32" viewBox="0 0 32 32" fill="none" xmlns="http://www.w3.org/2000/svg">
<path d="M25.5312 5.93778H23.9688V2.18691C23.9688 1.48709 23.6302 0.824469 23.0631 0.414406C22.4961 0.00434357 21.7607 -0.109719 21.0961 0.109531L5.7835 5.15991C4.88494 5.45634 4.28125 6.29122 4.28125 7.23734V24.7083V29.8125C4.28125 31.0187 5.26256 32 6.46875 32H25.5312C26.7374 32 27.7188 31.0187 27.7188 29.8125V8.12528C27.7188 6.91916 26.7374 5.93778 25.5312 5.93778ZM25.8438 29.8125C25.8438 29.9848 25.7036 30.125 25.5312 30.125H6.46875C6.29644 30.125 6.15625 29.9848 6.15625 29.8125V23.7709V8.12528C6.15625 7.95297 6.29644 7.81278 6.46875 7.81278H25.5312C25.7036 7.81278 25.8438 7.95297 25.8438 8.12528V29.8125ZM21.6834 1.89016C21.8154 1.84666 21.9161 1.89878 21.9644 1.93372C22.0128 1.96866 22.0938 2.04797 22.0938 2.18691V5.93784H9.41113L21.6834 1.89016Z" fill="white" fill-opacity="0.6"/>
<path d="M9.75 18.655H10.8864H22.25C22.7677 18.655 23.1875 18.2352 23.1875 17.7175C23.1875 17.1997 22.7677 16.78 22.25 16.78H21.9784C21.5743 14.1926 19.5249 12.1432 16.9375 11.739V11.2693C16.9375 10.7515 16.5177 10.3318 16 10.3318C15.4823 10.3318 15.0625 10.7515 15.0625 11.2693V11.739C12.4751 12.1432 10.4257 14.1926 10.0216 16.78H9.75C9.23225 16.78 8.8125 17.1997 8.8125 17.7175C8.8125 18.2352 9.23225 18.655 9.75 18.655ZM16 13.5413C17.9805 13.5413 19.6434 14.9272 20.0701 16.78H11.9299C12.3566 14.9272 14.0196 13.5413 16 13.5413Z" fill="white" fill-opacity="0.6"/>
<path d="M10.1138 21.1877C9.59602 21.1877 9.17627 21.6075 9.17627 22.1252C9.17627 22.643 9.59602 23.0627 10.1138 23.0627H14.6138C15.1315 23.0627 15.5513 22.643 15.5513 22.1252C15.5513 21.6075 15.1315 21.1877 14.6138 21.1877H10.1138Z" fill="white" fill-opacity="0.6"/>
<path d="M22.0156 24.9377H9.98438C9.46662 24.9377 9.04688 25.3575 9.04688 25.8752C9.04688 26.393 9.46662 26.8127 9.98438 26.8127H22.0156C22.5334 26.8127 22.9531 26.393 22.9531 25.8752C22.9531 25.3575 22.5334 24.9377 22.0156 24.9377Z" fill="white" fill-opacity="0.6"/>
</svg>
