<?xml version="1.0" encoding="utf-8"?>
<!-- Generator: Adobe Illustrator 20.0.0, SVG Export Plug-In . SVG Version: 6.00 Build 0)  -->
<svg version="1.1" id="Layer_1" xmlns="http://www.w3.org/2000/svg" xmlns:xlink="http://www.w3.org/1999/xlink" x="0px" y="0px"
	 viewBox="0 0 440.5 305.5" style="enable-background:new 0 0 440.5 305.5;" xml:space="preserve">
<style type="text/css">
	.st0{fill:#D1D3D4;stroke:#000000;stroke-width:5;stroke-miterlimit:10;}
	.st1{fill:#808285;stroke:#000000;stroke-miterlimit:10;}
	.st2{fill:none;stroke:#000000;stroke-miterlimit:10;}
	.st3{fill:#E6E7E8;stroke:#000000;stroke-width:2;stroke-miterlimit:10;}
	.st4{fill:#939598;stroke:#000000;stroke-width:2;stroke-miterlimit:10;}
	.st5{fill:none;stroke:#000000;stroke-width:2;stroke-miterlimit:10;}
	.st6{fill:none;stroke:#000000;stroke-width:1.5;stroke-miterlimit:10;}
	.st7{fill:#E6E7E8;stroke:#000000;stroke-miterlimit:10;}
	.st8{fill:#A7A9AC;stroke:#000000;stroke-width:2;stroke-miterlimit:10;}
	.st9{fill:#939598;stroke:#000000;stroke-width:1.5;stroke-miterlimit:10;}
	.st10{fill:#FFFFFF;}
	.st11{fill:#C2B59B;stroke:#000000;stroke-width:2;stroke-miterlimit:10;}
	.st12{fill:#FFFFFF;stroke:#000000;stroke-miterlimit:10;}
	.st13{fill:none;stroke:#FFFFFF;stroke-width:2;stroke-miterlimit:10;}
</style>
<path class="st0" d="M438,115.2h-11V2.5H181.8H111H29.7c-5.7,0-10.3,4.6-10.3,10.3v104.3v5.7v34.3H16c-7.4,0-13.5,6-13.5,13.5
	c0,7.4,6,13.5,13.5,13.5h3.4v26.1c0,0,0,2.1,0,3.2c0,30.1,24.4,54.5,54.5,54.5H109v16.3c0,10.4,8.4,18.8,18.8,18.8
	c10.4,0,18.8-8.4,18.8-18.8v-38.3h55.7H427v-1.7v-98h11V115.2z"/>
<rect x="22.5" y="32.9" class="st1" width="24.4" height="46.3"/>
<path class="st1" d="M34.7,160.8H16.1c-5.4,0-9.8,4.4-9.8,9.8c0,5.4,4.4,9.8,9.8,9.8h18.6c5.4,0,9.8-4.4,9.8-9.8
	C44.5,165.2,40.1,160.8,34.7,160.8z"/>
<path class="st1" d="M34.4,24.4V12.6c0-3.5-2.7-6.3-6-6.3c-3.3,0-6,2.8-6,6.3v11.9c0,3.5,2.7,6.3,6,6.3
	C31.7,30.7,34.4,27.9,34.4,24.4z"/>
<g>
	<path class="st1" d="M131.8,244.5v-50.2h-7.5v50.2c-6.3,1.7-11,7.4-11,14.3v25c0,12.2,11.5,14.8,14.8,14.8
		c8.2,0,14.8-6.6,14.8-14.8v-25C142.8,252,138.1,246.2,131.8,244.5z M129.8,278.2c0,2.2,0.4,4-1.8,4c-2.2,0-2.2-1.8-2.2-4v-16.7
		c0-2.2,0-4,2.2-4c2.2,0,1.8,1.8,1.8,4V278.2z"/>
	<g>
		<line class="st2" x1="113.2" y1="275" x2="125.7" y2="275"/>
		<line class="st2" x1="113.2" y1="273.2" x2="125.7" y2="273.2"/>
		<line class="st2" x1="113.2" y1="271.5" x2="125.7" y2="271.5"/>
		<line class="st2" x1="113.2" y1="269.7" x2="125.7" y2="269.7"/>
		<line class="st2" x1="113.2" y1="268" x2="125.7" y2="268"/>
		<line class="st2" x1="113.2" y1="266.2" x2="125.7" y2="266.2"/>
		<line class="st2" x1="113.2" y1="264.5" x2="125.7" y2="264.5"/>
		<line class="st2" x1="113.2" y1="262.7" x2="125.7" y2="262.7"/>
		<line class="st2" x1="113.2" y1="278.5" x2="125.7" y2="278.5"/>
		<line class="st2" x1="113.2" y1="261" x2="125.7" y2="261"/>
		<line class="st2" x1="113.2" y1="276.7" x2="125.7" y2="276.7"/>
	</g>
	<g>
		<line class="st2" x1="129.8" y1="275" x2="142.7" y2="275"/>
		<line class="st2" x1="129.8" y1="273.2" x2="142.7" y2="273.2"/>
		<line class="st2" x1="129.8" y1="271.5" x2="142.7" y2="271.5"/>
		<line class="st2" x1="129.8" y1="269.7" x2="142.7" y2="269.7"/>
		<line class="st2" x1="129.8" y1="268" x2="142.7" y2="268"/>
		<line class="st2" x1="129.8" y1="266.2" x2="142.7" y2="266.2"/>
		<line class="st2" x1="129.8" y1="264.5" x2="142.7" y2="264.5"/>
		<line class="st2" x1="129.8" y1="262.7" x2="142.7" y2="262.7"/>
		<line class="st2" x1="129.8" y1="278.5" x2="142.7" y2="278.5"/>
		<line class="st2" x1="129.8" y1="261" x2="142.7" y2="261"/>
		<line class="st2" x1="129.8" y1="276.7" x2="142.7" y2="276.7"/>
	</g>
</g>
<polygon class="st3" points="144.3,6.3 135.7,6.3 128,6.3 88.7,6.3 88.7,23.5 128,23.5 128,31.5 144.3,31.5 144.3,83.5 169.2,83.5 
	169.2,31.5 169.2,6.3 "/>
<rect x="144.3" y="86.5" class="st4" width="24.8" height="16.1"/>
<polygon class="st3" points="144.3,138.5 144.3,212.5 134.6,212.5 134.6,242.5 144.3,242.5 157.7,242.5 169.2,242.5 169.2,138.5 "/>
<path class="st1" d="M69,21.1H56.9c-1.6,0-2.9-1.2-2.9-2.7c0-1.5,1.3-2.7,2.9-2.7H69c1.3,0,2.5,0.8,2.8,2h14.4
	c-0.4-6.8-6.1-12.2-13-12.2H52.7c-7.2,0-13,5.8-13,13c0,7.2,5.8,13,13,13h20.5h15.4V19.2H71.8C71.5,20.3,70.3,21.1,69,21.1z"/>
<g>
	<line class="st2" x1="56.6" y1="5.6" x2="56.6" y2="15.8"/>
	<line class="st2" x1="58.4" y1="5.6" x2="58.4" y2="15.8"/>
	<line class="st2" x1="60.2" y1="5.6" x2="60.2" y2="15.8"/>
	<line class="st2" x1="62" y1="5.6" x2="62" y2="15.8"/>
	<line class="st2" x1="63.8" y1="5.6" x2="63.8" y2="15.8"/>
	<line class="st2" x1="65.6" y1="5.6" x2="65.6" y2="15.8"/>
	<line class="st2" x1="67.4" y1="5.6" x2="67.4" y2="15.8"/>
	<line class="st2" x1="69.2" y1="5.6" x2="69.2" y2="15.8"/>
</g>
<g>
	<line class="st2" x1="56.6" y1="21.1" x2="56.6" y2="31.3"/>
	<line class="st2" x1="58.4" y1="21.1" x2="58.4" y2="31.3"/>
	<line class="st2" x1="60.2" y1="21.1" x2="60.2" y2="31.3"/>
	<line class="st2" x1="62" y1="21.1" x2="62" y2="31.3"/>
	<line class="st2" x1="63.8" y1="21.1" x2="63.8" y2="31.3"/>
	<line class="st2" x1="65.6" y1="21.1" x2="65.6" y2="31.3"/>
	<line class="st2" x1="67.4" y1="21.1" x2="67.4" y2="31.3"/>
	<line class="st2" x1="69.2" y1="21.1" x2="69.2" y2="31.3"/>
</g>
<path d="M130.3,202.6c-3,0-5.4-2.2-5.4-4.9h0.3c0,2.5,2.3,4.6,5.1,4.6v-4.6h0.7v4.9L130.3,202.6z"/>
<path d="M151.4,80.9c0-4-3-7.2-6.6-7.2V74c3.4,0,6.2,3.1,6.2,6.9h-6.2v1h6.6L151.4,80.9z"/>
<line class="st2" x1="177.7" y1="135.8" x2="177.7" y2="105.5"/>
<line class="st2" x1="174.7" y1="135.8" x2="174.7" y2="105.5"/>
<polygon class="st5" points="424.3,242.5 171.8,242.5 171.8,6.3 424.3,6.3 424.3,49.5 424.3,195.5 "/>
<path class="st6" d="M172.5,105.5c1.8-45.6,10.3-83.2,21.7-99.3"/>
<path class="st6" d="M194.7,242.5c-12.3-16.4-21.3-57.5-22.5-106.8"/>
<path class="st6" d="M254.6,242.5c-15-17.7-25.7-64.1-25.7-118.5c0-53.7,10.4-99.6,25.1-117.8"/>
<path class="st6" d="M238,242.5c-13.2-17.7-22.6-64.1-22.6-118.5c0-53.7,9.2-99.6,22.1-117.8"/>
<path class="st6" d="M224.4,242.5c-13.2-17.7-22.6-64.1-22.6-118.5c0-53.7,9.2-99.6,22.1-117.8"/>
<path class="st6" d="M388.3,49.5v22.1H386v-4.1L310.3,23h-24.7v0c-26.6,0.5-43,44.4-43,98.2c0,77.7,32.5,103.3,43,104.3h24.7
	l75.7-36.2v-11.5h2.3v17.7h36v-146H388.3z"/>
<path class="st6" d="M380.7,64.5c-10.4,15.1-16.9,36.8-16.9,60.9c0,26.3,7.8,49.8,19.9,64.9"/>
<g>
	<path d="M310.3,227.8c0,3.4-2.5,6.1-5.6,6.1v-0.3c2.9,0,5.2-2.6,5.3-5.8h-5.2V227h5.5L310.3,227.8z"/>
	<path d="M310.3,239.8c0-3.4-2.5-6.1-5.6-6.1v0.3c2.9,0,5.2,2.6,5.3,5.8h-5.2v0.8h5.5L310.3,239.8z"/>
</g>
<g>
	<path d="M310.3,8.8c0,3.4-2.5,6.1-5.6,6.1v-0.3c2.9,0,5.2-2.6,5.3-5.8h-5.2V7.9h5.5L310.3,8.8z"/>
	<path d="M310.3,20.7c0-3.4-2.5-6.1-5.6-6.1V15c2.9,0,5.2,2.6,5.3,5.8h-5.2v0.8h5.5L310.3,20.7z"/>
</g>
<rect x="388.3" y="7.9" class="st2" width="34.5" height="39.7"/>
<rect x="388.3" y="211.9" class="st2" width="34.5" height="28.7"/>
<path class="st2" d="M388.3,197.2v13h34.5v-13H388.3z M412.6,205.3h-14c-0.9,0-1.6-0.7-1.6-1.6c0-0.9,0.7-1.6,1.6-1.6h14
	c0.9,0,1.6,0.7,1.6,1.6C414.2,204.5,413.5,205.3,412.6,205.3z"/>
<g>
	<line class="st2" x1="398.4" y1="197.2" x2="398.4" y2="202"/>
	<line class="st2" x1="400.4" y1="197.2" x2="400.4" y2="202"/>
	<line class="st2" x1="402.5" y1="197.2" x2="402.5" y2="202"/>
	<line class="st2" x1="404.6" y1="197.2" x2="404.6" y2="202"/>
	<line class="st2" x1="406.7" y1="197.2" x2="406.7" y2="202"/>
	<line class="st2" x1="408.8" y1="197.2" x2="408.8" y2="202"/>
	<line class="st2" x1="410.8" y1="197.2" x2="410.8" y2="202"/>
	<line class="st2" x1="412.9" y1="197.2" x2="412.9" y2="202"/>
</g>
<g>
	<line class="st2" x1="398.3" y1="205.3" x2="398.3" y2="210.1"/>
	<line class="st2" x1="400.4" y1="205.3" x2="400.4" y2="210.1"/>
	<line class="st2" x1="402.5" y1="205.3" x2="402.5" y2="210.1"/>
	<line class="st2" x1="404.5" y1="205.3" x2="404.5" y2="210.1"/>
	<line class="st2" x1="406.6" y1="205.3" x2="406.6" y2="210.1"/>
	<line class="st2" x1="408.7" y1="205.3" x2="408.7" y2="210.1"/>
	<line class="st2" x1="410.8" y1="205.3" x2="410.8" y2="210.1"/>
	<line class="st2" x1="412.9" y1="205.3" x2="412.9" y2="210.1"/>
</g>
<g>
	<polyline class="st6" points="311.1,227.5 371.6,227.5 371.6,226.3 315.4,226.3 338.2,215 386.8,215 386.8,240.6 311.1,240.6 	"/>
	<g>
		<line class="st2" x1="357.1" y1="215.3" x2="357.1" y2="226.3"/>
		<line class="st2" x1="359.2" y1="215.3" x2="359.2" y2="226.3"/>
		<line class="st2" x1="361.2" y1="215.3" x2="361.2" y2="226.3"/>
		<line class="st2" x1="363.3" y1="215.3" x2="363.3" y2="226.3"/>
		<line class="st2" x1="365.4" y1="215.3" x2="365.4" y2="226.3"/>
		<line class="st2" x1="367.4" y1="215.3" x2="367.4" y2="226.3"/>
		<line class="st2" x1="369.5" y1="215.3" x2="369.5" y2="226.3"/>
		<line class="st2" x1="371.6" y1="215.1" x2="371.6" y2="226.1"/>
		<line class="st2" x1="340.6" y1="215.3" x2="340.6" y2="226.3"/>
		<line class="st2" x1="342.6" y1="215.3" x2="342.6" y2="226.3"/>
		<line class="st2" x1="344.7" y1="215.3" x2="344.7" y2="226.3"/>
		<line class="st2" x1="346.8" y1="215.3" x2="346.8" y2="226.3"/>
		<line class="st2" x1="348.8" y1="215.3" x2="348.8" y2="226.3"/>
		<line class="st2" x1="350.9" y1="215.3" x2="350.9" y2="226.3"/>
		<line class="st2" x1="353" y1="215.3" x2="353" y2="226.3"/>
		<line class="st2" x1="355" y1="215.3" x2="355" y2="226.3"/>
	</g>
	<line class="st2" x1="357.1" y1="227.5" x2="357.1" y2="240.8"/>
	<line class="st2" x1="359.2" y1="227.5" x2="359.2" y2="240.8"/>
	<line class="st2" x1="361.2" y1="227.5" x2="361.2" y2="240.8"/>
	<line class="st2" x1="363.3" y1="227.5" x2="363.3" y2="240.8"/>
	<line class="st2" x1="365.4" y1="227.5" x2="365.4" y2="240.8"/>
	<line class="st2" x1="367.4" y1="227.5" x2="367.4" y2="240.8"/>
	<line class="st2" x1="369.5" y1="227.5" x2="369.5" y2="240.8"/>
	<line class="st2" x1="371.6" y1="227.5" x2="371.6" y2="240.8"/>
</g>
<g>
	<polyline class="st6" points="311.3,21.2 371.8,21.2 371.8,22.4 315.6,22.4 338.3,33.7 387,33.7 387,8.1 311.3,8.1 	"/>
	<g>
		<line class="st2" x1="357.3" y1="33.4" x2="357.3" y2="22.4"/>
		<line class="st2" x1="359.3" y1="33.4" x2="359.3" y2="22.4"/>
		<line class="st2" x1="361.4" y1="33.4" x2="361.4" y2="22.4"/>
		<line class="st2" x1="363.5" y1="33.4" x2="363.5" y2="22.4"/>
		<line class="st2" x1="365.5" y1="33.4" x2="365.5" y2="22.4"/>
		<line class="st2" x1="367.6" y1="33.4" x2="367.6" y2="22.4"/>
		<line class="st2" x1="369.7" y1="33.4" x2="369.7" y2="22.4"/>
		<line class="st2" x1="371.7" y1="33.6" x2="371.7" y2="22.6"/>
		<line class="st2" x1="340.7" y1="33.4" x2="340.7" y2="22.4"/>
		<line class="st2" x1="342.8" y1="33.4" x2="342.8" y2="22.4"/>
		<line class="st2" x1="344.9" y1="33.4" x2="344.9" y2="22.4"/>
		<line class="st2" x1="346.9" y1="33.4" x2="346.9" y2="22.4"/>
		<line class="st2" x1="349" y1="33.4" x2="349" y2="22.4"/>
		<line class="st2" x1="351.1" y1="33.4" x2="351.1" y2="22.4"/>
		<line class="st2" x1="353.1" y1="33.4" x2="353.1" y2="22.4"/>
		<line class="st2" x1="355.2" y1="33.4" x2="355.2" y2="22.4"/>
	</g>
	<line class="st2" x1="357.3" y1="21.2" x2="357.3" y2="7.9"/>
	<line class="st2" x1="359.3" y1="21.2" x2="359.3" y2="7.9"/>
	<line class="st2" x1="361.4" y1="21.2" x2="361.4" y2="7.9"/>
	<line class="st2" x1="363.5" y1="21.2" x2="363.5" y2="7.9"/>
	<line class="st2" x1="365.5" y1="21.2" x2="365.5" y2="7.9"/>
	<line class="st2" x1="367.6" y1="21.2" x2="367.6" y2="7.9"/>
	<line class="st2" x1="369.7" y1="21.2" x2="369.7" y2="7.9"/>
	<line class="st2" x1="371.7" y1="21.2" x2="371.7" y2="7.9"/>
</g>
<line class="st2" x1="186.6" y1="135.8" x2="186.6" y2="105.5"/>
<line class="st2" x1="183.6" y1="135.8" x2="183.6" y2="105.5"/>
<line class="st2" x1="180.6" y1="135.8" x2="180.6" y2="105.5"/>
<path class="st6" d="M172.2,135.8h16.6c1.2,49.3,10.2,90.3,22.5,106.8"/>
<path class="st6" d="M171.9,105.5H189c1.8-45.7,10.3-83.1,21.7-99.3"/>
<rect x="426.3" y="118" class="st7" width="9.2" height="25.5"/>
<path class="st8" d="M141.3,105.6V83.1V72.8h-1.4v-8.4h-0.9V46.9c0-6.6-5.3-11.9-11.9-11.9c-6.6,0-11.9,5.3-11.9,11.9v17.6h-1.9
	v18.7h-5.4v-7.4V60.3V32.9H86v8.8H73.1v-8.8H50v42.9h9.3v6H41c-10.2,0-18.5,8.3-18.5,18.5v40.8c0,10.2,8.3,18.5,18.5,18.5h18.3
	c2.4,0,4.4,2,4.4,4.4c0,0.3,0,0.6-0.1,0.9h44.4v-6.2h5.4v15.1h2.7v12.1c0,6.6,5.3,11.9,11.9,11.9c6.6,0,11.9-5.3,11.9-11.9v-12.1
	h1.4v-15.1v-23.1h27.9v-29.9H141.3z M62.2,144H40.9v-8.8h21.3c2.4,0,4.4,2,4.4,4.4C66.6,142,64.6,144,62.2,144z M62.2,107.8H40.9V99
	h21.3c2.4,0,4.4,2,4.4,4.4C66.6,105.8,64.6,107.8,62.2,107.8z"/>
<g>
	<g>
		<path d="M147.5,107.6c0,3.4,2.5,6.1,5.6,6.1v-0.3c-2.9,0-5.2-2.6-5.3-5.8h5.2v-0.8h-5.5L147.5,107.6z"/>
		<path d="M147.5,119.6c0-3.4,2.5-6.1,5.6-6.1v0.3c-2.9,0-5.2,2.6-5.3,5.8h5.2v0.8h-5.5L147.5,119.6z"/>
	</g>
	<g>
		<path d="M147.5,121.7c0,3.4,2.5,6.1,5.6,6.1v-0.3c-2.9,0-5.2-2.6-5.3-5.8h5.2v-0.8h-5.5L147.5,121.7z"/>
		<path d="M147.5,133.6c0-3.4,2.5-6.1,5.6-6.1v0.3c-2.9,0-5.2,2.6-5.3,5.8h5.2v0.8h-5.5L147.5,133.6z"/>
	</g>
</g>
<g>
	<path class="st9" d="M114.5,103.4c-0.1,0-0.2,0-0.3,0v-5.2H93.8c-2.3,0-4.2,1.9-4.2,4.2c0,2.3,1.9,4.2,4.2,4.2v29.4
		c-2.3,0-4.2,1.9-4.2,4.2s1.9,4.2,4.2,4.2h20.3v-4.2c0.1,0,0.2,0,0.3,0c2.5,0,4.5-1.9,4.5-4.2v-28.3
		C119,105.3,117,103.4,114.5,103.4z"/>
	<line class="st9" x1="114.1" y1="103.5" x2="114.1" y2="140.5"/>
	<line class="st9" x1="93.8" y1="106.6" x2="114.1" y2="106.6"/>
	<line class="st9" x1="93.8" y1="136.1" x2="114.1" y2="136.1"/>
	<line class="st9" x1="100.4" y1="106.6" x2="100.4" y2="136.1"/>
	<line class="st9" x1="106" y1="98.3" x2="106" y2="106.6"/>
	<line class="st9" x1="106" y1="136.1" x2="106" y2="144.4"/>
</g>
<line class="st6" x1="40.9" y1="104.8" x2="40.9" y2="135.8"/>
<line class="st6" x1="55.7" y1="107.7" x2="55.7" y2="135"/>
<line class="st6" x1="44.3" y1="107.9" x2="44.3" y2="135.2"/>
<line class="st6" x1="52.7" y1="107.9" x2="52.7" y2="135.2"/>
<g>
	<line class="st2" x1="40.9" y1="82.1" x2="40.9" y2="98.7"/>
	<line class="st2" x1="43.1" y1="82.1" x2="43.1" y2="98.7"/>
	<line class="st2" x1="45.4" y1="82.1" x2="45.4" y2="98.7"/>
	<line class="st2" x1="47.6" y1="82.1" x2="47.6" y2="98.7"/>
	<line class="st2" x1="49.9" y1="82.1" x2="49.9" y2="98.7"/>
	<line class="st2" x1="52.1" y1="82.1" x2="52.1" y2="98.7"/>
	<line class="st2" x1="54.4" y1="82.1" x2="54.4" y2="98.7"/>
	<line class="st2" x1="56.6" y1="82.1" x2="56.6" y2="98.7"/>
</g>
<g>
	<line class="st2" x1="22.5" y1="107.9" x2="40.9" y2="107.9"/>
	<line class="st2" x1="22.5" y1="105.7" x2="40.9" y2="105.7"/>
	<line class="st2" x1="22.5" y1="103.4" x2="40.9" y2="103.4"/>
	<line class="st2" x1="22.5" y1="101.2" x2="40.9" y2="101.2"/>
	<line class="st2" x1="22.5" y1="98.9" x2="40.9" y2="98.9"/>
</g>
<g>
	<line class="st2" x1="22.5" y1="144.1" x2="40.9" y2="144.1"/>
	<line class="st2" x1="22.5" y1="141.8" x2="40.9" y2="141.8"/>
	<line class="st2" x1="22.5" y1="139.6" x2="40.9" y2="139.6"/>
	<line class="st2" x1="22.5" y1="137.3" x2="40.9" y2="137.3"/>
	<line class="st2" x1="22.5" y1="135.1" x2="40.9" y2="135.1"/>
</g>
<g>
	<line class="st2" x1="40.9" y1="143.9" x2="40.9" y2="159.7"/>
	<line class="st2" x1="43.1" y1="143.9" x2="43.1" y2="159.7"/>
	<line class="st2" x1="45.4" y1="143.9" x2="45.4" y2="159.7"/>
	<line class="st2" x1="47.6" y1="143.9" x2="47.6" y2="159.7"/>
	<line class="st2" x1="49.9" y1="143.9" x2="49.9" y2="159.7"/>
	<line class="st2" x1="52.1" y1="143.9" x2="52.1" y2="159.7"/>
	<line class="st2" x1="54.4" y1="143.9" x2="54.4" y2="159.7"/>
	<line class="st2" x1="56.6" y1="143.9" x2="56.6" y2="159.7"/>
</g>
<path d="M82.5,34.9c-4,0-7.2,3-7.2,6.6h0.4c0-3.4,3.1-6.2,6.9-6.2v6.2h1v-6.6L82.5,34.9z"/>
<line class="st2" x1="73.9" y1="162.6" x2="94.3" y2="162.6"/>
<line class="st2" x1="73.9" y1="160.8" x2="94.3" y2="160.8"/>
<line class="st6" x1="73.9" y1="159.3" x2="73.9" y2="165"/>
<line class="st6" x1="94.3" y1="159.3" x2="94.3" y2="165"/>
<g>
	<path class="st10" d="M79.6,53.1c-0.2,0-0.4,0-0.5-0.1c-0.1-0.1-0.3-0.1-0.4-0.3c-0.1-0.1-0.2-0.3-0.3-0.4
		c-0.1-0.2-0.1-0.4-0.1-0.7v0c0-0.2,0-0.5,0.1-0.7s0.1-0.4,0.3-0.5c0.1-0.2,0.3-0.3,0.4-0.4s0.4-0.1,0.6-0.1c0.1,0,0.2,0,0.3,0
		c0.1,0,0.2,0,0.3,0.1c0.1,0,0.2,0.1,0.2,0.1s0.1,0.1,0.2,0.1l-0.4,0.5c-0.1,0-0.1-0.1-0.1-0.1c0,0-0.1-0.1-0.1-0.1
		c-0.1,0-0.1,0-0.2,0c-0.1,0-0.1,0-0.2,0c-0.1,0-0.2,0-0.3,0.1c-0.1,0-0.1,0.1-0.2,0.2c-0.1,0.1-0.1,0.1-0.1,0.2s-0.1,0.2-0.1,0.3
		c0.1-0.1,0.2-0.1,0.3-0.1s0.2-0.1,0.4-0.1s0.3,0,0.4,0.1c0.1,0,0.3,0.1,0.4,0.2c0.1,0.1,0.2,0.2,0.2,0.3c0.1,0.1,0.1,0.3,0.1,0.4v0
		c0,0.2,0,0.3-0.1,0.4s-0.1,0.2-0.3,0.3c-0.1,0.1-0.2,0.2-0.4,0.2C79.9,53.1,79.8,53.1,79.6,53.1z M79.6,52.5c0.2,0,0.3,0,0.4-0.1
		c0.1-0.1,0.1-0.2,0.1-0.3v0c0-0.1,0-0.2-0.1-0.3c-0.1-0.1-0.2-0.1-0.4-0.1c-0.2,0-0.3,0-0.4,0.1C79.1,51.8,79,51.9,79,52v0
		c0,0.1,0,0.2,0.1,0.3C79.3,52.4,79.4,52.5,79.6,52.5z"/>
	<path class="st10" d="M81.6,52.3h0.7V53h-0.7V52.3z"/>
	<path class="st10" d="M83,52.5l1-0.9c0.1-0.1,0.2-0.2,0.3-0.2c0.1-0.1,0.1-0.1,0.2-0.2c0-0.1,0.1-0.1,0.1-0.2c0-0.1,0-0.1,0-0.2
		c0-0.1,0-0.2-0.1-0.3c-0.1-0.1-0.2-0.1-0.3-0.1c-0.1,0-0.2,0-0.3,0.1s-0.2,0.2-0.3,0.3l-0.5-0.4c0.1-0.1,0.2-0.2,0.2-0.3
		c0.1-0.1,0.2-0.2,0.3-0.2c0.1-0.1,0.2-0.1,0.3-0.1c0.1,0,0.2,0,0.4,0c0.2,0,0.3,0,0.4,0.1c0.1,0,0.2,0.1,0.3,0.2s0.2,0.2,0.2,0.3
		c0.1,0.1,0.1,0.3,0.1,0.4v0c0,0.1,0,0.3-0.1,0.4c0,0.1-0.1,0.2-0.2,0.3s-0.2,0.2-0.3,0.3c-0.1,0.1-0.2,0.2-0.4,0.3L84,52.4h1.4V53
		H83V52.5z"/>
	<path class="st10" d="M86.1,50.6h0.7V51c0-0.1,0.1-0.1,0.1-0.1s0.1-0.1,0.2-0.1s0.1-0.1,0.2-0.1c0.1,0,0.1,0,0.2,0
		c0.2,0,0.3,0,0.4,0.1c0.1,0.1,0.2,0.2,0.3,0.3c0.1-0.1,0.2-0.2,0.4-0.3c0.1-0.1,0.3-0.1,0.4-0.1c0.3,0,0.5,0.1,0.6,0.2
		c0.1,0.2,0.2,0.4,0.2,0.7V53h-0.7v-1.3c0-0.2,0-0.3-0.1-0.4c-0.1-0.1-0.2-0.1-0.3-0.1s-0.2,0-0.3,0.1s-0.1,0.2-0.1,0.4V53h-0.7
		v-1.3c0-0.2,0-0.3-0.1-0.4c-0.1-0.1-0.2-0.1-0.3-0.1s-0.2,0-0.3,0.1c-0.1,0.1-0.1,0.2-0.1,0.4V53h-0.7V50.6z"/>
</g>
<path class="st11" d="M118.9,204.6c0-11-11.4-20.5-10.9-30.4l0-9.3H57.4l0.1,12.1c0,5.3,0,5.3-4,5.3l0,4.5c0,0,0.1,0,0.1,0
	c1.2,0,2.1,0.9,2.1,2.1c0,1.2-1,2.1-2.1,2.1c-1.2,0-2.1-0.9-2.1-2.1c0-0.1,0-0.2,0-0.3l-11.5-3.3v21.6H40c1.2,23.4,20.1,42,43.1,42
	c7.1,0,21.4,0,21.4,0l-3.7-12.4C100.8,236.7,118.9,226.9,118.9,204.6z"/>
<path class="st2" d="M37.6,185.5v22.5h0.1c1.3,24.4,20.9,43.7,44.8,43.7c7.4,0,22.2,0,22.2,0"/>
<path class="st12" d="M85.5,260.5c0.6-2.1,1-7.7,1-8.4v-10.6c0-0.9-0.6-1.7-1.4-1.7c-0.8,0-1.4,0.7-1.4,1.7v10.6
	c0,0.7,0.4,6.4,1,8.4H85.5z"/>
<path class="st12" d="M58.7,253.3c1.5-1.5,4.7-6.2,5-6.9l5.2-9.3c0.5-0.8,0.3-1.8-0.4-2.2c-0.7-0.4-1.6,0-2.1,0.8l-5.2,9.3
	c-0.4,0.7-2.7,5.8-3.2,7.8L58.7,253.3z"/>
<path class="st12" d="M38.2,233.8c2.1-0.6,7.2-3.1,7.8-3.5l9.2-5.5c0.8-0.5,1.1-1.4,0.7-2.1c-0.4-0.7-1.4-0.8-2.2-0.4l-9.2,5.5
	c-0.6,0.4-5.3,3.7-6.8,5.2L38.2,233.8z"/>
<path class="st12" d="M30.1,206.8c2.1,0.6,7.8,1,8.5,1h10.7c0.9,0,1.7-0.6,1.7-1.4c0-0.8-0.8-1.4-1.7-1.4H38.6c-0.8,0-6.4,0.4-8.5,1
	V206.8z"/>
<g>
	<path class="st10" d="M61,197.5c-0.3,0-0.6-0.1-0.8-0.2c-0.3-0.1-0.5-0.3-0.7-0.4c-0.2-0.2-0.3-0.4-0.5-0.7s-0.2-0.5-0.2-0.9v0
		c0-0.3,0.1-0.6,0.2-0.8s0.3-0.5,0.5-0.7c0.2-0.2,0.4-0.3,0.7-0.5s0.6-0.2,0.9-0.2c0.2,0,0.4,0,0.6,0.1c0.2,0,0.3,0.1,0.5,0.2
		c0.1,0.1,0.3,0.2,0.4,0.3s0.2,0.2,0.3,0.3l-0.9,0.7c-0.1-0.1-0.2-0.3-0.4-0.4c-0.1-0.1-0.3-0.1-0.5-0.1c-0.1,0-0.3,0-0.4,0.1
		c-0.1,0.1-0.2,0.1-0.3,0.2c-0.1,0.1-0.2,0.2-0.2,0.3c0,0.1-0.1,0.3-0.1,0.4v0c0,0.2,0,0.3,0.1,0.4c0,0.1,0.1,0.3,0.2,0.4
		s0.2,0.2,0.3,0.2c0.1,0.1,0.3,0.1,0.4,0.1c0.1,0,0.2,0,0.3,0s0.2-0.1,0.2-0.1c0.1,0,0.1-0.1,0.2-0.2c0.1-0.1,0.1-0.1,0.2-0.2
		l0.9,0.6c-0.1,0.1-0.2,0.3-0.3,0.4s-0.2,0.2-0.4,0.3c-0.1,0.1-0.3,0.1-0.5,0.2C61.5,197.4,61.3,197.5,61,197.5z"/>
	<path class="st10" d="M63.7,193.3h1.2v4.1h-1.2V193.3z"/>
	<path class="st10" d="M66.9,194.3h-1.2v-1h3.6v1H68v3.1h-1.1V194.3z"/>
	<path class="st10" d="M71.3,195.8l-1.6-2.6H71l0.9,1.5l0.9-1.5H74l-1.6,2.6v1.6h-1.2V195.8z"/>
	<path class="st10" d="M76.2,193.3h1.3l0.9,2.6l0.9-2.6h1.3l-1.7,4.2h-1.1L76.2,193.3z"/>
	<path class="st10" d="M81.4,193.3h1.2v4.1h-1.2V193.3z"/>
	<path class="st10" d="M83.6,193.3h3.3v1h-2.2v0.6h2v0.9h-2v0.7h2.2v1h-3.3V193.3z"/>
	<path class="st10" d="M87.5,193.3h1.2l0.7,2.4l0.8-2.4h1l0.8,2.4l0.7-2.4H94l-1.4,4.2h-1l-0.8-2.4l-0.8,2.4h-1L87.5,193.3z"/>
	<path class="st10" d="M62.9,200.3h1.1v3.1h2v1h-3.1V200.3z"/>
	<path class="st10" d="M68.9,204.6c-0.3,0-0.6-0.1-0.9-0.2s-0.5-0.3-0.7-0.5c-0.2-0.2-0.4-0.4-0.5-0.7s-0.2-0.5-0.2-0.8v0
		c0-0.3,0.1-0.6,0.2-0.8s0.3-0.5,0.5-0.7c0.2-0.2,0.4-0.3,0.7-0.5s0.6-0.2,0.9-0.2c0.3,0,0.6,0.1,0.9,0.2s0.5,0.3,0.7,0.5
		c0.2,0.2,0.4,0.4,0.5,0.7s0.2,0.5,0.2,0.8v0c0,0.3-0.1,0.6-0.2,0.8s-0.3,0.5-0.5,0.7c-0.2,0.2-0.4,0.3-0.7,0.5
		S69.3,204.6,68.9,204.6z M69,203.5c0.2,0,0.3,0,0.4-0.1c0.1-0.1,0.2-0.1,0.3-0.2s0.2-0.2,0.2-0.4c0.1-0.1,0.1-0.3,0.1-0.4v0
		c0-0.1,0-0.3-0.1-0.4c-0.1-0.1-0.1-0.3-0.2-0.4s-0.2-0.2-0.3-0.2c-0.1-0.1-0.3-0.1-0.4-0.1s-0.3,0-0.4,0.1
		c-0.1,0.1-0.2,0.1-0.3,0.2c-0.1,0.1-0.2,0.2-0.2,0.4c0,0.1-0.1,0.3-0.1,0.4v0c0,0.1,0,0.3,0.1,0.4c0.1,0.1,0.1,0.3,0.2,0.4
		s0.2,0.2,0.3,0.2C68.6,203.5,68.8,203.5,69,203.5z"/>
	<path class="st10" d="M73.9,204.6c-0.3,0-0.6,0-0.8-0.1c-0.2-0.1-0.4-0.2-0.6-0.3c-0.2-0.2-0.3-0.4-0.4-0.6
		c-0.1-0.2-0.1-0.5-0.1-0.8v-2.3h1.2v2.3c0,0.3,0.1,0.5,0.2,0.7s0.3,0.2,0.6,0.2s0.4-0.1,0.5-0.2s0.2-0.4,0.2-0.6v-2.3h1.2v2.3
		c0,0.3,0,0.6-0.1,0.9c-0.1,0.2-0.2,0.4-0.4,0.6c-0.2,0.2-0.4,0.3-0.6,0.3C74.5,204.5,74.2,204.6,73.9,204.6z"/>
	<path class="st10" d="M76.8,200.3h1.1l1.7,2.2v-2.2h1.1v4.1h-1l-1.8-2.3v2.3h-1.1V200.3z"/>
	<path class="st10" d="M83.9,204.6c-0.3,0-0.6-0.1-0.9-0.2c-0.3-0.1-0.5-0.3-0.7-0.4c-0.2-0.2-0.4-0.4-0.5-0.7s-0.2-0.6-0.2-0.9v0
		c0-0.3,0.1-0.6,0.2-0.8c0.1-0.3,0.3-0.5,0.5-0.7c0.2-0.2,0.4-0.3,0.7-0.5s0.6-0.2,0.9-0.2c0.4,0,0.7,0.1,0.9,0.2s0.5,0.3,0.7,0.4
		l-0.7,0.8c-0.1-0.1-0.3-0.2-0.5-0.3c-0.2-0.1-0.3-0.1-0.5-0.1c-0.1,0-0.3,0-0.4,0.1c-0.1,0.1-0.2,0.1-0.3,0.2
		c-0.1,0.1-0.2,0.2-0.2,0.4c-0.1,0.1-0.1,0.3-0.1,0.4v0c0,0.2,0,0.3,0.1,0.5c0.1,0.1,0.1,0.3,0.2,0.4c0.1,0.1,0.2,0.2,0.4,0.2
		c0.1,0.1,0.3,0.1,0.5,0.1c0.3,0,0.5-0.1,0.7-0.2v-0.5h-0.8v-0.8h1.9v1.9c-0.2,0.2-0.5,0.3-0.8,0.5
		C84.6,204.5,84.3,204.6,83.9,204.6z"/>
	<path class="st10" d="M86.6,200.3h3.3v1h-2.2v0.6h2v0.9h-2v0.7H90v1h-3.3V200.3z"/>
</g>
<line class="st2" x1="73.9" y1="174.1" x2="94.3" y2="174.1"/>
<line class="st2" x1="73.9" y1="172.3" x2="94.3" y2="172.3"/>
<line class="st2" x1="73.9" y1="170.5" x2="94.3" y2="170.5"/>
<line class="st2" x1="73.9" y1="168.7" x2="94.3" y2="168.7"/>
<line class="st2" x1="73.9" y1="166.9" x2="94.3" y2="166.9"/>
<line class="st6" x1="73.9" y1="164.9" x2="73.9" y2="176.5"/>
<line class="st6" x1="94.3" y1="164.9" x2="94.3" y2="176.5"/>
<g>
	<g>
		<line class="st13" x1="98" y1="171" x2="98" y2="243.2"/>
		<g>
			<polygon class="st10" points="94.3,173.8 98,172.2 101.7,173.8 98,165 			"/>
		</g>
		<g>
			<polygon class="st10" points="94.3,240.3 98,241.9 101.7,240.3 98,249.1 			"/>
		</g>
	</g>
</g>
<g>
	<g>
		<line class="st13" x1="46.3" y1="210.5" x2="112.6" y2="210.5"/>
		<g>
			<polygon class="st10" points="49.1,214.2 47.5,210.5 49.1,206.8 40.3,210.5 			"/>
		</g>
		<g>
			<polygon class="st10" points="109.7,214.2 111.3,210.5 109.7,206.8 118.5,210.5 			"/>
		</g>
	</g>
</g>
<g>
	<path class="st10" d="M83.7,228c-0.2,0-0.4,0-0.6-0.1s-0.3-0.2-0.4-0.3l0.4-0.5c0.1,0.1,0.2,0.2,0.3,0.2c0.1,0,0.2,0.1,0.4,0.1
		c0.2,0,0.3-0.1,0.4-0.2s0.2-0.3,0.2-0.5c-0.1,0.1-0.2,0.1-0.3,0.2c-0.1,0-0.2,0.1-0.4,0.1c-0.2,0-0.3,0-0.5-0.1
		c-0.1,0-0.3-0.1-0.4-0.2c-0.1-0.1-0.2-0.2-0.2-0.3c-0.1-0.1-0.1-0.3-0.1-0.4v0c0-0.2,0-0.3,0.1-0.4c0.1-0.1,0.1-0.3,0.2-0.3
		c0.1-0.1,0.2-0.2,0.4-0.2c0.1-0.1,0.3-0.1,0.5-0.1c0.1,0,0.2,0,0.3,0s0.2,0,0.2,0.1s0.1,0.1,0.2,0.1c0.1,0,0.1,0.1,0.2,0.2
		c0.1,0.1,0.1,0.1,0.2,0.2c0,0.1,0.1,0.2,0.1,0.3c0,0.1,0.1,0.2,0.1,0.3c0,0.1,0,0.3,0,0.4v0c0,0.3,0,0.5-0.1,0.7
		c-0.1,0.2-0.1,0.4-0.3,0.5c-0.1,0.1-0.3,0.3-0.4,0.4S83.9,228,83.7,228z M83.8,226.3c0.2,0,0.3,0,0.4-0.1c0.1-0.1,0.1-0.2,0.1-0.3
		v0c0-0.1,0-0.3-0.1-0.3c-0.1-0.1-0.2-0.1-0.4-0.1c-0.2,0-0.3,0-0.4,0.1s-0.1,0.2-0.1,0.3v0c0,0.1,0,0.3,0.1,0.3
		S83.6,226.3,83.8,226.3z"/>
	<path class="st10" d="M85.8,227.2h0.7v0.7h-0.7V227.2z"/>
	<path class="st10" d="M87.3,227.4l1-0.9c0.1-0.1,0.2-0.2,0.3-0.2c0.1-0.1,0.1-0.1,0.2-0.2c0-0.1,0.1-0.1,0.1-0.2c0-0.1,0-0.1,0-0.2
		c0-0.1,0-0.2-0.1-0.3c-0.1-0.1-0.2-0.1-0.3-0.1c-0.1,0-0.2,0-0.3,0.1s-0.2,0.2-0.3,0.3l-0.5-0.4c0.1-0.1,0.2-0.2,0.2-0.3
		c0.1-0.1,0.2-0.2,0.3-0.2c0.1-0.1,0.2-0.1,0.3-0.1c0.1,0,0.2,0,0.4,0c0.2,0,0.3,0,0.4,0.1c0.1,0,0.2,0.1,0.3,0.2s0.2,0.2,0.2,0.3
		c0.1,0.1,0.1,0.3,0.1,0.4v0c0,0.1,0,0.3-0.1,0.4c0,0.1-0.1,0.2-0.2,0.3s-0.2,0.2-0.3,0.3c-0.1,0.1-0.2,0.2-0.4,0.3l-0.5,0.4h1.4
		v0.6h-2.3V227.4z"/>
	<path class="st10" d="M90.4,225.6h0.7v0.3c0-0.1,0.1-0.1,0.1-0.1s0.1-0.1,0.2-0.1s0.1-0.1,0.2-0.1c0.1,0,0.1,0,0.2,0
		c0.2,0,0.3,0,0.4,0.1c0.1,0.1,0.2,0.2,0.3,0.3c0.1-0.1,0.2-0.2,0.4-0.3c0.1-0.1,0.3-0.1,0.4-0.1c0.3,0,0.5,0.1,0.6,0.2
		c0.1,0.2,0.2,0.4,0.2,0.7v1.6h-0.7v-1.3c0-0.2,0-0.3-0.1-0.4c-0.1-0.1-0.2-0.1-0.3-0.1s-0.2,0-0.3,0.1s-0.1,0.2-0.1,0.4v1.3h-0.7
		v-1.3c0-0.2,0-0.3-0.1-0.4c-0.1-0.1-0.2-0.1-0.3-0.1s-0.2,0-0.3,0.1c-0.1,0.1-0.1,0.2-0.1,0.4v1.3h-0.7V225.6z"/>
</g>
<g>
	<path class="st10" d="M103.6,217.1c-0.2,0-0.4,0-0.6-0.1s-0.3-0.2-0.4-0.3l0.4-0.5c0.1,0.1,0.2,0.2,0.3,0.2c0.1,0,0.2,0.1,0.4,0.1
		c0.2,0,0.3-0.1,0.4-0.2s0.2-0.3,0.2-0.5c-0.1,0.1-0.2,0.1-0.3,0.2c-0.1,0-0.2,0.1-0.4,0.1c-0.2,0-0.3,0-0.5-0.1
		c-0.1,0-0.3-0.1-0.4-0.2c-0.1-0.1-0.2-0.2-0.2-0.3c-0.1-0.1-0.1-0.3-0.1-0.4v0c0-0.2,0-0.3,0.1-0.4c0.1-0.1,0.1-0.3,0.2-0.3
		c0.1-0.1,0.2-0.2,0.4-0.2c0.1-0.1,0.3-0.1,0.5-0.1c0.1,0,0.2,0,0.3,0s0.2,0,0.2,0.1s0.1,0.1,0.2,0.1c0.1,0,0.1,0.1,0.2,0.2
		c0.1,0.1,0.1,0.1,0.2,0.2c0,0.1,0.1,0.2,0.1,0.3c0,0.1,0.1,0.2,0.1,0.3c0,0.1,0,0.3,0,0.4v0c0,0.3,0,0.5-0.1,0.7
		c-0.1,0.2-0.1,0.4-0.3,0.5c-0.1,0.1-0.3,0.3-0.4,0.4S103.8,217.1,103.6,217.1z M103.7,215.4c0.2,0,0.3,0,0.4-0.1
		c0.1-0.1,0.1-0.2,0.1-0.3v0c0-0.1,0-0.3-0.1-0.3c-0.1-0.1-0.2-0.1-0.4-0.1c-0.2,0-0.3,0-0.4,0.1s-0.1,0.2-0.1,0.3v0
		c0,0.1,0,0.3,0.1,0.3S103.6,215.4,103.7,215.4z"/>
	<path class="st10" d="M105.7,216.3h0.7v0.7h-0.7V216.3z"/>
	<path class="st10" d="M108.3,217.1c-0.2,0-0.4,0-0.6-0.1s-0.3-0.2-0.4-0.3l0.4-0.5c0.1,0.1,0.2,0.2,0.3,0.2c0.1,0,0.2,0.1,0.4,0.1
		c0.2,0,0.3-0.1,0.4-0.2s0.2-0.3,0.2-0.5c-0.1,0.1-0.2,0.1-0.3,0.2c-0.1,0-0.2,0.1-0.4,0.1c-0.2,0-0.3,0-0.5-0.1
		c-0.1,0-0.3-0.1-0.4-0.2c-0.1-0.1-0.2-0.2-0.2-0.3c-0.1-0.1-0.1-0.3-0.1-0.4v0c0-0.2,0-0.3,0.1-0.4c0.1-0.1,0.1-0.3,0.2-0.3
		c0.1-0.1,0.2-0.2,0.4-0.2c0.1-0.1,0.3-0.1,0.5-0.1c0.1,0,0.2,0,0.3,0s0.2,0,0.2,0.1s0.1,0.1,0.2,0.1c0.1,0,0.1,0.1,0.2,0.2
		c0.1,0.1,0.1,0.1,0.2,0.2c0,0.1,0.1,0.2,0.1,0.3c0,0.1,0.1,0.2,0.1,0.3c0,0.1,0,0.3,0,0.4v0c0,0.3,0,0.5-0.1,0.7
		c-0.1,0.2-0.1,0.4-0.3,0.5c-0.1,0.1-0.3,0.3-0.4,0.4S108.5,217.1,108.3,217.1z M108.4,215.4c0.2,0,0.3,0,0.4-0.1
		c0.1-0.1,0.1-0.2,0.1-0.3v0c0-0.1,0-0.3-0.1-0.3c-0.1-0.1-0.2-0.1-0.4-0.1c-0.2,0-0.3,0-0.4,0.1s-0.1,0.2-0.1,0.3v0
		c0,0.1,0,0.3,0.1,0.3S108.3,215.4,108.4,215.4z"/>
	<path class="st10" d="M110.5,214.6h0.7v0.3c0-0.1,0.1-0.1,0.1-0.1s0.1-0.1,0.2-0.1s0.1-0.1,0.2-0.1c0.1,0,0.1,0,0.2,0
		c0.2,0,0.3,0,0.4,0.1c0.1,0.1,0.2,0.2,0.3,0.3c0.1-0.1,0.2-0.2,0.4-0.3c0.1-0.1,0.3-0.1,0.4-0.1c0.3,0,0.5,0.1,0.6,0.2
		c0.1,0.2,0.2,0.4,0.2,0.7v1.6h-0.7v-1.3c0-0.2,0-0.3-0.1-0.4c-0.1-0.1-0.2-0.1-0.3-0.1s-0.2,0-0.3,0.1s-0.1,0.2-0.1,0.4v1.3H112
		v-1.3c0-0.2,0-0.3-0.1-0.4c-0.1-0.1-0.2-0.1-0.3-0.1s-0.2,0-0.3,0.1c-0.1,0.1-0.1,0.2-0.1,0.4v1.3h-0.7V214.6z"/>
</g>
</svg>
