<?xml version="1.0" encoding="utf-8"?>
<!-- Generator: Adobe Illustrator 20.0.0, SVG Export Plug-In . SVG Version: 6.00 Build 0)  -->
<svg version="1.1" id="Layer_1" xmlns="http://www.w3.org/2000/svg" xmlns:xlink="http://www.w3.org/1999/xlink" x="0px" y="0px"
	 viewBox="0 0 440.5 305.5" style="enable-background:new 0 0 440.5 305.5;" xml:space="preserve">
<style type="text/css">
	.st0{fill:#D1D3D4;stroke:#000000;stroke-width:5;stroke-miterlimit:10;}
	.st1{fill:#808285;stroke:#000000;stroke-miterlimit:10;}
	.st2{fill:none;stroke:#000000;stroke-miterlimit:10;}
	.st3{fill:#E6E7E8;stroke:#000000;stroke-width:2;stroke-miterlimit:10;}
	.st4{fill:#939598;stroke:#000000;stroke-width:2;stroke-miterlimit:10;}
	.st5{fill:none;stroke:#000000;stroke-width:2;stroke-miterlimit:10;}
	.st6{fill:none;stroke:#000000;stroke-width:1.5;stroke-miterlimit:10;}
	.st7{fill:#E6E7E8;stroke:#000000;stroke-miterlimit:10;}
	.st8{fill:#C2B59B;stroke:#000000;stroke-width:2;stroke-miterlimit:10;}
	.st9{fill:#BCBEC0;stroke:#000000;stroke-width:2;stroke-miterlimit:10;}
	.st10{fill:none;stroke:#000000;stroke-width:3;stroke-miterlimit:10;}
	.st11{fill:none;stroke:#000000;stroke-miterlimit:10;stroke-dasharray:4;}
	.st12{fill:none;stroke:#FFFFFF;stroke-width:2;stroke-miterlimit:10;}
	.st13{fill:#FFFFFF;}
</style>
<path class="st0" d="M438,115.2h-11V2.5H181.8H111H29.7c-5.7,0-10.3,4.6-10.3,10.3v104.3v5.7v34.3H16c-7.4,0-13.5,6-13.5,13.5
	c0,7.4,6,13.5,13.5,13.5h3.4v26.1c0,0,0,2.1,0,3.2c0,30.1,24.4,54.5,54.5,54.5H109v16.3c0,10.4,8.4,18.8,18.8,18.8
	c10.4,0,18.8-8.4,18.8-18.8v-38.3h55.7H427v-1.7v-98h11V115.2z"/>
<rect x="22.5" y="32.9" class="st1" width="24.4" height="46.3"/>
<path class="st1" d="M34.7,160.8H16.1c-5.4,0-9.8,4.4-9.8,9.8c0,5.4,4.4,9.8,9.8,9.8h18.6c5.4,0,9.8-4.4,9.8-9.8
	C44.5,165.2,40.1,160.8,34.7,160.8z"/>
<path class="st1" d="M34.4,24.4V12.6c0-3.5-2.7-6.3-6-6.3c-3.3,0-6,2.8-6,6.3v11.9c0,3.5,2.7,6.3,6,6.3
	C31.7,30.7,34.4,27.9,34.4,24.4z"/>
<g>
	<path class="st1" d="M131.8,244.5v-50.2h-7.5v50.2c-6.3,1.7-11,7.4-11,14.3v25c0,12.2,11.5,14.8,14.8,14.8
		c8.2,0,14.8-6.6,14.8-14.8v-25C142.8,252,138.1,246.2,131.8,244.5z M129.8,278.2c0,2.2,0.4,4-1.8,4c-2.2,0-2.2-1.8-2.2-4v-16.7
		c0-2.2,0-4,2.2-4c2.2,0,1.8,1.8,1.8,4V278.2z"/>
	<g>
		<line class="st2" x1="113.2" y1="275" x2="125.7" y2="275"/>
		<line class="st2" x1="113.2" y1="273.2" x2="125.7" y2="273.2"/>
		<line class="st2" x1="113.2" y1="271.5" x2="125.7" y2="271.5"/>
		<line class="st2" x1="113.2" y1="269.7" x2="125.7" y2="269.7"/>
		<line class="st2" x1="113.2" y1="268" x2="125.7" y2="268"/>
		<line class="st2" x1="113.2" y1="266.2" x2="125.7" y2="266.2"/>
		<line class="st2" x1="113.2" y1="264.5" x2="125.7" y2="264.5"/>
		<line class="st2" x1="113.2" y1="262.7" x2="125.7" y2="262.7"/>
		<line class="st2" x1="113.2" y1="278.5" x2="125.7" y2="278.5"/>
		<line class="st2" x1="113.2" y1="261" x2="125.7" y2="261"/>
		<line class="st2" x1="113.2" y1="276.7" x2="125.7" y2="276.7"/>
	</g>
	<g>
		<line class="st2" x1="129.8" y1="275" x2="142.7" y2="275"/>
		<line class="st2" x1="129.8" y1="273.2" x2="142.7" y2="273.2"/>
		<line class="st2" x1="129.8" y1="271.5" x2="142.7" y2="271.5"/>
		<line class="st2" x1="129.8" y1="269.7" x2="142.7" y2="269.7"/>
		<line class="st2" x1="129.8" y1="268" x2="142.7" y2="268"/>
		<line class="st2" x1="129.8" y1="266.2" x2="142.7" y2="266.2"/>
		<line class="st2" x1="129.8" y1="264.5" x2="142.7" y2="264.5"/>
		<line class="st2" x1="129.8" y1="262.7" x2="142.7" y2="262.7"/>
		<line class="st2" x1="129.8" y1="278.5" x2="142.7" y2="278.5"/>
		<line class="st2" x1="129.8" y1="261" x2="142.7" y2="261"/>
		<line class="st2" x1="129.8" y1="276.7" x2="142.7" y2="276.7"/>
	</g>
</g>
<polygon class="st3" points="144.3,6.3 135.7,6.3 128,6.3 88.7,6.3 88.7,23.5 128,23.5 128,31.5 144.3,31.5 144.3,83.5 169.2,83.5 
	169.2,31.5 169.2,6.3 "/>
<rect x="144.3" y="86.5" class="st4" width="24.8" height="16.1"/>
<polygon class="st3" points="144.3,138.5 144.3,212.5 134.6,212.5 134.6,242.5 144.3,242.5 157.7,242.5 169.2,242.5 169.2,138.5 "/>
<path class="st1" d="M69,21.1H56.9c-1.6,0-2.9-1.2-2.9-2.7c0-1.5,1.3-2.7,2.9-2.7H69c1.3,0,2.5,0.8,2.8,2h14.4
	c-0.4-6.8-6.1-12.2-13-12.2H52.7c-7.2,0-13,5.8-13,13c0,7.2,5.8,13,13,13h20.5h15.4V19.2H71.8C71.5,20.3,70.3,21.1,69,21.1z"/>
<g>
	<line class="st2" x1="56.6" y1="5.6" x2="56.6" y2="15.8"/>
	<line class="st2" x1="58.4" y1="5.6" x2="58.4" y2="15.8"/>
	<line class="st2" x1="60.2" y1="5.6" x2="60.2" y2="15.8"/>
	<line class="st2" x1="62" y1="5.6" x2="62" y2="15.8"/>
	<line class="st2" x1="63.8" y1="5.6" x2="63.8" y2="15.8"/>
	<line class="st2" x1="65.6" y1="5.6" x2="65.6" y2="15.8"/>
	<line class="st2" x1="67.4" y1="5.6" x2="67.4" y2="15.8"/>
	<line class="st2" x1="69.2" y1="5.6" x2="69.2" y2="15.8"/>
</g>
<g>
	<line class="st2" x1="56.6" y1="21.1" x2="56.6" y2="31.3"/>
	<line class="st2" x1="58.4" y1="21.1" x2="58.4" y2="31.3"/>
	<line class="st2" x1="60.2" y1="21.1" x2="60.2" y2="31.3"/>
	<line class="st2" x1="62" y1="21.1" x2="62" y2="31.3"/>
	<line class="st2" x1="63.8" y1="21.1" x2="63.8" y2="31.3"/>
	<line class="st2" x1="65.6" y1="21.1" x2="65.6" y2="31.3"/>
	<line class="st2" x1="67.4" y1="21.1" x2="67.4" y2="31.3"/>
	<line class="st2" x1="69.2" y1="21.1" x2="69.2" y2="31.3"/>
</g>
<g>
	<path d="M144.4,224.7h0.8l0.7,1.1l0.7-1.1h0.8v2.8h-0.8v-1.6l-0.7,1.1h0l-0.7-1.1v1.6h-0.8V224.7z"/>
	<path d="M148.1,224.7h2.2v0.7h-1.5v0.4h1.3v0.6h-1.3v0.4h1.5v0.7h-2.3V224.7z"/>
	<path d="M150.9,224.7h0.7l1.2,1.5v-1.5h0.8v2.8h-0.7l-1.2-1.5v1.5h-0.8V224.7z"/>
	<path d="M154.1,225.8c0.1,0,0.2-0.1,0.3-0.1c0.1-0.1,0.1-0.2,0.1-0.3h-0.3v-0.8h0.8v0.6c0,0.1,0,0.3-0.1,0.4c0,0.1-0.1,0.2-0.2,0.2
		c-0.1,0.1-0.2,0.1-0.3,0.1c-0.1,0-0.2,0-0.3,0.1L154.1,225.8z"/>
	<path d="M156.7,227.5c-0.3,0-0.5,0-0.7-0.1c-0.2-0.1-0.4-0.2-0.6-0.4l0.4-0.5c0.3,0.2,0.6,0.3,0.9,0.3c0.1,0,0.2,0,0.2,0
		c0.1,0,0.1-0.1,0.1-0.1v0c0,0,0-0.1,0-0.1c0,0,0,0-0.1-0.1c0,0-0.1,0-0.1-0.1c-0.1,0-0.1,0-0.2-0.1c-0.1,0-0.3-0.1-0.4-0.1
		c-0.1,0-0.2-0.1-0.3-0.2s-0.2-0.1-0.2-0.2c-0.1-0.1-0.1-0.2-0.1-0.4v0c0-0.1,0-0.3,0.1-0.4c0-0.1,0.1-0.2,0.2-0.3s0.2-0.1,0.3-0.2
		c0.1,0,0.3-0.1,0.5-0.1c0.2,0,0.5,0,0.6,0.1c0.2,0.1,0.4,0.2,0.5,0.3l-0.4,0.5c-0.1-0.1-0.3-0.2-0.4-0.2s-0.3-0.1-0.4-0.1
		c-0.1,0-0.2,0-0.2,0.1c0,0-0.1,0.1-0.1,0.1v0c0,0,0,0.1,0,0.1c0,0,0,0,0.1,0.1c0,0,0.1,0,0.1,0.1c0.1,0,0.1,0,0.2,0.1
		c0.2,0,0.3,0.1,0.4,0.1c0.1,0,0.2,0.1,0.3,0.2s0.2,0.1,0.2,0.2s0.1,0.2,0.1,0.3v0c0,0.1,0,0.3-0.1,0.4c-0.1,0.1-0.1,0.2-0.2,0.3
		c-0.1,0.1-0.2,0.1-0.4,0.2S156.9,227.5,156.7,227.5z"/>
	<path d="M143.2,230.1h-0.8v-0.7h2.5v0.7H144v2.1h-0.8V230.1z"/>
	<path d="M146.8,232.3c-0.2,0-0.4,0-0.6-0.1c-0.2-0.1-0.3-0.2-0.5-0.3c-0.1-0.1-0.2-0.3-0.3-0.5c-0.1-0.2-0.1-0.4-0.1-0.6v0
		c0-0.2,0-0.4,0.1-0.6c0.1-0.2,0.2-0.3,0.3-0.5s0.3-0.2,0.5-0.3c0.2-0.1,0.4-0.1,0.6-0.1s0.4,0,0.6,0.1c0.2,0.1,0.3,0.2,0.5,0.3
		c0.1,0.1,0.2,0.3,0.3,0.5c0.1,0.2,0.1,0.4,0.1,0.6v0c0,0.2,0,0.4-0.1,0.6s-0.2,0.3-0.3,0.5c-0.1,0.1-0.3,0.2-0.5,0.3
		C147.2,232.3,147,232.3,146.8,232.3z M146.8,231.6c0.1,0,0.2,0,0.3-0.1c0.1,0,0.2-0.1,0.2-0.2c0.1-0.1,0.1-0.1,0.1-0.2
		c0-0.1,0.1-0.2,0.1-0.3v0c0-0.1,0-0.2-0.1-0.3c0-0.1-0.1-0.2-0.1-0.2c-0.1-0.1-0.1-0.1-0.2-0.2c-0.1,0-0.2-0.1-0.3-0.1
		c-0.1,0-0.2,0-0.3,0.1s-0.2,0.1-0.2,0.2c-0.1,0.1-0.1,0.1-0.1,0.2s0,0.2,0,0.3v0c0,0.1,0,0.2,0.1,0.3c0,0.1,0.1,0.2,0.1,0.2
		s0.1,0.1,0.2,0.2S146.7,231.6,146.8,231.6z"/>
	<path d="M148.9,229.5h0.8v2.8h-0.8V229.5z"/>
	<path d="M150.4,229.5h0.8v2.1h1.4v0.7h-2.1V229.5z"/>
	<path d="M153.1,229.5h2.2v0.7h-1.5v0.4h1.3v0.6h-1.3v0.4h1.5v0.7h-2.3V229.5z"/>
	<path d="M156.6,230.1h-0.8v-0.7h2.5v0.7h-0.8v2.1h-0.8V230.1z"/>
	<path d="M159.9,232.3c-0.3,0-0.5,0-0.7-0.1c-0.2-0.1-0.4-0.2-0.6-0.4l0.4-0.5c0.3,0.2,0.6,0.3,0.9,0.3c0.1,0,0.2,0,0.2,0
		c0.1,0,0.1-0.1,0.1-0.1v0c0,0,0-0.1,0-0.1c0,0,0,0-0.1-0.1c0,0-0.1,0-0.1-0.1c-0.1,0-0.1,0-0.2-0.1c-0.1,0-0.3-0.1-0.4-0.1
		c-0.1,0-0.2-0.1-0.3-0.2s-0.2-0.1-0.2-0.2c-0.1-0.1-0.1-0.2-0.1-0.4v0c0-0.1,0-0.3,0.1-0.4c0-0.1,0.1-0.2,0.2-0.3s0.2-0.1,0.3-0.2
		c0.1,0,0.3-0.1,0.5-0.1c0.2,0,0.5,0,0.6,0.1c0.2,0.1,0.4,0.2,0.5,0.3l-0.4,0.5c-0.1-0.1-0.3-0.2-0.4-0.2s-0.3-0.1-0.4-0.1
		c-0.1,0-0.2,0-0.2,0.1c0,0-0.1,0.1-0.1,0.1v0c0,0,0,0.1,0,0.1c0,0,0,0,0.1,0.1c0,0,0.1,0,0.1,0.1c0.1,0,0.1,0,0.2,0.1
		c0.2,0,0.3,0.1,0.4,0.1c0.1,0,0.2,0.1,0.3,0.2s0.2,0.1,0.2,0.2s0.1,0.2,0.1,0.3v0c0,0.1,0,0.3-0.1,0.4c-0.1,0.1-0.1,0.2-0.2,0.3
		c-0.1,0.1-0.2,0.1-0.4,0.2S160.1,232.3,159.9,232.3z"/>
</g>
<path d="M130.3,202.6c-3,0-5.4-2.2-5.4-4.9h0.3c0,2.5,2.3,4.6,5.1,4.6v-4.6h0.7v4.9L130.3,202.6z"/>
<path d="M151.4,80.9c0-4-3-7.2-6.6-7.2V74c3.4,0,6.2,3.1,6.2,6.9h-6.2v1h6.6L151.4,80.9z"/>
<line class="st2" x1="177.7" y1="135.8" x2="177.7" y2="105.5"/>
<line class="st2" x1="174.7" y1="135.8" x2="174.7" y2="105.5"/>
<polygon class="st5" points="424.3,242.5 171.8,242.5 171.8,6.3 424.3,6.3 424.3,49.5 424.3,195.5 "/>
<path class="st6" d="M172.5,105.5c1.8-45.6,10.3-83.2,21.7-99.3"/>
<path class="st6" d="M194.7,242.5c-12.3-16.4-21.3-57.5-22.5-106.8"/>
<path class="st6" d="M254.6,242.5c-15-17.7-25.7-64.1-25.7-118.5c0-53.7,10.4-99.6,25.1-117.8"/>
<path class="st6" d="M238,242.5c-13.2-17.7-22.6-64.1-22.6-118.5c0-53.7,9.2-99.6,22.1-117.8"/>
<path class="st6" d="M224.4,242.5c-13.2-17.7-22.6-64.1-22.6-118.5c0-53.7,9.2-99.6,22.1-117.8"/>
<path class="st6" d="M388.3,49.5v22.1H386v-4.1L310.3,23h-24.7v0c-26.6,0.5-43,44.4-43,98.2c0,77.7,32.5,103.3,43,104.3h24.7
	l75.7-36.2v-11.5h2.3v17.7h36v-146H388.3z"/>
<path class="st6" d="M380.7,64.5c-10.4,15.1-16.9,36.8-16.9,60.9c0,26.3,7.8,49.8,19.9,64.9"/>
<g>
	<path d="M310.3,227.8c0,3.4-2.5,6.1-5.6,6.1v-0.3c2.9,0,5.2-2.6,5.3-5.8h-5.2V227h5.5L310.3,227.8z"/>
	<path d="M310.3,239.8c0-3.4-2.5-6.1-5.6-6.1v0.3c2.9,0,5.2,2.6,5.3,5.8h-5.2v0.8h5.5L310.3,239.8z"/>
</g>
<g>
	<path d="M310.3,8.8c0,3.4-2.5,6.1-5.6,6.1v-0.3c2.9,0,5.2-2.6,5.3-5.8h-5.2V7.9h5.5L310.3,8.8z"/>
	<path d="M310.3,20.7c0-3.4-2.5-6.1-5.6-6.1V15c2.9,0,5.2,2.6,5.3,5.8h-5.2v0.8h5.5L310.3,20.7z"/>
</g>
<rect x="388.3" y="7.9" class="st2" width="34.5" height="39.7"/>
<rect x="388.3" y="211.9" class="st2" width="34.5" height="28.7"/>
<path class="st2" d="M388.3,197.2v13h34.5v-13H388.3z M412.6,205.3h-14c-0.9,0-1.6-0.7-1.6-1.6c0-0.9,0.7-1.6,1.6-1.6h14
	c0.9,0,1.6,0.7,1.6,1.6C414.2,204.5,413.5,205.3,412.6,205.3z"/>
<g>
	<line class="st2" x1="398.4" y1="197.2" x2="398.4" y2="202"/>
	<line class="st2" x1="400.4" y1="197.2" x2="400.4" y2="202"/>
	<line class="st2" x1="402.5" y1="197.2" x2="402.5" y2="202"/>
	<line class="st2" x1="404.6" y1="197.2" x2="404.6" y2="202"/>
	<line class="st2" x1="406.7" y1="197.2" x2="406.7" y2="202"/>
	<line class="st2" x1="408.8" y1="197.2" x2="408.8" y2="202"/>
	<line class="st2" x1="410.8" y1="197.2" x2="410.8" y2="202"/>
	<line class="st2" x1="412.9" y1="197.2" x2="412.9" y2="202"/>
</g>
<g>
	<line class="st2" x1="398.3" y1="205.3" x2="398.3" y2="210.1"/>
	<line class="st2" x1="400.4" y1="205.3" x2="400.4" y2="210.1"/>
	<line class="st2" x1="402.5" y1="205.3" x2="402.5" y2="210.1"/>
	<line class="st2" x1="404.5" y1="205.3" x2="404.5" y2="210.1"/>
	<line class="st2" x1="406.6" y1="205.3" x2="406.6" y2="210.1"/>
	<line class="st2" x1="408.7" y1="205.3" x2="408.7" y2="210.1"/>
	<line class="st2" x1="410.8" y1="205.3" x2="410.8" y2="210.1"/>
	<line class="st2" x1="412.9" y1="205.3" x2="412.9" y2="210.1"/>
</g>
<g>
	<polyline class="st6" points="311.1,227.5 371.6,227.5 371.6,226.3 315.4,226.3 338.2,215 386.8,215 386.8,240.6 311.1,240.6 	"/>
	<g>
		<line class="st2" x1="357.1" y1="215.3" x2="357.1" y2="226.3"/>
		<line class="st2" x1="359.2" y1="215.3" x2="359.2" y2="226.3"/>
		<line class="st2" x1="361.2" y1="215.3" x2="361.2" y2="226.3"/>
		<line class="st2" x1="363.3" y1="215.3" x2="363.3" y2="226.3"/>
		<line class="st2" x1="365.4" y1="215.3" x2="365.4" y2="226.3"/>
		<line class="st2" x1="367.4" y1="215.3" x2="367.4" y2="226.3"/>
		<line class="st2" x1="369.5" y1="215.3" x2="369.5" y2="226.3"/>
		<line class="st2" x1="371.6" y1="215.1" x2="371.6" y2="226.1"/>
		<line class="st2" x1="340.6" y1="215.3" x2="340.6" y2="226.3"/>
		<line class="st2" x1="342.6" y1="215.3" x2="342.6" y2="226.3"/>
		<line class="st2" x1="344.7" y1="215.3" x2="344.7" y2="226.3"/>
		<line class="st2" x1="346.8" y1="215.3" x2="346.8" y2="226.3"/>
		<line class="st2" x1="348.8" y1="215.3" x2="348.8" y2="226.3"/>
		<line class="st2" x1="350.9" y1="215.3" x2="350.9" y2="226.3"/>
		<line class="st2" x1="353" y1="215.3" x2="353" y2="226.3"/>
		<line class="st2" x1="355" y1="215.3" x2="355" y2="226.3"/>
	</g>
	<line class="st2" x1="357.1" y1="227.5" x2="357.1" y2="240.8"/>
	<line class="st2" x1="359.2" y1="227.5" x2="359.2" y2="240.8"/>
	<line class="st2" x1="361.2" y1="227.5" x2="361.2" y2="240.8"/>
	<line class="st2" x1="363.3" y1="227.5" x2="363.3" y2="240.8"/>
	<line class="st2" x1="365.4" y1="227.5" x2="365.4" y2="240.8"/>
	<line class="st2" x1="367.4" y1="227.5" x2="367.4" y2="240.8"/>
	<line class="st2" x1="369.5" y1="227.5" x2="369.5" y2="240.8"/>
	<line class="st2" x1="371.6" y1="227.5" x2="371.6" y2="240.8"/>
</g>
<g>
	<polyline class="st6" points="311.3,21.2 371.8,21.2 371.8,22.4 315.6,22.4 338.3,33.7 387,33.7 387,8.1 311.3,8.1 	"/>
	<g>
		<line class="st2" x1="357.3" y1="33.4" x2="357.3" y2="22.4"/>
		<line class="st2" x1="359.3" y1="33.4" x2="359.3" y2="22.4"/>
		<line class="st2" x1="361.4" y1="33.4" x2="361.4" y2="22.4"/>
		<line class="st2" x1="363.5" y1="33.4" x2="363.5" y2="22.4"/>
		<line class="st2" x1="365.5" y1="33.4" x2="365.5" y2="22.4"/>
		<line class="st2" x1="367.6" y1="33.4" x2="367.6" y2="22.4"/>
		<line class="st2" x1="369.7" y1="33.4" x2="369.7" y2="22.4"/>
		<line class="st2" x1="371.7" y1="33.6" x2="371.7" y2="22.6"/>
		<line class="st2" x1="340.7" y1="33.4" x2="340.7" y2="22.4"/>
		<line class="st2" x1="342.8" y1="33.4" x2="342.8" y2="22.4"/>
		<line class="st2" x1="344.9" y1="33.4" x2="344.9" y2="22.4"/>
		<line class="st2" x1="346.9" y1="33.4" x2="346.9" y2="22.4"/>
		<line class="st2" x1="349" y1="33.4" x2="349" y2="22.4"/>
		<line class="st2" x1="351.1" y1="33.4" x2="351.1" y2="22.4"/>
		<line class="st2" x1="353.1" y1="33.4" x2="353.1" y2="22.4"/>
		<line class="st2" x1="355.2" y1="33.4" x2="355.2" y2="22.4"/>
	</g>
	<line class="st2" x1="357.3" y1="21.2" x2="357.3" y2="7.9"/>
	<line class="st2" x1="359.3" y1="21.2" x2="359.3" y2="7.9"/>
	<line class="st2" x1="361.4" y1="21.2" x2="361.4" y2="7.9"/>
	<line class="st2" x1="363.5" y1="21.2" x2="363.5" y2="7.9"/>
	<line class="st2" x1="365.5" y1="21.2" x2="365.5" y2="7.9"/>
	<line class="st2" x1="367.6" y1="21.2" x2="367.6" y2="7.9"/>
	<line class="st2" x1="369.7" y1="21.2" x2="369.7" y2="7.9"/>
	<line class="st2" x1="371.7" y1="21.2" x2="371.7" y2="7.9"/>
</g>
<line class="st2" x1="186.6" y1="135.8" x2="186.6" y2="105.5"/>
<line class="st2" x1="183.6" y1="135.8" x2="183.6" y2="105.5"/>
<line class="st2" x1="180.6" y1="135.8" x2="180.6" y2="105.5"/>
<path class="st6" d="M172.2,135.8h16.6c1.2,49.3,10.2,90.3,22.5,106.8"/>
<path class="st6" d="M171.9,105.5H189c1.8-45.7,10.3-83.1,21.7-99.3"/>
<rect x="426.3" y="118" class="st7" width="9.2" height="25.5"/>
<path class="st8" d="M285.6,20.2h24.7V5.9h-211c-6.9,0-12.5,12.7-16.4,33.2H50.5v60h26.7c-0.2,7.2-0.4,14.6-0.4,22.3
	c0,91.3,16.9,121.3,22.6,121.3h211v-15h-24.7c-11.3,0-44.8-26.3-44.8-106.3C240.8,65.5,257.9,20.2,285.6,20.2z"/>
<path class="st9" d="M77.6,159.2h-34v57c0,14.6,12.3,26.5,27.5,26.5h27.5v-0.4C92.9,239,81.3,216.3,77.6,159.2z"/>
<rect x="23.8" y="39.1" class="st3" width="25.1" height="60.1"/>
<g>
	<path class="st10" d="M388.3,49.5v22.1H386v-4.1L310.3,23h-24.7v0c-26.6,0.5-43,44.4-43,98.2c0,77.7,32.5,103.3,43,104.3h24.7
		l75.7-36.2v-11.5h2.3v17.7h36v-146H388.3z"/>
	<path class="st10" d="M380.7,64.5c-10.4,15.1-16.9,36.8-16.9,60.9c0,26.3,7.8,49.8,19.9,64.9"/>
</g>
<path class="st11" d="M233.7,133.5c1.2,41.6,8.7,78.2,19.8,102.7"/>
<path class="st6" d="M233.6,120c0,0.5,0,1,0,1.4c0,4.1,0.1,8.1,0.2,12.1"/>
<path class="st11" d="M250.5,13.8C240.2,40.2,233.7,78,233.6,120"/>
<path class="st11" d="M226,13.8c-10.4,26.7-16.9,65.1-16.9,107.6c0,46.5,7.8,88,19.9,114.7"/>
<path class="st11" d="M122.2,13.8c-10.4,26.7-16.9,65.1-16.9,107.6c0,46.5,7.8,88,19.9,114.7"/>
<path class="st11" d="M131.4,133.5c1.2,41.6,8.7,78.2,19.8,102.7"/>
<path class="st6" d="M131.2,119.6c0,0.5,0,1.3,0,1.8c0,4.1,0.1,8.1,0.2,12.1"/>
<path class="st11" d="M148.2,13.8C137.9,40.2,131.4,78,131.2,120"/>
<path class="st11" d="M158.8,158.2c2.9,31.3,9.4,58.5,18.3,78"/>
<path class="st11" d="M174.1,13.8c-8.5,21.8-14.4,51.2-16.3,84.4"/>
<path class="st11" d="M184.8,158.2c2.9,31.3,9.4,58.5,18.3,78"/>
<path class="st6" d="M183.9,96.5c-0.5,8.1-0.8,16.4-0.8,24.9c0,12.7,0.6,25,1.7,36.7"/>
<path class="st11" d="M200.1,13.8c-8.3,21.4-14.2,50.2-16.2,82.7"/>
<line class="st6" x1="131.2" y1="98.2" x2="184" y2="98.2"/>
<line class="st6" x1="133" y1="158.2" x2="184.6" y2="158.2"/>
<line class="st6" x1="105.2" y1="120" x2="131.2" y2="120"/>
<line class="st6" x1="105.4" y1="133.5" x2="131.3" y2="133.5"/>
<line class="st6" x1="196.3" y1="120" x2="233.6" y2="120"/>
<line class="st6" x1="196.3" y1="133.5" x2="233.6" y2="133.5"/>
<path class="st6" d="M131.2,107.7"/>
<path class="st6" d="M131.2,149.4"/>
<polyline class="st6" points="131.2,107.7 151.1,107.7 151.1,149.4 132.2,149.4 "/>
<polyline class="st6" points="183.8,149.4 163.6,149.4 163.6,107.7 183.8,107.7 "/>
<path class="st6" d="M183.6,149.4"/>
<path class="st6" d="M183.6,107.7"/>
<line class="st6" x1="131.3" y1="112" x2="151.1" y2="112"/>
<line class="st6" x1="163.3" y1="112" x2="183.1" y2="112"/>
<line class="st6" x1="131.7" y1="145.2" x2="151.6" y2="145.2"/>
<line class="st6" x1="163.8" y1="145.2" x2="183.6" y2="145.2"/>
<line class="st6" x1="147.7" y1="111.7" x2="147.7" y2="144.8"/>
<line class="st6" x1="134.4" y1="111.7" x2="134.4" y2="144.8"/>
<line class="st6" x1="137.7" y1="111.7" x2="137.7" y2="144.8"/>
<line class="st6" x1="144.4" y1="111.7" x2="144.4" y2="144.8"/>
<line class="st6" x1="141.1" y1="111.7" x2="141.1" y2="144.8"/>
<line class="st6" x1="180.3" y1="112.4" x2="180.3" y2="145.5"/>
<line class="st6" x1="167.1" y1="112.4" x2="167.1" y2="145.5"/>
<line class="st6" x1="170.4" y1="112.4" x2="170.4" y2="145.5"/>
<line class="st6" x1="177" y1="112.4" x2="177" y2="145.5"/>
<line class="st6" x1="173.7" y1="112.4" x2="173.7" y2="145.5"/>
<g>
	<path d="M50.6,191.8h0.8v1.5l1.4-1.5h0.9l-1.4,1.5l1.5,2h-0.9l-1.1-1.5l-0.4,0.4v1.1h-0.8V191.8z"/>
	<path d="M54.5,191.8h0.8v3.5h-0.8V191.8z"/>
	<path d="M57.2,192.5h-1.1v-0.7h2.9v0.7H58v2.8h-0.8V192.5z"/>
	<path d="M61.5,195.4c-0.3,0-0.5,0-0.7-0.1c-0.2-0.1-0.4-0.2-0.6-0.4c-0.2-0.2-0.3-0.4-0.4-0.6c-0.1-0.2-0.1-0.5-0.1-0.7v0
		c0-0.3,0-0.5,0.1-0.7c0.1-0.2,0.2-0.4,0.4-0.6c0.2-0.2,0.4-0.3,0.6-0.4c0.2-0.1,0.5-0.1,0.7-0.1c0.2,0,0.3,0,0.4,0
		c0.1,0,0.3,0.1,0.4,0.1c0.1,0,0.2,0.1,0.3,0.2c0.1,0.1,0.2,0.1,0.3,0.2l-0.5,0.6c-0.1-0.1-0.3-0.2-0.4-0.3s-0.3-0.1-0.5-0.1
		c-0.1,0-0.3,0-0.4,0.1s-0.2,0.1-0.3,0.2c-0.1,0.1-0.2,0.2-0.2,0.3c0,0.1-0.1,0.3-0.1,0.4v0c0,0.2,0,0.3,0.1,0.4
		c0.1,0.1,0.1,0.3,0.2,0.4c0.1,0.1,0.2,0.2,0.3,0.2s0.3,0.1,0.4,0.1c0.2,0,0.4,0,0.5-0.1c0.1-0.1,0.3-0.2,0.4-0.3l0.5,0.5
		c-0.1,0.1-0.2,0.2-0.3,0.3c-0.1,0.1-0.2,0.1-0.3,0.2s-0.2,0.1-0.4,0.1S61.7,195.4,61.5,195.4z"/>
	<path d="M63.8,191.8h0.8v1.4H66v-1.4h0.8v3.5H66v-1.4h-1.4v1.4h-0.8V191.8z"/>
	<path d="M67.9,191.8h2.6v0.7h-1.9v0.7h1.7v0.7h-1.7v0.7h1.9v0.7h-2.7V191.8z"/>
	<path d="M71.5,191.8h0.7l1.6,2.2v-2.2h0.8v3.5H74l-1.7-2.2v2.2h-0.8V191.8z"/>
</g>
<path d="M73.4,174.7c0,3.6,2.7,6.5,6,6.5v-0.3c-3.1,0-5.6-2.8-5.6-6.2h5.6v-0.9h-5.9L73.4,174.7z"/>
<path d="M79,211.5c0.6,3.5,3.6,6,6.9,5.5l-0.1-0.3c-3.1,0.5-6-1.9-6.5-5.3l5.5-0.8l-0.1-0.9l-5.8,0.9L79,211.5z"/>
<g>
	<g>
		<line class="st12" x1="82.8" y1="126.5" x2="234.9" y2="126.5"/>
		<g>
			<polygon class="st13" points="85.6,130.3 84,126.5 85.6,122.8 76.8,126.5 			"/>
		</g>
		<g>
			<polygon class="st13" points="232.1,130.3 233.7,126.5 232.1,122.8 240.9,126.5 			"/>
		</g>
	</g>
</g>
<g>
	<path class="st13" d="M85.2,120.6l-0.5,0.1l-0.1-0.6l0.9-0.3h0.5v3.2h-0.7V120.6z"/>
	<path class="st13" d="M87.9,123.1c-0.2,0-0.4,0-0.6-0.1s-0.3-0.2-0.4-0.3l0.4-0.5c0.1,0.1,0.2,0.2,0.3,0.2c0.1,0,0.2,0.1,0.4,0.1
		c0.2,0,0.3-0.1,0.4-0.2s0.2-0.3,0.2-0.5c-0.1,0.1-0.2,0.1-0.3,0.2c-0.1,0-0.2,0.1-0.4,0.1c-0.2,0-0.3,0-0.5-0.1
		c-0.1,0-0.3-0.1-0.4-0.2c-0.1-0.1-0.2-0.2-0.2-0.3c-0.1-0.1-0.1-0.3-0.1-0.4v0c0-0.2,0-0.3,0.1-0.4c0.1-0.1,0.1-0.3,0.2-0.3
		c0.1-0.1,0.2-0.2,0.4-0.2c0.1-0.1,0.3-0.1,0.5-0.1c0.1,0,0.2,0,0.3,0s0.2,0,0.2,0.1s0.1,0.1,0.2,0.1c0.1,0,0.1,0.1,0.2,0.2
		c0.1,0.1,0.1,0.1,0.2,0.2c0,0.1,0.1,0.2,0.1,0.3c0,0.1,0.1,0.2,0.1,0.3c0,0.1,0,0.3,0,0.4v0c0,0.3,0,0.5-0.1,0.7
		c-0.1,0.2-0.1,0.4-0.3,0.5c-0.1,0.1-0.3,0.3-0.4,0.4S88.1,123.1,87.9,123.1z M88,121.4c0.2,0,0.3,0,0.4-0.1
		c0.1-0.1,0.1-0.2,0.1-0.3v0c0-0.1,0-0.3-0.1-0.3c-0.1-0.1-0.2-0.1-0.4-0.1c-0.2,0-0.3,0-0.4,0.1s-0.1,0.2-0.1,0.3v0
		c0,0.1,0,0.3,0.1,0.3S87.9,121.4,88,121.4z"/>
	<path class="st13" d="M90,122.3h0.7v0.7H90V122.3z"/>
	<path class="st13" d="M92.6,123.1c-0.3,0-0.5,0-0.7-0.1c-0.2-0.1-0.4-0.2-0.5-0.3l0.4-0.5c0.1,0.1,0.2,0.2,0.4,0.3
		c0.1,0.1,0.3,0.1,0.4,0.1c0.2,0,0.3,0,0.4-0.1s0.1-0.2,0.1-0.3v0c0-0.1-0.1-0.2-0.2-0.3s-0.2-0.1-0.4-0.1c-0.1,0-0.2,0-0.3,0
		s-0.2,0-0.2,0.1l-0.4-0.3l0.1-1.6h1.9v0.6h-1.3l0,0.5c0.1,0,0.1,0,0.2,0c0.1,0,0.1,0,0.2,0c0.2,0,0.3,0,0.4,0.1s0.3,0.1,0.4,0.2
		s0.2,0.2,0.2,0.3c0.1,0.1,0.1,0.3,0.1,0.5v0c0,0.2,0,0.3-0.1,0.5c-0.1,0.1-0.1,0.2-0.2,0.3c-0.1,0.1-0.2,0.2-0.4,0.2
		C93,123.1,92.8,123.1,92.6,123.1z"/>
	<path class="st13" d="M94.6,120.6h0.7v0.3c0-0.1,0.1-0.1,0.1-0.1s0.1-0.1,0.2-0.1s0.1-0.1,0.2-0.1c0.1,0,0.1,0,0.2,0
		c0.2,0,0.3,0,0.4,0.1c0.1,0.1,0.2,0.2,0.3,0.3c0.1-0.1,0.2-0.2,0.4-0.3c0.1-0.1,0.3-0.1,0.4-0.1c0.3,0,0.5,0.1,0.6,0.2
		c0.1,0.2,0.2,0.4,0.2,0.7v1.6h-0.7v-1.3c0-0.2,0-0.3-0.1-0.4c-0.1-0.1-0.2-0.1-0.3-0.1s-0.2,0-0.3,0.1s-0.1,0.2-0.1,0.4v1.3h-0.7
		v-1.3c0-0.2,0-0.3-0.1-0.4c-0.1-0.1-0.2-0.1-0.3-0.1s-0.2,0-0.3,0.1c-0.1,0.1-0.1,0.2-0.1,0.4v1.3h-0.7V120.6z"/>
</g>
<g>
	<g>
		<line class="st12" x1="203.1" y1="11.9" x2="203.1" y2="236.6"/>
		<g>
			<polygon class="st13" points="199.4,14.7 203.1,13.1 206.8,14.7 203.1,5.9 			"/>
		</g>
		<g>
			<polygon class="st13" points="199.4,233.8 203.1,235.4 206.8,233.8 203.1,242.6 			"/>
		</g>
	</g>
</g>
<g>
	<path class="st13" d="M205.3,27.3l1-0.9c0.1-0.1,0.2-0.2,0.3-0.2c0.1-0.1,0.1-0.1,0.2-0.2c0-0.1,0.1-0.1,0.1-0.2c0-0.1,0-0.1,0-0.2
		c0-0.1,0-0.2-0.1-0.3c-0.1-0.1-0.2-0.1-0.3-0.1c-0.1,0-0.2,0-0.3,0.1s-0.2,0.2-0.3,0.3l-0.5-0.4c0.1-0.1,0.2-0.2,0.2-0.3
		c0.1-0.1,0.2-0.2,0.3-0.2c0.1-0.1,0.2-0.1,0.3-0.1c0.1,0,0.2,0,0.4,0c0.2,0,0.3,0,0.4,0.1c0.1,0,0.2,0.1,0.3,0.2s0.2,0.2,0.2,0.3
		c0.1,0.1,0.1,0.3,0.1,0.4v0c0,0.1,0,0.3-0.1,0.4c0,0.1-0.1,0.2-0.2,0.3s-0.2,0.2-0.3,0.3c-0.1,0.1-0.2,0.2-0.4,0.3l-0.5,0.4h1.4
		v0.6h-2.3V27.3z"/>
	<path class="st13" d="M209.5,27.9c-0.2,0-0.4,0-0.6-0.1s-0.3-0.2-0.4-0.3l0.4-0.5c0.1,0.1,0.2,0.2,0.3,0.2c0.1,0,0.2,0.1,0.4,0.1
		c0.2,0,0.3-0.1,0.4-0.2s0.2-0.3,0.2-0.5c-0.1,0.1-0.2,0.1-0.3,0.2c-0.1,0-0.2,0.1-0.4,0.1c-0.2,0-0.3,0-0.5-0.1
		c-0.1,0-0.3-0.1-0.4-0.2c-0.1-0.1-0.2-0.2-0.2-0.3c-0.1-0.1-0.1-0.3-0.1-0.4v0c0-0.2,0-0.3,0.1-0.4c0.1-0.1,0.1-0.3,0.2-0.3
		c0.1-0.1,0.2-0.2,0.4-0.2c0.1-0.1,0.3-0.1,0.5-0.1c0.1,0,0.2,0,0.3,0s0.2,0,0.2,0.1s0.1,0.1,0.2,0.1c0.1,0,0.1,0.1,0.2,0.2
		c0.1,0.1,0.1,0.1,0.2,0.2c0,0.1,0.1,0.2,0.1,0.3c0,0.1,0.1,0.2,0.1,0.3c0,0.1,0,0.3,0,0.4v0c0,0.3,0,0.5-0.1,0.7
		c-0.1,0.2-0.1,0.4-0.3,0.5c-0.1,0.1-0.3,0.3-0.4,0.4S209.7,27.9,209.5,27.9z M209.6,26.2c0.2,0,0.3,0,0.4-0.1
		c0.1-0.1,0.1-0.2,0.1-0.3v0c0-0.1,0-0.3-0.1-0.3c-0.1-0.1-0.2-0.1-0.4-0.1c-0.2,0-0.3,0-0.4,0.1s-0.1,0.2-0.1,0.3v0
		c0,0.1,0,0.3,0.1,0.3S209.5,26.2,209.6,26.2z"/>
	<path class="st13" d="M211.6,27.1h0.7v0.7h-0.7V27.1z"/>
	<path class="st13" d="M214.3,27.9c-0.2,0-0.3,0-0.5-0.1c-0.1,0-0.3-0.1-0.4-0.2c-0.1-0.1-0.2-0.2-0.3-0.3c-0.1-0.1-0.1-0.2-0.1-0.4
		v0c0-0.2,0-0.3,0.1-0.5c0.1-0.1,0.2-0.2,0.4-0.3c-0.1-0.1-0.2-0.2-0.3-0.3c-0.1-0.1-0.1-0.2-0.1-0.4v0c0-0.1,0-0.2,0.1-0.3
		c0.1-0.1,0.1-0.2,0.2-0.3c0.1-0.1,0.2-0.1,0.3-0.2c0.1,0,0.3-0.1,0.5-0.1c0.2,0,0.3,0,0.5,0.1c0.1,0,0.3,0.1,0.4,0.2
		s0.2,0.2,0.2,0.3c0.1,0.1,0.1,0.2,0.1,0.3v0c0,0.2,0,0.3-0.1,0.4c-0.1,0.1-0.2,0.2-0.3,0.3c0.2,0.1,0.3,0.2,0.4,0.3
		c0.1,0.1,0.1,0.3,0.1,0.4v0c0,0.1,0,0.3-0.1,0.4s-0.1,0.2-0.3,0.3c-0.1,0.1-0.2,0.1-0.4,0.2S214.5,27.9,214.3,27.9z M214.3,27.3
		c0.2,0,0.3,0,0.4-0.1c0.1-0.1,0.1-0.2,0.1-0.3v0c0-0.1-0.1-0.2-0.2-0.3c-0.1-0.1-0.2-0.1-0.4-0.1c-0.2,0-0.3,0-0.4,0.1
		c-0.1,0.1-0.2,0.2-0.2,0.3v0c0,0.1,0,0.2,0.1,0.3C214,27.3,214.1,27.3,214.3,27.3z M214.3,26c0.1,0,0.2,0,0.3-0.1
		c0.1-0.1,0.1-0.2,0.1-0.3v0c0-0.1,0-0.2-0.1-0.3c-0.1-0.1-0.2-0.1-0.3-0.1c-0.1,0-0.3,0-0.3,0.1c-0.1,0.1-0.1,0.2-0.1,0.3v0
		c0,0.1,0,0.2,0.1,0.3C214,25.9,214.2,26,214.3,26z"/>
	<path class="st13" d="M216.2,25.4h0.7v0.3c0-0.1,0.1-0.1,0.1-0.1s0.1-0.1,0.2-0.1s0.1-0.1,0.2-0.1c0.1,0,0.1,0,0.2,0
		c0.2,0,0.3,0,0.4,0.1c0.1,0.1,0.2,0.2,0.3,0.3c0.1-0.1,0.2-0.2,0.4-0.3c0.1-0.1,0.3-0.1,0.4-0.1c0.3,0,0.5,0.1,0.6,0.2
		c0.1,0.2,0.2,0.4,0.2,0.7v1.6h-0.7v-1.3c0-0.2,0-0.3-0.1-0.4c-0.1-0.1-0.2-0.1-0.3-0.1s-0.2,0-0.3,0.1s-0.1,0.2-0.1,0.4v1.3h-0.7
		v-1.3c0-0.2,0-0.3-0.1-0.4c-0.1-0.1-0.2-0.1-0.3-0.1s-0.2,0-0.3,0.1c-0.1,0.1-0.1,0.2-0.1,0.4v1.3h-0.7V25.4z"/>
</g>
</svg>
