<svg width="104" height="39" viewBox="0 0 104 39" fill="none" xmlns="http://www.w3.org/2000/svg">
<g clip-path="url(#clip0_134_415)">
<path d="M5.90224 27.0977V8.04482C5.90224 2.41323 9.62421 0.571289 12.5488 0.571289C13.559 0.571289 16.0582 0.7817 17.5999 2.78173C19.0887 4.83436 19.0887 6.46617 19.0887 8.04482V38.5713H14.9944V30.8871H9.99649V38.5713H5.90224V30.8871H2.39284L0 27.0977H5.90224ZM14.9944 27.0977V8.04482C14.9944 6.78179 14.9944 4.62367 12.4953 4.62367C9.99649 4.62367 9.99649 6.83411 9.99649 8.04482V27.0977H14.9944Z" fill="#222222"/>
<path d="M25.6459 38.5711V5.57094H21.1797V1.51855H34.2599V5.57122H29.7936V38.5714H25.6459V38.5711Z" fill="#222222"/>
<path d="M37.0425 1.51855H41.1367V27.0976H46.4004V1.51855H50.4949V38.5711H46.4004V30.8869H41.1367V38.5711H37.0425V1.51855Z" fill="#222222"/>
<path d="M53.6606 1.51855H65.3585V5.57122H57.7549V27.0976H65.3585V30.8869H57.7549V32.4135C57.7549 33.7292 57.7549 34.5185 59.2969 34.5185H65.3585V38.5711H59.2969C53.8204 38.5711 53.6606 34.2029 53.6606 32.4132V1.51855Z" fill="#222222"/>
<path d="M68.5664 38.5711V1.51855L77.4995 14.9396V1.51855H81.6472V38.5714H77.4995V22.3082L72.6609 15.1939V38.5711H68.5664Z" fill="#222222"/>
<path d="M104 27.0977L101.607 30.8871H98.0976V38.5713H94.0033V30.8871H89.0051V38.5713H84.9111V8.04482C84.9111 6.46589 84.9111 4.83436 86.3997 2.78173C87.942 0.7817 90.4408 0.571289 91.4514 0.571289C94.3756 0.571289 98.0979 2.41323 98.0979 8.04482V27.0977H104ZM94.0033 27.0977V8.04482C94.0033 6.83439 94.0033 4.62367 91.5042 4.62367C89.0051 4.62367 89.0051 6.78151 89.0051 8.04482V27.0977H94.0033Z" fill="#222222"/>
</g>
<defs>
<clipPath id="clip0_134_415">
<rect width="104" height="38" fill="white" transform="translate(0 0.571289)"/>
</clipPath>
</defs>
</svg>