<?xml version="1.0" encoding="utf-8"?>
<!-- Generator: Adobe Illustrator 20.0.0, SVG Export Plug-In . SVG Version: 6.00 Build 0)  -->
<svg version="1.1" id="Layer_1" xmlns="http://www.w3.org/2000/svg" xmlns:xlink="http://www.w3.org/1999/xlink" x="0px" y="0px"
	 viewBox="0 0 250.8 210.2" style="enable-background:new 0 0 250.8 210.2;" xml:space="preserve">
<style type="text/css">
	.st0{fill:#B8B092;}
</style>
<path class="st0" d="M62,17.9h-6.6c-3.1,0-5.7-2.6-5.7-5.7V5.7c0-3.1,2.6-5.7,5.7-5.7H62c3.1,0,5.7,2.6,5.7,5.7v6.6
	C67.7,15.4,65.1,17.9,62,17.9z"/>
<path class="st0" d="M36.4,24.1l-5.3,3.9c-2.5,1.8-6.1,1.3-7.9-1.3l-3.9-5.3c-1.8-2.5-1.3-6.1,1.3-7.9l5.3-3.9
	c2.5-1.8,6.1-1.3,7.9,1.3l3.9,5.3C39.5,18.7,38.9,22.3,36.4,24.1z"/>
<path class="st0" d="M19.3,44.1l-2,6.2c-1,3-4.2,4.6-7.1,3.6l-6.2-2c-3-1-4.6-4.2-3.6-7.1l2-6.2c1-3,4.2-4.6,7.1-3.6l6.2,2
	C18.7,38,20.3,41.2,19.3,44.1z"/>
<path class="st0" d="M17.3,70.4l2,6.2c1,3-0.7,6.2-3.6,7.1l-6.2,2c-3,1-6.2-0.7-7.1-3.6l-2-6.2c-1-3,0.7-6.2,3.6-7.1l6.2-2
	C13.1,65.8,16.3,67.4,17.3,70.4z"/>
<path class="st0" d="M31.1,92.8l5.3,3.9c2.5,1.8,3.1,5.4,1.3,7.9l-3.9,5.3c-1.8,2.5-5.4,3.1-7.9,1.3l-5.3-3.9
	c-2.5-1.8-3.1-5.4-1.3-7.9l3.9-5.3C25,91.5,28.6,91,31.1,92.8z"/>
<path class="st0" d="M55.4,102.9H62c3.1,0,5.7,2.6,5.7,5.7v6.6c0,3.1-2.6,5.7-5.7,5.7h-6.6c-3.1,0-5.7-2.6-5.7-5.7v-6.6
	C49.8,105.4,52.3,102.9,55.4,102.9z"/>
<path class="st0" d="M81,96.7l5.3-3.9c2.5-1.8,6.1-1.3,7.9,1.3l3.9,5.3c1.8,2.5,1.3,6.1-1.3,7.9l-5.3,3.9c-2.5,1.8-6.1,1.3-7.9-1.3
	l-3.9-5.3C77.9,102.1,78.5,98.5,81,96.7z"/>
<path class="st0" d="M98.1,76.6l2-6.2c1-3,4.2-4.6,7.1-3.6l6.2,2c3,1,4.6,4.2,3.6,7.1l-2,6.2c-1,3-4.2,4.6-7.1,3.6l-6.2-2
	C98.8,82.8,97.1,79.6,98.1,76.6z"/>
<path class="st0" d="M100.1,50.4l-2-6.2c-1-3,0.7-6.2,3.6-7.1l6.2-2c3-1,6.2,0.7,7.1,3.6l2,6.2c1,3-0.7,6.2-3.6,7.1l-6.2,2
	C104.3,55,101.1,53.3,100.1,50.4z"/>
<path class="st0" d="M86.3,27.9L81,24.1c-2.5-1.8-3.1-5.4-1.3-7.9l3.9-5.3c1.8-2.5,5.4-3.1,7.9-1.3l5.3,3.9c2.5,1.8,3.1,5.4,1.3,7.9
	l-3.9,5.3C92.4,29.2,88.9,29.8,86.3,27.9z"/>
<circle class="st0" cx="58.7" cy="60.4" r="38.2"/>
<path class="st0" d="M195.3,17.9h-6.6c-3.1,0-5.7-2.6-5.7-5.7V5.7c0-3.1,2.6-5.7,5.7-5.7h6.6c3.1,0,5.7,2.6,5.7,5.7v6.6
	C201,15.4,198.5,17.9,195.3,17.9z"/>
<path class="st0" d="M169.7,24.1l-5.3,3.9c-2.5,1.8-6.1,1.3-7.9-1.3l-3.9-5.3c-1.8-2.5-1.3-6.1,1.3-7.9l5.3-3.9
	c2.5-1.8,6.1-1.3,7.9,1.3l3.9,5.3C172.8,18.7,172.3,22.3,169.7,24.1z"/>
<path class="st0" d="M152.7,44.1l-2,6.2c-1,3-4.2,4.6-7.1,3.6l-6.2-2c-3-1-4.6-4.2-3.6-7.1l2-6.2c1-3,4.2-4.6,7.1-3.6l6.2,2
	C152,38,153.6,41.2,152.7,44.1z"/>
<path class="st0" d="M150.6,70.4l2,6.2c1,3-0.7,6.2-3.6,7.1l-6.2,2c-3,1-6.2-0.7-7.1-3.6l-2-6.2c-1-3,0.7-6.2,3.6-7.1l6.2-2
	C146.5,65.8,149.7,67.4,150.6,70.4z"/>
<path class="st0" d="M164.4,92.8l5.3,3.9c2.5,1.8,3.1,5.4,1.3,7.9l-3.9,5.3c-1.8,2.5-5.4,3.1-7.9,1.3l-5.3-3.9
	c-2.5-1.8-3.1-5.4-1.3-7.9l3.9-5.3C158.3,91.5,161.9,91,164.4,92.8z"/>
<path class="st0" d="M188.8,102.9h6.6c3.1,0,5.7,2.6,5.7,5.7v6.6c0,3.1-2.6,5.7-5.7,5.7h-6.6c-3.1,0-5.7-2.6-5.7-5.7v-6.6
	C183.1,105.4,185.6,102.9,188.8,102.9z"/>
<path class="st0" d="M214.4,96.7l5.3-3.9c2.5-1.8,6.1-1.3,7.9,1.3l3.9,5.3c1.8,2.5,1.3,6.1-1.3,7.9l-5.3,3.9
	c-2.5,1.8-6.1,1.3-7.9-1.3l-3.9-5.3C211.3,102.1,211.8,98.5,214.4,96.7z"/>
<path class="st0" d="M231.4,76.6l2-6.2c1-3,4.2-4.6,7.1-3.6l6.2,2c3,1,4.6,4.2,3.6,7.1l-2,6.2c-1,3-4.2,4.6-7.1,3.6l-6.2-2
	C232.1,82.8,230.5,79.6,231.4,76.6z"/>
<path class="st0" d="M233.5,50.4l-2-6.2c-1-3,0.7-6.2,3.6-7.1l6.2-2c3-1,6.2,0.7,7.1,3.6l2,6.2c1,3-0.7,6.2-3.6,7.1l-6.2,2
	C237.6,55,234.4,53.3,233.5,50.4z"/>
<path class="st0" d="M219.7,27.9l-5.3-3.9c-2.5-1.8-3.1-5.4-1.3-7.9l3.9-5.3c1.8-2.5,5.4-3.1,7.9-1.3l5.3,3.9
	c2.5,1.8,3.1,5.4,1.3,7.9l-3.9,5.3C225.8,29.2,222.2,29.8,219.7,27.9z"/>
<circle class="st0" cx="192" cy="60.4" r="38.2"/>
<path class="st0" d="M82.1,147.3h-6.6c-3.1,0-5.7-2.6-5.7-5.7V135c0-3.1,2.6-5.7,5.7-5.7h6.6c3.1,0,5.7,2.6,5.7,5.7v6.6
	C87.7,144.7,85.2,147.3,82.1,147.3z"/>
<rect x="66.4" y="152.3" class="st0" width="123.9" height="33.8"/>
<path class="st0" d="M114.5,147.3H108c-3.1,0-5.7-2.6-5.7-5.7V135c0-3.1,2.6-5.7,5.7-5.7h6.6c3.1,0,5.7,2.6,5.7,5.7v6.6
	C120.2,144.7,117.6,147.3,114.5,147.3z"/>
<path class="st0" d="M147,147.3h-6.6c-3.1,0-5.7-2.6-5.7-5.7V135c0-3.1,2.6-5.7,5.7-5.7h6.6c3.1,0,5.7,2.6,5.7,5.7v6.6
	C152.7,144.7,150.1,147.3,147,147.3z"/>
<path class="st0" d="M179.4,147.3h-6.6c-3.1,0-5.7-2.6-5.7-5.7V135c0-3.1,2.6-5.7,5.7-5.7h6.6c3.1,0,5.7,2.6,5.7,5.7v6.6
	C185.1,144.7,182.6,147.3,179.4,147.3z"/>
<path class="st0" d="M82.1,210.2h-6.6c-3.1,0-5.7-2.6-5.7-5.7V198c0-3.1,2.6-5.7,5.7-5.7h6.6c3.1,0,5.7,2.6,5.7,5.7v6.6
	C87.7,207.7,85.2,210.2,82.1,210.2z"/>
<path class="st0" d="M114.5,210.2H108c-3.1,0-5.7-2.6-5.7-5.7V198c0-3.1,2.6-5.7,5.7-5.7h6.6c3.1,0,5.7,2.6,5.7,5.7v6.6
	C120.2,207.7,117.6,210.2,114.5,210.2z"/>
<path class="st0" d="M147,210.2h-6.6c-3.1,0-5.7-2.6-5.7-5.7V198c0-3.1,2.6-5.7,5.7-5.7h6.6c3.1,0,5.7,2.6,5.7,5.7v6.6
	C152.7,207.7,150.1,210.2,147,210.2z"/>
<path class="st0" d="M179.4,210.2h-6.6c-3.1,0-5.7-2.6-5.7-5.7V198c0-3.1,2.6-5.7,5.7-5.7h6.6c3.1,0,5.7,2.6,5.7,5.7v6.6
	C185.1,207.7,182.6,210.2,179.4,210.2z"/>
</svg>
