<?xml version="1.0" encoding="utf-8"?>
<!-- Generator: Adobe Illustrator 20.0.0, SVG Export Plug-In . SVG Version: 6.00 Build 0)  -->
<svg version="1.1" id="Layer_1" xmlns="http://www.w3.org/2000/svg" xmlns:xlink="http://www.w3.org/1999/xlink" x="0px" y="0px"
	 viewBox="0 0 211.4 215.4" style="enable-background:new 0 0 211.4 215.4;" xml:space="preserve">
<style type="text/css">
	.st0{fill:#B8B092;}
</style>
<path class="st0" d="M156,17.9h-6.6c-3.1,0-5.7-2.6-5.7-5.7V5.7c0-3.1,2.6-5.7,5.7-5.7h6.6c3.1,0,5.7,2.6,5.7,5.7v6.6
	C161.7,15.4,159.1,17.9,156,17.9z"/>
<path class="st0" d="M130.4,24.1l-5.3,3.9c-2.5,1.8-6.1,1.3-7.9-1.3l-3.9-5.3c-1.8-2.5-1.3-6.1,1.3-7.9l5.3-3.9
	c2.5-1.8,6.1-1.3,7.9,1.3l3.9,5.3C133.5,18.7,132.9,22.3,130.4,24.1z"/>
<path class="st0" d="M113.3,44.1l-2,6.2c-1,3-4.2,4.6-7.1,3.6l-6.2-2c-3-1-4.6-4.2-3.6-7.1l2-6.2c1-3,4.2-4.6,7.1-3.6l6.2,2
	C112.7,38,114.3,41.2,113.3,44.1z"/>
<path class="st0" d="M111.3,70.4l2,6.2c1,3-0.7,6.2-3.6,7.1l-6.2,2c-3,1-6.2-0.7-7.1-3.6l-2-6.2c-1-3,0.7-6.2,3.6-7.1l6.2-2
	C107.1,65.8,110.3,67.4,111.3,70.4z"/>
<path class="st0" d="M125.1,92.8l5.3,3.9c2.5,1.8,3.1,5.4,1.3,7.9l-3.9,5.3c-1.8,2.5-5.4,3.1-7.9,1.3l-5.3-3.9
	c-2.5-1.8-3.1-5.4-1.3-7.9l3.9-5.3C119,91.5,122.6,91,125.1,92.8z"/>
<path class="st0" d="M149.4,102.9h6.6c3.1,0,5.7,2.6,5.7,5.7v6.6c0,3.1-2.6,5.7-5.7,5.7h-6.6c-3.1,0-5.7-2.6-5.7-5.7v-6.6
	C143.8,105.4,146.3,102.9,149.4,102.9z"/>
<path class="st0" d="M175,96.7l5.3-3.9c2.5-1.8,6.1-1.3,7.9,1.3l3.9,5.3c1.8,2.5,1.3,6.1-1.3,7.9l-5.3,3.9c-2.5,1.8-6.1,1.3-7.9-1.3
	l-3.9-5.3C171.9,102.1,172.5,98.5,175,96.7z"/>
<path class="st0" d="M192.1,76.6l2-6.2c1-3,4.2-4.6,7.1-3.6l6.2,2c3,1,4.6,4.2,3.6,7.1l-2,6.2c-1,3-4.2,4.6-7.1,3.6l-6.2-2
	C192.8,82.8,191.1,79.6,192.1,76.6z"/>
<path class="st0" d="M194.1,50.4l-2-6.2c-1-3,0.7-6.2,3.6-7.1l6.2-2c3-1,6.2,0.7,7.1,3.6l2,6.2c1,3-0.7,6.2-3.6,7.1l-6.2,2
	C198.3,55,195.1,53.3,194.1,50.4z"/>
<path class="st0" d="M180.3,27.9l-5.3-3.9c-2.5-1.8-3.1-5.4-1.3-7.9l3.9-5.3c1.8-2.5,5.4-3.1,7.9-1.3l5.3,3.9
	c2.5,1.8,3.1,5.4,1.3,7.9l-3.9,5.3C186.4,29.2,182.9,29.8,180.3,27.9z"/>
<circle class="st0" cx="152.7" cy="60.4" r="38.2"/>
<path class="st0" d="M62,112.6h-6.6c-3.1,0-5.7-2.6-5.7-5.7v-6.6c0-3.1,2.6-5.7,5.7-5.7H62c3.1,0,5.7,2.6,5.7,5.7v6.6
	C67.7,110,65.1,112.6,62,112.6z"/>
<path class="st0" d="M36.4,118.8l-5.3,3.9c-2.5,1.8-6.1,1.3-7.9-1.3l-3.9-5.3c-1.8-2.5-1.3-6.1,1.3-7.9l5.3-3.9
	c2.5-1.8,6.1-1.3,7.9,1.3l3.9,5.3C39.5,113.4,38.9,116.9,36.4,118.8z"/>
<path class="st0" d="M19.3,138.8l-2,6.2c-1,3-4.2,4.6-7.1,3.6l-6.2-2c-3-1-4.6-4.2-3.6-7.1l2-6.2c1-3,4.2-4.6,7.1-3.6l6.2,2
	C18.7,132.6,20.3,135.8,19.3,138.8z"/>
<path class="st0" d="M17.3,165l2,6.2c1,3-0.7,6.2-3.6,7.1l-6.2,2c-3,1-6.2-0.7-7.1-3.6l-2-6.2c-1-3,0.7-6.2,3.6-7.1l6.2-2
	C13.1,160.4,16.3,162.1,17.3,165z"/>
<path class="st0" d="M31.1,187.5l5.3,3.9c2.5,1.8,3.1,5.4,1.3,7.9l-3.9,5.3c-1.8,2.5-5.4,3.1-7.9,1.3l-5.3-3.9
	c-2.5-1.8-3.1-5.4-1.3-7.9l3.9-5.3C25,186.2,28.6,185.6,31.1,187.5z"/>
<path class="st0" d="M55.4,197.5H62c3.1,0,5.7,2.6,5.7,5.7v6.6c0,3.1-2.6,5.7-5.7,5.7h-6.6c-3.1,0-5.7-2.6-5.7-5.7v-6.6
	C49.8,200.1,52.3,197.5,55.4,197.5z"/>
<path class="st0" d="M81,191.3l5.3-3.9c2.5-1.8,6.1-1.3,7.9,1.3l3.9,5.3c1.8,2.5,1.3,6.1-1.3,7.9l-5.3,3.9c-2.5,1.8-6.1,1.3-7.9-1.3
	l-3.9-5.3C77.9,196.7,78.5,193.2,81,191.3z"/>
<path class="st0" d="M98.1,171.3l2-6.2c1-3,4.2-4.6,7.1-3.6l6.2,2c3,1,4.6,4.2,3.6,7.1l-2,6.2c-1,3-4.2,4.6-7.1,3.6l-6.2-2
	C98.8,177.5,97.1,174.3,98.1,171.3z"/>
<path class="st0" d="M100.1,145l-2-6.2c-1-3,0.7-6.2,3.6-7.1l6.2-2c3-1,6.2,0.7,7.1,3.6l2,6.2c1,3-0.7,6.2-3.6,7.1l-6.2,2
	C104.3,149.6,101.1,148,100.1,145z"/>
<path class="st0" d="M86.3,122.6l-5.3-3.9c-2.5-1.8-3.1-5.4-1.3-7.9l3.9-5.3c1.8-2.5,5.4-3.1,7.9-1.3l5.3,3.9
	c2.5,1.8,3.1,5.4,1.3,7.9l-3.9,5.3C92.4,123.9,88.9,124.4,86.3,122.6z"/>
<circle class="st0" cx="58.7" cy="155" r="38.2"/>
</svg>
