<?xml version="1.0" encoding="UTF-8"?>
<svg id="Layer_1" xmlns="http://www.w3.org/2000/svg" version="1.1" viewBox="0 0 225.1 202.2">
  <!-- Generator: Adobe Illustrator 30.3.0, SVG Export Plug-In . SVG Version: 2.1.3 Build 182)  -->
  <defs>
    <style>
      .st0 {
        fill: #ff6c00;
      }
    </style>
  </defs>
  <path class="st0" d="M36.4,105.6l-5.3,3.9c-2.5,1.8-6.1,1.3-7.9-1.3l-3.9-5.3c-1.8-2.5-1.3-6.1,1.3-7.9l5.3-3.9c2.5-1.8,6.1-1.3,7.9,1.3l3.9,5.3c1.8,2.5,1.2,6-1.3,7.9Z"/>
  <path class="st0" d="M19.3,125.6l-2,6.2c-1,3-4.2,4.6-7.1,3.6l-6.2-2c-3-1-4.6-4.2-3.6-7.1l2-6.2c1-3,4.2-4.6,7.1-3.6l6.2,2c3,.9,4.6,4.1,3.6,7.1Z"/>
  <path class="st0" d="M17.3,151.9l2,6.2c1,3-.7,6.2-3.6,7.1l-6.2,2c-3,1-6.2-.7-7.1-3.6l-2-6.2c-1-3,.7-6.2,3.6-7.1l6.2-2c2.9-1,6.1.6,7.1,3.6Z"/>
  <path class="st0" d="M31.1,174.3l5.3,3.9c2.5,1.8,3.1,5.4,1.3,7.9l-3.9,5.3c-1.8,2.5-5.4,3.1-7.9,1.3l-5.3-3.9c-2.5-1.8-3.1-5.4-1.3-7.9l3.9-5.3c1.8-2.6,5.4-3.1,7.9-1.3Z"/>
  <path class="st0" d="M55.4,184.3h6.6c3.1,0,5.7,2.6,5.7,5.7v6.6c0,3.1-2.6,5.7-5.7,5.7h-6.6c-3.1,0-5.7-2.6-5.7-5.7v-6.6c.1-3.1,2.6-5.7,5.7-5.7Z"/>
  <path class="st0" d="M81,178.1l5.3-3.9c2.5-1.8,6.1-1.3,7.9,1.3l3.9,5.3c1.8,2.5,1.3,6.1-1.3,7.9l-5.3,3.9c-2.5,1.8-6.1,1.3-7.9-1.3l-3.9-5.3c-1.8-2.5-1.2-6,1.3-7.9Z"/>
  <path class="st0" d="M98.1,158.1l2-6.2c1-3,4.2-4.6,7.1-3.6l6.2,2c3,1,4.6,4.2,3.6,7.1l-2,6.2c-1,3-4.2,4.6-7.1,3.6l-6.2-2c-2.9-.9-4.6-4.1-3.6-7.1Z"/>
  <path class="st0" d="M100.1,131.9l-2-6.2c-1-3,.7-6.2,3.6-7.1l6.2-2c3-1,6.2.7,7.1,3.6l2,6.2c1,3-.7,6.2-3.6,7.1l-6.2,2c-2.9,1-6.1-.7-7.1-3.6Z"/>
  <path class="st0" d="M86.3,109.4l-5.3-3.9c-2.5-1.8-3.1-5.4-1.3-7.9l3.9-5.3c1.8-2.5,5.4-3.1,7.9-1.3l5.3,3.9c2.5,1.8,3.1,5.4,1.3,7.9l-3.9,5.3c-1.8,2.6-5.3,3.2-7.9,1.3Z"/>
  <circle class="st0" cx="58.7" cy="141.9" r="38.2"/>
  <path class="st0" d="M144,15.6l-5.3,3.9c-2.5,1.8-6.1,1.3-7.9-1.3l-3.9-5.3c-1.8-2.5-1.3-6.1,1.3-7.9l5.3-3.9c2.5-1.8,6.1-1.3,7.9,1.3l3.9,5.3c1.8,2.5,1.3,6-1.3,7.9Z"/>
  <path class="st0" d="M127,35.6l-2,6.2c-1,3-4.2,4.6-7.1,3.6l-6.2-2c-3-1-4.6-4.2-3.6-7.1l2-6.2c1-3,4.2-4.6,7.1-3.6l6.2,2c2.9.9,4.5,4.1,3.6,7.1Z"/>
  <path class="st0" d="M124.9,61.9l2,6.2c1,3-.7,6.2-3.6,7.1l-6.2,2c-3,1-6.2-.7-7.1-3.6l-2-6.2c-1-3,.7-6.2,3.6-7.1l6.2-2c3-1,6.2.6,7.1,3.6Z"/>
  <path class="st0" d="M138.7,84.3l5.3,3.9c2.5,1.8,3.1,5.4,1.3,7.9l-3.9,5.3c-1.8,2.5-5.4,3.1-7.9,1.3l-5.3-3.9c-2.5-1.8-3.1-5.4-1.3-7.9l3.9-5.3c1.8-2.6,5.4-3.1,7.9-1.3Z"/>
  <path class="st0" d="M163.1,94.3h6.6c3.1,0,5.7,2.6,5.7,5.7v6.6c0,3.1-2.6,5.7-5.7,5.7h-6.6c-3.1,0-5.7-2.6-5.7-5.7v-6.6c0-3.1,2.5-5.7,5.7-5.7Z"/>
  <path class="st0" d="M188.6,88.1l5.3-3.9c2.5-1.8,6.1-1.3,7.9,1.3l3.9,5.3c1.8,2.5,1.3,6.1-1.3,7.9l-5.3,3.9c-2.5,1.8-6.1,1.3-7.9-1.3l-3.9-5.3c-1.7-2.5-1.2-6,1.3-7.9Z"/>
  <path class="st0" d="M205.7,68.1l2-6.2c1-3,4.2-4.6,7.1-3.6l6.2,2c3,1,4.6,4.2,3.6,7.1l-2,6.2c-1,3-4.2,4.6-7.1,3.6l-6.2-2c-2.9-.9-4.5-4.1-3.6-7.1Z"/>
  <path class="st0" d="M207.8,41.9l-2-6.2c-1-3,.7-6.2,3.6-7.1l6.2-2c3-1,6.2.7,7.1,3.6l2,6.2c1,3-.7,6.2-3.6,7.1l-6.2,2c-3,1-6.2-.7-7.1-3.6Z"/>
  <path class="st0" d="M194,19.4l-5.3-3.9c-2.5-1.8-3.1-5.4-1.3-7.9l3.9-5.3c1.8-2.5,5.4-3.1,7.9-1.3l5.3,3.9c2.5,1.8,3.1,5.4,1.3,7.9l-3.9,5.3c-1.9,2.6-5.4,3.2-7.9,1.3Z"/>
  <circle class="st0" cx="166.3" cy="51.9" r="38.2"/>
</svg>