<?xml version="1.0" encoding="utf-8"?>
<!-- Generator: Adobe Illustrator 20.0.0, SVG Export Plug-In . SVG Version: 6.00 Build 0)  -->
<svg version="1.1" id="Layer_1" xmlns="http://www.w3.org/2000/svg" xmlns:xlink="http://www.w3.org/1999/xlink" x="0px" y="0px"
	 viewBox="0 0 225.1 202.2" style="enable-background:new 0 0 225.1 202.2;" xml:space="preserve">
<style type="text/css">
	.st0{fill:#B8B092;}
</style>
<path class="st0" d="M36.4,105.6l-5.3,3.9c-2.5,1.8-6.1,1.3-7.9-1.3l-3.9-5.3c-1.8-2.5-1.3-6.1,1.3-7.9l5.3-3.9
	c2.5-1.8,6.1-1.3,7.9,1.3l3.9,5.3C39.5,100.2,38.9,103.7,36.4,105.6z"/>
<path class="st0" d="M19.3,125.6l-2,6.2c-1,3-4.2,4.6-7.1,3.6l-6.2-2c-3-1-4.6-4.2-3.6-7.1l2-6.2c1-3,4.2-4.6,7.1-3.6l6.2,2
	C18.7,119.4,20.3,122.6,19.3,125.6z"/>
<path class="st0" d="M17.3,151.9l2,6.2c1,3-0.7,6.2-3.6,7.1l-6.2,2c-3,1-6.2-0.7-7.1-3.6l-2-6.2c-1-3,0.7-6.2,3.6-7.1l6.2-2
	C13.1,147.3,16.3,148.9,17.3,151.9z"/>
<path class="st0" d="M31.1,174.3l5.3,3.9c2.5,1.8,3.1,5.4,1.3,7.9l-3.9,5.3c-1.8,2.5-5.4,3.1-7.9,1.3l-5.3-3.9
	c-2.5-1.8-3.1-5.4-1.3-7.9l3.9-5.3C25,173,28.6,172.5,31.1,174.3z"/>
<path class="st0" d="M55.4,184.3H62c3.1,0,5.7,2.6,5.7,5.7v6.6c0,3.1-2.6,5.7-5.7,5.7h-6.6c-3.1,0-5.7-2.6-5.7-5.7V190
	C49.8,186.9,52.3,184.3,55.4,184.3z"/>
<path class="st0" d="M81,178.1l5.3-3.9c2.5-1.8,6.1-1.3,7.9,1.3l3.9,5.3c1.8,2.5,1.3,6.1-1.3,7.9l-5.3,3.9c-2.5,1.8-6.1,1.3-7.9-1.3
	l-3.9-5.3C77.9,183.5,78.5,180,81,178.1z"/>
<path class="st0" d="M98.1,158.1l2-6.2c1-3,4.2-4.6,7.1-3.6l6.2,2c3,1,4.6,4.2,3.6,7.1l-2,6.2c-1,3-4.2,4.6-7.1,3.6l-6.2-2
	C98.8,164.3,97.1,161.1,98.1,158.1z"/>
<path class="st0" d="M100.1,131.9l-2-6.2c-1-3,0.7-6.2,3.6-7.1l6.2-2c3-1,6.2,0.7,7.1,3.6l2,6.2c1,3-0.7,6.2-3.6,7.1l-6.2,2
	C104.3,136.5,101.1,134.8,100.1,131.9z"/>
<path class="st0" d="M86.3,109.4l-5.3-3.9c-2.5-1.8-3.1-5.4-1.3-7.9l3.9-5.3c1.8-2.5,5.4-3.1,7.9-1.3l5.3,3.9
	c2.5,1.8,3.1,5.4,1.3,7.9l-3.9,5.3C92.4,110.7,88.9,111.3,86.3,109.4z"/>
<circle class="st0" cx="58.7" cy="141.9" r="38.2"/>
<path class="st0" d="M144,15.6l-5.3,3.9c-2.5,1.8-6.1,1.3-7.9-1.3l-3.9-5.3c-1.8-2.5-1.3-6.1,1.3-7.9l5.3-3.9
	c2.5-1.8,6.1-1.3,7.9,1.3l3.9,5.3C147.1,10.2,146.6,13.7,144,15.6z"/>
<path class="st0" d="M127,35.6l-2,6.2c-1,3-4.2,4.6-7.1,3.6l-6.2-2c-3-1-4.6-4.2-3.6-7.1l2-6.2c1-3,4.2-4.6,7.1-3.6l6.2,2
	C126.3,29.4,127.9,32.6,127,35.6z"/>
<path class="st0" d="M124.9,61.9l2,6.2c1,3-0.7,6.2-3.6,7.1l-6.2,2c-3,1-6.2-0.7-7.1-3.6l-2-6.2c-1-3,0.7-6.2,3.6-7.1l6.2-2
	C120.8,57.3,124,58.9,124.9,61.9z"/>
<path class="st0" d="M138.7,84.3l5.3,3.9c2.5,1.8,3.1,5.4,1.3,7.9l-3.9,5.3c-1.8,2.5-5.4,3.1-7.9,1.3l-5.3-3.9
	c-2.5-1.8-3.1-5.4-1.3-7.9l3.9-5.3C132.6,83,136.2,82.5,138.7,84.3z"/>
<path class="st0" d="M163.1,94.3h6.6c3.1,0,5.7,2.6,5.7,5.7v6.6c0,3.1-2.6,5.7-5.7,5.7h-6.6c-3.1,0-5.7-2.6-5.7-5.7V100
	C157.4,96.9,159.9,94.3,163.1,94.3z"/>
<path class="st0" d="M188.6,88.1l5.3-3.9c2.5-1.8,6.1-1.3,7.9,1.3l3.9,5.3c1.8,2.5,1.3,6.1-1.3,7.9l-5.3,3.9
	c-2.5,1.8-6.1,1.3-7.9-1.3l-3.9-5.3C185.6,93.5,186.1,90,188.6,88.1z"/>
<path class="st0" d="M205.7,68.1l2-6.2c1-3,4.2-4.6,7.1-3.6l6.2,2c3,1,4.6,4.2,3.6,7.1l-2,6.2c-1,3-4.2,4.6-7.1,3.6l-6.2-2
	C206.4,74.3,204.8,71.1,205.7,68.1z"/>
<path class="st0" d="M207.8,41.9l-2-6.2c-1-3,0.7-6.2,3.6-7.1l6.2-2c3-1,6.2,0.7,7.1,3.6l2,6.2c1,3-0.7,6.2-3.6,7.1l-6.2,2
	C211.9,46.5,208.7,44.8,207.8,41.9z"/>
<path class="st0" d="M194,19.4l-5.3-3.9c-2.5-1.8-3.1-5.4-1.3-7.9l3.9-5.3c1.8-2.5,5.4-3.1,7.9-1.3l5.3,3.9c2.5,1.8,3.1,5.4,1.3,7.9
	l-3.9,5.3C200,20.7,196.5,21.3,194,19.4z"/>
<circle class="st0" cx="166.3" cy="51.9" r="38.2"/>
</svg>
