<?xml version="1.0" encoding="UTF-8"?>
<svg id="Layer_1" xmlns="http://www.w3.org/2000/svg" version="1.1" viewBox="0 0 123.9 127.8">
  <!-- Generator: Adobe Illustrator 30.3.0, SVG Export Plug-In . SVG Version: 2.1.3 Build 182)  -->
  <defs>
    <style>
      .st0 {
        fill: #ff6c00;
      }
    </style>
  </defs>
  <path class="st0" d="M15.2,17.9h-6.6c-3.1,0-5.7-2.6-5.7-5.7v-6.5C3,2.6,5.5,0,8.6,0h6.6C18.3,0,20.9,2.6,20.9,5.7v6.6c0,3.1-2.6,5.6-5.7,5.6Z"/>
  <rect class="st0" y="22" width="123.9" height="33.8"/>
  <path class="st0" d="M47.7,17.9h-6.6c-3.1,0-5.7-2.6-5.7-5.7v-6.5C35.4,2.6,38,0,41.1,0h6.6C50.8,0,53.4,2.6,53.4,5.7v6.6c0,3.1-2.6,5.6-5.7,5.6Z"/>
  <path class="st0" d="M80.1,17.9h-6.6c-3.1,0-5.7-2.6-5.7-5.7v-6.5C67.8,2.6,70.4,0,73.5,0h6.6C83.2,0,85.8,2.6,85.8,5.7v6.6c0,3.1-2.6,5.6-5.7,5.6Z"/>
  <path class="st0" d="M112.6,17.9h-6.6c-3.1,0-5.7-2.6-5.7-5.7v-6.5C100.3,2.6,102.9,0,106,0h6.6C115.7,0,118.3,2.6,118.3,5.7v6.6c0,3.1-2.6,5.6-5.7,5.6Z"/>
  <path class="st0" d="M15.2,89.9h-6.6c-3.1,0-5.7-2.6-5.7-5.7v-6.6c0-3,2.6-5.6,5.7-5.6h6.6c3.1,0,5.7,2.6,5.7,5.7v6.6c0,3.1-2.6,5.6-5.7,5.6Z"/>
  <rect class="st0" y="94" width="123.9" height="33.8"/>
  <path class="st0" d="M47.7,89.9h-6.6c-3.1,0-5.7-2.6-5.7-5.7v-6.6c0-3.1,2.6-5.7,5.7-5.7h6.6c3.1,0,5.7,2.6,5.7,5.7v6.6c-.1,3.2-2.6,5.7-5.7,5.7Z"/>
  <path class="st0" d="M80.1,89.9h-6.6c-3.1,0-5.7-2.6-5.7-5.7v-6.6c0-3.1,2.6-5.7,5.7-5.7h6.6c3.1,0,5.7,2.6,5.7,5.7v6.6c0,3.2-2.6,5.7-5.7,5.7Z"/>
  <path class="st0" d="M112.6,89.9h-6.6c-3.1,0-5.7-2.6-5.7-5.7v-6.6c0-3.1,2.6-5.7,5.7-5.7h6.6c3.1,0,5.7,2.6,5.7,5.7v6.6c0,3.2-2.6,5.7-5.7,5.7Z"/>
</svg>