<svg width="128" height="62" viewBox="0 0 128 62" fill="none" xmlns="http://www.w3.org/2000/svg">
<g clip-path="url(#clip0_134_296)">
<path d="M17.9022 38.5264V19.4735C17.9022 13.8419 21.6242 12 24.5488 12C25.559 12 28.0582 12.2104 29.5999 14.2104C31.0887 16.2631 31.0887 17.8949 31.0887 19.4735V50H26.9944V42.3158H21.9965V50H17.9022V42.3158H14.3928L12 38.5264H17.9022ZM26.9944 38.5264V19.4735C26.9944 18.2105 26.9944 16.0524 24.4953 16.0524C21.9965 16.0524 21.9965 18.2628 21.9965 19.4735V38.5264H26.9944Z" fill="white"/>
<path d="M37.6459 50V16.9998H33.1797V12.9474H46.2599V17H41.7936V50.0003H37.6459V50Z" fill="white"/>
<path d="M49.0425 12.9474H53.1367V38.5264H58.4004V12.9474H62.4949V50H58.4004V42.3158H53.1367V50H49.0425V12.9474Z" fill="white"/>
<path d="M65.6606 12.9474H77.3585V17H69.7549V38.5264H77.3585V42.3158H69.7549V43.8424C69.7549 45.158 69.7549 45.9473 71.2969 45.9473H77.3585V50H71.2969C65.8204 50 65.6606 45.6317 65.6606 43.8421V12.9474Z" fill="white"/>
<path d="M80.5664 50V12.9474L89.4995 26.3684V12.9474H93.6472V50.0003H89.4995V33.737L84.6609 26.6227V50H80.5664Z" fill="white"/>
<path d="M116 38.5264L113.607 42.3158H110.098V50H106.003V42.3158H101.005V50H96.9111V19.4735C96.9111 17.8946 96.9111 16.2631 98.3997 14.2104C99.942 12.2104 102.441 12 103.451 12C106.376 12 110.098 13.8419 110.098 19.4735V38.5264H116ZM106.003 38.5264V19.4735C106.003 18.2631 106.003 16.0524 103.504 16.0524C101.005 16.0524 101.005 18.2102 101.005 19.4735V38.5264H106.003Z" fill="white"/>
</g>
<defs>
<clipPath id="clip0_134_296">
<rect width="104" height="38" fill="white" transform="translate(12 12)"/>
</clipPath>
</defs>
</svg>
