<?xml version="1.0" encoding="utf-8"?>
<!-- Generator: Adobe Illustrator 20.0.0, SVG Export Plug-In . SVG Version: 6.00 Build 0)  -->
<svg version="1.1" id="Layer_1" xmlns="http://www.w3.org/2000/svg" xmlns:xlink="http://www.w3.org/1999/xlink" x="0px" y="0px"
	 viewBox="0 0 123.9 180.9" style="enable-background:new 0 0 123.9 180.9;" xml:space="preserve">
<style type="text/css">
	.st0{fill:#B8B092;}
</style>
<path class="st0" d="M15.7,17.9H9.1c-3.1,0-5.7-2.6-5.7-5.7V5.7C3.5,2.6,6,0,9.1,0h6.6c3.1,0,5.7,2.6,5.7,5.7v6.6
	C21.4,15.4,18.8,17.9,15.7,17.9z"/>
<rect y="23" class="st0" width="123.9" height="33.8"/>
<path class="st0" d="M48.2,17.9h-6.6c-3.1,0-5.7-2.6-5.7-5.7V5.7c0-3.1,2.6-5.7,5.7-5.7h6.6c3.1,0,5.7,2.6,5.7,5.7v6.6
	C53.8,15.4,51.3,17.9,48.2,17.9z"/>
<path class="st0" d="M80.6,17.9h-6.6c-3.1,0-5.7-2.6-5.7-5.7V5.7c0-3.1,2.6-5.7,5.7-5.7h6.6c3.1,0,5.7,2.6,5.7,5.7v6.6
	C86.3,15.4,83.7,17.9,80.6,17.9z"/>
<path class="st0" d="M113.1,17.9h-6.6c-3.1,0-5.7-2.6-5.7-5.7V5.7c0-3.1,2.6-5.7,5.7-5.7h6.6c3.1,0,5.7,2.6,5.7,5.7v6.6
	C118.8,15.4,116.2,17.9,113.1,17.9z"/>
<path class="st0" d="M15.7,80.9H9.1c-3.1,0-5.7-2.6-5.7-5.7v-6.6C3.5,65.5,6,63,9.1,63h6.6c3.1,0,5.7,2.6,5.7,5.7v6.6
	C21.4,78.3,18.8,80.9,15.7,80.9z"/>
<path class="st0" d="M48.2,80.9h-6.6c-3.1,0-5.7-2.6-5.7-5.7v-6.6c0-3.1,2.6-5.7,5.7-5.7h6.6c3.1,0,5.7,2.6,5.7,5.7v6.6
	C53.8,78.3,51.3,80.9,48.2,80.9z"/>
<path class="st0" d="M80.6,80.9h-6.6c-3.1,0-5.7-2.6-5.7-5.7v-6.6c0-3.1,2.6-5.7,5.7-5.7h6.6c3.1,0,5.7,2.6,5.7,5.7v6.6
	C86.3,78.3,83.7,80.9,80.6,80.9z"/>
<path class="st0" d="M113.1,80.9h-6.6c-3.1,0-5.7-2.6-5.7-5.7v-6.6c0-3.1,2.6-5.7,5.7-5.7h6.6c3.1,0,5.7,2.6,5.7,5.7v6.6
	C118.8,78.3,116.2,80.9,113.1,80.9z"/>
<path class="st0" d="M15.7,117.9H9.1c-3.1,0-5.7-2.6-5.7-5.7v-6.6c0-3.1,2.6-5.7,5.7-5.7h6.6c3.1,0,5.7,2.6,5.7,5.7v6.6
	C21.4,115.4,18.8,117.9,15.7,117.9z"/>
<rect y="123" class="st0" width="123.9" height="33.8"/>
<path class="st0" d="M48.2,117.9h-6.6c-3.1,0-5.7-2.6-5.7-5.7v-6.6c0-3.1,2.6-5.7,5.7-5.7h6.6c3.1,0,5.7,2.6,5.7,5.7v6.6
	C53.8,115.4,51.3,117.9,48.2,117.9z"/>
<path class="st0" d="M80.6,117.9h-6.6c-3.1,0-5.7-2.6-5.7-5.7v-6.6c0-3.1,2.6-5.7,5.7-5.7h6.6c3.1,0,5.7,2.6,5.7,5.7v6.6
	C86.3,115.4,83.7,117.9,80.6,117.9z"/>
<path class="st0" d="M113.1,117.9h-6.6c-3.1,0-5.7-2.6-5.7-5.7v-6.6c0-3.1,2.6-5.7,5.7-5.7h6.6c3.1,0,5.7,2.6,5.7,5.7v6.6
	C118.8,115.4,116.2,117.9,113.1,117.9z"/>
<path class="st0" d="M15.7,180.9H9.1c-3.1,0-5.7-2.6-5.7-5.7v-6.6c0-3.1,2.6-5.7,5.7-5.7h6.6c3.1,0,5.7,2.6,5.7,5.7v6.6
	C21.4,178.3,18.8,180.9,15.7,180.9z"/>
<path class="st0" d="M48.2,180.9h-6.6c-3.1,0-5.7-2.6-5.7-5.7v-6.6c0-3.1,2.6-5.7,5.7-5.7h6.6c3.1,0,5.7,2.6,5.7,5.7v6.6
	C53.8,178.3,51.3,180.9,48.2,180.9z"/>
<path class="st0" d="M80.6,180.9h-6.6c-3.1,0-5.7-2.6-5.7-5.7v-6.6c0-3.1,2.6-5.7,5.7-5.7h6.6c3.1,0,5.7,2.6,5.7,5.7v6.6
	C86.3,178.3,83.7,180.9,80.6,180.9z"/>
<path class="st0" d="M113.1,180.9h-6.6c-3.1,0-5.7-2.6-5.7-5.7v-6.6c0-3.1,2.6-5.7,5.7-5.7h6.6c3.1,0,5.7,2.6,5.7,5.7v6.6
	C118.8,178.3,116.2,180.9,113.1,180.9z"/>
</svg>
