<svg width="132" height="80" viewBox="0 0 132 80" fill="none" xmlns="http://www.w3.org/2000/svg">
<g clip-path="url(#clip0_2034_109)">
<path fill-rule="evenodd" clip-rule="evenodd" d="M6.75874 56.7542C7.07934 56.7713 7.43795 56.7836 7.82742 56.7836C8.31664 56.7836 8.79637 56.7542 9.27371 56.7026C9.74156 56.6462 10.188 56.5456 10.6131 56.3788C11.0311 56.2169 11.4253 55.9814 11.7887 55.6773C12.152 55.3731 12.4821 54.9708 12.7695 54.4679C13.2255 53.6731 13.5366 52.8734 13.7195 52.0492C13.8904 51.22 13.9783 50.3173 13.9783 49.3263C13.9783 48.1537 13.8738 47.094 13.6601 46.1446C13.4463 45.2027 13.0996 44.4128 12.6223 43.7603C12.1449 43.1102 11.5156 42.6073 10.72 42.2492C9.92917 41.8886 8.93648 41.7021 7.74193 41.7021C7.38332 41.7021 7.05559 41.7169 6.75874 41.7267C6.54262 41.7389 6.32414 41.7512 6.11752 41.761V56.7149C6.30989 56.7296 6.52363 56.7468 6.75874 56.7542ZM7.14346 57.5563C6.89648 57.5539 6.64474 57.5391 6.39538 57.5244C6.15077 57.5097 5.91329 57.5048 5.67343 57.4974C5.43594 57.4852 5.2127 57.4852 4.99659 57.4852H1.06145V56.9259V56.6904H3.48143V41.7708H1.06145V40.976H5.34569C5.54993 40.976 5.7518 40.976 5.94653 40.9662C6.14365 40.9638 6.34314 40.954 6.545 40.9392H6.5545H6.564C6.76111 40.9392 6.96535 40.9343 7.16484 40.927C7.37383 40.9172 7.57806 40.9123 7.7823 40.9123C8.2169 40.9123 8.61113 40.9172 8.95786 40.9392C9.30459 40.954 9.62757 40.9785 9.93392 41.0177C10.2427 41.057 10.5324 41.111 10.8102 41.1796C11.0857 41.2459 11.385 41.3366 11.6889 41.4446C12.5961 41.7512 13.387 42.1658 14.0567 42.6834C14.724 43.2034 15.2726 43.8069 15.7001 44.4864C16.1323 45.1659 16.4458 45.9165 16.6453 46.7187C16.8519 47.5159 16.9493 48.3549 16.9493 49.2306C16.9493 50.2413 16.8281 51.1563 16.5907 51.9633C16.3508 52.7777 16.0207 53.4965 15.598 54.1269C15.18 54.7574 14.6908 55.297 14.1279 55.7533C13.5627 56.2071 12.9642 56.5775 12.323 56.8523C11.9668 57.0191 11.6272 57.1491 11.3018 57.2472C10.9789 57.338 10.644 57.4116 10.3092 57.4557C9.9743 57.4999 9.60857 57.5318 9.20959 57.549C8.81299 57.5612 8.35939 57.5686 7.84642 57.5686H7.77755C7.58044 57.5686 7.37383 57.5686 7.14346 57.5563ZM21.6467 50.1162H25.7766L23.7081 44.4839L21.6467 50.1162ZM25.8764 57.4827V56.6904H28.1871L26.0782 50.9134H21.3428L19.2268 56.6904H21.5446V57.4827H16.3959V56.9259V56.6904H18.3861L24.2662 40.5737H25.1117L31.0393 56.6904H33.0437V57.4827H25.8764Z" fill="#970A2C"/>
<path fill-rule="evenodd" clip-rule="evenodd" d="M38.0592 57.8204L32.1335 41.7733H30.1035V41.5347V41.219V40.9775H37.2921V41.7733H34.9835L39.4835 53.9175L43.9249 41.7733H41.6478V40.9775H46.8192V41.7733H44.7864L38.9249 57.8204H38.0592Z" fill="#970A2C"/>
<path fill-rule="evenodd" clip-rule="evenodd" d="M46.7217 57.4857V56.9257V56.6899H49.1388V41.7728H46.7217V40.9785H54.1974V41.7728H51.7803V56.6899H54.1974V57.4857H46.7217Z" fill="#970A2C"/>
<path fill-rule="evenodd" clip-rule="evenodd" d="M61.5395 56.7544C61.8649 56.7716 62.2187 56.7838 62.6058 56.7838C63.0903 56.7838 63.5748 56.7544 64.0521 56.7029C64.52 56.6465 64.9641 56.5459 65.3915 56.3791C65.8024 56.2172 66.2014 55.9817 66.5623 55.6775C66.9281 55.3733 67.2582 54.9686 67.5503 54.4681C68.0015 53.6733 68.3174 52.8736 68.4907 52.0494C68.6665 51.2203 68.7591 50.3102 68.7591 49.3265C68.7591 48.1539 68.6546 47.0942 68.4385 46.1449C68.2247 45.2029 67.878 44.413 67.4007 43.7605C66.9281 43.1104 66.294 42.6076 65.496 42.2494C64.7099 41.8888 63.7172 41.7024 62.5179 41.7024C62.1593 41.7024 61.8292 41.7171 61.5395 41.7269C61.321 41.7392 61.1049 41.7514 60.8959 41.7613V56.7102C61.0835 56.7299 61.2973 56.747 61.5395 56.7544ZM61.9242 57.5565C61.6749 57.5541 61.4255 57.5394 61.1762 57.5247C60.9315 57.5099 60.6941 57.505 60.4542 57.4977C60.2167 57.4854 59.9935 57.4854 59.7726 57.4854H55.8398V56.9261V56.6906H58.2574V41.7711H55.8398V40.9763H60.1217C60.326 40.9763 60.5278 40.9763 60.7226 40.9665C60.9268 40.964 61.1239 40.9542 61.3258 40.9395H61.3329H61.3424C61.5443 40.9395 61.7414 40.9346 61.9409 40.9272C62.1498 40.9149 62.3565 40.9125 62.5631 40.9125C63 40.9125 63.3895 40.9223 63.7363 40.9395C64.0854 40.9542 64.4107 40.9787 64.7123 41.018C65.0234 41.0572 65.3132 41.1112 65.5863 41.1799C65.8689 41.2461 66.1634 41.3369 66.4673 41.4448C67.3698 41.7514 68.163 42.166 68.8327 42.6836C69.5024 43.2037 70.0486 43.8071 70.4809 44.4866C70.9083 45.1661 71.2218 45.9167 71.4213 46.7189C71.6255 47.5161 71.7253 48.3551 71.7253 49.2308C71.7253 50.2415 71.6089 51.1565 71.3667 51.966C71.1268 52.778 70.7967 53.4918 70.3764 54.1272C69.9584 54.7576 69.4668 55.2973 68.9039 55.7585C68.3459 56.2049 67.7426 56.5778 67.1014 56.8525C66.7428 57.0193 66.3985 57.1493 66.0802 57.2475C65.7501 57.3382 65.4272 57.4118 65.0852 57.456C64.7551 57.5001 64.387 57.532 63.9856 57.5492C63.5914 57.5615 63.1378 57.5688 62.6296 57.5688C62.4087 57.5688 62.1736 57.5688 61.9242 57.5565ZM78.3409 57.8038C78.0987 57.7965 77.8778 57.7768 77.6617 57.7474C77.4599 57.718 77.258 57.6861 77.0443 57.6444C76.8305 57.6076 76.6025 57.5487 76.346 57.4727C76.0492 57.3794 75.7333 57.2715 75.4008 57.1538C75.0779 57.0409 74.8095 56.9869 74.6053 56.9869C74.4105 56.9845 74.3274 57.0336 74.3274 57.0409C74.2704 57.1096 74.2158 57.2004 74.1659 57.3377L74.1018 57.4849H73.3893V52.4095V52.1667H74.0496L74.0899 52.3605C74.2443 53.1503 74.4485 53.8151 74.6908 54.3548C74.9401 54.892 75.2109 55.3287 75.4935 55.6672C75.788 56.0155 76.0872 56.2731 76.3959 56.4497C76.7118 56.6362 77.0276 56.7662 77.3506 56.8569C77.6783 56.9403 77.9942 56.9943 78.2863 57.0066C78.595 57.0237 78.8871 57.0286 79.1555 57.0237C79.906 57.0286 80.502 56.9134 80.9556 56.6901C81.4235 56.4595 81.7868 56.1774 82.0481 55.8438C82.3212 55.5004 82.5064 55.1324 82.6133 54.7375C82.7297 54.3254 82.7795 53.9525 82.7795 53.6262C82.7795 53.1258 82.6964 52.7137 82.5231 52.3801C82.3473 52.0293 82.1265 51.7349 81.8581 51.4896C81.585 51.2419 81.2881 51.0432 80.9628 50.8886C80.635 50.7292 80.3192 50.609 80.0223 50.5158L77.5192 49.7259C76.3175 49.3432 75.3961 48.8379 74.762 48.1853C74.1018 47.523 73.7788 46.6178 73.7788 45.5409C73.7788 44.8345 73.9071 44.1746 74.1493 43.5736C74.3915 42.9652 74.7406 42.4378 75.1824 41.9963C75.6288 41.5547 76.1584 41.2015 76.7735 40.9562C77.3886 40.701 78.0631 40.5759 78.7874 40.5759C79.3075 40.5759 79.754 40.6225 80.1173 40.7182C80.4688 40.8139 80.7704 40.9169 81.0388 41.0322C81.2858 41.1499 81.5042 41.2481 81.7014 41.3388C81.8723 41.4149 82.0338 41.4541 82.2096 41.4541C82.3331 41.4541 82.5017 41.4124 82.6608 41.0984L82.7249 40.9782H83.3899V45.5311H82.7035L82.6751 45.33C82.5919 44.8148 82.4494 44.3046 82.2452 43.8262C82.0457 43.343 81.7868 42.9235 81.4662 42.558C81.1528 42.1999 80.7799 41.9153 80.3311 41.6945C79.8988 41.4811 79.3835 41.3683 78.7874 41.3683C78.462 41.3683 78.0892 41.4149 77.6831 41.5056C77.2865 41.6038 76.916 41.7534 76.574 41.9815C76.2463 42.2072 75.9708 42.4967 75.7476 42.8548C75.5362 43.2007 75.4198 43.6447 75.4198 44.2138C75.4198 44.6627 75.5125 45.0209 75.6763 45.3226C75.8449 45.6292 76.0682 45.8917 76.3389 46.1002C76.6239 46.3259 76.9398 46.5099 77.296 46.6595C77.657 46.8165 78.0298 46.949 78.3955 47.0692L81.0316 47.9278C81.3142 48.0185 81.661 48.1387 82.0861 48.2835C82.5302 48.4478 82.96 48.6833 83.3733 48.9949C83.8079 49.3138 84.1688 49.743 84.4633 50.2606C84.772 50.8003 84.9193 51.4725 84.9193 52.2697C84.9193 53.0056 84.7887 53.7096 84.5227 54.3793C84.2543 55.0392 83.8743 55.6304 83.3733 56.1455C82.8674 56.6533 82.2618 57.0605 81.5565 57.3647C80.8369 57.6664 80.0413 57.821 79.1555 57.821C78.8468 57.821 78.576 57.8161 78.3409 57.8038ZM89.5334 52.6987C89.7115 53.6824 89.987 54.4919 90.3765 55.1395C90.766 55.7798 91.2552 56.2508 91.856 56.5574C92.4521 56.864 93.2049 57.0284 94.1264 57.0284C95.0312 57.0284 95.7817 56.864 96.3896 56.5574C96.9952 56.2508 97.4868 55.7798 97.8739 55.1395C98.2586 54.4919 98.546 53.6824 98.717 52.6987C98.8856 51.7151 98.9687 50.5474 98.9687 49.2056C98.9687 48.1802 98.907 47.1941 98.7835 46.2349C98.6505 45.2905 98.4059 44.4589 98.052 43.723C97.6982 42.9993 97.209 42.4277 96.5772 42.0083C95.9716 41.5863 95.1547 41.368 94.1264 41.368C93.0981 41.368 92.2811 41.5863 91.6684 42.0083C91.0414 42.4277 90.5593 42.9993 90.2031 43.723C89.8469 44.4589 89.6046 45.2905 89.474 46.2349C89.3482 47.1941 89.2817 48.1802 89.2817 49.2056C89.2817 50.5474 89.3648 51.7151 89.5334 52.6987ZM94.1264 57.8232C93.0078 57.8232 91.9605 57.5754 90.9939 57.0946C90.0464 56.6212 89.2175 55.9809 88.517 55.1861C87.8235 54.3963 87.282 53.4715 86.8973 52.4338C86.5078 51.3962 86.3178 50.3193 86.3178 49.2056C86.3178 47.9766 86.5482 46.8335 87.0232 45.7786C87.4863 44.7336 88.0919 43.826 88.8352 43.0582C89.569 42.2806 90.405 41.6771 91.324 41.238C92.255 40.7965 93.1931 40.5757 94.1264 40.5757C95.1191 40.5757 96.0904 40.794 97.0237 41.238C97.957 41.6771 98.7882 42.2806 99.5221 43.0582C100.251 43.8285 100.84 44.7385 101.277 45.7811C101.719 46.8384 101.94 47.9766 101.94 49.2056C101.94 50.2874 101.735 51.3447 101.336 52.3798C100.935 53.4126 100.379 54.33 99.6788 55.1297C98.9806 55.9319 98.1494 56.5795 97.209 57.075C96.2519 57.5705 95.2212 57.8232 94.1335 57.8232H94.1264Z" fill="#970A2C"/>
<path fill-rule="evenodd" clip-rule="evenodd" d="M114.662 57.7962L105.8 43.2105V56.6876H108.222V57.4848H102.597V56.929V56.6876H105.014V41.7733H102.597V40.9805H107.62L114.665 52.7148V41.7733H112.242V40.9805H117.87V41.7733H115.451V57.7962H114.662Z" fill="#970A2C"/>
<path fill-rule="evenodd" clip-rule="evenodd" d="M124.091 57.8036C123.849 57.7962 123.628 57.7766 123.407 57.7521C123.205 57.7177 123.003 57.6858 122.787 57.6441C122.578 57.6073 122.348 57.5484 122.096 57.4724C121.799 57.3792 121.481 57.2713 121.153 57.1535C120.828 57.0407 120.557 56.9867 120.348 56.9867C120.158 56.9867 120.078 57.0333 120.073 57.0407C120.018 57.1069 119.959 57.2001 119.909 57.3375L119.852 57.4847H119.14V52.4093V52.1664H119.795L119.835 52.3578C119.992 53.1501 120.199 53.8149 120.436 54.3546C120.686 54.8918 120.954 55.3284 121.248 55.6719C121.536 56.0153 121.835 56.2729 122.141 56.4495C122.46 56.6359 122.775 56.7659 123.098 56.8567C123.429 56.9401 123.74 56.9941 124.034 57.0063C124.338 57.0235 124.63 57.0235 124.906 57.0235C125.651 57.0284 126.252 56.9131 126.701 56.6899C127.174 56.4593 127.532 56.1747 127.801 55.8436C128.069 55.5001 128.257 55.1297 128.366 54.7372C128.48 54.3251 128.532 53.9498 128.532 53.6235C128.532 53.1256 128.444 52.7135 128.276 52.3798C128.098 52.0291 127.874 51.7347 127.611 51.4894C127.33 51.2416 127.036 51.0405 126.711 50.8884C126.381 50.7289 126.069 50.6087 125.775 50.5131L123.262 49.7256C122.07 49.3429 121.146 48.8376 120.503 48.1802C119.852 47.5228 119.529 46.6176 119.531 45.5407C119.531 44.8391 119.65 44.1768 119.9 43.5733C120.139 42.965 120.484 42.4376 120.935 41.9985C121.37 41.5545 121.911 41.2012 122.521 40.9559C123.134 40.7008 123.811 40.5757 124.538 40.5757C125.055 40.5757 125.502 40.6223 125.868 40.718C126.219 40.8136 126.521 40.9167 126.784 41.0393C127.031 41.1497 127.252 41.2478 127.454 41.3386C127.62 41.4146 127.786 41.4539 127.957 41.4539C128.079 41.4539 128.164 41.4367 128.185 41.422H128.2C128.204 41.422 128.302 41.2993 128.409 41.0957L128.473 40.978H129.145V45.5309H128.456L128.423 45.3346C128.34 44.8121 128.197 44.3043 127.995 43.826C127.791 43.3427 127.532 42.9233 127.216 42.5578C126.903 42.1996 126.528 41.9151 126.084 41.6943C125.642 41.4809 125.129 41.368 124.538 41.368C124.208 41.368 123.842 41.4146 123.429 41.5054C123.032 41.6035 122.669 41.7532 122.327 41.9813C121.994 42.207 121.719 42.4964 121.495 42.857C121.279 43.2005 121.175 43.642 121.172 44.2136C121.175 44.6625 121.256 45.0206 121.422 45.3224C121.593 45.629 121.814 45.8915 122.092 46.1C122.374 46.3257 122.69 46.5097 123.039 46.6593C123.405 46.8163 123.773 46.9487 124.141 47.0689L126.779 47.9202C127.062 48.0183 127.411 48.1385 127.839 48.2832C128.278 48.4476 128.713 48.6831 129.126 48.9946C129.551 49.3135 129.917 49.7379 130.211 50.2604C130.52 50.7976 130.67 51.4722 130.67 52.2694C130.67 53.0054 130.534 53.7094 130.268 54.3791C130.002 55.0439 129.615 55.6277 129.116 56.1453C128.615 56.6531 128.007 57.0603 127.302 57.3645C126.587 57.6662 125.787 57.8207 124.906 57.8207C124.597 57.8207 124.326 57.8158 124.091 57.8036Z" fill="#970A2C"/>
<path fill-rule="evenodd" clip-rule="evenodd" d="M33.8974 79.4757V79.2671V78.7429H36.2802V71.55H29.5345V78.7429H31.9188V78.9543V79.4757H24.5888V79.2671V78.9543V78.7429H26.9731L26.9745 63.98H24.5888V63.7714V63.25H31.9188V63.4571V63.98H29.5345V70.8143H36.2816V63.98H33.8974V63.7714V63.25H41.2245V63.4571V63.98H38.8445V78.7429H41.2245V78.9543V79.4757H33.8974Z" fill="#970A2C"/>
<path fill-rule="evenodd" clip-rule="evenodd" d="M45.8013 74.7838C45.9699 75.7577 46.2477 76.5647 46.6325 77.2001C47.0172 77.8379 47.4993 78.304 48.0977 78.613C48.6891 78.9172 49.4395 79.0767 50.3467 79.0767C51.2421 79.0767 51.9854 78.9172 52.5886 78.613C53.1894 78.304 53.6787 77.8379 54.0634 77.2001C54.4505 76.5647 54.7283 75.7577 54.8993 74.7838C55.0656 73.8148 55.1535 72.6644 55.1535 71.3446C55.1511 70.329 55.0893 69.3527 54.9587 68.4083C54.8329 67.4712 54.5906 66.6445 54.2391 65.9209C53.8853 65.2021 53.4056 64.6355 52.7833 64.2135C52.173 63.7965 51.3679 63.5831 50.3467 63.5831C49.3255 63.5831 48.5228 63.7965 47.9149 64.2135C47.2903 64.6355 46.8106 65.2021 46.4591 65.9209C46.1052 66.6445 45.8654 67.4712 45.7419 68.4083C45.6065 69.3527 45.5471 70.329 45.5471 71.3446C45.5471 72.6644 45.635 73.8148 45.8013 74.7838ZM50.3467 79.8078C49.2472 79.8126 48.2165 79.5697 47.2737 79.1012C46.3332 78.6302 45.5186 78.0022 44.8347 77.2197C44.1507 76.4396 43.6211 75.5344 43.2364 74.514C42.8564 73.4935 42.6641 72.4289 42.6641 71.3446C42.6641 70.1328 42.8968 69.0068 43.3623 67.9643C43.8206 66.9414 44.4167 66.0435 45.141 65.2855C45.8701 64.5275 46.6847 63.9314 47.5943 63.4972C48.5086 63.063 49.4277 62.8447 50.3467 62.8447C51.3228 62.8447 52.2751 63.063 53.1989 63.4972C54.1109 63.9314 54.9326 64.5275 55.6545 65.2855C56.3741 66.0435 56.9465 66.9463 57.3787 67.9741C57.8157 69.0093 58.0318 70.1328 58.0318 71.3446C58.0318 72.4068 57.8323 73.4469 57.4357 74.46C57.0415 75.4756 56.4952 76.3783 55.8065 77.1657C55.1178 77.9532 54.3056 78.591 53.3747 79.0767C52.439 79.5624 51.4344 79.8078 50.3586 79.8078H50.3467Z" fill="#970A2C"/>
<path fill-rule="evenodd" clip-rule="evenodd" d="M62.7309 65.1819V78.7405H65.1152V78.9547V79.479H59.6152V79.2676V78.9547V78.7405H61.9967V63.9805H59.6152V63.7719V63.249H64.7967L68.6509 74.8176L72.5024 63.249H77.5995V63.4576V63.9805H75.2152V78.7405H77.5995V78.9547V79.479H70.2709V79.2676V78.7405H72.6581V65.0347L67.6838 79.9376L62.7309 65.1819Z" fill="#970A2C"/>
<path fill-rule="evenodd" clip-rule="evenodd" d="M79.4433 79.4763V79.2678V78.9538V78.7429H81.8277V63.9803H79.4433V63.7718V63.2493H92.1417V67.5078H91.9375H91.5551L91.5052 67.3705C91.3224 66.7989 91.1253 66.296 90.9163 65.8741C90.7144 65.4497 90.4674 65.1014 90.1848 64.8168C89.9022 64.5372 89.5745 64.3287 89.1874 64.1913C88.7979 64.0515 88.3205 63.9803 87.7458 63.9803H84.3902V70.4221H85.5776C86.0359 70.4221 86.4207 70.3755 86.7294 70.2921C87.0239 70.2111 87.2709 70.0639 87.4846 69.848C87.696 69.6322 87.8836 69.3206 88.0403 68.9159C88.2018 68.5111 88.3609 67.9788 88.5153 67.3116L88.5533 67.1521H88.7148H89.1565V74.4794H88.9499H88.5533L88.5153 74.32C88.4155 73.8981 88.3087 73.4835 88.2042 73.0836C88.1044 72.7059 87.9596 72.3649 87.7815 72.0754C87.6033 71.7958 87.3754 71.575 87.0761 71.4057C86.8006 71.2438 86.4159 71.1506 85.9196 71.1506H84.383V78.7429H88.2422C88.9998 78.7429 89.6101 78.5736 90.0969 78.2547C90.6028 77.9211 91.0065 77.5261 91.32 77.065C91.6382 76.6013 91.871 76.1279 92.0206 75.6275C92.1749 75.1172 92.2747 74.6978 92.3127 74.3764L92.3388 74.1973H92.5193H92.9586V79.4763H79.4433ZM101.479 79.8095C101.175 79.8095 100.909 79.7996 100.677 79.7972C100.442 79.7923 100.221 79.7727 100.009 79.7408C99.8075 79.7138 99.6056 79.677 99.4014 79.6402C99.1924 79.5985 98.9597 79.5445 98.7151 79.466C98.423 79.3777 98.1142 79.2747 97.7794 79.152C97.4659 79.0416 97.1975 78.9901 96.9885 78.9901C96.7962 78.9852 96.7059 79.0392 96.6964 79.049C96.6418 79.1177 96.5848 79.2109 96.5326 79.3434L96.4851 79.4783H96.3426H95.8154V74.4912V74.2802H96.0196H96.4257L96.459 74.4471C96.6133 75.2369 96.8128 75.8919 97.0527 76.4193C97.2973 76.9516 97.5656 77.3907 97.853 77.7268C98.1404 78.0678 98.4372 78.3254 98.7436 78.5044C99.0571 78.6884 99.3777 78.8209 99.6935 78.9067C100.014 78.9926 100.328 79.0416 100.615 79.0539C100.924 79.0662 101.211 79.076 101.479 79.076C102.22 79.076 102.814 78.9607 103.261 78.7399C103.724 78.5167 104.087 78.2346 104.351 77.901C104.619 77.5526 104.807 77.1896 104.913 76.7971C105.025 76.3899 105.075 76.0244 105.075 75.6859C105.075 75.2001 104.987 74.7905 104.818 74.452C104.645 74.1085 104.424 73.8166 104.156 73.5762C103.883 73.326 103.593 73.1273 103.27 72.9752C102.945 72.8158 102.636 72.698 102.341 72.6073L99.8716 71.8296C98.6889 71.4568 97.7817 70.9539 97.1548 70.3161C96.5159 69.6685 96.2001 68.7829 96.2001 67.7281C96.2001 67.0314 96.3236 66.3814 96.5634 65.7828C96.8009 65.1843 97.1382 64.6716 97.5751 64.2374C98.0121 63.8057 98.5322 63.4622 99.1354 63.212C99.7434 62.9692 100.404 62.8441 101.111 62.8441C101.624 62.8441 102.059 62.8931 102.42 62.9888C102.767 63.0746 103.068 63.1777 103.325 63.2979C103.567 63.4058 103.79 63.5088 103.98 63.5971C104.149 63.6781 104.315 63.7124 104.488 63.7124C104.655 63.7173 104.735 63.683 104.738 63.6781C104.752 63.6707 104.847 63.5481 104.954 63.3469L105.013 63.2488H105.127H105.638V67.6913H105.431H105.001L104.973 67.5098C104.89 66.9922 104.745 66.4967 104.548 66.0159C104.346 65.54 104.089 65.123 103.776 64.7648C103.465 64.4116 103.09 64.1221 102.645 63.9062C102.216 63.6904 101.705 63.58 101.111 63.58C100.786 63.58 100.425 63.6266 100.016 63.7222C99.6246 63.8106 99.2637 63.9676 98.9264 64.1908C98.5916 64.414 98.3137 64.701 98.0952 65.0592C97.8862 65.4026 97.7746 65.8491 97.7746 66.4133C97.7746 66.8597 97.8601 67.2203 98.0264 67.5171C98.1974 67.8262 98.4182 68.0887 98.6889 68.2997C98.9692 68.5155 99.2827 68.6995 99.6294 68.8467C99.9951 69.0037 100.356 69.1337 100.722 69.249L103.325 70.0978C103.6 70.1836 103.945 70.3087 104.358 70.4559C104.797 70.6056 105.22 70.841 105.628 71.1428C106.046 71.4617 106.402 71.8787 106.695 72.3914C106.999 72.9188 107.141 73.5762 107.141 74.3563C107.141 75.0799 107.01 75.7742 106.752 76.4242C106.49 77.0792 106.108 77.663 105.619 78.1585C105.125 78.659 104.531 79.0637 103.838 79.363C103.137 79.6598 102.356 79.8095 101.494 79.8095H101.479ZM64.6365 33.0886C55.9802 33.0886 48.9601 25.8373 48.9601 16.8886C48.9601 7.94713 55.9802 0.698321 64.6365 0.698321C73.2977 0.698321 80.3154 7.94713 80.3154 16.8886C80.3154 25.8373 73.2977 33.0886 64.6365 33.0886ZM64.6365 0.0654297C55.6429 0.0654297 48.3521 7.59634 48.3521 16.8886C48.3521 26.1832 55.6429 33.7166 64.6365 33.7166C73.6373 33.7166 80.9257 26.1832 80.9257 16.8886C80.9257 7.59634 73.6373 0.0654297 64.6365 0.0654297Z" fill="#970A2C"/>
<path fill-rule="evenodd" clip-rule="evenodd" d="M69.696 17.429C69.6319 17.6547 69.544 17.8926 69.43 18.1478C69.316 18.4004 69.1688 18.631 68.9836 18.8493C68.8743 18.9818 68.7461 19.0922 68.6059 19.1952V17.8632C68.6914 17.8313 68.7793 17.7994 68.8672 17.7651C69.1902 17.6253 69.4894 17.4388 69.7601 17.2107L69.696 17.429ZM67.865 17.2573C67.827 17.2794 67.7866 17.299 67.7439 17.3186C67.6061 17.299 67.4494 17.2696 67.276 17.2033C67.0385 17.1175 66.8153 17.0439 66.6063 16.9825C66.4282 16.9261 66.2667 16.8893 66.1242 16.8574C65.9794 16.8329 65.8321 16.8059 65.6872 16.7838C65.54 16.7642 65.3856 16.752 65.2146 16.7495C65.1387 16.7471 65.0532 16.7397 64.9629 16.7397C64.9629 16.7397 64.9605 16.7397 64.9582 16.7348C64.9605 16.7299 64.9629 16.7274 64.9653 16.7225C65.4498 16.6906 65.8915 16.5925 66.2928 16.4232C66.7631 16.2246 67.1597 15.9572 67.4969 15.6285C67.8151 15.6554 68.1618 15.7364 68.5395 15.8762C68.6843 15.9326 68.8363 16.0013 68.9907 16.0774C68.8933 16.308 68.7461 16.5336 68.5323 16.7495C68.359 16.931 68.1381 17.1027 67.865 17.2573ZM65.2431 16.9825H65.2716C65.4973 16.9899 65.7276 17.0267 65.9722 17.088C66.2192 17.1592 66.4638 17.2622 66.6989 17.3971C66.7749 17.4388 66.8438 17.4903 66.915 17.5418C66.6039 17.5664 66.2786 17.5173 65.9295 17.3849C65.7039 17.3039 65.4759 17.1641 65.2431 16.9825ZM67.3853 19.5902C67.1407 19.5902 66.8652 19.5435 66.5659 19.4626C66.5232 19.4479 66.4828 19.4307 66.4401 19.4184C66.3522 19.3031 66.2643 19.1658 66.186 18.9916C66.0743 18.761 65.9699 18.5427 65.8654 18.344C65.7775 18.1772 65.6896 18.0325 65.6065 17.9074C65.521 17.7822 65.4355 17.6596 65.3476 17.5369C65.2598 17.4143 65.1553 17.2892 65.0413 17.1665C64.9914 17.1052 64.9297 17.0414 64.8679 16.9752V16.9654C64.8727 16.9654 64.8774 16.9654 64.8845 16.9678C65.2431 17.299 65.6255 17.5517 66.0245 17.7234C66.4923 17.9221 66.9625 18.0251 67.4209 18.0374C67.6251 18.2925 67.8151 18.604 67.9861 18.9793C68.0502 19.1216 68.112 19.2811 68.1666 19.4479C67.941 19.5386 67.6845 19.5902 67.3853 19.5902ZM67.7415 20.9173C67.542 21.035 67.314 21.1405 67.0599 21.2337C66.8106 21.3294 66.5422 21.3834 66.2667 21.403C66.0981 21.4201 65.9271 21.4005 65.7585 21.3686L66.6752 20.4267C66.7559 20.4708 66.8391 20.5125 66.9245 20.5469C67.2499 20.6867 67.5919 20.775 67.941 20.8118L67.7415 20.9173ZM64.8988 17.3505C64.9083 17.3603 64.913 17.3628 64.9202 17.3726C65.0745 17.5418 65.2123 17.7381 65.3429 17.9638C65.4688 18.1895 65.5733 18.4372 65.6421 18.712C65.6659 18.7856 65.673 18.8763 65.6872 18.9597C65.4569 18.7512 65.2621 18.4789 65.1054 18.1404C65.0033 17.9147 64.9415 17.6498 64.8988 17.3505ZM65.4735 20.7676C65.4213 20.9148 65.3548 21.0718 65.2788 21.2337C65.0555 21.1331 64.8394 20.9761 64.6304 20.7603C64.4523 20.5763 64.2885 20.3482 64.1388 20.071C64.1175 20.0317 64.0985 19.99 64.0795 19.9459C64.0961 19.8011 64.127 19.6417 64.1887 19.4626C64.2695 19.2173 64.3454 18.9867 64.4072 18.7684C64.4571 18.5844 64.4974 18.42 64.5212 18.268C64.5473 18.1183 64.5711 17.9687 64.5972 17.819C64.6114 17.6694 64.6257 17.5051 64.6352 17.3358C64.6352 17.2524 64.6352 17.1665 64.6376 17.0709C64.6376 17.0709 64.6399 17.0709 64.6423 17.0684C64.6494 17.0709 64.6518 17.0733 64.6542 17.0782C64.6851 17.5762 64.78 18.0325 64.9463 18.4446C65.1387 18.9278 65.3951 19.3424 65.7134 19.6883C65.6872 20.017 65.6089 20.3751 65.4735 20.7676ZM63.9702 21.9598C63.7517 21.8911 63.5214 21.8028 63.272 21.6851C63.0298 21.5673 62.8042 21.4128 62.5976 21.2264C62.4717 21.1111 62.3601 20.9737 62.2603 20.829H63.5499C63.5807 20.9173 63.6092 21.0105 63.6449 21.1012C63.7826 21.4349 63.9607 21.7464 64.184 22.0261L63.9702 21.9598ZM64.4072 17.3603V17.3873C64.3953 17.6228 64.3573 17.8657 64.298 18.1134C64.2338 18.3685 64.1341 18.6187 64.0011 18.8641C63.9583 18.9376 63.9109 19.0137 63.8586 19.0848C63.8372 18.7684 63.8847 18.4299 64.0106 18.0766C64.0937 17.8362 64.2291 17.5958 64.4072 17.3603ZM61.878 19.5754C61.878 19.3179 61.9207 19.0333 61.9991 18.7267C62.0157 18.685 62.03 18.6408 62.0442 18.5991C62.1582 18.5059 62.2864 18.4176 62.4527 18.3342C62.6807 18.2189 62.892 18.1085 63.082 18.0006C63.2483 17.9074 63.3884 17.824 63.5071 17.7332C63.633 17.6498 63.7517 17.5566 63.8657 17.4683C63.9845 17.3775 64.1056 17.272 64.2267 17.1567C64.2837 17.0978 64.3431 17.039 64.4072 16.9727H64.4143V16.9899C64.0961 17.3677 63.8491 17.7553 63.6852 18.1698C63.4929 18.6531 63.3931 19.129 63.3789 19.6098C63.1366 19.8207 62.8374 20.017 62.4717 20.1961C62.3292 20.2648 62.1772 20.3236 62.0157 20.38C61.9255 20.147 61.878 19.8796 61.878 19.5754ZM64.0486 17.0071C64.0438 17.0169 64.0367 17.0193 64.0272 17.0267C63.861 17.1837 63.671 17.3309 63.4549 17.4633C63.2388 17.5909 62.9942 17.6988 62.7305 17.7773C62.6545 17.797 62.5714 17.8043 62.4883 17.819C62.6925 17.5811 62.9562 17.3799 63.2815 17.2229C63.5 17.1175 63.7589 17.0488 64.0486 17.0071ZM60.7404 17.5958C60.5955 17.5443 60.4436 17.4781 60.2892 17.3971C60.3842 17.1665 60.5362 16.9433 60.7475 16.7274C60.9233 16.5459 61.1418 16.3742 61.4125 16.2172C61.4529 16.1951 61.4909 16.1755 61.5336 16.1608C61.6761 16.173 61.8281 16.2049 61.9991 16.2687C62.2413 16.357 62.4669 16.4306 62.6759 16.4944C62.8517 16.5508 63.0132 16.5876 63.158 16.617C63.3029 16.644 63.4478 16.6661 63.595 16.6906C63.7399 16.7103 63.899 16.725 64.0628 16.7299C64.1412 16.7348 64.2243 16.7348 64.3146 16.7372C64.3146 16.7372 64.3193 16.7397 64.3217 16.7471L64.3146 16.752C63.8277 16.7814 63.3836 16.8795 62.987 17.0561C62.5168 17.2524 62.1202 17.5198 61.783 17.8485C61.4671 17.8215 61.1228 17.7381 60.7404 17.5958ZM60.947 19.102C60.8164 19.4332 60.7333 19.7815 60.6977 20.147L60.5908 19.9385C60.4792 19.7349 60.3771 19.5018 60.2892 19.2394C60.1966 18.9744 60.1396 18.7021 60.1206 18.4176C60.1111 18.2434 60.1277 18.0717 60.1538 17.8926L61.0681 18.8346C61.0278 18.9229 60.985 19.0137 60.947 19.102ZM59.5197 16.2663L59.5839 16.0455C59.6456 15.8198 59.7358 15.5818 59.8498 15.3292C59.9638 15.0765 60.1111 14.8386 60.2963 14.6227C60.4032 14.4951 60.5386 14.3798 60.6787 14.2768V15.6137C60.5884 15.6407 60.5029 15.6751 60.4127 15.7094C60.0921 15.8517 59.7905 16.0381 59.5197 16.2663ZM64.0415 16.4944H64.0082C63.7826 16.4846 63.5499 16.4478 63.3076 16.3791C63.063 16.3178 62.8184 16.2172 62.5809 16.0749C62.5073 16.0357 62.4361 15.9842 62.3648 15.9326C62.6759 15.9081 63.0037 15.9596 63.3456 16.0896C63.576 16.1706 63.8064 16.3129 64.0415 16.4944ZM61.8946 13.8843C62.1416 13.8843 62.4194 13.9309 62.7115 14.0143C62.7543 14.0242 62.797 14.0413 62.8374 14.0585C62.9277 14.1738 63.0132 14.3112 63.0939 14.4804C63.2079 14.7159 63.3124 14.9342 63.4145 15.1305C63.5047 15.2997 63.5926 15.4445 63.6757 15.5696C63.7589 15.6947 63.8444 15.8198 63.9322 15.94C64.0248 16.0602 64.1222 16.1804 64.2338 16.3129C64.2885 16.3693 64.3502 16.4331 64.4096 16.5017V16.5091H64.4024C64.0367 16.1755 63.6567 15.9228 63.253 15.7511C62.7875 15.5524 62.3221 15.4469 61.8613 15.4371C61.6524 15.1894 61.4624 14.8729 61.2938 14.4951C61.2273 14.3529 61.1679 14.1959 61.1133 14.0241C61.3389 13.9334 61.5977 13.8843 61.8946 13.8843ZM61.5407 12.5572C61.7355 12.4444 61.9611 12.3389 62.2176 12.2408C62.4717 12.1451 62.7377 12.0911 63.0132 12.0691C63.1794 12.0617 63.3528 12.0764 63.5237 12.1034L62.6071 13.0503C62.5239 13.0061 62.4408 12.9644 62.3529 12.9301C62.0276 12.7854 61.6904 12.7019 61.3389 12.6676L61.5407 12.5572ZM64.3811 16.1289C64.3739 16.1191 64.3692 16.1117 64.3573 16.1019C64.2077 15.9351 64.0676 15.7364 63.9417 15.5107C63.8087 15.2875 63.709 15.0397 63.6354 14.7625C63.6164 14.6865 63.6092 14.5982 63.595 14.5172C63.823 14.7257 64.0153 14.998 64.1721 15.3341C64.2718 15.5598 64.3407 15.8272 64.3811 16.1289ZM63.8064 12.7093C63.8586 12.5597 63.9251 12.4002 64.0035 12.2408C64.2243 12.3438 64.4428 12.4959 64.6518 12.7118C64.8275 12.8957 64.9938 13.1288 65.141 13.4035C65.1648 13.4452 65.179 13.4894 65.2004 13.5262C65.1838 13.6734 65.1553 13.8328 65.0935 14.0143C65.008 14.2596 64.9368 14.4951 64.8727 14.7086C64.8228 14.8901 64.7824 15.0544 64.7587 15.2065C64.7326 15.3562 64.7088 15.5083 64.6874 15.6554C64.6684 15.8075 64.6542 15.9694 64.6494 16.1411C64.6494 16.2221 64.6447 16.308 64.6423 16.3987C64.6399 16.4012 64.6376 16.4085 64.6376 16.4085C64.6352 16.4012 64.6304 16.3987 64.6281 16.3963C64.5972 15.9007 64.5022 15.442 64.3359 15.0275C64.1436 14.5467 63.8847 14.1321 63.5665 13.7887C63.5926 13.4599 63.671 13.0993 63.8064 12.7093ZM65.312 11.5147C65.5281 11.5809 65.7632 11.6692 66.0031 11.7894C66.2477 11.9096 66.4757 12.0617 66.6823 12.2506C66.8106 12.3634 66.9222 12.5008 67.0219 12.6431H65.7252C65.6991 12.5572 65.6682 12.464 65.6326 12.3708C65.4973 12.0372 65.3191 11.733 65.0959 11.4484L65.312 11.5147ZM64.8727 16.1142V16.0823C64.8845 15.8517 64.9202 15.6113 64.9843 15.3586C65.046 15.1084 65.1434 14.8582 65.2788 14.6104C65.3215 14.5344 65.3666 14.4632 65.4189 14.3897C65.4426 14.7135 65.3928 15.0471 65.2693 15.4028C65.1885 15.6383 65.0532 15.8738 64.8727 16.1142ZM66.7939 15.6554C66.5897 15.8934 66.3261 16.097 65.9984 16.254C65.7799 16.3595 65.521 16.4282 65.2289 16.4723C65.2384 16.46 65.2431 16.4551 65.2526 16.4478C65.4165 16.2932 65.6089 16.1461 65.8274 16.0136C66.0411 15.8811 66.2857 15.7756 66.5493 15.6996C66.6253 15.6775 66.7108 15.6677 66.7939 15.6554ZM67.4043 13.904C67.4043 14.1566 67.3615 14.4412 67.276 14.7478C67.2665 14.7944 67.2475 14.8312 67.2357 14.8754C67.1217 14.9661 66.9934 15.0569 66.8248 15.1427C66.5968 15.2556 66.3902 15.366 66.1955 15.4739C66.034 15.5647 65.8915 15.653 65.7727 15.7413C65.6492 15.8272 65.5281 15.9179 65.4118 16.0111C65.2954 16.0994 65.1766 16.2025 65.0532 16.3202C64.9962 16.3766 64.9368 16.4404 64.8703 16.5042H64.8608V16.4895C65.179 16.1142 65.4284 15.7241 65.5922 15.3071C65.7894 14.8238 65.8891 14.3406 65.9034 13.8647C66.1385 13.6537 66.4448 13.4575 66.8106 13.2858C66.9507 13.2146 67.1003 13.1509 67.2665 13.092C67.3544 13.325 67.4043 13.5973 67.4043 13.904ZM68.3281 14.3774C68.4635 14.0413 68.5466 13.693 68.5869 13.3275L68.6914 13.536C68.8007 13.742 68.8981 13.9751 68.9931 14.2376C69.0833 14.4951 69.1379 14.7699 69.1545 15.0569C69.1688 15.2311 69.1498 15.4028 69.1237 15.5818L68.2093 14.635C68.2545 14.5516 68.2925 14.4682 68.3281 14.3774ZM75.9561 18.0594C76.0393 17.8779 76.1058 17.6596 76.1723 17.402C76.2316 17.1567 76.2649 16.8378 76.2649 16.4625C76.2649 15.9474 76.177 15.4739 76.0203 15.0373C75.8469 14.6031 75.6189 14.2278 75.3268 13.9138C75.0371 13.6047 74.6927 13.3618 74.2914 13.1901C73.89 13.0184 73.453 12.935 72.9876 12.935C72.268 12.935 71.7004 13.1582 71.2705 13.5998C71.0829 13.8009 70.9143 14.0462 70.7552 14.3234C70.7006 14.0781 70.6341 13.8475 70.5272 13.6366C70.3942 13.3422 70.2755 13.0993 70.1805 12.908L69.2638 11.0952C69.1308 10.8376 69.012 10.5727 68.8981 10.3004C68.7888 10.0257 68.7152 9.75336 68.6772 9.48107C68.6392 9.20142 68.6558 8.93404 68.7294 8.6642C68.8007 8.39191 68.9503 8.13434 69.1854 7.89148C69.4799 7.59221 69.7815 7.40087 70.0974 7.33218C70.4085 7.25859 70.7172 7.25614 71.0164 7.32482C71.318 7.39106 71.6006 7.51126 71.8595 7.68297C72.1207 7.85714 72.344 8.03131 72.5173 8.21284C72.8356 8.53909 73.0588 8.88252 73.1799 9.24803C73.3034 9.61354 73.358 9.9815 73.3414 10.3495C73.32 10.7223 73.2417 11.0878 73.1039 11.4509C72.9638 11.8164 72.7833 12.1598 72.5601 12.4763L72.6931 12.6112L74.6927 10.5506L74.5383 10.3887C74.3745 10.4353 74.2629 10.4525 74.2035 10.4476C74.1465 10.4378 74.0705 10.3838 73.9731 10.2857C73.871 10.1802 73.7926 10.0551 73.7356 9.90545C73.681 9.75827 73.6193 9.59146 73.548 9.40503C73.4792 9.21614 73.3794 9.01253 73.2488 8.79176C73.1206 8.56608 72.9282 8.32077 72.6693 8.05339C72.3179 7.68788 71.9355 7.41559 71.5199 7.2267C71.1043 7.04272 70.6863 6.94705 70.266 6.93724C69.8456 6.93233 69.4371 7.01329 69.0382 7.18009C68.6344 7.35426 68.2711 7.60938 67.941 7.95036C67.4328 8.47531 67.1834 9.05178 67.1834 9.67732C67.1834 9.95451 67.2333 10.2513 67.314 10.5604C67.1074 10.428 66.9008 10.32 66.6823 10.2391C66.3807 10.1311 66.1313 10.0477 65.9342 9.9815L64.0486 9.37559C63.7779 9.28973 63.5071 9.18916 63.2459 9.07386C62.9775 8.96102 62.74 8.8212 62.5239 8.65684C62.3126 8.49003 62.1368 8.28152 61.9991 8.04112C61.8685 7.79827 61.7996 7.50635 61.7996 7.16292C61.7996 6.73364 61.8875 6.37794 62.0585 6.10074C62.2271 5.8211 62.4479 5.59296 62.7068 5.4237C62.9633 5.25198 63.2459 5.12688 63.5499 5.06064C63.8491 4.99196 64.1246 4.95762 64.3763 4.95762C64.8228 4.95762 65.2146 5.03611 65.5519 5.20783C65.8891 5.37218 66.1788 5.59296 66.4187 5.86525C66.6586 6.13999 66.8557 6.45889 67.0029 6.81949C67.1549 7.17764 67.2618 7.55541 67.3259 7.93809H67.5088V5.01894H67.2926C67.2119 5.16858 67.143 5.26425 67.1003 5.30595C67.0528 5.33784 66.9602 5.35747 66.8248 5.35747C66.6776 5.35747 66.5374 5.32558 66.3973 5.2618C66.2548 5.19556 66.0957 5.12688 65.92 5.04347C65.7419 4.96252 65.5329 4.89384 65.2883 4.82515C65.0413 4.76137 64.7397 4.73193 64.3763 4.73193C63.8776 4.73193 63.4145 4.81289 62.9942 4.98705C62.5762 5.16122 62.2105 5.39671 61.9112 5.69599C61.6096 6.00017 61.3745 6.35832 61.2059 6.76798C61.042 7.18009 60.9565 7.63391 60.9565 8.11471C60.9565 8.85554 61.1726 9.44673 61.6025 9.89073C61.7948 10.0821 62.0347 10.2562 62.3031 10.4206C62.068 10.477 61.8423 10.5506 61.6381 10.6487C61.3507 10.7959 61.118 10.9186 60.9352 11.0191L59.1801 11.9611C58.9284 12.1009 58.6719 12.2261 58.4059 12.3413C58.1423 12.4517 57.8763 12.5302 57.6127 12.5695C57.3467 12.6063 57.0808 12.5867 56.8219 12.518C56.5607 12.4444 56.3113 12.2849 56.0786 12.0421C55.7865 11.7379 55.6036 11.4264 55.5323 11.1025C55.4635 10.7787 55.4587 10.4623 55.5276 10.1508C55.5917 9.83922 55.7081 9.5473 55.8743 9.27992C56.0406 9.01008 56.2116 8.7844 56.3873 8.60042C56.7031 8.27661 57.038 8.04848 57.3895 7.91847C57.7457 7.786 58.0972 7.73203 58.4582 7.75166C58.812 7.76883 59.1659 7.85223 59.5197 7.99451C59.8736 8.13924 60.2013 8.32568 60.5124 8.55626L60.6454 8.41644L58.6482 6.35832L58.4938 6.51531C58.5365 6.68212 58.5579 6.79251 58.5484 6.85629C58.5389 6.91762 58.4914 6.99611 58.3964 7.09669C58.2943 7.20217 58.1684 7.28558 58.0236 7.342C57.8811 7.39596 57.7196 7.4622 57.5391 7.53579C57.3562 7.60693 57.1615 7.71241 56.943 7.84242C56.7293 7.97489 56.4894 8.17849 56.2353 8.44342C55.8791 8.80402 55.6131 9.20142 55.4326 9.63071C55.2497 10.06 55.1595 10.4966 55.15 10.9259C55.1452 11.3577 55.2236 11.7845 55.3899 12.1942C55.5513 12.6112 55.8031 12.9865 56.1332 13.3299C56.6438 13.8549 57.1971 14.1149 57.8051 14.11C58.0734 14.1076 58.3584 14.0634 58.6624 13.9751C58.5342 14.191 58.4273 14.4068 58.3513 14.6227C58.2468 14.9367 58.1661 15.1967 58.1043 15.4003L57.5059 17.3554C57.4251 17.6302 57.3325 17.9074 57.2209 18.1772C57.1092 18.4544 56.9739 18.7021 56.8124 18.9229C56.6509 19.1437 56.4538 19.3203 56.2211 19.4626C55.9907 19.6 55.701 19.6687 55.3732 19.6687C54.9553 19.6687 54.6133 19.5828 54.3402 19.4062C54.0718 19.2222 53.8509 19.0063 53.6847 18.7365C53.5208 18.4691 53.4045 18.1772 53.338 17.8657C53.2667 17.5541 53.2311 17.272 53.2311 17.0144C53.2311 16.5508 53.3142 16.1461 53.4757 15.7953C53.6372 15.4445 53.8509 15.1477 54.1122 14.8999C54.3805 14.6521 54.6869 14.451 55.0384 14.2964C55.3851 14.1394 55.7461 14.0266 56.1213 13.9677V13.7715H53.2976V13.9972C53.4401 14.0855 53.5327 14.1493 53.5683 14.2008C53.6063 14.2449 53.623 14.3406 53.623 14.4804C53.623 14.6301 53.5921 14.7797 53.5327 14.9244C53.4662 15.0667 53.3997 15.2335 53.3166 15.415C53.243 15.5966 53.1717 15.8198 53.1076 16.0676C53.0482 16.3202 53.0126 16.6367 53.0126 17.0144C53.0126 17.5296 53.0981 18.0006 53.2644 18.4372C53.4282 18.8739 53.661 19.2467 53.9507 19.5583C54.2452 19.8698 54.5895 20.1127 54.9909 20.2819C55.3899 20.4536 55.8245 20.5419 56.2947 20.5419C57.0095 20.5419 57.5818 20.3187 58.0093 19.8698C58.1969 19.6736 58.3655 19.4283 58.5223 19.1511C58.5769 19.3939 58.6505 19.6245 58.7479 19.8355C58.8856 20.1323 59.0068 20.3776 59.1018 20.5665L60.0161 22.3817C60.1467 22.6369 60.2726 22.8993 60.3794 23.1814C60.4911 23.4537 60.5647 23.7211 60.6003 24.0008C60.6383 24.2706 60.624 24.5429 60.5528 24.8103C60.4839 25.0801 60.3319 25.3401 60.0945 25.5781C59.8 25.8823 59.496 26.0712 59.1825 26.1448C58.8738 26.2183 58.5674 26.2208 58.2634 26.1521C57.9618 26.0834 57.6768 25.9632 57.4156 25.7915C57.1567 25.6222 56.9383 25.4456 56.7625 25.2616C56.4467 24.9354 56.2234 24.5895 56.0999 24.2265C55.9741 23.8609 55.9218 23.493 55.9408 23.1275C55.9574 22.7571 56.0382 22.3867 56.1783 22.0261C56.3208 21.6655 56.4989 21.3196 56.715 21.0007L56.5844 20.8633L54.5895 22.9239L54.7439 23.0833C54.9054 23.0367 55.0146 23.022 55.0716 23.0269C55.1334 23.0367 55.207 23.0907 55.3091 23.1913C55.4088 23.2943 55.4872 23.4218 55.5442 23.5715C55.5988 23.7162 55.663 23.8855 55.7342 24.0695C55.8007 24.2608 55.8981 24.4644 56.0287 24.6876C56.1569 24.9109 56.3493 25.1537 56.6082 25.4211C56.9596 25.7866 57.3467 26.0613 57.76 26.2502C58.1756 26.4342 58.5935 26.5323 59.0115 26.5397C59.4319 26.5471 59.8403 26.4686 60.2417 26.2944C60.643 26.1227 61.0111 25.8651 61.3436 25.529C61.8495 25.0016 62.0988 24.4227 62.0941 23.7996C62.0941 23.5224 62.0466 23.2232 61.9658 22.9141C62.1725 23.0441 62.3838 23.1594 62.5976 23.233C62.8992 23.3384 63.1485 23.4268 63.3433 23.4905L65.2313 24.1038C65.502 24.1921 65.7727 24.2902 66.0387 24.4006C66.3 24.5159 66.5422 24.6533 66.7536 24.825C66.9673 24.9894 67.143 25.1905 67.276 25.4309C67.4161 25.6713 67.4803 25.9681 67.4803 26.3116C67.4803 26.7433 67.3924 27.0965 67.2214 27.3762C67.0528 27.6558 66.8367 27.8815 66.5731 28.0508C66.3166 28.2225 66.034 28.3452 65.7324 28.4163C65.4331 28.4825 65.1553 28.5169 64.9035 28.5169C64.4571 28.5169 64.0652 28.4359 63.7256 28.2716C63.3884 28.1023 63.1034 27.884 62.8612 27.6068C62.6189 27.3345 62.4242 27.018 62.2746 26.6574C62.125 26.2944 62.0181 25.9264 61.9563 25.5364H61.7664V28.4555H61.9872C62.0727 28.3034 62.1345 28.2127 62.182 28.1734C62.2271 28.1366 62.3221 28.1146 62.4527 28.1146C62.5976 28.1146 62.7472 28.144 62.8825 28.2127C63.025 28.2789 63.1841 28.3501 63.3623 28.431C63.5356 28.512 63.747 28.5831 63.994 28.6493C64.2338 28.7131 64.5402 28.7401 64.9035 28.7401C65.4023 28.7401 65.8654 28.6591 66.2857 28.4874C66.7084 28.3157 67.0694 28.0802 67.371 27.7785C67.6726 27.4792 67.9054 27.1186 68.074 26.7065C68.2378 26.2919 68.3233 25.8455 68.3233 25.3573C68.3233 24.6214 68.1072 24.0253 67.6774 23.5887C67.485 23.3949 67.2452 23.2158 66.9744 23.0563C67.2119 22.9999 67.4351 22.9239 67.6394 22.8233C67.9291 22.6835 68.1618 22.5559 68.3495 22.4602L70.0997 21.5134C70.3491 21.376 70.6103 21.2509 70.8739 21.1405C71.1352 21.0252 71.4035 20.9492 71.6695 20.9075C71.9331 20.8707 72.1991 20.8878 72.458 20.959C72.7192 21.0301 72.9638 21.1896 73.2013 21.4349C73.4958 21.7366 73.6763 22.053 73.7475 22.3719C73.8188 22.6933 73.8188 23.0122 73.7499 23.3262C73.6882 23.6328 73.5718 23.9272 73.4055 24.197C73.2393 24.4669 73.0659 24.6925 72.8926 24.8716C72.5743 25.2003 72.2395 25.4309 71.888 25.5585C71.5365 25.6885 71.1803 25.7424 70.8217 25.7228C70.4678 25.7032 70.1092 25.6247 69.7554 25.4775C69.4039 25.3352 69.0714 25.1513 68.7651 24.9207L68.6344 25.058L70.6341 27.1186L70.7861 26.9616C70.7409 26.7899 70.7219 26.6795 70.7338 26.6182C70.7362 26.5593 70.7861 26.4784 70.8834 26.3802C70.9903 26.2723 71.1114 26.1914 71.2539 26.1349C71.3988 26.0712 71.5603 26.0123 71.7408 25.9411C71.9189 25.8676 72.1184 25.7645 72.3345 25.6321C72.553 25.502 72.7905 25.2984 73.0493 25.0335C73.4008 24.6705 73.6668 24.2731 73.8473 23.8413C74.0278 23.412 74.1204 22.9803 74.1299 22.5486C74.1394 22.1168 74.0539 21.6949 73.8924 21.2779C73.7238 20.8633 73.4768 20.488 73.1467 20.1446C72.6408 19.6245 72.0827 19.3571 71.4772 19.3669C71.2064 19.3669 70.9191 19.4184 70.6175 19.4994C70.7433 19.2884 70.8549 19.0701 70.9309 18.8493C71.0307 18.5353 71.1162 18.2802 71.1779 18.0766L71.7716 16.1264C71.8524 15.8443 71.9497 15.5671 72.0566 15.2973C72.1682 15.0225 72.3036 14.7748 72.4651 14.5516C72.6266 14.3332 72.8237 14.1566 73.0612 14.0143C73.2892 13.8745 73.5765 13.8034 73.909 13.8034C74.3222 13.8034 74.6666 13.8941 74.9373 14.0708C75.2081 14.2449 75.4289 14.4682 75.5928 14.7404C75.759 15.0103 75.8778 15.2997 75.9419 15.6088C76.0131 15.9204 76.0464 16.2049 76.0464 16.4625C76.0464 16.9261 75.9633 17.3309 75.8041 17.6841C75.6427 18.0325 75.4289 18.3268 75.1677 18.5746C74.8969 18.8199 74.593 19.021 74.2439 19.178C73.8948 19.3375 73.5338 19.443 73.1586 19.5117V19.703H75.9823V19.4773C75.8398 19.3915 75.7448 19.3203 75.7115 19.2811C75.6735 19.2222 75.6569 19.1314 75.6569 18.9916C75.6569 18.8444 75.6854 18.6972 75.7495 18.5476C75.8113 18.4053 75.8801 18.241 75.9561 18.0594Z" fill="#970A2C"/>
</g>
<defs>
<clipPath id="clip0_2034_109">
<rect width="131.429" height="80" fill="white"/>
</clipPath>
</defs>
</svg>
