<svg width="228" height="80" viewBox="0 0 228 80" fill="none" xmlns="http://www.w3.org/2000/svg">
<g clip-path="url(#clip0_2034_121)">
<path fill-rule="evenodd" clip-rule="evenodd" d="M111.2 39.0159C112.921 39.0159 114.525 39.2533 116.009 39.7293C117.494 40.2053 118.785 40.9186 119.882 41.8706C120.981 42.8226 121.846 44.0279 122.481 45.4893C123.116 46.9493 123.433 48.6519 123.433 50.5999C123.433 52.2239 123.126 53.7359 122.513 55.1426C121.915 56.527 121.049 57.7792 119.964 58.8266C118.845 59.8963 117.521 60.7293 116.073 61.2759C114.566 61.8599 112.909 62.1519 111.102 62.1519C109.402 62.1519 107.804 61.9413 106.308 61.5199C104.812 61.0986 103.51 60.4159 102.402 59.4746C101.294 58.5333 100.416 57.3333 99.7718 55.8746C99.1251 54.4132 98.8037 52.6666 98.8037 50.6319C98.8037 49.0319 99.0984 47.5279 99.6917 46.1226C100.27 44.7346 101.121 43.4765 102.193 42.4226C103.269 41.3626 104.57 40.5293 106.098 39.9239C107.626 39.3186 109.326 39.0159 111.2 39.0159ZM139.154 39.0159C139.714 39.0159 140.305 39.0586 140.93 39.1452C141.553 39.2319 142.157 39.3452 142.738 39.4853C143.318 39.6266 143.872 39.7946 144.4 39.9879C144.928 40.1839 145.373 40.3879 145.74 40.6053C145.528 41.1366 145.36 41.6847 145.24 42.2439C145.121 42.7959 145.04 43.3533 144.998 43.9146H144.545C143.728 42.8773 142.889 42.1359 142.028 41.6919C141.166 41.2492 140.154 41.0266 138.993 41.0266C138.133 41.0266 137.266 41.2226 136.394 41.6106C135.524 41.9999 134.732 42.5959 134.021 43.3973C133.313 44.1973 132.736 45.2186 132.294 46.4626C131.853 47.7066 131.633 49.1933 131.633 50.9239C131.633 52.5906 131.86 54.0133 132.312 55.1906C132.762 56.3706 133.349 57.3333 134.07 58.0799C134.79 58.8266 135.608 59.3733 136.524 59.7199C137.405 60.0587 138.34 60.2341 139.284 60.2373C139.816 60.2358 140.346 60.1759 140.865 60.0586C141.402 59.9413 141.932 59.7786 142.448 59.5733C142.962 59.3685 143.454 59.113 143.917 58.8106C144.378 58.5066 144.781 58.1719 145.128 57.8039L145.546 58.0639C145.373 58.5173 145.224 58.9786 145.093 59.4426C144.968 59.8944 144.882 60.3561 144.836 60.8226C143.092 61.7079 140.898 62.1519 138.25 62.1519C136.378 62.1519 134.705 61.8866 133.23 61.3573C131.757 60.8279 130.509 60.0813 129.486 59.1186C128.467 58.1604 127.668 56.9921 127.145 55.6946C126.6 54.3327 126.326 52.8775 126.338 51.4106C126.338 49.1613 126.688 47.2533 127.388 45.6839C128.088 44.1159 129.024 42.8386 130.197 41.8546C131.393 40.8578 132.784 40.1225 134.281 39.6959C135.865 39.2374 137.506 39.0084 139.154 39.0159ZM95.0598 39.4372C94.875 42.4301 94.7883 45.4281 94.7998 48.4266V52.8399C94.7998 54.6346 94.8224 56.2293 94.8651 57.6253C94.9078 59.0213 94.9718 60.3906 95.0598 61.7306C94.6627 61.6858 94.2633 61.6644 93.8638 61.6666H90.9598C90.5304 61.6666 90.1318 61.6866 89.7664 61.7306C89.8518 60.3906 89.9171 59.0213 89.9598 57.6239C90.0024 56.2293 90.0251 54.6346 90.0251 52.8386V50.9893C89.2071 50.9679 88.3894 50.9413 87.5718 50.9093C86.7544 50.8761 85.9365 50.8592 85.1184 50.8586C83.482 50.8586 81.8459 50.9022 80.2118 50.9893V52.8386C80.2118 54.6346 80.2318 56.2293 80.2758 57.6253C80.3184 59.0213 80.3824 60.3906 80.4691 61.7306C80.0725 61.6858 79.6736 61.6644 79.2744 61.6666H76.3704C75.9398 61.6666 75.5398 61.6866 75.1744 61.7306C75.2621 60.3629 75.327 58.9938 75.3691 57.6239C75.4118 56.2293 75.4331 54.6346 75.4331 52.8386V48.4253C75.4461 45.4272 75.3598 42.4296 75.1744 39.4372C75.5398 39.4799 75.9398 39.5173 76.3704 39.5506C76.7998 39.5826 77.2838 39.5999 77.8238 39.5999C78.3078 39.6013 78.7916 39.5848 79.2744 39.5506C79.7051 39.5186 80.1038 39.4799 80.4691 39.4372C80.3628 40.825 80.293 42.2152 80.2598 43.6066C80.2278 44.9799 80.2104 46.5666 80.2104 48.3599C80.7704 48.3826 81.4424 48.3999 82.2291 48.4093C83.0144 48.4213 83.9878 48.4266 85.1491 48.4266L85.9811 48.4253C86.6509 48.4239 87.3207 48.4186 87.9904 48.4093C88.6688 48.4001 89.3471 48.3837 90.0251 48.3599C90.0251 46.5653 90.0024 44.9799 89.9598 43.6066C89.9171 42.2333 89.8518 40.8439 89.7664 39.4372C90.1318 39.4799 90.5304 39.5173 90.9598 39.5506C91.3904 39.5826 91.8758 39.5999 92.4131 39.5999C92.9504 39.5999 93.4344 39.5826 93.8664 39.5506C94.2958 39.5186 94.6918 39.4799 95.0598 39.4372ZM203.844 39.4372C203.374 40.2246 202.917 41.0194 202.473 41.8213C201.235 44.0487 200.019 46.2884 198.825 48.5399C198.189 49.7399 197.614 50.8493 197.097 51.8652C197.097 52.3853 197.086 52.9093 197.065 53.4386C197.044 53.9692 197.034 54.5053 197.034 55.0453C197.034 56.1493 197.049 57.2413 197.081 58.3239C197.114 59.4053 197.205 60.5413 197.356 61.7306C196.9 61.6873 196.442 61.666 195.984 61.6666H193.241C192.778 61.6666 192.321 61.6866 191.868 61.7306C191.912 60.7359 191.988 59.7186 192.094 58.6799C192.202 57.6413 192.254 56.6039 192.254 55.5639C192.253 54.5578 192.232 53.5518 192.19 52.5466C191.653 51.4653 191.034 50.2599 190.334 48.9293C189.636 47.5986 188.957 46.3066 188.301 45.0519C187.644 43.7973 187.042 42.6613 186.493 41.6439C186.097 40.9042 185.694 40.1686 185.282 39.4372C185.778 39.4799 186.261 39.5173 186.736 39.5506C187.698 39.6154 188.663 39.6154 189.625 39.5506C190.088 39.5186 190.566 39.4799 191.062 39.4372C191.426 40.2373 191.841 41.1239 192.304 42.0986C192.766 43.0719 193.224 44.0239 193.677 44.9533C194.128 45.8839 194.548 46.7266 194.934 47.4839C195.322 48.2439 195.634 48.8053 195.872 49.1719H195.936C196.366 48.5453 196.796 47.8373 197.226 47.0466C197.657 46.2573 198.077 45.4306 198.486 44.5639C198.894 43.6999 199.293 42.8279 199.681 41.9519C200.068 41.0759 200.442 40.2373 200.81 39.4372C201.046 39.4799 201.289 39.5173 201.537 39.5506C202.041 39.6158 202.551 39.6158 203.054 39.5506C203.301 39.5186 203.564 39.4799 203.844 39.4372ZM166.721 39.4372C166.356 39.8052 165.796 40.3999 165.042 41.2213C164.29 42.0439 163.488 42.9306 162.638 43.8826C161.818 44.8002 161.006 45.7247 160.201 46.6559C159.426 47.5559 158.824 48.2639 158.393 48.7826C159.081 49.8426 159.846 51.0106 160.686 52.2879C161.524 53.5639 162.357 54.8133 163.186 56.0346C164.014 57.2573 164.785 58.3826 165.496 59.4106C166.205 60.4373 166.776 61.2106 167.206 61.7306C166.647 61.6895 166.087 61.6677 165.526 61.6653H162.67C162.206 61.6653 161.74 61.6866 161.266 61.7306C160.163 60.0775 159.087 58.4061 158.04 56.7173C156.98 55.0137 155.904 53.3207 154.81 51.6386H154.745C154.745 53.9959 154.756 56.0199 154.778 57.7066C154.798 59.3933 154.874 60.7359 155.005 61.7306C154.608 61.6854 154.209 61.6636 153.809 61.6653H150.905C150.474 61.6653 150.076 61.6866 149.709 61.7306C149.797 60.3633 149.861 58.9947 149.902 57.6253C149.946 56.2293 149.969 54.6346 149.969 52.8386L149.968 47.7626C149.966 44.9855 149.88 42.2091 149.71 39.4372C150.076 39.4813 150.474 39.5186 150.905 39.5506C151.334 39.5826 151.818 39.5999 152.357 39.5999C152.894 39.5999 153.378 39.5826 153.81 39.5506C154.24 39.5186 154.637 39.4813 155.004 39.4372C154.894 40.0866 154.826 41.0599 154.793 42.3573C154.76 43.7957 154.744 45.2345 154.745 46.6733V49.7893C155.477 48.9226 156.262 47.9773 157.102 46.9493C157.916 45.9534 158.723 44.9525 159.524 43.9466C160.297 42.9732 160.997 42.0812 161.621 41.2706C162.245 40.4586 162.698 39.8479 162.977 39.4372C163.278 39.4813 163.58 39.5186 163.881 39.5506C164.487 39.6171 165.099 39.6171 165.705 39.5506C166.017 39.5186 166.356 39.4813 166.721 39.4372ZM182.572 39.4372C182.484 39.7839 182.442 40.2373 182.442 40.7999C182.442 41.1466 182.452 41.4159 182.474 41.6106C182.496 41.8053 182.528 42.0213 182.572 42.2599C181.946 42.2173 181.265 42.1732 180.521 42.1306C179.8 42.089 179.079 42.0454 178.358 41.9999C177.729 41.9608 177.1 41.9283 176.47 41.9026C175.91 41.8813 175.512 41.8706 175.276 41.8706C175.191 43.0479 175.142 44.2276 175.129 45.4079C175.12 46.5759 175.116 47.7546 175.116 48.9453C176.38 48.9271 177.644 48.8947 178.908 48.8479C180.037 48.8039 181.214 48.7493 182.442 48.6853C182.391 48.9652 182.348 49.2467 182.313 49.5293C182.292 49.7239 182.28 49.9293 182.28 50.1453C182.28 50.3186 182.297 50.4986 182.329 50.6813C182.362 50.8653 182.398 51.1306 182.442 51.4759C180.005 51.2816 177.56 51.1837 175.114 51.1826C175.114 51.8759 175.109 52.5693 175.098 53.2613L175.085 54.2999L175.082 55.3372C175.082 56.7439 175.114 58.0959 175.177 59.3932C176.405 59.3932 177.633 59.3613 178.86 59.2973C180.086 59.2306 181.322 59.1239 182.572 58.9719C182.531 59.1871 182.499 59.4037 182.474 59.6213C182.449 59.8911 182.438 60.1622 182.442 60.4333C182.442 60.7786 182.452 61.0493 182.474 61.2439C182.496 61.4386 182.528 61.5999 182.572 61.7293C181.856 61.7052 181.141 61.6897 180.425 61.6826C179.258 61.6691 178.09 61.6633 176.922 61.6653H171.573C171.202 61.6679 170.914 61.6719 170.708 61.6826C170.461 61.6919 170.25 61.7093 170.078 61.7293C170.154 60.3893 170.21 59.0213 170.248 57.6253C170.285 56.2306 170.305 54.6346 170.305 52.8386V48.4253C170.316 45.4273 170.24 42.4296 170.078 39.4359C171.048 39.4586 172.004 39.4906 172.952 39.5346C173.898 39.5772 174.856 39.5986 175.824 39.5986C177.416 39.5986 178.832 39.5826 180.069 39.5493C181.306 39.5173 182.141 39.4799 182.572 39.4372ZM111.102 40.8652C110.004 40.8652 109.02 41.1319 108.148 41.6599C107.26 42.2057 106.504 42.9427 105.937 43.8172C105.334 44.7266 104.877 45.7919 104.565 47.0146C104.253 48.2373 104.098 49.5413 104.098 50.9239C104.098 52.6559 104.28 54.1159 104.645 55.3066C105.012 56.4959 105.506 57.4533 106.132 58.1773C106.712 58.8713 107.454 59.4116 108.293 59.7506C109.115 60.0761 109.993 60.2413 110.877 60.2373C111.845 60.2373 112.77 60.0319 113.653 59.6213C114.534 59.2106 115.304 58.5839 115.96 57.7399C116.617 56.8946 117.144 55.8253 117.542 54.5266C117.94 53.2293 118.14 51.6919 118.14 49.9186C118.14 48.5119 117.966 47.2519 117.622 46.1386C117.278 45.0239 116.8 44.0772 116.186 43.2986C115.592 42.5356 114.829 41.9198 113.958 41.4986C113.067 41.0722 112.09 40.8556 111.102 40.8652ZM129.986 10.5346C131.622 10.5346 133.037 10.7026 134.23 11.0386C135.426 11.3733 136.604 11.8546 137.765 12.4812C137.593 13.0439 137.426 13.5959 137.266 14.1359C137.104 14.6773 136.97 15.2292 136.862 15.7919H136.41C135.732 14.8275 134.85 14.0241 133.826 13.4386C132.794 12.8439 131.536 12.5452 130.05 12.5452C129.061 12.5452 128.077 12.7586 127.097 13.1799C126.099 13.6154 125.207 14.2628 124.484 15.0773C123.718 15.9213 123.1 16.9759 122.626 18.2426C122.153 19.5066 121.917 20.9946 121.917 22.7039C121.917 24.0026 122.094 25.2026 122.45 26.3053C122.773 27.352 123.293 28.327 123.984 29.1772C124.648 29.9866 125.486 30.6356 126.436 31.0759C127.404 31.5292 128.513 31.7573 129.76 31.7573C130.04 31.7573 130.358 31.7413 130.713 31.7079C131.068 31.6759 131.412 31.6386 131.745 31.5946C132.078 31.5519 132.385 31.4919 132.665 31.4159C132.945 31.3413 133.149 31.2599 133.278 31.1746C133.322 30.9133 133.349 30.5879 133.36 30.1999C133.37 29.8106 133.376 29.3773 133.376 28.9013C133.376 27.1493 133.345 25.8573 133.278 25.0239L133.178 23.7119L133.158 23.4319L133.149 23.3199C133.364 23.3626 133.65 23.4013 134.006 23.4333C134.361 23.4653 134.872 23.4826 135.54 23.4826C136.313 23.4826 136.889 23.4653 137.266 23.4333C137.641 23.4013 137.938 23.3626 138.153 23.3199C138.11 23.4932 138.073 23.7732 138.041 24.1639C138.006 24.6122 137.979 25.0612 137.961 25.5106C137.918 26.5972 137.897 27.6845 137.897 28.7719V29.8426C137.897 30.3826 137.9 30.8866 137.912 31.3519C137.922 31.8172 137.949 32.1466 137.992 32.3413C136.577 32.7517 135.138 33.0767 133.684 33.3146C132.23 33.5533 130.793 33.6719 129.373 33.6719C127.521 33.6719 125.817 33.4279 124.257 32.9412C122.697 32.4559 121.352 31.7413 120.221 30.7999C119.101 29.8712 118.197 28.7084 117.574 27.3932C116.94 26.0626 116.622 24.5653 116.622 22.8986C116.622 20.8426 116.961 19.0426 117.638 17.4946C118.317 15.9479 119.252 14.6613 120.448 13.6333C121.642 12.6066 123.057 11.8333 124.693 11.3132C126.329 10.7946 128.093 10.5346 129.986 10.5346ZM215.402 10.9559C217.252 10.9559 218.936 11.1239 220.453 11.4599C221.972 11.7959 223.28 12.3639 224.376 13.1626C225.474 13.9626 226.322 15.0399 226.926 16.3919C227.529 17.7439 227.829 19.4479 227.829 21.5026C227.829 23.2986 227.533 24.9212 226.942 26.3706C226.349 27.8199 225.542 29.0586 224.521 30.0866C223.511 31.1056 222.303 31.9062 220.97 32.4386C219.6 32.9846 218.136 33.2603 216.661 33.2506C215.046 33.2506 213.669 33.2386 212.528 33.2173C211.388 33.1959 210.398 33.1852 209.558 33.1852H208.105C207.676 33.1852 207.278 33.2066 206.912 33.2506C206.997 31.9093 207.062 30.5399 207.105 29.1439C207.148 27.7493 207.17 26.1546 207.17 24.3586V19.9452C207.17 18.1493 207.148 16.5546 207.105 15.1586C207.061 13.7568 206.997 12.3558 206.912 10.9559C207.278 10.9999 207.676 11.0386 208.106 11.0706C208.537 11.1026 209.02 11.1186 209.56 11.1186C210.269 11.1186 211.065 11.0919 211.946 11.0386C212.83 10.9853 213.981 10.9559 215.402 10.9559ZM169.757 10.7933L171.968 16.6999C172.741 18.7671 173.532 20.8276 174.341 22.8812C175.098 24.8083 175.873 26.7284 176.665 28.6413C177.301 30.2003 177.991 31.7372 178.732 33.2493C178.243 33.2077 177.753 33.1864 177.262 33.1852H174.518C174.054 33.1852 173.598 33.2066 173.145 33.2493C172.802 32.1906 172.446 31.1079 172.08 30.0052C171.712 28.895 171.326 27.7913 170.92 26.6946C169.543 26.6511 168.165 26.6293 166.788 26.6292C165.668 26.6297 164.549 26.6519 163.43 26.6959C163.003 27.7885 162.604 28.892 162.234 30.0052C161.878 31.0792 161.544 32.1608 161.234 33.2493C160.984 33.2072 160.73 33.1858 160.476 33.1852H158.942C158.661 33.1868 158.381 33.2082 158.102 33.2493C158.361 32.6879 158.705 31.9093 159.136 30.9132C159.566 29.9186 160.04 28.7932 160.556 27.5386L162.22 23.4986C162.81 22.0599 163.402 20.6053 163.993 19.1333C164.586 17.6626 165.166 16.2133 165.737 14.7866C166.308 13.3586 166.83 12.0266 167.304 10.7933C167.517 10.8373 167.722 10.8759 167.917 10.9079C168.323 10.9753 168.738 10.9753 169.144 10.9079C169.337 10.8759 169.541 10.8373 169.757 10.7933ZM87.3758 10.9559C87.2904 11.3026 87.2478 11.7572 87.2478 12.3199C87.2478 12.6666 87.2571 12.9359 87.2798 13.1306C87.2998 13.3252 87.3331 13.5413 87.3758 13.7799C86.7518 13.7373 86.0691 13.6933 85.3264 13.6506C84.605 13.6086 83.8837 13.5651 83.1624 13.5199C82.5335 13.4808 81.9041 13.4484 81.2744 13.4226C80.7144 13.4013 80.3171 13.3906 80.0811 13.3906C79.9954 14.5679 79.9464 15.7476 79.9344 16.9279C79.9251 18.0946 79.9184 19.2746 79.9184 20.4653C81.3184 20.4439 82.5824 20.4119 83.7118 20.3679C84.8908 20.3217 86.0695 20.2675 87.2478 20.2053C87.1824 20.5733 87.1384 20.8533 87.1171 21.0479C87.0953 21.253 87.0846 21.459 87.0851 21.6653C87.0851 21.8386 87.1011 22.0172 87.1344 22.2012C87.1651 22.3852 87.2038 22.6506 87.2478 22.9959C84.8095 22.8012 82.3644 22.7034 79.9184 22.7026C79.9184 23.3959 79.9144 24.0893 79.9038 24.7812C79.892 25.4732 79.8862 26.1652 79.8864 26.8573C79.8864 28.2639 79.9184 29.6159 79.9837 30.9132C81.2104 30.9132 82.4371 30.8813 83.6638 30.8159C84.8904 30.7519 86.1278 30.6426 87.3758 30.4919C87.336 30.7071 87.304 30.9237 87.2798 31.1413C87.2571 31.3346 87.2478 31.6079 87.2478 31.9533V32.1519C87.2518 32.4039 87.2611 32.6079 87.2798 32.7639C87.2998 32.9586 87.3331 33.1199 87.3758 33.2493C86.6604 33.2252 85.9448 33.2096 85.2291 33.2026C84.5678 33.1933 83.7144 33.1879 82.6691 33.1852H76.3784C76.0078 33.1866 75.7184 33.1919 75.5131 33.2026C75.2651 33.2119 75.0558 33.2292 74.8838 33.2493C74.9584 31.9093 75.0144 30.5413 75.0531 29.1452C75.0904 27.7506 75.1091 26.1546 75.1091 24.3586V19.9452C75.1091 18.1506 75.0904 16.5546 75.0531 15.1586C75.0144 13.7626 74.9598 12.3626 74.8838 10.9559C75.8518 10.9786 76.8078 11.0106 77.7558 11.0546C78.7024 11.0973 79.6611 11.1186 80.6291 11.1186C82.2224 11.1186 83.6357 11.1026 84.8744 11.0693C86.1117 11.0373 86.9451 10.9999 87.3758 10.9559ZM111.941 10.9559C111.76 14.2318 111.62 17.5098 111.522 20.7893C111.48 22.1787 111.453 23.5685 111.442 24.9586C111.43 26.4243 111.424 27.8901 111.425 29.3559V33.2493C110.566 33.1648 109.701 33.1648 108.842 33.2493C104.273 27.9064 99.5697 22.6803 94.7358 17.5759C94.6936 18.8413 94.6723 20.1072 94.6718 21.3733V25.1373C94.6718 26.4359 94.6771 27.5386 94.6878 28.4466C94.6984 29.3559 94.7144 30.1239 94.7358 30.7506C94.7571 31.3786 94.7784 31.8932 94.8011 32.2932C94.8224 32.6932 94.8438 33.0133 94.8651 33.2506C94.6091 33.2073 94.35 33.1854 94.0904 33.1852H93.3478C92.8531 33.1852 92.3584 33.2066 91.8624 33.2506C91.9051 33.0772 91.9598 32.4599 92.0251 31.3999C92.0891 30.3412 92.1584 29.0479 92.2344 27.5226C92.3091 25.9972 92.3744 24.3426 92.4291 22.5572C92.4824 20.7732 92.5091 19.0586 92.5091 17.4146C92.5091 15.9213 92.4864 14.6679 92.4438 13.6506C92.4011 12.6333 92.3691 11.7346 92.3464 10.9573C92.9491 11.0653 93.4331 11.1186 93.7998 11.1186C94.1651 11.1186 94.6491 11.0653 95.2531 10.9573C97.565 13.5376 99.8836 16.1118 102.209 18.6799C104.549 21.2644 106.901 23.8391 109.262 26.4039V20.4319C109.262 19.3733 109.257 18.3293 109.246 17.2999L109.214 14.4599C109.207 13.7134 109.185 12.967 109.149 12.2213C109.117 11.5946 109.08 11.1733 109.037 10.9573C109.516 11.0521 110.002 11.1061 110.49 11.1186C110.854 11.1186 111.34 11.0653 111.941 10.9573V10.9559ZM148.774 10.9559C148.688 12.3557 148.623 13.7568 148.58 15.1586C148.534 16.7537 148.513 18.3495 148.516 19.9452V24.3586C148.516 25.5919 148.521 26.7812 148.532 27.9279C148.542 29.0746 148.558 30.0706 148.58 30.9146C149.806 30.9146 151.034 30.8813 152.26 30.8159C153.501 30.7502 154.739 30.6421 155.973 30.4919C155.933 30.7067 155.9 30.9228 155.876 31.1399C155.854 31.3346 155.844 31.6066 155.844 31.9533C155.844 32.2986 155.854 32.5679 155.876 32.7639C155.897 32.9573 155.929 33.1199 155.973 33.2493C155.258 33.2248 154.542 33.2088 153.826 33.2012C152.976 33.1906 151.808 33.1852 150.324 33.1852H145.206C144.841 33.1833 144.476 33.1887 144.11 33.2012C143.9 33.2091 143.689 33.2251 143.48 33.2493C143.567 31.8824 143.631 30.5142 143.673 29.1452C143.717 27.7492 143.738 26.1546 143.738 24.3586V19.9452C143.749 16.9468 143.664 13.9488 143.481 10.9559C143.846 10.9999 144.244 11.0373 144.674 11.0693C145.105 11.1026 145.589 11.1186 146.128 11.1186C146.665 11.1186 147.149 11.1026 147.58 11.0693C148.01 11.0373 148.408 10.9999 148.774 10.9559ZM201.78 10.9559C201.597 14.2317 201.457 17.5098 201.36 20.7893C201.317 22.1787 201.291 23.5685 201.28 24.9586C201.268 26.4243 201.263 27.8901 201.264 29.3559V33.2493C200.405 33.1647 199.54 33.1647 198.681 33.2493C194.112 27.9065 189.408 22.6804 184.574 17.5759C184.529 18.8412 184.508 20.1072 184.51 21.3733V26.2026C184.513 27.0493 184.517 27.7986 184.525 28.4466C184.538 29.729 184.575 31.011 184.638 32.2919C184.66 32.6933 184.681 33.0119 184.702 33.2506C184.447 33.2073 184.188 33.1854 183.929 33.1852H183.185C182.692 33.1852 182.194 33.2066 181.701 33.2506C181.742 33.0772 181.798 32.4599 181.861 31.3999L181.912 30.5612C181.961 29.6799 182.014 28.6666 182.072 27.5226C182.146 25.9972 182.212 24.3426 182.266 22.5572C182.32 20.7732 182.346 19.0586 182.346 17.4146C182.346 15.9213 182.324 14.6679 182.282 13.6506C182.24 12.6333 182.206 11.7346 182.185 10.9573C182.788 11.0653 183.272 11.1186 183.638 11.1186C184.004 11.1186 184.486 11.0653 185.09 10.9573C187.402 13.5377 189.721 16.112 192.046 18.6799C194.387 21.2643 196.738 23.839 199.1 26.4039V20.4319C199.1 19.3719 199.096 18.3293 199.084 17.2999L199.052 14.4599C199.044 13.7134 199.023 12.967 198.988 12.2213C198.954 11.5946 198.917 11.1733 198.874 10.9573C199.477 11.0653 199.961 11.1186 200.326 11.1186C200.692 11.1186 201.176 11.0653 201.78 10.9573V10.9559ZM215.337 12.8053C214.564 12.8053 213.933 12.8226 213.449 12.8546C212.964 12.8879 212.476 12.9252 211.98 12.9679C211.98 13.1199 211.974 13.4559 211.964 13.9746C211.952 14.4946 211.948 15.0772 211.948 15.7266V29.1333C211.95 29.5839 211.956 30.0039 211.964 30.3932C211.974 30.9132 211.98 31.2466 211.98 31.3986C212.925 31.4679 213.872 31.5 214.82 31.4946C217.252 31.4946 219.178 30.6639 220.598 28.9986C222.02 27.3319 222.729 24.8119 222.729 21.4359C222.729 20.0959 222.552 18.8959 222.198 17.8359C221.841 16.7759 221.341 15.8719 220.694 15.1252C220.059 14.3855 219.265 13.7977 218.372 13.4053C217.466 13.0053 216.456 12.8053 215.337 12.8053ZM167.304 17.0573C166.744 18.3559 166.216 19.6373 165.721 20.9026C165.226 22.1693 164.741 23.4613 164.268 24.7812H170.176C169.702 23.4613 169.234 22.1679 168.773 20.9026C168.309 19.6359 167.82 18.3559 167.304 17.0573ZM64.0398 32.1572C64.0398 52.0959 55.5384 63.5453 48.4064 69.6413C41.3638 75.6586 34.2238 77.8039 32.9171 78.1613C31.6104 77.7906 24.4678 75.5653 17.4211 69.5039C10.2878 63.3679 1.78377 51.9066 1.78377 32.1572V10.1373C2.56377 9.51458 4.9171 7.79058 8.96777 6.08392C13.6251 4.11992 21.5411 1.78125 32.8011 1.78125C52.2904 1.78125 62.2424 8.74792 64.0411 10.1439L64.0398 32.1572Z" fill="#E0251B"/>
<path fill-rule="evenodd" clip-rule="evenodd" d="M32.8013 0C55.0933 0 65.1093 8.68667 65.5253 9.056L65.8239 9.32267V32.1573C65.8239 52.8173 56.9466 64.7107 49.5013 71.0507C41.4253 77.924 33.4533 79.8707 33.1186 79.9493L32.9066 80L32.6973 79.9467C32.3613 79.864 24.3933 77.8267 16.3213 70.9093C8.87592 64.528 -7.62939e-05 52.6253 -7.62939e-05 32.1573V9.32667L0.29059 9.06267C0.69859 8.692 10.5079 0 32.8013 0ZM32.8013 1.78133C21.5399 1.78133 13.6253 4.12 8.96792 6.08267C4.91859 7.78933 2.56392 9.51467 1.78392 10.136V32.1573C1.78392 51.9067 10.2879 63.368 17.4213 69.504C23.2706 74.5373 29.1879 76.9253 31.7759 77.8027L32.1079 77.9133C32.4706 78.032 32.7439 78.1133 32.9173 78.1627C34.2239 77.804 41.3639 75.6587 48.4066 69.6413C55.5386 63.5453 64.0413 52.0947 64.0413 32.1573V10.144C62.2426 8.748 52.2906 1.78133 32.8013 1.78133ZM28.1786 45.7147C28.0026 45.8427 27.7066 46.056 27.7813 46.368C27.8479 46.8653 29.0359 46.7373 29.5679 48.0347C29.0239 47.7907 28.9773 48.1413 29.3919 48.4267C29.8186 48.792 30.4226 49.1893 30.6626 50.6413C30.6626 50.6413 30.2466 50.1413 30.0386 50.4973C29.7666 51.0133 31.6866 50.58 32.3946 52.832C32.5253 53.2267 32.7679 53.668 33.2159 53.8747C33.1599 53.852 32.4479 53.7933 31.2279 53.1947C32.0879 54.028 32.5853 54.092 34.2093 54.1173C35.9599 54.192 41.3106 54.0453 42.7626 54.2133C43.3159 54.2773 44.6453 54.36 45.0773 54.3107C46.4546 54.1547 47.6213 53.8987 48.5626 53.5453C49.9119 53.04 50.4653 52.46 50.6893 52.0613C50.9093 51.6787 50.9266 51.296 50.7373 50.928C50.3679 50.208 49.1279 50.32 47.3026 50.824C47.1908 50.8615 47.0773 50.894 46.9626 50.9213C45.4359 51.3373 45.8666 51.892 44.7306 52.4093C44.8719 51.8787 44.8599 51.7067 44.5333 51.8053C44.2053 51.9053 43.3733 52.1947 43.0333 52.3093C39.8466 53.3733 36.8386 53.344 35.3666 52.2373C34.7799 51.7933 34.4786 51.2027 34.4973 50.5307C34.5016 50.2686 34.5615 50.0105 34.673 49.7733C34.7845 49.5361 34.945 49.3253 35.1439 49.1547C36.1933 48.212 38.3373 48.092 39.5773 48.1093C39.7493 47.888 40.1746 47.7493 41.2013 47.7453C42.8679 47.732 43.4439 47.732 44.0453 47.012C44.0186 47.3427 43.8973 47.532 43.8973 47.532C43.8973 47.532 44.3879 47.4347 45.0119 46.8147C44.4239 48.7213 42.3959 48.6147 41.3373 48.772C41.4959 48.92 42.0226 49.008 42.0226 49.008C42.0226 49.008 39.8173 49.9733 39.5106 48.888C38.2626 48.8813 36.4479 49.028 35.6573 49.74C35.5386 49.8403 35.4427 49.9647 35.3758 50.1049C35.3089 50.2452 35.2726 50.398 35.2693 50.5533C35.2586 50.9653 35.4453 51.3213 35.8293 51.608C36.4106 52.048 37.4599 52.3307 38.8559 52.3053C38.7399 52.0947 38.9919 51.5027 39.3493 51.412C38.9279 52.528 40.0159 52.2613 40.5279 52.176C41.0386 52.0907 41.9013 51.8627 42.7893 51.5667L43.7839 51.2333C45.9013 50.52 47.2426 49.9587 48.5413 49.7333C49.5106 49.568 50.8639 49.4733 51.4239 50.5707C51.7306 51.1733 51.7079 51.8413 51.3599 52.4533C50.8986 53.2627 49.4919 54.592 45.2173 55.0827C46.1133 55.6027 49.7279 57.5587 52.4333 53.4667C52.6733 54.1027 52.0186 54.556 52.4839 54.9253C52.6199 55.0773 53.4946 55.0893 53.8439 56.0667C52.4333 55.4787 52.6839 55.9813 53.0173 56.1507C53.7453 56.4 54.4919 57.2947 54.3613 57.476C53.5946 57.056 53.3453 57.356 53.3559 57.5C53.3639 57.8373 54.3026 57.9267 54.2919 58.5667C53.1986 58.4307 53.5479 58.8533 53.5479 58.8533C53.5479 58.8533 54.8893 60.0947 53.7119 60.76C53.3786 60.948 51.9933 60.376 51.3706 61.7227C51.3133 61.7893 50.9733 62.256 50.4639 62.4427C49.6639 62.588 49.9132 63.2267 49.9119 63.8093C49.5653 63.4893 49.3426 62.7693 49.4426 62.224C48.8573 62.224 48.8239 63.3413 48.8239 63.3413C48.6346 63.0453 48.5946 62.2573 48.7533 61.7787C48.2839 61.848 47.9666 62.912 47.9666 62.912L47.9133 62.7427C47.8173 62.3427 47.9106 61.9093 48.1266 61.548L48.2253 61.3987C48.1746 61.2387 48.2759 60.624 49.0906 60.484C50.3893 60.3507 50.6333 60.1467 50.6333 60.1467C50.6333 60.1467 51.1479 59.8533 51.3533 59.2587C51.7133 58.2187 50.9933 57.0987 49.4399 57.2187C47.9959 57.3347 47.7733 59.644 46.4933 59.5907C47.0266 59.0867 47.1333 58.224 47.1693 57.8147C42.3626 59.232 41.4693 57.184 41.4693 57.184C41.4693 57.184 39.8586 58.2907 41.3826 59.0653C41.6159 59.1853 43.2319 59.9853 45.0573 59.4507C44.5933 60.8293 42.0159 61.0067 42.0159 61.0067C42.0159 61.0067 42.3893 61.6373 41.7759 61.8067C40.7759 62.124 40.1986 61.864 39.9813 61.908C39.7466 61.9547 39.1226 62.7347 38.5346 62.64C37.9973 62.5547 38.0626 63.5693 38.0626 63.5693C37.5719 63.312 37.8453 62.132 37.8426 62.132C37.0426 62.2613 37.1693 63.356 37.1693 63.356C36.3293 62.52 37.1626 61.6307 37.3293 61.4693L37.3559 61.4427L37.2933 61.4747C37.0693 61.588 36.3266 61.9987 36.1306 62.5293C35.9986 62.3827 35.9573 61.24 36.6586 60.9973C36.9146 59.868 38.8893 61.1333 39.6666 60.4013C35.9706 59.472 37.8666 57.1453 37.8666 57.1453C37.8666 57.1453 37.3733 57.336 36.9706 57.9787C35.6639 57.9213 34.5519 58.428 33.4719 58.9947L32.7266 59.3893C31.0759 60.2627 29.4186 61.0027 27.1746 59.776C27.0533 60.0813 26.5626 60.7227 27.8639 61.092C27.0399 62.1733 25.4719 61.092 24.7479 60.6653C24.1599 62.8253 22.9266 62.3653 22.5693 62.2693C22.9226 62.0133 23.2373 61.5933 22.7026 61.4187C21.7293 61.148 21.2679 62.4053 20.0653 62.212C20.4653 61.2453 20.2559 61.052 19.6639 61.0347C19.0706 61.012 18.9559 61.648 17.7759 61.3747C17.8239 61.2307 18.2559 60.632 17.5733 60.3827C16.8666 60.1227 15.1079 60.5907 15.4599 59.9893C16.0573 58.9667 15.4173 58.8773 15.2759 58.8693H15.2493C15.2493 58.8693 14.8279 59.8533 14.3706 59.776C13.8013 59.7067 13.0706 59.4293 13.2613 60.2787C12.8426 59.796 13.0346 58.212 14.6746 58.3667C14.7719 57.9613 12.9373 58.348 13.4639 56.864C13.5866 56.724 13.1466 56.4333 12.4013 56.7613C13.3586 55.8147 14.2439 56.1373 15.0319 57.1747C15.3973 57.4813 15.5119 57.4387 15.5119 57.4387C15.5119 57.4387 15.0586 57.0493 15.0773 56.5893C15.0893 56.28 15.3439 55.9893 15.5173 55.972C15.4026 55.352 14.7333 55.256 14.7333 55.256C14.7333 55.256 16.0733 54.6373 16.4346 56.5307C16.6266 57.6507 17.5106 59.644 19.9546 59.588C19.9546 59.588 21.3253 59.708 22.0479 58.2C22.8279 56.564 24.9199 57.0213 25.6519 55.468C26.0973 55.92 25.8733 56.5187 25.1946 56.808C25.0253 56.8787 27.0479 58.1347 27.9146 54.9947C27.9453 54.8813 28.7573 55.6973 28.1946 56.76C28.1346 56.8747 29.3506 56.9347 29.8746 56.0093C30.9919 54.0333 32.1719 55.2627 32.3239 55.472L32.3293 55.4787L32.2693 55.356C31.8493 54.5787 31.2159 54.324 30.2906 54.9613L30.1253 55.0827C30.1253 55.0827 30.0386 53.5227 27.7653 53.5853C28.9493 53.752 30.1159 54.6253 29.5359 55.7853C29.1306 56.332 28.6759 56.44 28.6759 56.44C29.0759 55.72 28.4559 54.5093 27.6146 54.3533C27.6999 54.74 26.9933 57.276 25.7853 56.7293C27.0026 55.9867 25.4386 54.8547 25.4386 54.8547C25.5746 55.38 24.8839 56.1413 23.6519 56.564L23.3839 56.664C22.1226 57.168 21.9346 57.7493 21.6133 58.304C21.5093 58.1973 19.6613 55.8133 22.5853 54.7587C23.3186 54.4947 24.7626 53.6133 24.4186 51.356C24.3986 51.2213 24.3613 51.196 24.4146 51.132C24.6653 50.9987 25.6759 50.208 25.7973 50.052C27.9906 50.268 28.5199 51.08 29.0013 51.856C29.0026 51.8573 28.5013 49.9 26.0959 49.7253C26.4159 49.3093 26.2959 49.0227 26.1679 48.8813C25.9639 48.6547 25.7213 48.2253 25.7279 48.0613C25.7933 46.756 27.3319 47.064 27.2079 47.0147C26.9314 46.9139 26.6304 46.9016 26.3466 46.9794C26.0628 47.0573 25.8103 47.2215 25.6239 47.4493C25.7146 45.872 27.9039 45.7293 28.1786 45.7147ZM14.2173 46.6667C14.6226 46.644 15.3559 46.8533 15.3559 47.668C15.6266 47.668 15.5293 47.948 15.5226 48.0813C15.4693 49.108 15.1306 50.4813 15.6733 51.1667C16.6039 52.2413 19.1306 53.4787 19.9493 53.8467C19.1013 55.2493 19.9359 55.8773 20.2359 56.2653C20.0559 57.0613 20.9879 58.3653 20.9879 58.3653C20.9879 58.3653 20.9666 58.4587 20.6719 58.6933C19.4319 59.2973 18.4026 59.12 17.3093 58.2027C17.9946 58.1107 18.8626 57.8827 18.7413 56.764C18.6586 55.7507 16.4693 55.8507 16.1573 54.732C16.8013 54.852 17.1759 54.616 16.9959 54.1427C16.7866 53.5107 14.5573 54.0893 13.9506 52.9213C14.9453 52.8907 15.0093 52.428 14.9453 52.244C14.8799 52.0893 14.7186 52.0173 14.5319 51.9587L14.3693 51.908C13.9306 51.7707 13.4839 51.584 13.9199 50.48C13.6519 50.192 13.3066 50.9547 12.7599 50.9827C12.2133 51.0053 12.1866 50.5067 12.1866 50.5067C12.1866 50.5067 11.4586 51.1907 11.4586 51.2707C11.4586 51.3507 11.1839 49.3453 13.3519 49.7907C13.5066 49.0747 11.3599 49.2667 12.5293 47.908C12.3399 47.556 11.4586 47.4547 11.4586 47.4547C11.4586 47.4547 13.1786 46.6373 14.0706 48.8627C14.0706 48.6227 13.4439 47.4893 14.6613 47.5347C14.8666 47.588 14.2173 46.6667 14.2173 46.6667ZM20.7906 53.3333C20.7906 53.3333 20.8159 54.7093 21.9413 54.5733C21.4466 54.828 20.5333 55.3547 20.5333 56.1907C19.4053 54.8627 20.4986 54.644 20.7906 53.3333ZM25.3773 46.6667C25.2439 47.128 25.0666 48.1133 25.6399 48.9C25.6879 48.9667 25.7733 49.0893 25.7546 49.1853C25.6426 49.7533 24.3946 50.5507 23.9546 50.8267C23.9191 50.8495 23.8938 50.885 23.8839 50.926C23.8739 50.967 23.8802 51.0102 23.9013 51.0467C24.6346 53.096 22.7733 54.2867 22.1119 54.2867C21.1479 54.2773 21.3346 53.3467 21.3613 53.0027L21.5279 53.4347C21.5373 53.4613 21.5599 53.48 21.5879 53.4867L21.9839 53.572C22.0239 53.5813 22.0679 53.5587 22.0813 53.516L22.2573 52.9667L22.3959 53.5307C22.4007 53.5481 22.4109 53.5636 22.425 53.5748C22.4392 53.5861 22.4565 53.5926 22.4746 53.5933C23.4613 53.6067 23.9639 51.5 22.6839 51.492C22.3333 51.4907 22.1986 52.3573 22.1839 52.4427L21.8493 51.52C21.8437 51.5053 21.8342 51.4925 21.8217 51.4831C21.8092 51.4736 21.7942 51.4679 21.7786 51.4667C21.7786 51.4667 20.8933 51.38 20.8653 51.3787C20.7853 51.3707 20.7599 51.4413 20.7799 51.488L21.0426 52.172C20.6759 51.7467 20.2399 51.1987 20.1039 50.8827C19.9706 50.5667 19.9173 50.392 20.9653 49.4653C21.0586 49.3827 21.7973 48.9067 21.7039 48.6093C21.6373 48.4027 21.2906 48.4693 21.2013 48.4813C21.3079 47.3053 25.0399 46.72 25.3773 46.6667ZM20.3399 50.4573C20.3217 50.4506 20.3017 50.4506 20.2834 50.4571C20.2651 50.4637 20.2497 50.4765 20.2399 50.4933C20.231 50.5105 20.2282 50.5302 20.2321 50.5491C20.236 50.5681 20.2463 50.5851 20.2613 50.5973L20.9506 51.132C20.9773 51.1507 21.0053 51.1547 21.0359 51.1427L22.2266 50.6413C22.2447 50.6334 22.2594 50.6192 22.268 50.6013C22.2766 50.5835 22.2784 50.5631 22.2733 50.544C22.2669 50.5249 22.2541 50.5086 22.2371 50.4979C22.2201 50.4872 22.1999 50.4828 22.1799 50.4853L20.9186 50.648L20.3399 50.4573ZM24.6039 48.52L22.8813 48.784C22.8602 48.7874 22.84 48.7949 22.8219 48.8062C22.8038 48.8174 22.788 48.8321 22.7756 48.8495C22.7632 48.8669 22.7544 48.8865 22.7496 48.9073C22.7449 48.9281 22.7443 48.9496 22.7479 48.9707C22.7626 49.0573 22.8453 49.1173 22.9359 49.1027C22.9359 49.1027 23.2573 49.0573 23.3679 49.096C23.4773 49.132 23.5279 49.2707 23.6639 49.2227C23.8026 49.172 24.6906 48.8293 24.6906 48.8293C24.7281 48.816 24.7592 48.7888 24.7775 48.7534C24.7958 48.7181 24.8 48.677 24.7893 48.6387C24.7788 48.5993 24.754 48.5652 24.7197 48.5432C24.6854 48.5213 24.6441 48.513 24.6039 48.52ZM27.7039 27.6187C27.5119 27.756 27.1906 27.9773 27.2693 28.3053C27.3426 28.8293 28.6386 28.696 29.2186 30.0613C28.6266 29.8053 28.5759 30.1747 29.0279 30.4733C29.4919 30.856 30.1533 31.276 30.4146 32.804C30.4146 32.804 29.9586 32.2787 29.7346 32.6533C29.4373 33.196 31.5306 32.7427 32.3026 35.1093C32.4453 35.5293 32.7133 35.9893 33.1999 36.2107C33.1386 36.184 32.3626 36.1227 31.0319 35.4907C31.9693 36.3707 32.5119 36.4373 34.2853 36.4653C34.6693 36.4813 35.2066 36.4867 35.8373 36.488H36.6333C39.1293 36.4827 42.4733 36.4387 43.6146 36.5667C44.2186 36.6333 45.6693 36.7213 46.1413 36.6693C47.6426 36.504 48.9173 36.2347 49.9453 35.8627C51.4146 35.3293 52.0173 34.72 52.2639 34.3C52.5026 33.8973 52.5173 33.496 52.3146 33.1067C51.9133 32.3493 50.5586 32.468 48.5679 32.9987C48.4452 33.0384 48.3206 33.0723 48.1946 33.1C46.5293 33.54 47.0013 34.1213 45.7613 34.668C45.9159 34.108 45.9026 33.9253 45.5479 34.0307C45.1893 34.136 44.2813 34.4413 43.9106 34.5613C40.4346 35.68 37.1506 35.6507 35.5453 34.484C34.9053 34.0187 34.5759 33.396 34.5973 32.6893C34.6133 32.12 34.8506 31.6333 35.3039 31.2413C36.4493 30.2507 38.7866 30.1213 40.1399 30.1387C40.3266 29.9067 40.7933 29.7627 41.9119 29.756C43.7279 29.7427 44.3586 29.7427 45.0119 28.9867C44.9853 29.3333 44.8533 29.5333 44.8533 29.5333C44.8533 29.5333 45.3866 29.4293 46.0693 28.7773C45.4279 30.7867 43.2159 30.6707 42.0586 30.8387C42.2319 30.9933 42.8079 31.0853 42.8079 31.0853C42.8079 31.0853 40.3999 32.1027 40.0639 30.9627C38.7053 30.952 36.7279 31.1093 35.8639 31.8587C35.7351 31.9612 35.6304 32.0908 35.5571 32.2382C35.4839 32.3857 35.4439 32.5474 35.4399 32.712C35.4279 33.1467 35.6346 33.52 36.0506 33.824C36.6853 34.2853 37.8319 34.584 39.3533 34.5547C39.2266 34.3347 39.4999 33.7107 39.8906 33.6147C39.4319 34.792 40.6159 34.512 41.1759 34.42C41.7346 34.3307 42.6759 34.092 43.6426 33.78C44.0133 33.6587 44.3759 33.54 44.7293 33.428C47.0386 32.6787 48.5026 32.0867 49.9186 31.852C50.9759 31.676 52.4519 31.576 53.0639 32.728C53.3999 33.364 53.3759 34.068 52.9946 34.712C52.4919 35.5653 50.9559 36.964 46.2946 37.4827C47.2706 38.0293 51.2146 40.088 54.1666 35.7773C54.4239 36.4493 53.7133 36.9267 54.2199 37.316C54.3693 37.4747 55.3239 37.4893 55.7039 38.516C54.1666 37.8973 54.4386 38.428 54.7973 38.604C55.5959 38.868 56.4106 39.8107 56.2679 39.9987C55.4333 39.5587 55.1613 39.872 55.1706 40.0253C55.1826 40.38 56.2053 40.476 56.1933 41.1467C54.9986 41.0067 55.3799 41.4493 55.3799 41.4493C55.4973 41.5573 56.7892 42.7867 55.5599 43.4573C55.1973 43.656 53.6853 43.052 53.0026 44.4707C52.9439 44.54 52.5733 45.0333 52.0159 45.2267C51.1453 45.3827 51.4159 46.0533 51.4146 46.6667C51.0373 46.3307 50.7946 45.5707 50.9013 44.996C50.2653 44.996 50.2306 46.1733 50.2306 46.1733C50.0213 45.864 49.9773 45.0347 50.1493 44.528C49.6373 44.6013 49.2933 45.7227 49.2933 45.7227C49.0799 45.196 49.2266 44.5853 49.5746 44.128C49.5199 43.9613 49.6279 43.3147 50.5199 43.1667C51.9359 43.0253 52.1999 42.8107 52.1999 42.8107C52.1999 42.8107 52.7653 42.504 52.9893 41.8773C53.3799 40.78 52.5933 39.6027 50.8986 39.7333C49.3226 39.852 49.0813 42.2827 47.6853 42.2267C48.2653 41.6933 48.3853 40.7893 48.4239 40.356C43.1759 41.8467 42.2026 39.6933 42.2026 39.6933C42.2026 39.6933 40.4493 40.8587 42.1093 41.672C42.3666 41.7973 44.1266 42.6413 46.1186 42.08C45.6119 43.5307 42.8013 43.7173 42.8013 43.7173L42.8066 43.7253L42.8386 43.788C42.9213 43.9627 43.0733 44.4147 42.5373 44.56C41.4466 44.892 40.8173 44.62 40.5813 44.6653C40.3253 44.7173 39.6466 45.536 39.0013 45.436C38.4146 45.3467 38.4893 46.416 38.4893 46.416C37.9519 46.144 38.2506 44.9013 38.2466 44.9013C37.3759 45.036 37.5133 46.1893 37.5133 46.1893C36.4999 45.216 37.7173 44.176 37.7173 44.176C37.7173 44.176 36.6319 44.656 36.3813 45.3187C36.2346 45.164 36.1919 43.96 36.9546 43.7093C37.2346 42.5173 39.3879 43.8507 40.2373 43.0813C36.2066 42.0987 38.2733 39.6507 38.2733 39.6507C38.2733 39.6507 37.7346 39.8507 37.2986 40.5293C35.9119 40.4707 34.7239 40.9733 33.5746 41.5507L33.0466 41.82C31.1173 42.8133 29.2293 43.804 26.6106 42.4227C26.4773 42.7413 25.9413 43.4187 27.3599 43.804C26.4613 44.9427 24.7546 43.804 23.9613 43.3573C23.3213 45.6307 21.9746 45.148 21.5853 45.0467C21.9719 44.776 22.3146 44.336 21.7319 44.1507C20.6653 43.8667 20.1679 45.188 18.8519 44.9853C19.2919 43.968 19.0639 43.7653 18.4159 43.7453C17.7693 43.7253 17.6426 44.3907 16.3586 44.1027C16.4093 43.9533 16.8786 43.324 16.1333 43.06C15.8893 42.9733 15.5279 42.964 15.1599 42.9707L14.8479 42.98C14.1799 43.0013 13.6026 43.02 13.8306 42.6467C14.5573 41.444 13.5999 41.4653 13.5999 41.4653C13.5999 41.4653 13.1413 42.5027 12.6399 42.4227C12.0186 42.348 11.2226 42.056 11.4333 42.952C10.9719 42.4427 11.1826 40.776 12.9746 40.936C13.0786 40.5093 11.0786 40.9173 11.6519 39.3573C11.7853 39.208 11.3053 38.904 10.4933 39.2507C11.5359 38.2507 12.5026 38.5907 13.3613 39.6827C13.7613 40.0027 13.8866 39.9613 13.8866 39.9613C13.8866 39.9613 13.3919 39.552 13.4119 39.0667C13.4266 38.74 13.7053 38.436 13.8919 38.4133C13.7666 37.7653 13.0386 37.664 13.0386 37.664C13.0386 37.664 14.4959 37.0107 14.8933 39.0053C15.1013 40.1853 16.0666 42.2827 18.7333 42.224C18.7333 42.224 20.2306 42.3493 21.0159 40.764C21.8679 39.04 24.1519 39.5213 24.9493 37.8853C25.4359 38.3613 25.1893 38.992 24.4493 39.2973C24.2626 39.372 26.4719 40.6947 27.4159 37.3893C27.4506 37.2693 28.3333 38.128 27.7239 39.2467C27.6573 39.3667 28.9839 39.4333 29.5559 38.456C30.7773 36.372 32.0679 37.676 32.2293 37.892L32.2413 37.9093L32.1679 37.7693C31.7106 36.9507 31.0159 36.684 30.0093 37.3533L29.8293 37.4813C29.8293 37.4813 29.7319 35.8373 27.2559 35.904C28.5466 36.08 29.8186 36.9973 29.1866 38.2213C28.7426 38.796 28.2493 38.908 28.2493 38.908C28.6839 38.1507 28.0053 36.876 27.0893 36.7133C27.1826 37.1187 26.4133 39.7893 25.0933 39.212C26.4199 38.4307 24.7159 37.24 24.7159 37.24C24.8639 37.792 24.1079 38.596 22.7639 39.0427C21.1239 39.5947 20.9146 40.2507 20.5426 40.8707C20.4439 40.7747 18.9359 38.9013 20.5559 37.6733C20.0919 37.968 19.5799 38.42 19.5799 39.0467C18.5893 37.8813 19.3106 37.5707 19.6986 36.6253C19.5879 36.3 19.6586 35.9053 19.6719 35.6987L19.8679 36.188C19.8746 36.202 19.8843 36.2144 19.8962 36.2243C19.9082 36.2342 19.9222 36.2414 19.9373 36.2453L20.4013 36.3413C20.4242 36.3462 20.4481 36.3425 20.4685 36.331C20.4888 36.3194 20.5043 36.3008 20.5119 36.2787L20.7186 35.6613L20.8786 36.296C20.8893 36.336 20.9319 36.3627 20.9719 36.3667C22.1253 36.38 22.7106 34.0107 21.2186 34.0027C20.8093 33.9973 20.6506 34.9747 20.6333 35.072L20.2426 34.032C20.2365 34.0152 20.2258 34.0005 20.2116 33.9896C20.1974 33.9787 20.1804 33.9722 20.1626 33.9707L19.0959 33.8733C19.0026 33.8653 18.9759 33.9453 18.9973 33.996L19.3026 34.7667C18.8746 34.2893 18.3693 33.672 18.2093 33.316C18.0519 32.9587 17.9893 32.7627 19.2119 31.7213C19.3213 31.628 20.1813 31.0907 20.0746 30.7573C19.9946 30.524 19.5919 30.6 19.4906 30.6133C19.6106 29.288 23.9639 28.6293 24.3586 28.572C24.2039 29.092 23.9946 30.1987 24.6666 31.0853C24.7213 31.16 24.8226 31.2987 24.7999 31.4027C24.6679 32.0427 23.2146 32.9413 22.6973 33.2547C22.6768 33.2665 22.659 33.2823 22.6448 33.3011C22.6306 33.32 22.6203 33.3415 22.6146 33.3643C22.6089 33.3872 22.6078 33.411 22.6115 33.4343C22.6152 33.4576 22.6235 33.48 22.6359 33.5C23.4893 35.8067 21.3226 37.1427 20.5493 37.1427C20.3977 37.1454 20.247 37.1191 20.1053 37.0653C20.2719 37.304 20.5453 37.484 20.9879 37.4293L20.9293 37.4333C21.1456 37.3167 21.3713 37.2181 21.6039 37.1387C22.4013 36.8613 23.9773 35.9347 23.6039 33.5573C23.5813 33.416 23.5399 33.388 23.5973 33.3227C23.8706 33.18 24.9746 32.3493 25.1066 32.184C27.4999 32.4147 28.0773 33.268 28.6013 34.084C28.6039 34.0867 28.0586 32.0253 25.4333 31.8427C25.7826 31.4027 25.6506 31.1013 25.5106 30.952C25.2879 30.7133 25.0253 30.26 25.0306 30.0893C25.1026 28.716 26.7813 29.0373 26.6466 28.988C26.3463 28.8806 26.0205 28.8668 25.7122 28.9484C25.4039 29.0301 25.1277 29.2034 24.9199 29.4453C25.0173 27.7867 27.4066 27.636 27.7039 27.6187ZM21.9413 45.8533C22.8426 45.468 23.1253 45.984 23.8493 46.1773C23.6053 46.2547 22.4279 46.592 22.2173 46.6667C22.2306 46.384 22.1559 46.0627 21.9413 45.8533ZM12.5839 28.5733C13.0306 28.548 13.8373 28.7733 13.8373 29.6507C14.1346 29.6507 14.0279 29.9507 14.0199 30.0973C13.9626 31.2 13.5893 32.6827 14.1853 33.4173C15.2093 34.5773 17.9893 35.9093 18.8893 36.3067C17.9559 37.816 18.8746 38.4933 19.2053 38.9107C19.0039 39.7693 20.0333 41.172 20.0333 41.172C20.0333 41.172 20.0079 41.2733 19.6839 41.524C18.3186 42.176 17.1879 41.9853 15.9853 40.996C16.7373 40.8987 17.6946 40.6533 17.5613 39.4467C17.4679 38.3573 15.0613 38.4627 14.7186 37.26C15.4279 37.3867 15.8386 37.136 15.6399 36.6227C15.4106 35.9427 12.9599 36.5667 12.2933 35.312C13.3866 35.276 13.4546 34.7787 13.3866 34.5787C13.3066 34.396 13.0986 34.3227 12.8693 34.2533L12.6959 34.2C12.2333 34.0533 11.7973 33.8213 12.2559 32.6787C11.9599 32.368 11.5839 33.192 10.9826 33.2187C10.3799 33.2467 10.3519 32.708 10.3519 32.708C10.3519 32.708 9.55192 33.4467 9.55192 33.5307C9.55192 33.616 9.24926 31.4573 11.6319 31.9373C11.6946 31.6507 11.4106 31.4987 11.0933 31.3467L10.9013 31.2533C10.4239 31.0187 10.0119 30.72 10.7279 29.9067C10.5199 29.5307 9.55192 29.424 9.55192 29.424C9.55192 29.424 11.4453 28.544 12.4226 30.9373C12.4226 30.6787 11.7359 29.4613 13.0706 29.508C13.2986 29.5653 12.5839 28.5733 12.5839 28.5733ZM18.4839 32.8347C18.4625 32.8279 18.4393 32.8285 18.4183 32.8365C18.3972 32.8445 18.3795 32.8593 18.3679 32.8787C18.3571 32.8976 18.3535 32.9198 18.3579 32.9412C18.3624 32.9626 18.3744 32.9816 18.3919 32.9947L19.1973 33.5947C19.2279 33.616 19.2599 33.6213 19.2959 33.608L20.6839 33.044C20.7043 33.035 20.7209 33.0191 20.7309 32.9992C20.7409 32.9792 20.7436 32.9564 20.7386 32.9347C20.7313 32.9129 20.7167 32.8943 20.6973 32.8821C20.6778 32.87 20.6547 32.865 20.6319 32.868L19.1573 33.0507L18.4839 32.8347ZM23.4573 30.6547L21.4466 30.9547C21.4226 30.9579 21.3995 30.9659 21.3787 30.9782C21.3578 30.9904 21.3396 31.0067 21.3251 31.0261C21.3106 31.0454 21.3001 31.0675 21.2942 31.0909C21.2882 31.1144 21.287 31.1387 21.2906 31.1627C21.3009 31.2111 21.3296 31.2537 21.3706 31.2816C21.4116 31.3094 21.4617 31.3203 21.5106 31.312C21.5106 31.312 21.8879 31.2627 22.0146 31.3027C22.1426 31.3453 22.2013 31.5013 22.3613 31.444C22.4639 31.4093 22.9199 31.24 23.2373 31.1227L23.4653 31.0387L23.5573 31.004C23.6001 30.9891 23.6358 30.9586 23.6573 30.9186C23.6788 30.8786 23.6845 30.832 23.6733 30.788C23.6594 30.7435 23.6299 30.7054 23.5902 30.6809C23.5505 30.6564 23.5033 30.6471 23.4573 30.6547ZM20.9879 27.7587C22.3413 27.372 22.7613 27.888 23.8493 28.0813C23.4839 28.16 21.7186 28.4987 21.4013 28.572C21.4127 28.4117 21.3802 28.2513 21.3074 28.108C21.2346 27.9647 21.1242 27.844 20.9879 27.7587ZM27.7039 9.524C27.5119 9.65867 27.1906 9.88 27.2693 10.208C27.3426 10.7347 28.6386 10.6 29.2186 11.964C28.6266 11.708 28.5759 12.0773 29.0279 12.3773C29.4919 12.76 30.1533 13.1787 30.4146 14.708C30.4146 14.708 29.9586 14.1827 29.7346 14.556C29.4373 15.0987 31.5306 14.6467 32.3026 17.0147C32.4453 17.432 32.7133 17.8947 33.1999 18.1147C33.1386 18.088 32.3626 18.0267 31.0319 17.3947C31.9693 18.2747 32.5119 18.3413 34.2853 18.368C34.6693 18.384 35.2066 18.3907 35.8373 18.392H36.6333C37.1879 18.392 37.7839 18.388 38.3893 18.3853L39.2986 18.3813C41.1133 18.3773 42.8533 18.3853 43.6146 18.4707C44.2186 18.5373 45.6693 18.6253 46.1413 18.5733C47.6426 18.4093 48.9173 18.1387 49.9453 17.7667C51.4146 17.2333 52.0173 16.624 52.2639 16.204C52.5026 15.8013 52.5173 15.4 52.3146 15.012C51.9133 14.252 50.5586 14.372 48.5679 14.9027C48.4452 14.9424 48.3206 14.9762 48.1946 15.004C46.5293 15.444 47.0013 16.0253 45.7613 16.572C45.9159 16.012 45.9026 15.8293 45.5479 15.9347C45.1893 16.0387 44.2813 16.3453 43.9106 16.4653C40.4346 17.584 37.1506 17.5533 35.5453 16.3867C34.9053 15.9227 34.5759 15.3 34.5973 14.592C34.6133 14.024 34.8506 13.5373 35.3039 13.1453C36.4493 12.1533 38.7866 12.0253 40.1399 12.0413C40.3266 11.8093 40.7933 11.6667 41.9119 11.6587C43.7279 11.6453 44.3573 11.6453 45.0119 10.8893C45.0007 11.0634 44.9558 11.2336 44.8799 11.3907L44.8533 11.4387C44.8533 11.4387 45.3866 11.332 46.0693 10.68C45.4279 12.6893 43.2159 12.5747 42.0586 12.7427C42.2319 12.896 42.8079 12.988 42.8079 12.988C42.8079 12.988 40.3999 14.0053 40.0639 12.8653C38.7053 12.8547 36.7279 13.012 35.8639 13.7613C35.735 13.8641 35.6303 13.9939 35.557 14.1416C35.4837 14.2892 35.4438 14.4512 35.4399 14.616C35.4279 15.0493 35.6346 15.4227 36.0506 15.7267C36.6853 16.188 37.8319 16.4867 39.3533 16.4587C39.2266 16.24 39.4999 15.6133 39.8906 15.5187C39.4319 16.696 40.6159 16.4147 41.1759 16.3253C41.7346 16.2333 42.6759 15.996 43.6426 15.684C44.0133 15.5627 44.3759 15.444 44.7293 15.332C47.0386 14.5827 48.5026 13.9907 49.9186 13.7547C50.9759 13.5787 52.4519 13.4787 53.0639 14.6347C53.3999 15.268 53.3759 15.972 52.9946 16.616C52.4919 17.4693 50.9559 18.868 46.2946 19.384C47.2706 19.9333 51.2146 21.992 54.1666 17.6827C54.4239 18.3533 53.7133 18.8293 54.2199 19.22C54.3693 19.38 55.3239 19.3933 55.7039 20.42C54.1666 19.8027 54.4386 20.3333 54.7973 20.508C55.5959 20.7747 56.4106 21.7147 56.2679 21.9027C55.4333 21.4627 55.1613 21.776 55.1706 21.9307C55.1826 22.2867 56.2053 22.38 56.1933 23.0507C54.9986 22.9107 55.3799 23.3547 55.3799 23.3547C55.4973 23.4613 56.7892 24.6907 55.5599 25.3613C55.1973 25.5613 53.6853 24.956 53.0026 26.3747C52.9439 26.4453 52.5733 26.9387 52.0159 27.132C51.1453 27.288 51.4159 27.9587 51.4146 28.572C51.0373 28.236 50.7946 27.476 50.8999 26.9013C50.2653 26.9013 50.2306 28.0787 50.2306 28.0787C50.0213 27.768 49.9773 26.9387 50.1493 26.4333C49.6373 26.504 49.2933 27.6267 49.2933 27.6267L49.2359 27.4493C49.1293 27.028 49.2319 26.5707 49.4666 26.1907L49.5746 26.0333C49.5199 25.8667 49.6279 25.2187 50.5199 25.0707C51.9346 24.9307 52.1999 24.716 52.1999 24.716C52.1999 24.716 52.7653 24.4067 52.9893 23.7827C53.3799 22.6867 52.5933 21.508 50.8986 21.636C49.3226 21.756 49.0813 24.1867 47.6853 24.1307C48.2653 23.6 48.3853 22.6933 48.4239 22.2613C43.1759 23.7547 42.2026 21.596 42.2026 21.596C42.2026 21.596 40.4493 22.764 42.1093 23.576C42.3666 23.7013 44.1266 24.5467 46.1186 23.984C45.6119 25.4347 42.8013 25.624 42.8013 25.624L42.8066 25.632L42.8386 25.6947C42.9213 25.8693 43.0733 26.3213 42.5373 26.464C41.4466 26.7973 40.8173 26.524 40.5813 26.5707C40.3253 26.6213 39.6466 27.4413 39.0013 27.3413C38.4146 27.252 38.4893 28.3213 38.4893 28.3213C37.9519 28.0493 38.2506 26.8067 38.2466 26.8067C37.3759 26.944 37.5133 28.0947 37.5133 28.0947C36.4999 27.1213 37.7173 26.0813 37.7173 26.0813C37.7173 26.0813 36.6319 26.564 36.3813 27.224C36.2346 27.0693 36.1919 25.8667 36.9546 25.6133C37.2346 24.4213 39.3879 25.7533 40.2373 24.9867C36.2066 24.004 38.2733 21.5547 38.2733 21.5547C38.2733 21.5547 37.7346 21.7547 37.2986 22.4347C35.9119 22.3747 34.7239 22.8773 33.5746 23.4547L33.0466 23.724C31.1173 24.7187 29.2293 25.7107 26.6106 24.328C26.4773 24.6453 25.9413 25.324 27.3599 25.7093C26.4613 26.848 24.7546 25.7093 23.9613 25.2613C23.3213 27.536 21.9746 27.0533 21.5853 26.952C21.9719 26.6813 22.3146 26.24 21.7319 26.0573C20.6653 25.7707 20.1679 27.092 18.8519 26.8893C19.2919 25.8747 19.0639 25.6693 18.4159 25.6493C17.7693 25.6293 17.6426 26.296 16.3586 26.0067C16.4093 25.8587 16.8786 25.228 16.1333 24.964C15.3639 24.692 13.4453 25.184 13.8306 24.5507C14.4839 23.468 13.7746 23.3773 13.6266 23.3707H13.5999L13.5919 23.3867L13.5319 23.5093C13.3853 23.7893 13.0253 24.3907 12.6399 24.328C12.0186 24.252 11.2226 23.96 11.4333 24.856C10.9719 24.348 11.1826 22.68 12.9746 22.8413C13.0786 22.4147 11.0786 22.8213 11.6519 21.2613C11.7853 21.112 11.3053 20.808 10.4933 21.1547C11.5359 20.1573 12.5026 20.496 13.3613 21.5867C13.7613 21.9093 13.8866 21.8667 13.8866 21.8667C13.8866 21.8667 13.3919 21.456 13.4119 20.9707C13.4266 20.644 13.7053 20.34 13.8919 20.3187C13.7666 19.6693 13.0386 19.568 13.0386 19.568C13.0386 19.568 14.4959 18.9147 14.8933 20.9093C15.1013 22.0893 16.0666 24.1867 18.7333 24.1293L18.7653 24.1307H18.8573C19.2319 24.1213 20.3666 23.9787 21.0173 22.668C21.8679 20.9453 24.1506 21.428 24.9479 19.7907C25.4359 20.2653 25.1906 20.8973 24.4493 21.2013C24.2626 21.2773 26.4719 22.5987 27.4159 19.2933C27.4506 19.172 28.3333 20.032 27.7239 21.152C27.6573 21.272 28.9839 21.336 29.5559 20.36C30.7773 18.276 32.0679 19.58 32.2293 19.796L32.2386 19.8093L32.1679 19.6733C31.7106 18.8547 31.0159 18.5867 30.0093 19.256L29.8293 19.384C29.8293 19.384 29.7319 17.7413 27.2559 17.808C28.5466 17.9827 29.8186 18.904 29.1866 20.1253C28.7426 20.7 28.2493 20.812 28.2493 20.812C28.6839 20.0547 28.0053 18.78 27.0893 18.6173C27.1826 19.0253 26.4133 21.6947 25.0919 21.116C26.4199 20.3347 24.7159 19.1427 24.7159 19.1427C24.8639 19.696 24.1079 20.5027 22.7639 20.9467C21.1239 21.5 20.9146 22.156 20.5426 22.7747C20.4279 22.664 18.4133 20.1547 21.6039 19.0427C22.4013 18.764 23.9773 17.8387 23.6039 15.4613C23.5813 15.32 23.5399 15.292 23.5973 15.2267C23.8706 15.0827 24.9746 14.2533 25.1066 14.088C27.4999 14.3173 28.0773 15.1707 28.6013 15.988C28.6039 15.9893 28.0586 13.928 25.4333 13.7453C25.7826 13.3053 25.6506 13.004 25.5106 12.8547C25.2879 12.616 25.0253 12.164 25.0306 11.992C25.1026 10.6187 26.7813 10.9427 26.6466 10.8907C26.3463 10.7831 26.0205 10.7692 25.7121 10.8508C25.4038 10.9325 25.1275 11.1059 24.9199 11.348C25.0173 9.68933 27.4066 9.54 27.7039 9.524ZM12.5839 10.4773C13.0306 10.4533 13.8373 10.6773 13.8373 11.556C14.1346 11.556 14.0279 11.856 14.0199 12.0027C13.9626 13.1067 13.5893 14.5867 14.1853 15.3227C15.2093 16.4827 17.9893 17.8133 18.8893 18.2107C17.9559 19.7213 18.8746 20.3973 19.2053 20.8147C19.0039 21.6733 20.0333 23.076 20.0333 23.076C20.0333 23.076 20.0079 23.1787 19.6839 23.428C18.3186 24.0813 17.1879 23.8893 15.9853 22.9C16.7373 22.8027 17.6946 22.56 17.5613 21.352C17.4679 20.2613 15.0613 20.368 14.7186 19.1627C15.4279 19.2907 15.8386 19.0387 15.6399 18.5293C15.4106 17.8493 12.9599 18.472 12.2933 17.216C13.3866 17.1813 13.4546 16.6827 13.3866 16.484C13.3066 16.3013 13.0986 16.2267 12.8693 16.1573L12.6959 16.104C12.2333 15.9573 11.7973 15.7267 12.2559 14.584C11.9599 14.2733 11.5839 15.096 10.9826 15.1227C10.9073 15.1337 10.8305 15.129 10.757 15.1089C10.6836 15.0888 10.6151 15.0538 10.5559 15.0059C10.4966 14.9581 10.4479 14.8985 10.4128 14.831C10.3777 14.7634 10.357 14.6893 10.3519 14.6133C10.3519 14.6133 9.55192 15.3507 9.55192 15.4347C9.55192 15.52 9.24926 13.3613 11.6319 13.8427C11.6826 13.6133 11.5119 13.4693 11.2773 13.344L11.0933 13.2507C10.5546 12.9933 9.91726 12.7347 10.7279 11.812C10.5199 11.436 9.55192 11.328 9.55192 11.328C9.55192 11.328 11.4453 10.448 12.4226 12.844C12.4226 12.5827 11.7359 11.3667 13.0706 11.4133C13.2986 11.4707 12.5839 10.4773 12.5839 10.4773ZM24.3586 9.524C24.2039 10.0413 23.9946 11.1507 24.6666 12.0373C24.7213 12.112 24.8226 12.2507 24.7999 12.356C24.6679 12.996 23.2146 13.892 22.6973 14.204C22.677 14.2159 22.6593 14.2318 22.6452 14.2507C22.6311 14.2695 22.6209 14.291 22.6152 14.3138C22.6095 14.3366 22.6084 14.3604 22.6119 14.3837C22.6155 14.4069 22.6236 14.4293 22.6359 14.4493C23.4893 16.7573 21.3226 18.0947 20.5493 18.0947C20.3978 18.0977 20.2471 18.072 20.1053 18.0187C20.2719 18.256 20.5453 18.436 20.9879 18.3827C20.4919 18.6387 19.5799 19.1627 19.5799 20C18.5893 18.8333 19.3106 18.5227 19.6999 17.5773C19.5879 17.252 19.6573 16.8573 19.6733 16.6493L19.8679 17.14C19.8813 17.1693 19.9079 17.1893 19.9373 17.196L20.4013 17.2933C20.4242 17.2982 20.4481 17.2945 20.4685 17.283C20.4888 17.2714 20.5043 17.2528 20.5119 17.2307L20.7186 16.6147L20.8786 17.248C20.8893 17.288 20.9319 17.316 20.9719 17.3187C22.1253 17.332 22.7106 14.9627 21.2186 14.9547C20.8093 14.9507 20.6506 15.928 20.6333 16.024L20.2426 14.984C20.2361 14.9674 20.2253 14.953 20.2111 14.9422C20.197 14.9314 20.1803 14.9246 20.1626 14.9227C20.1626 14.9227 19.1279 14.8267 19.0959 14.8253C19.0026 14.8173 18.9759 14.896 18.9973 14.948L19.3026 15.7187C18.8746 15.2413 18.3693 14.6253 18.2093 14.2693C18.0519 13.912 17.9893 13.7133 19.2119 12.6733C19.3213 12.58 20.1813 12.044 20.0746 11.7093C19.9946 11.476 19.5919 11.552 19.4906 11.5667C19.5439 10.9893 20.3973 10.54 21.3773 10.2093C21.3518 10.097 21.3042 9.99082 21.2374 9.89698C21.1705 9.80314 21.0858 9.7235 20.9879 9.66267C21.9479 9.38933 22.4386 9.56933 23.0319 9.76667C23.7026 9.62267 24.2319 9.54267 24.3586 9.524ZM18.4839 13.7867C18.4625 13.7799 18.4393 13.7805 18.4183 13.7885C18.3972 13.7965 18.3795 13.8113 18.3679 13.8307C18.3571 13.8496 18.3535 13.8718 18.3579 13.8932C18.3624 13.9146 18.3744 13.9336 18.3919 13.9467L19.1973 14.5467C19.2113 14.557 19.2277 14.5636 19.2449 14.5659C19.2621 14.5682 19.2797 14.5662 19.2959 14.56L20.6839 13.9973C20.7046 13.9883 20.7214 13.9722 20.7314 13.952C20.7414 13.9317 20.7439 13.9086 20.7386 13.8867C20.7311 13.865 20.7165 13.8466 20.6971 13.8345C20.6776 13.8223 20.6546 13.8172 20.6319 13.82L19.1573 14.0027L18.4839 13.7867ZM23.4573 11.6067L21.4466 11.9053C21.3439 11.9227 21.2733 12.0173 21.2906 12.1147C21.3015 12.1628 21.3303 12.205 21.3711 12.2327C21.412 12.2605 21.4618 12.2716 21.5106 12.264C21.5106 12.264 21.8879 12.2133 22.0146 12.256C22.1426 12.2973 22.2013 12.4533 22.3613 12.3973C22.4639 12.3613 22.9199 12.1933 23.2373 12.0747L23.4653 11.9907L23.5573 11.9573C23.6004 11.9424 23.6363 11.9117 23.6578 11.8714C23.6793 11.8311 23.6848 11.7842 23.6733 11.74C23.6594 11.6955 23.6299 11.6574 23.5902 11.6329C23.5505 11.6084 23.5033 11.5991 23.4573 11.6067Z" fill="white"/>
</g>
<defs>
<clipPath id="clip0_2034_121">
<rect width="228" height="80" fill="white"/>
</clipPath>
</defs>
</svg>
