<svg width="177" height="80" viewBox="0 0 177 80" fill="none" xmlns="http://www.w3.org/2000/svg">
<g clip-path="url(#clip0_2034_98)">
<path d="M109.023 55.4228C99.0317 62.7875 84.5493 66.7168 72.0802 66.7168C54.5966 66.7168 38.8569 60.2503 26.9491 49.4951C26.0136 48.6494 26.8518 47.4968 27.9745 48.1554C40.8253 55.6324 56.7147 60.1305 73.1281 60.1305C84.1975 60.1305 96.3747 57.8403 107.571 53.0877C109.263 52.3692 110.677 54.1954 109.023 55.4228Z" fill="#FF9900"/>
<path d="M113.176 50.6705C111.904 49.0388 104.734 49.8996 101.516 50.2813C100.535 50.401 100.385 49.5478 101.269 48.9341C106.979 44.9149 116.35 46.075 117.442 47.4222C118.535 48.7769 117.158 58.1699 111.792 62.653C110.968 63.3416 110.183 62.9749 110.549 62.0618C111.754 59.053 114.456 52.3095 113.176 50.6705Z" fill="#FF9900"/>
<path d="M101.741 20.5608V16.654C101.741 16.0627 102.19 15.666 102.729 15.666H120.22C120.781 15.666 121.23 16.0702 121.23 16.654V19.9995C121.223 20.5608 120.751 21.2943 119.913 22.4544L110.85 35.395C114.217 35.3127 117.773 35.8141 120.826 37.5355C121.515 37.9247 121.702 38.4935 121.754 39.0549V43.2237C121.754 43.7925 121.126 44.4586 120.467 44.1143C115.086 41.2927 107.938 40.9858 101.988 44.1443C101.382 44.4736 100.746 43.815 100.746 43.2462V39.2869C100.746 38.6507 100.753 37.5655 101.389 36.6L111.89 21.5413H102.751C102.19 21.5413 101.741 21.1446 101.741 20.5608Z" fill="#221F1F"/>
<path d="M37.9358 44.9371H32.6144C32.1055 44.8997 31.7013 44.518 31.6639 44.0315V16.7208C31.6639 16.1745 32.1204 15.7404 32.6893 15.7404H37.6514C38.1679 15.7628 38.5795 16.1595 38.6169 16.6535V20.2235H38.7142C40.009 16.7732 42.4415 15.1641 45.7197 15.1641C49.0502 15.1641 51.1309 16.7732 52.6278 20.2235C53.9151 16.7732 56.8415 15.1641 59.9775 15.1641C62.2079 15.1641 64.6478 16.0846 66.1372 18.1504C67.8212 20.4481 67.4769 23.7861 67.4769 26.7125L67.4694 43.9492C67.4694 44.4956 67.0129 44.9371 66.4441 44.9371H61.1301C60.5987 44.8997 60.1721 44.4731 60.1721 43.9492V29.4743C60.1721 28.3217 60.2769 25.4477 60.0224 24.3549C59.6257 22.5213 58.4357 22.0048 56.8939 22.0048C55.6066 22.0048 54.2594 22.8655 53.713 24.2427C53.1667 25.6198 53.2191 27.925 53.2191 29.4743V43.9492C53.2191 44.4956 52.7625 44.9371 52.1937 44.9371H46.8797C46.3409 44.8997 45.9217 44.4731 45.9217 43.9492L45.9143 29.4743C45.9143 26.4281 46.4157 21.945 42.6361 21.945C38.8115 21.945 38.9612 26.3159 38.9612 29.4743V43.9492C38.9612 44.4956 38.5047 44.9371 37.9358 44.9371Z" fill="#221F1F"/>
<path d="M136.289 15.1641C144.185 15.1641 148.459 21.945 148.459 30.567C148.459 38.8972 143.736 45.5059 136.289 45.5059C128.535 45.5059 124.314 38.7251 124.314 30.2751C124.314 21.7728 128.588 15.1641 136.289 15.1641ZM136.334 20.74C132.412 20.74 132.165 26.0838 132.165 29.4144C132.165 32.7525 132.113 39.8777 136.289 39.8777C140.413 39.8777 140.608 34.1296 140.608 30.6269C140.608 28.3217 140.51 25.5674 139.814 23.382C139.215 21.4809 138.025 20.74 136.334 20.74Z" fill="#221F1F"/>
<path d="M158.697 44.9371H153.399C152.867 44.8997 152.44 44.4731 152.44 43.9492L152.433 16.631C152.478 16.1296 152.919 15.7404 153.458 15.7404H158.391C158.855 15.7628 159.236 16.0772 159.341 16.5038V20.6801H159.438C160.928 16.9454 163.016 15.1641 166.691 15.1641C169.078 15.1641 171.406 16.0248 172.903 18.3824C174.295 20.5678 174.295 24.2427 174.295 26.8847V44.0764C174.235 44.5554 173.794 44.9371 173.27 44.9371H167.933C167.447 44.8997 167.043 44.5405 166.99 44.0764V29.2423C166.99 26.256 167.335 21.8851 163.66 21.8851C162.365 21.8851 161.175 22.7533 160.584 24.0705C159.835 25.7396 159.738 27.4011 159.738 29.2423V43.9492C159.73 44.4956 159.266 44.9371 158.697 44.9371Z" fill="#221F1F"/>
<path d="M87.7979 31.892V30.7394C83.9509 30.7394 79.8868 31.5627 79.8868 36.0983C79.8868 38.396 81.0769 39.9527 83.1201 39.9527C84.617 39.9527 85.9567 39.0322 86.8025 37.5353C87.8503 35.6941 87.7979 33.9652 87.7979 31.892ZM93.1642 44.8625C92.8125 45.1769 92.3035 45.1993 91.9068 44.9898C90.1405 43.5228 89.8262 42.8417 88.8532 41.4422C85.9343 44.421 83.8686 45.3116 80.0814 45.3116C75.6057 45.3116 72.118 42.5498 72.118 37.0189C72.118 32.7003 74.4606 29.7589 77.7912 28.3219C80.6802 27.0496 84.7143 26.825 87.7979 26.4733V25.7847C87.7979 24.5198 87.8952 23.023 87.1542 21.9302C86.5031 20.9498 85.2607 20.5456 84.1679 20.5456C82.1397 20.5456 80.3284 21.5859 79.8868 23.7415C79.797 24.2205 79.4453 24.692 78.9663 24.7144L73.802 24.1606C73.3679 24.0633 72.8889 23.7115 73.0086 23.0454C74.1987 16.7884 79.8494 14.9023 84.9089 14.9023C87.4985 14.9023 90.8815 15.5909 92.9247 17.5518C95.5143 19.9693 95.2673 23.1951 95.2673 26.7053V34.9981C95.2673 37.4904 96.3002 38.5831 97.2732 39.9303C97.6175 40.4093 97.6923 40.9856 97.2582 41.3448C96.173 42.2505 94.242 43.9345 93.1792 44.8775L93.1642 44.8625Z" fill="#221F1F"/>
<path d="M18.0348 31.892V30.7394C14.1878 30.7394 10.1237 31.5627 10.1237 36.0983C10.1237 38.396 11.3138 39.9527 13.357 39.9527C14.8539 39.9527 16.1936 39.0322 17.0393 37.5353C18.0872 35.6941 18.0348 33.9652 18.0348 31.892ZM23.4011 44.8625C23.0493 45.1769 22.5404 45.1993 22.1437 44.9898C20.3774 43.5228 20.0631 42.8417 19.0901 41.4422C16.1711 44.421 14.1055 45.3116 10.3183 45.3116C5.84263 45.3116 2.35489 42.5498 2.35489 37.0189C2.35489 32.7003 4.69752 29.7589 8.02809 28.3219C10.9171 27.0496 14.9512 26.825 18.0348 26.4733V25.7847C18.0348 24.5198 18.1321 23.023 17.3911 21.9302C16.74 20.9498 15.4976 20.5456 14.4048 20.5456C12.3765 20.5456 10.5653 21.5859 10.1237 23.7415C10.0339 24.2205 9.68215 24.692 9.20315 24.7144L4.03889 24.1606C3.60479 24.0633 3.12578 23.7115 3.24554 23.0454C4.43556 16.7884 10.0863 14.9023 15.1458 14.9023C17.7354 14.9023 21.1184 15.5909 23.1616 17.5518C25.7512 19.9693 25.5042 23.1951 25.5042 26.7053V34.9981C25.5042 37.4904 26.5371 38.5831 27.5101 39.9303C27.8544 40.4093 27.9292 40.9856 27.4951 41.3448C26.4099 42.2505 24.4789 43.9345 23.4161 44.8775L23.4011 44.8625Z" fill="#221F1F"/>
</g>
<defs>
<clipPath id="clip0_2034_98">
<rect width="172.146" height="51.9577" fill="white" transform="translate(2.2513 14.832)"/>
</clipPath>
</defs>
</svg>
