<svg width="155" height="80" viewBox="0 0 155 80" fill="none" xmlns="http://www.w3.org/2000/svg">
<g clip-path="url(#clip0_2034_126)">
<path d="M73.2554 4.06589C44.8808 14.1997 3.11183 39.2432 2.69231 39.5007L2.83617 39.4189C0.23035 40.7076 -0.0186031 42.5692 0.000348299 43.3152C0.0192997 44.0611 0.34492 45.9193 3.03171 47.1054L3.0834 47.1339L3.14025 47.1476C3.31254 47.22 21.0812 53.859 36.4302 59.827C51.6947 65.7648 77.4195 78.9559 77.6788 79.0929L77.7296 79.1204L77.7865 79.1428C79.4296 79.7755 81.1852 80.0642 82.9444 79.9912C84.7036 79.9181 86.4292 79.4848 88.0142 78.7181L88.1004 78.6708L88.177 78.6165C88.3398 78.5123 104.809 67.4179 116.734 60.287C128.556 53.2121 149.835 44.9889 150.048 44.9062L150.175 44.858L150.289 44.7925C152.05 43.8294 153.037 42.359 152.994 40.7653C152.952 39.1717 151.886 37.7296 150.065 36.8432L150.348 37.0078C150.164 36.8803 131.87 24.0941 113.593 15.8606C95.3502 7.64254 83.4685 4.15634 82.968 4.01162L83.285 4.13566C80.3087 2.68932 76.0007 3.08644 73.2554 4.06589Z" fill="#231F20"/>
<mask id="mask0_2034_126" style="mask-type:luminance" maskUnits="userSpaceOnUse" x="1" y="0" width="154" height="77">
<path d="M1.26718 0.000976562H154.257V76.8146H1.26718V0.000976562Z" fill="white"/>
</mask>
<g mask="url(#mask0_2034_126)">
<path d="M74.5227 0.87713C46.1472 11.0127 4.37657 36.0587 3.96136 36.3129L4.10522 36.2319C1.49854 37.5206 1.24958 39.3838 1.26681 40.129C1.28404 40.8741 1.61138 42.7357 4.30163 43.9193L4.35159 43.9468L4.405 43.9606C4.58159 44.033 22.3485 50.672 37.7009 56.6391C52.9637 62.5778 78.6911 75.7723 78.9461 75.9041L78.9995 75.9282L79.0529 75.9541C80.6954 76.5867 82.4502 76.8758 84.2087 76.8033C85.9673 76.7309 87.6924 76.2984 89.2772 75.5328L89.3573 75.4829L89.4435 75.426C89.6072 75.3218 106.077 64.2274 118.002 57.1008C129.825 50.0259 151.108 41.7993 151.32 41.7183L151.443 41.6735L151.558 41.6055C153.315 40.6415 154.304 39.1719 154.259 37.5757C154.214 35.9795 153.159 34.5435 151.33 33.6579L151.608 33.8216C151.424 33.695 133.129 20.9062 114.856 12.6727C96.6192 4.45895 84.7341 0.971887 84.237 0.824583L84.5506 0.948628C81.5735 -0.495987 77.2672 -0.100592 74.5227 0.87713Z" fill="#F79B37"/>
</g>
<path d="M8.22785 44.1566C7.89017 44.0308 7.69979 43.9619 7.68601 43.955L7.63088 43.9335L7.58005 43.9111C4.98198 42.7697 4.67015 40.9684 4.65119 40.2483C4.63224 39.5281 4.87172 37.7829 7.28975 36.539C8.73092 35.6689 48.3704 11.9934 75.4193 2.33335C78.0376 1.42336 80.857 1.25727 83.5641 1.85354C80.7214 0.706116 76.857 1.08514 74.3468 1.98275C47.291 11.6488 7.64035 35.3286 6.21727 36.1875C3.7958 37.4288 3.56235 39.1887 3.57613 39.8951C3.59336 40.617 3.9095 42.4148 6.50499 43.5605L6.55667 43.5811L6.61008 43.6001C6.63937 43.613 7.21308 43.8249 8.20545 44.2031C8.21375 44.1888 8.22068 44.1738 8.22612 44.1583" fill="#FEFEFE"/>
<mask id="mask1_2034_126" style="mask-type:luminance" maskUnits="userSpaceOnUse" x="84" y="2" width="4" height="2">
<path d="M85.107 2.6161C85.4516 2.6919 86.3785 2.89951 87.8463 3.25356C86.524 2.92794 85.4929 2.68501 84.7865 2.52393C84.8951 2.5558 85.001 2.58336 85.107 2.6161Z" fill="white"/>
</mask>
<g mask="url(#mask1_2034_126)">
<path d="M84.7866 3.21826L84.8107 3.25355H84.7866V3.21826Z" fill="#EEA85D"/>
</g>
<mask id="mask2_2034_126" style="mask-type:luminance" maskUnits="userSpaceOnUse" x="84" y="2" width="4" height="2">
<path d="M85.107 2.6161C85.4516 2.6919 86.3785 2.89951 87.8463 3.25356C86.524 2.92794 85.4929 2.68501 84.7865 2.52393C84.8951 2.5558 85.001 2.58336 85.107 2.6161Z" fill="white"/>
</mask>
<g mask="url(#mask2_2034_126)">
<path d="M84.7874 2.88574L85.0344 3.25409H84.8107L84.7874 3.21795V2.88574Z" fill="#EEA85D"/>
</g>
<mask id="mask3_2034_126" style="mask-type:luminance" maskUnits="userSpaceOnUse" x="84" y="2" width="4" height="2">
<path d="M85.107 2.6161C85.4516 2.6919 86.3785 2.89951 87.8463 3.25356C86.524 2.92794 85.4929 2.68501 84.7865 2.52393C84.8951 2.5558 85.001 2.58336 85.107 2.6161Z" fill="white"/>
</mask>
<g mask="url(#mask3_2034_126)">
<path d="M84.7866 2.55322L85.2557 3.25378H85.0336L84.7866 2.88543V2.55322Z" fill="#EEA75C"/>
</g>
<mask id="mask4_2034_126" style="mask-type:luminance" maskUnits="userSpaceOnUse" x="84" y="2" width="4" height="2">
<path d="M85.107 2.6161C85.4516 2.6919 86.3785 2.89951 87.8463 3.25356C86.524 2.92794 85.4929 2.68501 84.7865 2.52393C84.8951 2.5558 85.001 2.58336 85.107 2.6161Z" fill="white"/>
</mask>
<g mask="url(#mask4_2034_126)">
<path d="M84.9905 2.52393L85.4759 3.25374H85.2556L84.7874 2.55319V2.52393H84.9905Z" fill="#EEA75B"/>
</g>
<mask id="mask5_2034_126" style="mask-type:luminance" maskUnits="userSpaceOnUse" x="84" y="2" width="4" height="2">
<path d="M85.107 2.6161C85.4516 2.6919 86.3785 2.89951 87.8463 3.25356C86.524 2.92794 85.4929 2.68501 84.7865 2.52393C84.8951 2.5558 85.001 2.58336 85.107 2.6161Z" fill="white"/>
</mask>
<g mask="url(#mask5_2034_126)">
<path d="M85.2127 2.52393L85.7007 3.25374H85.4786L84.9906 2.52393H85.2127Z" fill="#EEA75A"/>
</g>
<mask id="mask6_2034_126" style="mask-type:luminance" maskUnits="userSpaceOnUse" x="84" y="2" width="4" height="2">
<path d="M85.107 2.6161C85.4516 2.6919 86.3785 2.89951 87.8463 3.25356C86.524 2.92794 85.4929 2.68501 84.7865 2.52393C84.8951 2.5558 85.001 2.58336 85.107 2.6161Z" fill="white"/>
</mask>
<g mask="url(#mask6_2034_126)">
<path d="M85.4356 2.52393L85.9236 3.25374H85.7007L85.2127 2.52393H85.4356Z" fill="#EEA659"/>
</g>
<mask id="mask7_2034_126" style="mask-type:luminance" maskUnits="userSpaceOnUse" x="84" y="2" width="4" height="2">
<path d="M85.107 2.6161C85.4516 2.6919 86.3785 2.89951 87.8463 3.25356C86.524 2.92794 85.4929 2.68501 84.7865 2.52393C84.8951 2.5558 85.001 2.58336 85.107 2.6161Z" fill="white"/>
</mask>
<g mask="url(#mask7_2034_126)">
<path d="M85.6587 2.52393L86.1467 3.25374H85.9246L85.4367 2.52393H85.6587Z" fill="#EEA658"/>
</g>
<mask id="mask8_2034_126" style="mask-type:luminance" maskUnits="userSpaceOnUse" x="84" y="2" width="4" height="2">
<path d="M85.107 2.6161C85.4516 2.6919 86.3785 2.89951 87.8463 3.25356C86.524 2.92794 85.4929 2.68501 84.7865 2.52393C84.8951 2.5558 85.001 2.58336 85.107 2.6161Z" fill="white"/>
</mask>
<g mask="url(#mask8_2034_126)">
<path d="M85.8805 2.52393L86.3684 3.25374H86.1455L85.6576 2.52393H85.8805Z" fill="#EEA557"/>
</g>
<mask id="mask9_2034_126" style="mask-type:luminance" maskUnits="userSpaceOnUse" x="84" y="2" width="4" height="2">
<path d="M85.107 2.6161C85.4516 2.6919 86.3785 2.89951 87.8463 3.25356C86.524 2.92794 85.4929 2.68501 84.7865 2.52393C84.8951 2.5558 85.001 2.58336 85.107 2.6161Z" fill="white"/>
</mask>
<g mask="url(#mask9_2034_126)">
<path d="M86.1036 2.52393L86.5907 3.25374H86.3687L85.8807 2.52393H86.1036Z" fill="#EEA557"/>
</g>
<mask id="mask10_2034_126" style="mask-type:luminance" maskUnits="userSpaceOnUse" x="84" y="2" width="4" height="2">
<path d="M85.107 2.6161C85.4516 2.6919 86.3785 2.89951 87.8463 3.25356C86.524 2.92794 85.4929 2.68501 84.7865 2.52393C84.8951 2.5558 85.001 2.58336 85.107 2.6161Z" fill="white"/>
</mask>
<g mask="url(#mask10_2034_126)">
<path d="M86.3254 2.52393L86.8134 3.25374H86.5913L86.1033 2.52393H86.3254Z" fill="#EEA456"/>
</g>
<mask id="mask11_2034_126" style="mask-type:luminance" maskUnits="userSpaceOnUse" x="84" y="2" width="4" height="2">
<path d="M85.107 2.6161C85.4516 2.6919 86.3785 2.89951 87.8463 3.25356C86.524 2.92794 85.4929 2.68501 84.7865 2.52393C84.8951 2.5558 85.001 2.58336 85.107 2.6161Z" fill="white"/>
</mask>
<g mask="url(#mask11_2034_126)">
<path d="M86.5493 2.52393L87.0373 3.25374H86.8144L86.3264 2.52393H86.5493Z" fill="#EEA455"/>
</g>
<mask id="mask12_2034_126" style="mask-type:luminance" maskUnits="userSpaceOnUse" x="84" y="2" width="4" height="2">
<path d="M85.107 2.6161C85.4516 2.6919 86.3785 2.89951 87.8463 3.25356C86.524 2.92794 85.4929 2.68501 84.7865 2.52393C84.8951 2.5558 85.001 2.58336 85.107 2.6161Z" fill="white"/>
</mask>
<g mask="url(#mask12_2034_126)">
<path d="M86.7705 2.52393L87.2584 3.25374H87.0364L86.5484 2.52393H86.7705Z" fill="#EEA454"/>
</g>
<mask id="mask13_2034_126" style="mask-type:luminance" maskUnits="userSpaceOnUse" x="84" y="2" width="4" height="2">
<path d="M85.107 2.6161C85.4516 2.6919 86.3785 2.89951 87.8463 3.25356C86.524 2.92794 85.4929 2.68501 84.7865 2.52393C84.8951 2.5558 85.001 2.58336 85.107 2.6161Z" fill="white"/>
</mask>
<g mask="url(#mask13_2034_126)">
<path d="M86.9942 2.52393L87.4822 3.25374H87.2593L86.7713 2.52393H86.9942Z" fill="#EEA353"/>
</g>
<mask id="mask14_2034_126" style="mask-type:luminance" maskUnits="userSpaceOnUse" x="84" y="2" width="4" height="2">
<path d="M85.107 2.6161C85.4516 2.6919 86.3785 2.89951 87.8463 3.25356C86.524 2.92794 85.4929 2.68501 84.7865 2.52393C84.8951 2.5558 85.001 2.58336 85.107 2.6161Z" fill="white"/>
</mask>
<g mask="url(#mask14_2034_126)">
<path d="M87.2169 2.52393L87.704 3.25374H87.482L86.994 2.52393H87.2169Z" fill="#EDA352"/>
</g>
<mask id="mask15_2034_126" style="mask-type:luminance" maskUnits="userSpaceOnUse" x="84" y="2" width="4" height="2">
<path d="M85.107 2.6161C85.4516 2.6919 86.3785 2.89951 87.8463 3.25356C86.524 2.92794 85.4929 2.68501 84.7865 2.52393C84.8951 2.5558 85.001 2.58336 85.107 2.6161Z" fill="white"/>
</mask>
<g mask="url(#mask15_2034_126)">
<path d="M87.4389 2.52393L87.846 3.13153V3.25374H87.7049L87.2169 2.52393H87.4389Z" fill="#EDA252"/>
</g>
<mask id="mask16_2034_126" style="mask-type:luminance" maskUnits="userSpaceOnUse" x="84" y="2" width="4" height="2">
<path d="M85.107 2.6161C85.4516 2.6919 86.3785 2.89951 87.8463 3.25356C86.524 2.92794 85.4929 2.68501 84.7865 2.52393C84.8951 2.5558 85.001 2.58336 85.107 2.6161Z" fill="white"/>
</mask>
<g mask="url(#mask16_2034_126)">
<path d="M87.6624 2.52393L87.8458 2.79933V3.13153L87.4395 2.52393H87.6624Z" fill="#EDA251"/>
</g>
<mask id="mask17_2034_126" style="mask-type:luminance" maskUnits="userSpaceOnUse" x="84" y="2" width="4" height="2">
<path d="M85.107 2.6161C85.4516 2.6919 86.3785 2.89951 87.8463 3.25356C86.524 2.92794 85.4929 2.68501 84.7865 2.52393C84.8951 2.5558 85.001 2.58336 85.107 2.6161Z" fill="white"/>
</mask>
<g mask="url(#mask17_2034_126)">
<path d="M87.8476 2.79933L87.6642 2.52393H87.8476V2.79933Z" fill="#EDA250"/>
</g>
<path d="M75.6078 5.88878C49.6693 14.3213 11.5425 35.31 11.1583 35.5211L11.2936 35.4556C8.91603 36.5324 8.69981 38.1079 8.71532 38.7333C8.73082 39.3587 9.04352 40.9506 11.5089 41.9637L11.558 41.9835L11.6097 41.999C11.7734 42.0593 28.0785 47.7706 42.1646 52.9055C56.18 58.0078 79.8013 69.3089 80.0416 69.4226L80.0864 69.4433L80.1381 69.4674C83.1855 70.5642 86.5374 70.4517 89.5044 69.153L89.5785 69.1176L89.6474 69.072C89.799 68.9815 104.827 59.6712 115.712 53.6981C126.502 47.7732 145.949 40.9196 146.138 40.8559L146.248 40.8145L146.357 40.7577C147.966 39.9471 148.87 38.7083 148.821 37.3585C148.772 36.0086 147.787 34.7828 146.106 34.0273L146.365 34.1643C146.192 34.0549 129.382 23.138 112.606 16.0743C103.449 12.1228 94.0631 8.72265 84.4995 5.89223L84.7898 5.9956C82.0582 4.75772 78.1172 5.07387 75.6078 5.88878Z" fill="#231F20"/>
<path d="M131.777 10.6689C131.777 10.6689 131.476 16.04 130.845 17.4492C130.19 18.8525 127.258 20.5469 127.258 20.5469C127.258 20.5469 126.939 16.6989 127.777 14.8727C128.602 13.0517 131.777 10.6689 131.777 10.6689Z" fill="#FEFEFE"/>
<path d="M127.258 21.2149C127.09 21.2152 126.929 21.1522 126.807 21.0386C126.684 20.925 126.609 20.7692 126.596 20.6025C126.582 20.4388 126.265 16.5658 127.174 14.5914C128.054 12.6515 131.244 10.2343 131.38 10.1327C131.495 10.0468 131.634 10.0003 131.778 10C131.887 10.0001 131.995 10.0276 132.092 10.0801C132.203 10.1407 132.295 10.2315 132.357 10.3422C132.419 10.4529 132.448 10.5789 132.442 10.7055C132.41 11.2689 132.112 16.2488 131.453 17.7236C130.724 19.2862 127.908 20.9427 127.589 21.1262C127.488 21.1845 127.374 21.2151 127.258 21.2149ZM131.006 12.1596C129.965 12.9968 129.077 14.0082 128.382 15.1488C127.953 16.5122 127.777 17.943 127.865 19.3698C128.798 18.8021 129.607 18.0524 130.243 17.1654C130.672 15.528 130.927 13.8502 131.006 12.1596Z" fill="#FEFEFE"/>
<path d="M127.643 13.7749C126.789 15.6463 126.47 17.7175 126.72 19.7592C126.743 20.1876 126.685 20.6165 126.547 21.023C125.85 22.875 124.533 25.4955 124.533 25.4955C124.533 25.4955 123.526 21.8637 124.093 19.6989C124.66 17.5342 127.643 13.7749 127.643 13.7749Z" fill="#FEFEFE"/>
<path d="M124.53 26.1633C124.508 26.1644 124.486 26.1644 124.464 26.1633C124.331 26.1493 124.205 26.0955 124.102 26.0089C124 25.9222 123.926 25.8067 123.89 25.6774C123.847 25.5215 122.847 21.8346 123.453 19.5312C124.04 17.3181 126.813 13.7596 127.124 13.3633C127.227 13.2318 127.376 13.144 127.541 13.1174C127.706 13.0907 127.875 13.1272 128.014 13.2195C128.153 13.3118 128.253 13.4532 128.293 13.6155C128.332 13.7779 128.31 13.9492 128.229 14.0955C127.448 15.8517 127.155 17.7861 127.381 19.6948C127.414 20.2122 127.346 20.7311 127.179 21.2221C127.175 21.2368 127.17 21.2506 127.165 21.2643C126.491 23.0553 125.263 25.5224 125.125 25.798V25.8032C125.069 25.9126 124.984 26.0042 124.879 26.0678C124.773 26.1314 124.653 26.1645 124.53 26.1633ZM126.05 17.1993C125.492 18.0247 125.05 18.9233 124.738 19.8697C124.528 21.0531 124.542 22.2653 124.778 23.4438C125.269 22.3885 125.651 21.5004 125.914 20.8043C126.022 20.4903 126.071 20.1592 126.06 19.8275C125.968 18.9539 125.965 18.0734 126.05 17.1993Z" fill="#FEFEFE"/>
<path d="M131.793 16.9048C130.938 18.6574 129.509 20.0648 127.744 20.8932C127.529 21.0076 127.338 21.1637 127.184 21.3523C126.311 22.8676 124.979 26.054 124.979 26.054C124.979 26.054 128.087 25.2787 129.34 23.586C130.593 21.8933 131.793 16.9048 131.793 16.9048Z" fill="#FEFEFE"/>
<path d="M124.978 26.7231C124.868 26.7223 124.76 26.6945 124.664 26.6421C124.567 26.5897 124.485 26.5143 124.424 26.4225C124.364 26.3308 124.327 26.2256 124.317 26.1162C124.307 26.0068 124.324 25.8966 124.366 25.7953C124.379 25.7643 125.714 22.5736 126.606 21.0187C126.629 20.9794 126.655 20.9425 126.685 20.9084C126.899 20.6514 127.163 20.4404 127.461 20.2882C129.072 19.5253 130.38 18.2449 131.179 16.6512C131.243 16.4977 131.363 16.374 131.515 16.3048C131.667 16.2355 131.839 16.2257 131.997 16.2773C132.156 16.3288 132.289 16.438 132.371 16.5832C132.453 16.7284 132.477 16.899 132.439 17.0613C132.388 17.2715 131.186 22.2204 129.872 23.9906C128.494 25.8513 125.275 26.6722 125.139 26.7067C125.086 26.7187 125.032 26.7242 124.978 26.7231ZM130.194 20.0591C129.54 20.6293 128.814 21.1112 128.034 21.4925C127.916 21.5588 127.81 21.6464 127.723 21.7509C127.244 22.6029 126.619 23.957 126.184 24.9382C127.192 24.5841 128.095 23.9814 128.808 23.186C129.413 22.2132 129.88 21.1608 130.194 20.0591Z" fill="#FEFEFE"/>
<path d="M131.777 10.6689C131.777 10.6689 131.476 16.04 130.845 17.4492C130.19 18.8525 127.258 20.5469 127.258 20.5469C127.258 20.5469 126.939 16.6989 127.777 14.8727C128.602 13.0517 131.777 10.6689 131.777 10.6689Z" fill="#080201"/>
<path d="M127.643 13.7749C126.789 15.6463 126.47 17.7175 126.72 19.7592C126.743 20.1876 126.685 20.6165 126.547 21.023C125.85 22.875 124.533 25.4955 124.533 25.4955C124.533 25.4955 123.526 21.8637 124.093 19.6989C124.66 17.5342 127.643 13.7749 127.643 13.7749Z" fill="#080201"/>
<path d="M131.793 16.9048C130.938 18.6574 129.509 20.0648 127.744 20.8932C127.529 21.0076 127.338 21.1637 127.184 21.3523C126.311 22.8676 124.979 26.054 124.979 26.054C124.979 26.054 128.087 25.2787 129.34 23.586C130.593 21.8933 131.793 16.9048 131.793 16.9048Z" fill="#080201"/>
<path d="M48.3342 16.5628C49.7417 16.6154 49.8408 16.7049 49.5247 17.8274C49.4489 18.1065 49.218 18.9472 48.9156 19.8716C48.1403 22.5213 47.3056 25.3726 46.4778 28.3428C44.1399 36.6177 43.0036 39.376 40.6382 42.6124C37.5603 46.7946 28.7832 50.0207 22.866 49.7993C22.3414 49.7786 22.2019 49.6933 22.2906 49.3755C22.3139 49.2893 22.4086 49.0903 22.5378 48.7725L22.7351 48.3762C23.0039 47.6957 23.0142 47.6561 23.1796 47.4967C23.3338 47.3847 23.5061 47.3485 24.1358 47.2925C29.1424 46.8291 35.7013 43.398 37.972 36.9942C38.9196 34.1876 40.4866 29.1354 43.9159 17.8196C44.2355 16.8169 44.3302 16.6136 44.6912 16.5085C45.4761 16.459 46.2634 16.4608 47.0481 16.5137L48.3342 16.5628Z" fill="#231F20"/>
<path d="M50.1841 43.9303C49.9394 43.9303 49.6724 43.9242 49.3433 43.9122C48.733 43.9476 48.1225 43.8446 47.5576 43.6109C46.9927 43.3771 46.4879 43.0187 46.0811 42.5623C45.7987 42.1127 45.6231 41.6044 45.5679 41.0763C45.5126 40.5483 45.5791 40.0146 45.7624 39.5163C46.7806 35.8742 51.3056 33.6121 57.5708 33.6121C57.9059 33.6121 58.2488 33.619 58.5907 33.6319C58.9353 32.0813 58.8492 31.0321 58.3022 30.324C57.7552 29.6159 56.7671 29.261 55.1838 29.2042C54.909 29.1938 54.6756 29.1886 54.4507 29.1886C53.9158 29.1886 53.3817 29.2171 52.6417 29.2662C52.2834 29.2989 52.0249 29.3179 51.8527 29.3179H51.7743C51.3056 29.2989 51.2169 29.1542 51.2143 28.4039C51.1763 27.9718 51.2016 27.5365 51.2893 27.1117C51.334 26.9303 51.4351 26.7678 51.5782 26.6477C51.7213 26.5275 51.8988 26.4559 52.0852 26.4433C53.4599 26.1814 54.856 26.0479 56.2554 26.0444C56.4699 26.0444 56.6784 26.0444 56.8739 26.0556C58.4177 26.0564 59.9337 26.4666 61.2672 27.2444C62.366 27.9182 63.1601 28.9924 63.4819 30.2405C63.9032 31.9685 63.6646 34.2754 62.7066 37.722C62.2484 39.3587 61.3844 42.0179 61.1871 42.4521C61.1069 42.6799 60.9535 42.8747 60.7509 43.0062C60.5484 43.1377 60.308 43.1985 60.0672 43.1791H59.9639C59.8688 43.172 59.7742 43.1597 59.6805 43.1421C59.5547 43.1214 59.3824 43.0938 59.1403 43.0654C58.7653 42.9795 58.3843 42.9219 58.0007 42.8931H57.8835C57.0864 42.9307 56.2941 43.0374 55.5154 43.2118C53.7655 43.6218 51.9801 43.8624 50.1841 43.9303ZM58.0816 35.7596C56.3414 35.8275 54.6236 36.1766 52.9949 36.7933C52.5025 36.9652 52.0565 37.2486 51.6919 37.6215C51.3272 37.9943 51.0538 38.4465 50.893 38.9426C50.797 39.2052 50.7626 39.4863 50.7925 39.7642C50.8223 40.0422 50.9157 40.3096 51.0653 40.5457C51.2659 40.7778 51.5169 40.961 51.799 41.0815C52.0811 41.202 52.387 41.2565 52.6934 41.2409C52.7468 41.2409 52.8011 41.2409 52.8562 41.2409C54.2387 41.1585 55.5926 40.812 56.8446 40.2201L56.9868 39.7032L57.6716 37.5359C57.7715 37.187 57.812 37.0423 58.0834 35.7639L58.0816 35.7596Z" fill="#231F20"/>
<path d="M82.9963 28.2163C83.6157 28.4842 83.8577 28.7814 83.7475 29.1802C83.5084 29.7994 83.2203 30.3985 82.886 30.972C82.4553 31.811 82.271 32.0057 82.0315 31.9971C81.9092 31.9971 81.9092 31.9971 81.2838 31.6025C80.2637 31.0118 79.1218 30.6629 77.9457 30.5826C76.3283 30.5634 74.75 31.0798 73.4567 32.0513C72.1635 33.0228 71.2279 34.3948 70.7959 35.9536C69.9146 39.1288 71.5134 41.4211 74.6559 41.5382C76.259 41.4928 77.8383 41.1392 79.3076 40.4968C79.8702 40.2332 79.9107 40.2323 80.0304 40.2384C80.2716 40.2487 80.3345 40.452 80.2492 40.7759C79.9401 41.7307 79.5084 42.6414 78.9648 43.4851C78.1628 44.3086 74.5819 45.1881 72.405 45.1063C66.9617 44.9021 64.0311 40.9361 65.4628 35.796C66.9496 30.4534 72.3137 26.8414 78.4316 27.0714C80.0179 27.1216 81.574 27.5121 82.9963 28.2163Z" fill="#231F20"/>
<path d="M89.2725 45.8945C89.1226 45.8945 88.971 45.8945 88.822 45.8859C87.6254 45.9002 86.4414 45.6398 85.3612 45.1248C84.281 44.6097 83.3334 43.8536 82.5913 42.9148C81.957 41.9926 81.5432 40.937 81.3821 39.8294C81.2209 38.7218 81.3166 37.592 81.6618 36.5273C82.4057 33.8924 84.0562 31.6049 86.3221 30.0683C88.7172 28.4334 91.5569 27.574 94.4566 27.6063C94.653 27.6063 94.852 27.6063 95.0484 27.6175C97.6964 27.7166 99.7001 28.6013 100.855 30.176C102.01 31.7507 102.243 33.943 101.531 36.5066C100.767 39.1943 99.1523 41.5618 96.9289 43.2542C94.733 44.9458 92.0443 45.873 89.2725 45.8945ZM93.6064 31.0994C90.5974 31.0994 87.9468 33.3779 87.0113 36.7702C86.5297 38.4931 86.6443 39.9119 87.3429 40.8689C87.6658 41.2718 88.0778 41.5943 88.5463 41.8112C89.0149 42.0281 89.5274 42.1334 90.0435 42.1188C90.1107 42.1188 90.1787 42.1188 90.2468 42.1188C93.1946 42.1188 96.0003 39.7172 96.9177 36.4093C97.3992 34.6864 97.2958 33.2823 96.617 32.352C96.2801 31.9437 95.8536 31.6187 95.3705 31.4022C94.8875 31.1857 94.361 31.0835 93.832 31.1037C93.7571 31.1012 93.6813 31.0994 93.6064 31.0994Z" fill="#231F20"/>
<path d="M111.504 46.25C111.41 46.25 111.315 46.25 111.221 46.2449H111.215C110.267 46.2078 110.209 46.2061 107.288 45.3274L107.255 45.3197C106.37 45.1239 105.466 45.024 104.559 45.0216L102.88 44.9174C102.385 44.8993 102.117 44.8674 102.025 44.7451C101.954 44.6486 101.978 44.4996 102.051 44.2395C102.859 41.3304 106.026 31.3068 107.513 26.7904C108.013 25.3552 108.408 24.169 108.755 23.0587L109.46 20.8189L109.792 19.7732C110.08 18.8764 110.15 18.8084 110.53 18.7446C110.639 18.736 110.729 18.73 110.892 18.73C111.188 18.73 111.704 18.7489 113.152 18.8032H114.254L114.494 18.8161C114.769 18.8282 114.91 18.873 114.981 18.9712C115.067 19.0926 115.056 19.2968 114.934 19.7249C114.342 21.8423 113.405 24.7695 111.806 29.5125C113.217 28.8373 114.76 28.4794 116.325 28.4641C116.481 28.4641 116.646 28.4641 116.813 28.4736C117.751 28.4565 118.68 28.6578 119.527 29.0614C120.374 29.4651 121.115 30.0601 121.692 30.7995C122.857 32.3922 123.12 34.6397 122.43 37.1284C121.02 42.1608 116.122 46.25 111.504 46.25ZM114.324 31.7987C113.132 31.8424 111.958 32.1131 110.867 32.5964L110.356 34.2624C109.294 37.7288 108.455 40.4647 107.825 42.3435C108.517 42.6727 109.27 42.8534 110.035 42.8741C110.11 42.8741 110.187 42.8741 110.263 42.8741C113.548 42.8741 116.752 40.2579 117.715 36.7881C117.933 36.1825 118.012 35.5353 117.945 34.8951C117.878 34.2548 117.667 33.638 117.327 33.0909C117.002 32.6779 116.585 32.3462 116.109 32.122C115.633 31.8977 115.112 31.7871 114.586 31.7987C114.498 31.8004 114.41 31.7987 114.324 31.7987Z" fill="#231F20"/>
<path d="M134.578 32.4338C134.342 32.3946 134.104 32.3736 133.866 32.3709C131.933 32.2942 130.624 32.8955 130.334 33.9404C130.146 34.6201 130.334 35.1137 131.29 36.5316C133.246 39.4062 133.67 40.6837 133.255 42.1602C132.427 45.1364 129.172 47.203 125.497 47.0703C124.34 47.0213 123.192 46.841 122.075 46.5328C121.663 46.3984 121.547 46.2338 121.644 45.872C121.719 45.653 121.805 45.4382 121.903 45.2286C122.212 44.5515 122.285 44.4317 122.563 43.8735C122.778 43.3963 122.987 43.2378 123.268 43.2507C123.425 43.2673 123.577 43.3144 123.715 43.3894C124.5 43.6552 125.315 43.8232 126.14 43.8899C127.385 43.9373 128.473 43.4066 128.688 42.6434C128.828 42.1197 128.63 41.6666 127.761 40.5433C125.779 37.9891 125.286 36.4334 125.81 34.54C126.717 31.2872 130.476 29.0363 134.707 29.1965C136.444 29.2611 136.578 29.3481 136.339 30.188C136.18 30.7996 135.987 31.4018 135.761 31.9918C135.609 32.3933 135.464 32.4665 134.985 32.4493L134.578 32.4338Z" fill="#231F20"/>
<path d="M47.0687 16.1905C48.4823 16.2447 48.5779 16.3292 48.2626 17.4559C48.1868 17.7359 47.9516 18.5758 47.6596 19.4992C46.8843 22.1464 46.0462 24.9977 45.2192 27.9714C42.8804 36.2411 41.7476 38.9977 39.3804 42.2383C36.306 46.4214 27.5272 49.6466 21.6005 49.427C21.0777 49.408 20.9424 49.321 21.0268 49.0023C21.0544 48.9161 21.1492 48.7197 21.2801 48.3993L21.4713 48.0022C21.7435 47.3251 21.7539 47.2829 21.9176 47.1252C22.07 47.0089 22.244 46.9745 22.8729 46.9142C27.8847 46.4585 34.4419 43.0248 36.7134 36.6218C37.6533 33.8136 39.2236 28.7604 42.6573 17.4473C42.9778 16.4446 43.0708 16.2413 43.4326 16.1345C44.2179 16.0889 45.0054 16.0921 45.7903 16.144L47.0687 16.1905Z" fill="#FEFEFE"/>
<path d="M48.9205 43.5554C48.6767 43.5554 48.4114 43.5493 48.0849 43.5381C47.4737 43.5739 46.8623 43.471 46.2964 43.2371C45.7306 43.0032 45.225 42.6444 44.8175 42.1874C44.5362 41.7373 44.3617 41.2287 44.3075 40.7007C44.2533 40.1727 44.3208 39.6393 44.5048 39.1414C45.511 35.501 50.0335 33.2398 56.3107 33.2398C56.6449 33.2398 56.9878 33.2466 57.3289 33.2596C57.6735 31.709 57.5873 30.6581 57.042 29.95C56.4967 29.2419 55.5035 28.8852 53.9237 28.8258C53.6652 28.8163 53.4456 28.812 53.2302 28.812C52.7013 28.812 52.1965 28.8387 51.3807 28.8921C51.1145 28.9154 50.813 28.9404 50.6054 28.9404H50.5133C50.0438 28.9257 49.9551 28.7801 49.9551 28.029C49.9144 27.5968 49.9408 27.1609 50.0335 26.7368C50.0764 26.5561 50.176 26.3938 50.3176 26.2736C50.4592 26.1534 50.6355 26.0815 50.8208 26.0684C52.2067 25.8102 53.6131 25.6781 55.0228 25.6738C55.227 25.6738 55.4251 25.6738 55.6112 25.6842C59.1904 25.8194 61.5378 27.3062 62.2218 29.8707C62.6405 31.6005 62.401 33.9074 61.4465 37.3505C60.9753 39.0432 60.1277 41.6516 59.9304 42.0763C59.8525 42.3058 59.6998 42.5024 59.4967 42.6346C59.2936 42.7668 59.0519 42.8268 58.8105 42.8051H58.7115C58.6032 42.7973 58.4953 42.7838 58.3884 42.7646C58.261 42.7448 58.1033 42.7206 57.8828 42.6931C57.5088 42.6072 57.1286 42.5516 56.7457 42.5268C56.7009 42.5268 56.6544 42.5268 56.6062 42.5268C55.8164 42.5636 55.0312 42.6688 54.2596 42.8412C52.5073 43.2521 50.7192 43.4912 48.9205 43.5554ZM56.8198 35.3856C52.3593 35.7396 50.142 36.7191 49.6294 38.5617C49.5332 38.8248 49.4987 39.1064 49.5285 39.385C49.5584 39.6636 49.6519 39.9315 49.8017 40.1682C50.0029 40.4009 50.2545 40.5845 50.5374 40.7053C50.8203 40.8261 51.127 40.8807 51.4341 40.8651C51.4858 40.8651 51.5392 40.8651 51.5926 40.8651C52.9769 40.7823 54.3325 40.4352 55.5862 39.8426L55.7301 39.3257L56.4149 37.1584C56.5166 36.7871 56.5614 36.6105 56.8232 35.3847L56.8198 35.3856Z" fill="#FEFEFE"/>
<path d="M81.7348 27.8452C82.349 28.1139 82.5963 28.4051 82.4808 28.8091C82.245 29.4297 81.9569 30.0291 81.6194 30.6009C81.1792 31.4382 81.0061 31.6346 80.7649 31.6234C80.6391 31.6234 80.6391 31.6234 80.0215 31.228C79.0001 30.6401 77.8583 30.2925 76.6826 30.2115C75.0642 30.1908 73.4844 30.7062 72.1895 31.6772C70.8947 32.6483 69.9575 34.0205 69.5241 35.5799C68.6446 38.75 70.2494 41.0483 73.3859 41.162C74.987 41.1174 76.5644 40.764 78.0316 40.1214C78.5984 39.863 78.6346 39.863 78.7552 39.863C78.9964 39.8724 79.0627 40.0757 78.9757 40.3979C78.6662 41.3524 78.2354 42.2632 77.6939 43.108C76.891 43.9315 73.3066 44.8127 71.135 44.7309C65.6925 44.5319 62.7696 40.559 64.1996 35.4223C65.6847 30.0797 71.0488 26.4703 77.1667 26.7003C78.7532 26.7489 80.3105 27.1394 81.7323 27.8452" fill="#FEFEFE"/>
<path d="M88.0147 45.5231C87.8657 45.5231 87.7149 45.5231 87.5659 45.5145C86.3681 45.5288 85.1829 45.2681 84.1017 44.7524C83.0204 44.2367 82.0719 43.4798 81.3291 42.54C80.6945 41.6185 80.2803 40.5634 80.1185 39.4563C79.9567 38.3492 80.0517 37.2196 80.3962 36.1551C81.1422 33.5191 82.7947 31.2311 85.0626 29.6944C87.4578 28.0587 90.2977 27.1984 93.1979 27.2298C93.3926 27.2298 93.5899 27.2298 93.7845 27.241C96.436 27.3418 98.4457 28.23 99.5966 29.809C100.747 31.3879 100.975 33.5751 100.263 36.1336C99.501 38.821 97.8879 41.1889 95.6659 42.882C93.4722 44.574 90.785 45.5016 88.0147 45.5231ZM92.3503 30.7264C90.849 30.7352 89.4019 31.2883 88.2774 32.283C87.0445 33.3741 86.1636 34.807 85.7466 36.3997C85.2633 38.1226 85.377 39.5362 86.0748 40.4941C86.3969 40.8974 86.8083 41.2204 87.2764 41.4377C87.7446 41.655 88.2568 41.7608 88.7728 41.7466C88.8399 41.7466 88.908 41.7466 88.9752 41.7466C91.9316 41.7466 94.7407 39.345 95.6538 36.0362C96.1354 34.3134 96.0303 32.9066 95.3506 31.9754C95.015 31.5676 94.5898 31.2427 94.1081 31.0261C93.6264 30.8095 93.1012 30.7069 92.5734 30.7264C92.5002 30.7272 92.4243 30.7264 92.3503 30.7264Z" fill="#FEFEFE"/>
<path d="M110.241 45.8772C110.147 45.8772 110.052 45.8772 109.958 45.8721H109.951C109.003 45.8342 108.945 45.8325 106.022 44.9555L105.944 44.9383C105.075 44.7502 104.188 44.6524 103.298 44.6463L101.621 44.5429C101.113 44.5239 100.856 44.4921 100.759 44.3646C100.689 44.2672 100.713 44.1191 100.785 43.8624C101.572 41.0558 104.662 31.2209 106.247 26.4141C106.764 24.9152 107.151 23.7652 107.492 22.6859L108.193 20.4462L108.523 19.403C108.818 18.5278 108.877 18.4373 109.264 18.3684C109.38 18.3598 109.464 18.3555 109.609 18.3555C109.903 18.3555 110.443 18.3753 111.886 18.4296H111.893H112.992L113.228 18.4416C113.503 18.4511 113.645 18.495 113.717 18.5924C113.803 18.7121 113.793 18.9171 113.673 19.3487C113.079 21.4661 112.143 24.3924 110.545 29.1345C111.957 28.4638 113.499 28.111 115.062 28.1008C115.218 28.1008 115.384 28.1008 115.552 28.1103C116.49 28.0923 117.42 28.2931 118.268 28.6968C119.116 29.1005 119.858 29.696 120.435 30.4361C121.598 32.0281 121.857 34.2764 121.162 36.7651C120.423 39.2941 118.938 41.5413 116.901 43.2128C115.056 44.8453 112.703 45.787 110.241 45.8772ZM113.054 31.4233C111.862 31.4675 110.69 31.7388 109.601 32.2227C109.382 32.9395 109.171 33.6266 108.97 34.2841C107.967 37.5705 107.174 40.166 106.558 41.9698C107.253 42.2993 108.01 42.4792 108.778 42.4979C108.856 42.4979 108.935 42.5022 109.014 42.5022C112.295 42.5022 115.49 39.886 116.445 36.4153C116.664 35.8109 116.744 35.1646 116.678 34.5251C116.612 33.8855 116.402 33.2692 116.063 32.7224C115.737 32.3091 115.32 31.9773 114.843 31.7531C114.367 31.5288 113.845 31.4183 113.319 31.4302C113.233 31.4259 113.142 31.4233 113.054 31.4233Z" fill="#FEFEFE"/>
<path d="M133.312 32.0617C133.081 32.0182 132.845 31.9954 132.61 31.9937C130.676 31.9205 129.366 32.5209 129.078 33.5684C128.89 34.248 129.069 34.7425 130.025 36.1604C131.985 39.0324 132.407 40.3099 131.992 41.7907C131.17 44.7635 127.913 46.8292 124.239 46.6922C123.08 46.6444 121.93 46.4643 120.811 46.1556C120.407 46.022 120.29 45.8575 120.386 45.4966C120.461 45.2769 120.547 45.0613 120.644 44.8505C120.956 44.176 121.022 44.0545 121.304 43.4972C121.521 43.0148 121.729 42.864 122.016 42.8752C122.169 42.8913 122.318 42.9382 122.452 43.0131C123.239 43.2796 124.057 43.4471 124.885 43.5118C126.131 43.5575 127.211 43.0303 127.426 42.2671C127.573 41.7502 127.369 41.2928 126.51 40.1669C124.528 37.6162 124.024 36.0493 124.548 34.1671C125.455 30.91 129.222 28.6608 133.443 28.821C135.174 28.8856 135.315 28.9718 135.08 29.8134C134.902 30.4586 134.902 30.4586 134.506 31.6224C134.348 32.023 134.201 32.0979 133.717 32.0815L133.312 32.0617Z" fill="#FEFEFE"/>
<path d="M67.866 54.4646C67.9082 53.3447 67.9185 53.1432 67.9125 52.914C67.9099 52.6556 67.8531 52.5367 67.6153 52.4773C67.5218 52.4557 67.4262 52.4444 67.3302 52.4437C67.2535 52.4402 67.2027 52.4256 67.2096 52.3739C67.2165 52.3222 67.263 52.311 67.375 52.311C67.5688 52.3179 67.7824 52.3343 67.9642 52.342C68.1459 52.3498 68.3225 52.3713 68.4207 52.3756C68.6542 52.3834 70.1031 52.4394 70.2427 52.4377C70.3822 52.4359 70.5002 52.417 70.5622 52.4032C70.6005 52.3922 70.6393 52.3836 70.6785 52.3774C70.7113 52.3774 70.7216 52.4101 70.7199 52.4463C70.7173 52.5005 70.6785 52.5867 70.6484 52.9209C70.6372 52.9967 70.6113 53.318 70.5898 53.4042C70.5803 53.4421 70.5683 53.4843 70.5157 53.4809C70.4632 53.4774 70.4528 53.4421 70.4546 53.3792C70.4604 53.2882 70.4487 53.197 70.4201 53.1104C70.3719 52.9778 70.3038 52.8873 69.9386 52.8279C69.8137 52.8089 69.0487 52.7641 68.9023 52.759C68.8652 52.759 68.8497 52.7797 68.8471 52.8305L68.7791 54.6886C68.7791 54.7394 68.7851 54.767 68.8308 54.7678C68.9884 54.7739 69.8257 54.8075 69.9946 54.7945C70.1206 54.8107 70.2479 54.7763 70.3486 54.6989C70.4072 54.6438 70.4348 54.6128 70.4701 54.6128C70.5054 54.6128 70.5226 54.6309 70.5192 54.6731C70.5157 54.7153 70.4899 54.8324 70.4399 55.2072C70.4244 55.3545 70.3943 55.643 70.3917 55.6973C70.3891 55.7516 70.3865 55.8351 70.321 55.8317C70.3125 55.8327 70.3039 55.8316 70.2959 55.8287C70.2879 55.8257 70.2807 55.8208 70.2749 55.8145C70.2691 55.8082 70.2649 55.8006 70.2625 55.7924C70.2602 55.7842 70.2599 55.7755 70.2616 55.7671C70.2597 55.6771 70.2517 55.5873 70.2375 55.4983C70.2108 55.3527 70.1117 55.2399 69.8395 55.1985C69.7034 55.1779 68.9832 55.1426 68.8058 55.1382C68.7662 55.1382 68.7584 55.1658 68.7576 55.208L68.736 55.7903C68.724 56.0376 68.6938 56.7147 68.6938 56.9292C68.6938 57.4305 68.7998 57.5459 69.5449 57.5744C69.7765 57.5975 70.0103 57.5765 70.234 57.5123C70.4227 57.4339 70.5175 57.2806 70.5786 56.9843C70.5924 56.9033 70.6139 56.8732 70.6648 56.8757C70.7156 56.8783 70.7207 56.9378 70.7147 57.0101C70.6967 57.2825 70.6552 57.5529 70.5907 57.8181C70.533 58.0068 70.4675 58.0016 70.1918 57.9904C69.6431 57.9706 69.2443 57.9439 68.9255 57.9224C68.6068 57.9008 68.3897 57.875 68.1726 57.8707C68.0917 57.8707 67.9349 57.8638 67.7609 57.8638C67.5869 57.8638 67.4034 57.8638 67.2544 57.8586C67.1648 57.8552 67.1165 57.8319 67.1165 57.7794C67.1165 57.7449 67.1501 57.7243 67.2397 57.7268C67.3279 57.7292 67.4161 57.7237 67.5033 57.7105C67.648 57.6838 67.692 57.5218 67.7247 57.3142C67.7729 57.0093 67.7928 56.4252 67.8203 55.7567L67.866 54.4646Z" fill="#FEFEFE"/>
<path d="M71.4951 57.9396C71.3934 57.8871 71.3753 57.8587 71.3805 57.7226C71.39 57.3849 71.4356 56.999 71.446 56.8964C71.4563 56.7939 71.4796 56.7345 71.5321 56.7354C71.5847 56.7362 71.5941 56.7974 71.5941 56.843C71.5919 56.9527 71.607 57.062 71.6389 57.1669C71.7121 57.3689 71.8486 57.5419 72.028 57.66C72.2075 57.7782 72.4203 57.8351 72.6347 57.8225C72.7459 57.8381 72.8591 57.8303 72.9671 57.7997C73.0751 57.7691 73.1755 57.7163 73.262 57.6448C73.3485 57.5732 73.4191 57.4844 73.4693 57.3841C73.5196 57.2837 73.5484 57.174 73.5539 57.0618C73.5668 56.7896 73.5082 56.5183 72.9509 56.1582L72.5865 55.923C71.8534 55.4492 71.6191 55.0211 71.6389 54.4707C71.6691 53.7083 72.4142 53.244 73.3015 53.2776C73.6095 53.2857 73.9154 53.332 74.212 53.4154C74.2715 53.4318 74.2982 53.455 74.2982 53.5016C74.2982 53.5817 74.2637 53.76 74.2439 54.245C74.2439 54.3759 74.2112 54.4422 74.1578 54.4405C74.1043 54.4388 74.0923 54.4043 74.0949 54.3294C74.0896 54.178 74.0378 54.0318 73.9467 53.9107C73.862 53.8063 73.7542 53.723 73.6317 53.6674C73.5093 53.6117 73.3756 53.5854 73.2412 53.5903C72.7829 53.5731 72.3565 53.8005 72.3419 54.2252C72.3315 54.5025 72.428 54.7265 72.9871 55.0719L73.2455 55.2261C74.0759 55.7309 74.3163 56.2159 74.2973 56.7767C74.2936 57.0102 74.2283 57.2385 74.1081 57.4386C73.9878 57.6387 73.8169 57.8035 73.6125 57.9164C73.2838 58.098 72.9073 58.1741 72.534 58.1343C72.1779 58.1357 71.8248 58.0684 71.4942 57.9362" fill="#FEFEFE"/>
<path d="M76.4286 53.8626L75.4785 53.8523C75.1012 53.8454 74.9435 53.8833 74.8505 54.016C74.7988 54.0781 74.7589 54.149 74.7325 54.2253C74.7161 54.277 74.7006 54.3114 74.655 54.3046C74.6093 54.2977 74.599 54.2658 74.599 54.1969C74.6067 54.0995 74.7497 53.5017 74.7635 53.4517C74.7859 53.3716 74.8083 53.3354 74.8445 53.3354C74.8979 53.3354 74.9573 53.3906 75.1158 53.4216C75.3301 53.451 75.5457 53.4692 75.7619 53.4759L78.3617 53.5758C78.5078 53.5812 78.6541 53.5754 78.7993 53.5586C78.9061 53.5508 78.9578 53.5344 78.9767 53.5344C79.0233 53.5344 79.0301 53.5749 79.0258 53.6697C79.0258 53.8006 78.9888 54.2623 78.9836 54.4234C78.9707 54.4898 78.9526 54.5251 78.9182 54.5251C78.8691 54.5251 78.8518 54.4932 78.8467 54.395V54.3321C78.8363 54.171 78.6761 53.9703 78.1007 53.9384L77.2926 53.8945L77.1996 56.4211C77.1755 56.9931 77.166 57.4824 77.1824 57.7563C77.1979 57.9286 77.2332 58.0518 77.4193 58.0888C77.527 58.1072 77.6357 58.1184 77.7449 58.1224C77.8224 58.1224 77.8483 58.1629 77.85 58.1913C77.844 58.2353 77.7931 58.2577 77.7208 58.2551C77.2987 58.2361 76.8723 58.2008 76.6871 58.1896C76.5389 58.1896 76.1056 58.1896 75.8489 58.1827C75.7628 58.1827 75.7231 58.1551 75.7274 58.1121C75.7274 58.0836 75.7524 58.0457 75.8291 58.05C75.9061 58.0543 75.9833 58.0491 76.0591 58.0345C76.1883 58.0121 76.2314 57.8924 76.2598 57.715C76.2994 57.4565 76.3166 56.9612 76.3373 56.3884L76.4286 53.8626Z" fill="#FEFEFE"/>
<path d="M78.5579 57.8192C78.5585 57.7601 78.5711 57.7017 78.5949 57.6476C78.6188 57.5935 78.6534 57.5449 78.6967 57.5046C78.74 57.4643 78.791 57.4332 78.8466 57.4133C78.9023 57.3933 78.9614 57.3849 79.0205 57.3885C79.0779 57.3867 79.1352 57.3967 79.1886 57.4181C79.2421 57.4394 79.2905 57.4715 79.331 57.5124C79.3714 57.5534 79.4029 57.6022 79.4236 57.6559C79.4443 57.7096 79.4537 57.7669 79.4512 57.8244C79.4518 57.8858 79.4399 57.9467 79.4162 58.0034C79.3925 58.0601 79.3575 58.1113 79.3133 58.1539C79.2691 58.1966 79.2167 58.2298 79.1592 58.2515C79.1017 58.2732 79.0405 58.2829 78.9791 58.2801C78.9207 58.279 78.8632 58.2659 78.81 58.2419C78.7567 58.2178 78.709 58.1832 78.6696 58.14C78.6302 58.0969 78.6 58.0463 78.5808 57.9911C78.5616 57.936 78.5538 57.8775 78.5579 57.8192Z" fill="#FEFEFE"/>
<path d="M83.3562 55.0695C83.3751 54.6707 83.3829 54.3545 83.3941 54.1064C83.4027 53.9273 83.4036 53.848 83.2942 53.8377C82.9984 53.9201 82.7102 54.0276 82.4327 54.159C82.4008 54.1748 82.3658 54.1836 82.3302 54.1848C82.3133 54.1782 82.2987 54.1668 82.2883 54.1519C82.2779 54.137 82.2721 54.1194 82.2716 54.1013C82.2748 54.0795 82.2836 54.0588 82.297 54.0413C82.3104 54.0238 82.3281 54.0101 82.3483 54.0013C82.3828 53.9858 83.8222 53.1175 84.0806 52.9358C84.135 52.8885 84.2022 52.8585 84.2736 52.8496C84.3348 52.8496 84.3597 52.9358 84.352 53.0064C84.352 53.0632 84.2796 53.7868 84.2374 54.911L84.1883 56.2617C84.1616 56.9707 84.1384 57.5918 84.159 57.9131C84.1685 58.1526 84.2004 58.2671 84.4312 58.3205C84.5897 58.3523 84.7499 58.3742 84.9111 58.386C84.9204 58.3861 84.9296 58.3882 84.938 58.3923C84.9465 58.3963 84.9539 58.4022 84.9598 58.4094C84.9657 58.4166 84.97 58.4251 84.9723 58.4341C84.9746 58.4432 84.9749 58.4526 84.9731 58.4618C84.9731 58.5135 84.9352 58.5273 84.8551 58.5238C84.2994 58.5032 83.8412 58.4601 83.6422 58.4541C83.4776 58.4489 82.8548 58.4489 82.3922 58.4299C82.3121 58.4299 82.2673 58.411 82.2725 58.361C82.2777 58.3111 82.3009 58.2878 82.3371 58.2869C82.5301 58.29 82.723 58.2822 82.9151 58.2637C83.1494 58.2154 83.1899 58.1164 83.2192 57.8821C83.2631 57.5599 83.2993 56.9345 83.32 56.2342L83.3562 55.0695Z" fill="#FEFEFE"/>
<path d="M87.6168 58.7253H87.5049C86.391 58.6823 85.6933 58.0913 85.7217 57.2178C85.7631 56.8401 85.9203 56.4845 86.1716 56.1995C86.423 55.9145 86.7563 55.7142 87.1258 55.6259C86.4203 55.2279 86.0999 54.7895 86.118 54.245C86.1378 53.8074 86.5134 52.9805 87.7891 52.9805H87.8942C88.8177 53.0201 89.3767 53.4715 89.3535 54.1606C89.316 54.4663 89.1895 54.7543 88.9896 54.9886C88.7897 55.223 88.5253 55.3934 88.2293 55.4786H88.2336C88.6859 55.7482 89.5258 56.2539 89.4939 57.1705C89.4754 57.3968 89.4118 57.6172 89.3069 57.8186C89.202 58.02 89.0578 58.1984 88.8829 58.3433C88.708 58.4882 88.5059 58.5966 88.2885 58.6622C88.071 58.7278 87.8427 58.7493 87.6168 58.7253ZM87.4635 55.8163C87.2012 55.9439 86.9782 56.1399 86.8181 56.3837C86.658 56.6275 86.5667 56.9101 86.5538 57.2015C86.5414 57.3464 86.5579 57.4923 86.6025 57.6307C86.647 57.7691 86.7187 57.8973 86.8133 58.0077C86.9079 58.1182 87.0236 58.2086 87.1536 58.2739C87.2836 58.3391 87.4252 58.3778 87.5703 58.3877H87.6082C87.7469 58.3877 87.8842 58.3599 88.0119 58.3058C88.1397 58.2517 88.2552 58.1725 88.3516 58.0728C88.4481 57.9731 88.5235 57.8551 88.5734 57.7257C88.6232 57.5962 88.6466 57.4581 88.6419 57.3195C88.6695 56.5752 88.0846 56.2048 87.4652 55.812L87.4635 55.8163ZM87.759 53.2966C87.6463 53.2904 87.5336 53.3073 87.4277 53.3463C87.3218 53.3852 87.225 53.4455 87.1432 53.5233C87.0615 53.601 86.9965 53.6947 86.9523 53.7986C86.9082 53.9024 86.8857 54.0142 86.8864 54.127C86.8726 54.5526 87.125 54.8679 87.8167 55.2934C88.0398 55.2097 88.2321 55.0598 88.3677 54.8638C88.5033 54.6679 88.5759 54.4351 88.5756 54.1968C88.5892 54.0862 88.5796 53.9741 88.5474 53.8674C88.5152 53.7608 88.4612 53.662 88.3888 53.5774C88.3163 53.4928 88.227 53.4242 88.1266 53.376C88.0262 53.3278 87.9168 53.3011 87.8055 53.2975L87.759 53.2966Z" fill="#FEFEFE"/>
<path d="M90.1027 58.6899C89.9777 58.6236 89.964 58.5538 89.9683 58.3996C89.9743 58.0915 89.9962 57.7838 90.0337 57.4779C90.051 57.4064 90.0759 57.3478 90.1199 57.3478C90.1638 57.3478 90.1802 57.3961 90.1776 57.4753C90.1549 57.6081 90.1631 57.7443 90.2015 57.8734C90.24 58.0025 90.3076 58.121 90.3993 58.2197C90.4909 58.3184 90.6041 58.3947 90.73 58.4427C90.8558 58.4906 90.9911 58.5089 91.1252 58.4961C91.296 58.5051 91.4668 58.4774 91.626 58.4148C91.7852 58.3522 91.9291 58.2561 92.0481 58.1332C92.167 58.0102 92.2582 57.8632 92.3155 57.702C92.3728 57.5408 92.3949 57.3692 92.3803 57.1988C92.4208 56.0221 91.1743 55.494 90.6057 55.3898C90.5213 55.376 90.4722 55.3364 90.4851 55.2399L90.7212 53.3086C90.7306 53.2379 90.784 53.2173 90.8598 53.2224L92.6473 53.287C92.7853 53.2949 92.9236 53.2906 93.0608 53.2741C93.1469 53.2689 93.1814 53.2569 93.209 53.2569C93.2641 53.2569 93.2796 53.2896 93.2753 53.4016C93.2526 53.7141 93.2101 54.0249 93.1478 54.332C93.1357 54.3776 93.1151 54.4181 93.0617 54.4181C93.022 54.4181 93.0057 54.3716 93.0065 54.3147C93.016 54.1054 92.9678 53.9116 92.3803 53.8909L91.0537 53.8435L90.9158 54.736C91.9961 54.9548 93.3003 55.6034 93.252 56.8792C93.2345 57.1771 93.1543 57.468 93.0167 57.7329C92.8792 57.9978 92.6874 58.2307 92.4538 58.4165C92.2202 58.6023 91.9501 58.7368 91.6611 58.8112C91.372 58.8857 91.0706 58.8983 90.7763 58.8484C90.5431 58.8435 90.3136 58.7895 90.1027 58.6899Z" fill="#FEFEFE"/>
<path d="M95.3954 55.5181C95.4083 55.1244 95.4212 54.8066 95.4315 54.5585C95.4315 54.3862 95.4402 54.2949 95.3308 54.2906C95.0352 54.373 94.7471 54.4799 94.4693 54.6102C94.4365 54.6251 94.4011 54.6336 94.3651 54.6351C94.3479 54.6351 94.3082 54.5964 94.3082 54.555C94.3122 54.5328 94.3217 54.5119 94.3358 54.4942C94.35 54.4766 94.3683 54.4629 94.3892 54.4542C94.4228 54.4387 95.8536 53.5721 96.119 53.3869C96.1748 53.3437 96.24 53.3141 96.3093 53.3008C96.3791 53.3059 96.3955 53.3869 96.3955 53.4584C96.3955 53.5299 96.3205 54.2406 96.2792 55.3622L96.2284 56.7189C96.2034 57.4236 96.1767 58.0447 96.1973 58.3677C96.2077 58.6037 96.2404 58.7123 96.4696 58.7777C96.5738 58.8027 96.8908 58.8355 96.9477 58.8389C96.9571 58.8394 96.9663 58.8419 96.9748 58.846C96.9833 58.8502 96.9908 58.8561 96.997 58.8632C97.0032 58.8704 97.0079 58.8787 97.0108 58.8877C97.0137 58.8967 97.0148 58.9062 97.014 58.9156C97.014 58.9673 96.97 58.9785 96.8942 58.9767C96.3403 58.9561 95.8743 58.9147 95.677 58.9095C95.5091 58.9001 94.9061 58.9001 94.4314 58.8846C94.3522 58.8811 94.3031 58.8622 94.3031 58.8139C94.3026 58.8048 94.304 58.7958 94.3071 58.7872C94.3102 58.7787 94.315 58.7708 94.3211 58.7642C94.3273 58.7575 94.3348 58.7522 94.3431 58.7484C94.3514 58.7447 94.3603 58.7426 94.3694 58.7424C94.564 58.7464 94.7586 58.7364 94.9517 58.7123C95.1912 58.6692 95.2282 58.5693 95.2618 58.3367C95.3015 58.0128 95.3376 57.3891 95.36 56.6879L95.3954 55.5181Z" fill="#FEFEFE"/>
<path d="M137.256 20.3769C136.459 20.3821 135.692 20.0725 135.123 19.5155C134.844 19.2431 134.623 18.9174 134.472 18.5578C134.321 18.1983 134.244 17.8121 134.246 17.4222C134.246 17.0306 134.325 16.643 134.478 16.2823C134.63 15.9215 134.853 15.5948 135.133 15.3213C135.414 15.0478 135.746 14.833 136.11 14.6895C136.475 14.546 136.864 14.4767 137.256 14.4856H137.273C137.664 14.4802 138.052 14.5526 138.415 14.6988C138.778 14.8449 139.108 15.0618 139.386 15.3368C139.664 15.6118 139.884 15.9394 140.034 16.3005C140.184 16.6616 140.261 17.049 140.26 17.44C140.259 17.8311 140.18 18.218 140.028 18.5782C139.875 18.9385 139.653 19.2648 139.373 19.5381C139.094 19.8115 138.762 20.0265 138.399 20.1705C138.035 20.3145 137.647 20.3847 137.256 20.3769ZM137.238 15.0766C136.938 15.0758 136.642 15.1365 136.368 15.2551C136.093 15.3736 135.846 15.5475 135.641 15.7657C135.221 16.2143 134.989 16.8075 134.994 17.4222C134.987 17.7268 135.04 18.0298 135.151 18.3135C135.262 18.5972 135.428 18.8559 135.64 19.0744C135.853 19.293 136.106 19.467 136.387 19.5862C136.667 19.7054 136.968 19.7675 137.273 19.7688H137.304C137.598 19.7697 137.889 19.7092 138.159 19.5913C138.429 19.4734 138.671 19.3006 138.87 19.0839C139.281 18.636 139.506 18.0489 139.5 17.4412C139.512 17.1377 139.462 16.8351 139.354 16.5511C139.247 16.2671 139.084 16.0073 138.875 15.7871C138.666 15.5669 138.415 15.3906 138.137 15.2686C137.859 15.1466 137.559 15.0813 137.256 15.0766H137.238ZM136.791 18.9452H136.115V16.0078L136.156 16.0026C136.514 15.9485 136.876 15.9197 137.238 15.9165C137.587 15.8774 137.938 15.9595 138.234 16.149C138.332 16.2207 138.411 16.3153 138.464 16.4247C138.517 16.5341 138.542 16.6548 138.537 16.7762C138.529 16.943 138.464 17.1021 138.355 17.2285C138.246 17.355 138.098 17.4416 137.934 17.4748V17.5101C138.201 17.5962 138.357 17.809 138.451 18.2268C138.488 18.4739 138.56 18.7146 138.664 18.9418H137.95C137.849 18.758 137.782 18.558 137.75 18.3509L137.719 18.226C137.665 17.9167 137.478 17.7789 137.116 17.7789H136.791V18.9452ZM137.184 16.4204C137.058 16.4172 136.932 16.4291 136.809 16.4557V17.2965H137.13C137.561 17.2965 137.808 17.1397 137.808 16.8658C137.808 16.5789 137.586 16.4204 137.184 16.4204Z" fill="#231F20"/>
</g>
<defs>
<clipPath id="clip0_2034_126">
<rect width="154.26" height="80" fill="white"/>
</clipPath>
</defs>
</svg>
