<svg width="160" height="80" viewBox="0 0 160 80" fill="none" xmlns="http://www.w3.org/2000/svg">
<g clip-path="url(#clip0_2034_290)">
<path d="M159.336 80L0.000167847 79.8709L0.055498 0L159.392 0.1106L159.336 80Z" fill="#FFF100"/>
<path d="M5.42066 5.36526L154.026 5.49434L153.971 74.6163L5.36533 74.5057L5.42066 5.36526Z" fill="#0E1522"/>
<path d="M116.698 33.2966L119.703 30.8076L100.916 30.7892L101.322 29.0562L119.316 29.0746L110.835 24.5761L111.406 23.4883L121.252 28.7243L127.649 3.83496H129.142L122.929 28.0975L128.921 23.1196L129.567 23.8939L123.353 29.0746L136.296 29.0931L135.89 30.8077H125.16L130.581 33.6838L129.991 34.7531L122.561 30.8077H122.247L120.938 35.8962H119.39L120.551 31.4345L117.362 34.0894L116.698 33.2966Z" fill="#FFF100"/>
<path d="M84.8369 19.6875C81.0574 19.6875 77.3734 20.9822 76.4515 21.6274C75.2162 22.494 69.6873 29.4217 67.2721 36.9993C67.2721 36.9993 66.4019 36.8166 65.9226 36.8166C65.4432 36.8166 65.1281 36.9469 64.9806 37.4631C64.8333 37.9795 64.2091 39.3258 61.6279 39.3258C58.8626 39.3258 56.9258 37.9223 56.9258 35.1014C56.9258 30.7137 59.233 25.5565 61.7404 25.5565C62.8466 25.5565 63.0829 26.287 63.0829 26.9692C63.0829 27.6514 62.5879 27.8199 62.2746 27.8199C62.0533 27.8199 61.9221 27.9674 61.8668 28.115C61.7195 28.4836 61.5015 29.204 61.5015 29.8862C61.4831 31.269 62.1041 32.1143 63.118 32.1143C64.5377 32.1143 65.9084 30.1811 65.9084 27.3417C65.9084 25.9222 65.4986 24.8505 64.9455 24.0945C64.3555 23.2464 63.5625 23.0473 62.2534 23.0473C60.4282 23.0289 58.1057 23.5795 57.0733 24.4461C55.6536 25.6811 52.3008 31.0461 52.3008 34.8625C52.3008 38.8081 54.8444 41.9052 58.4579 41.9052C62.6061 41.9052 66.4777 39.7685 66.4777 39.7685C66.4777 39.7685 65.2055 43.7655 65.2055 47.5635C65.2055 55.7861 70.6065 60.6747 77.9627 60.6932C84.4708 60.6932 89.7973 56.7274 90.8112 55.9348C90.9772 55.8057 91.1662 55.7881 91.2399 55.991C91.5166 56.7652 92.8746 59.8988 96.9122 59.8988C99.0325 59.8988 100.969 58.4062 102.149 57.4107C102.333 57.2632 102.468 57.2843 102.633 57.4319C103.777 58.5196 105.209 59.681 107.329 59.681C109.873 59.681 112.902 56.933 114.266 54.9789C114.506 54.6285 114.67 54.5918 114.744 55.1264C115.076 57.7443 117.915 59.1469 120.662 59.1469C123.87 59.1469 126.03 56.2103 127.136 54.754C127.467 54.3113 127.597 54.48 127.579 54.9226C127.542 55.4388 127.557 56.0106 127.557 56.4899C127.557 57.3381 128.279 57.9629 128.851 58.4791C129.422 58.9768 130.194 59.5474 130.784 59.5474C131.835 59.5474 133.125 58.0376 133.715 56.2861C134.175 54.9033 135.318 53.1152 136.203 51.9353C136.516 51.5297 136.625 51.5666 136.625 52.0828C136.625 52.8941 136.667 54.3709 136.667 55.8644C136.667 62.0222 140.186 65.5571 145.699 65.5571C147.727 65.5571 149.517 64.8787 151.047 63.6803C152.633 62.4451 152.075 61.4469 150.176 62.5346C149.273 63.0508 148.134 63.385 146.788 63.385C143.875 63.385 141.861 61.3025 141.861 57.2281C141.879 53.2825 143.191 47.9879 144.131 44.7801C144.574 43.3051 143.357 41.7226 141.439 41.7226C139.559 41.7226 137.734 42.6657 137.383 43.1634C137.015 43.6796 136.778 44.7633 136.28 45.8696C135.451 47.6395 134.251 49.9441 133.827 50.5156C133.385 51.1055 133.274 51.0315 133.237 50.2203C133.2 49.3908 133.309 47.5817 133.715 46.2911C134.028 45.2772 134.049 44.7648 133.736 44.2669C133.054 43.216 130.505 43.9167 129.638 44.2669C128.993 44.5066 128.699 44.7664 128.478 45.3564C127.298 48.3431 124.534 56.0682 121.105 56.0682C119.796 56.0497 119.277 54.9622 119.277 52.6944C119.277 49.929 120.332 45.5941 120.922 43.9718C121.125 43.3818 121.604 43.1243 121.604 42.4605C121.604 41.889 120.775 41.7226 119.798 41.7226C118.581 41.7226 117.104 41.9459 116.164 42.2779C115.15 42.6465 115.63 43.4009 115.538 43.7329C113.713 50.9785 110.762 56.635 108.144 56.6165C107.112 56.6165 106.759 55.6046 106.759 53.5027C106.759 51.3824 107.738 47.2875 108.088 46.1998C108.53 44.8539 107.329 45.1175 107.329 45.1175C107.329 45.1175 107.684 42.8274 107.758 40.9284C107.831 38.8634 107.828 37.0407 106.408 36.0083C105.412 35.2708 103.918 35.217 102.388 35.6779C100.249 36.3416 96.1969 37.9628 95.0354 38.8479C93.9662 39.6589 92.4687 44.38 91.8234 47.3667C91.381 49.3393 90.8695 50.7913 90.1504 51.7315C88.7125 53.5752 84.2339 55.3302 80.5281 55.3302C75.6424 55.3302 72.8739 51.9164 72.8739 47.8235C72.8924 39.1398 77.9463 29.46 81.7443 25.662C82.6107 24.7954 83.5277 24.3898 84.6892 24.3898C86.072 24.3898 86.8891 26.0153 86.8891 27.5457C86.8707 28.9101 85.4636 29.0358 84.6892 29.0358C84.2836 29.0358 84.0268 29.26 83.9161 29.4996C83.3999 30.7164 81.854 34.5139 81.8356 37.0766C81.8356 39.123 83.3833 40.4293 86.4253 40.4293C90.4444 40.4293 93.6324 34.9001 93.6508 28.7054C93.6508 22.5106 89.28 19.6875 84.8369 19.6875ZM48.6458 19.8773C46.8575 19.8773 43.9666 21.1633 42.9527 21.9929C41.4039 23.265 41.6241 25.8307 41.6241 25.8307C41.6241 25.8307 40.3162 31.2143 37.0344 38.9392C35.3382 42.903 33.569 46.0745 32.0018 47.6969C31.5778 48.158 31.3736 47.8989 31.3551 47.4931C31.3183 45.7786 31.3009 42.9007 31.7067 38.0888C32.0384 34.2724 32.3111 27.4915 32.1635 24.3757C32.0897 22.5136 31.2802 21.4798 29.7317 21.4798C28.6991 21.4798 25.581 22.4221 24.3826 23.012C23.3134 23.5284 22.8012 24.8359 22.8012 25.7394C22.8012 26.2187 22.963 26.4913 22.963 26.4913C22.963 26.4913 21.3976 33.6471 18.2817 42.4043C14.1704 53.9087 11.0773 59.1819 9.95271 59.1819C9.62084 59.1819 9.32001 59.0157 9.17251 58.7391C9.04345 58.4627 8.54697 58.4471 8.54697 59.2031C8.54697 60.2355 9.04836 61.6491 11.0211 61.6491C13.805 61.6491 17.6191 54.8147 19.7578 50.4452C21.878 46.0572 23.8487 41.2264 25.1208 38.1662C25.5079 37.2258 25.821 37.2627 25.8026 38.1662C25.7657 43.015 25.6397 48.6926 25.4371 52.3431C25.4002 53.2094 26.0844 53.832 27.1168 54.754C27.9649 55.5097 28.682 56.1386 29.2535 56.1386C30.5994 56.1386 33.7334 53.8331 35.8535 50.3118C38.5085 45.8685 40.6657 40.6171 41.7718 37.9622C42.122 37.0958 42.3587 37.3353 42.2849 37.9622C41.8425 42.1103 41.2192 47.5113 41.3852 52.9686C41.5327 57.6329 44.8134 59.0906 47.0995 59.0906C48.5561 59.0906 48.7227 58.1892 49.2574 57.1014C49.6629 56.2902 48.4612 56.063 48.203 55.0491C47.6132 52.7445 48.2039 48.8921 49.2362 39.8951C50.2504 31.0088 50.823 25.5516 50.7124 22.4357C50.6755 21.0346 49.9917 19.8773 48.6458 19.8773ZM100.638 40.1551C102.094 40.1551 102.816 41.9459 102.816 43.2547C102.816 49.5232 100.729 56.2695 97.355 56.251C96.2489 56.251 95.6987 54.9379 95.7172 53.1865C95.7172 48.817 97.3787 43.3458 98.3742 41.6313C98.8903 40.7462 99.8447 40.1551 100.638 40.1551Z" fill="white"/>
</g>
<defs>
<clipPath id="clip0_2034_290">
<rect width="159.392" height="80" fill="white"/>
</clipPath>
</defs>
</svg>
