<svg width="332" height="80" viewBox="0 0 332 80" fill="none" xmlns="http://www.w3.org/2000/svg">
<g clip-path="url(#clip0_2034_339)">
<path fill-rule="evenodd" clip-rule="evenodd" d="M-7.62939e-05 0L55.8639 51.484V2.252H67.9039V80L12.0359 27.872V77.62H-7.62939e-05V0ZM190.288 2.248L212.376 29.712L234.468 2.248L250.028 2.252L220.088 39.028L250.028 77.62H234.468L212.376 48.972L190.288 77.616H174.728L204.668 39.024L174.72 2.248H190.28H190.288ZM154.432 2.256V13.928H109.312V33.96H150.324V45.528H109.312V65.952H154.432V77.624H97.2759V2.256H154.432ZM331.628 2.24V13.92H304.02V77.6H291.98V13.92H264.38V2.24H331.628Z" fill="black"/>
</g>
<defs>
<clipPath id="clip0_2034_339">
<rect width="332" height="80" fill="white"/>
</clipPath>
</defs>
</svg>
