<svg width="105" height="80" viewBox="0 0 105 80" fill="none" xmlns="http://www.w3.org/2000/svg">
<g clip-path="url(#clip0_2034_305)">
<path d="M0.617188 54.1143H12.2172V57.2114H4.57147V62.0571H11.5772V65.1428H4.57147V70.6628H12.2858V73.76H0.617188V54.1143Z" fill="#1D1D1B"/>
<path d="M15.9312 59.2576H19.5083V61.2233C20.0403 60.4688 20.7563 59.8627 21.5884 59.4627C22.4205 59.0626 23.341 58.8819 24.2626 58.9376C27.6912 58.9376 29.1883 61.3605 29.1883 64.6519V73.7948H25.4169V66.0119C25.4169 64.2405 25.4169 61.8519 22.9712 61.8519C20.2397 61.8519 19.6455 64.8005 19.6455 66.6633V73.7605H15.874V59.2576H15.9312Z" fill="#1D1D1B"/>
<path d="M46.4227 59.257V72.3427C46.4227 76.2855 44.8455 79.9998 38.7655 79.9998C37.0477 80.0133 35.345 79.6789 33.7598 79.017L34.0684 75.8055C35.3732 76.5108 36.8082 76.9425 38.2855 77.0741C42.4455 77.0741 42.6513 73.9541 42.6513 71.4512C42.1583 72.185 41.4856 72.7802 40.6974 73.1803C39.9092 73.5804 39.0317 73.7721 38.1484 73.737C33.8741 73.737 32.2398 70.3084 32.2398 66.4227C32.2398 62.937 34.0455 58.9141 38.377 58.9141C39.2563 58.8513 40.136 59.0312 40.92 59.4343C41.704 59.8374 42.3622 60.4481 42.8227 61.1998V59.257H46.4227ZM42.6513 66.3541C42.6513 63.8741 41.6913 61.8512 39.497 61.8512C36.937 61.8512 36.0684 64.217 36.0684 66.4227C36.0684 68.3884 37.1084 70.8112 39.2798 70.8112C41.7027 70.857 42.6513 68.7655 42.6513 66.3541Z" fill="#1D1D1B"/>
<path d="M50.3891 52.6514H54.1605V73.7485H50.3891V52.6514Z" fill="#1D1D1B"/>
<path d="M58.7768 60.0227C60.3631 59.3076 62.0771 58.9189 63.8168 58.8799C68.2396 58.8799 70.0682 60.7085 70.0682 64.9827V66.8456C70.0682 68.3085 70.0682 69.4056 70.0682 70.4799C70.0682 71.5542 70.1482 72.5942 70.2396 73.7142H66.9596C66.8584 72.9945 66.8012 72.2694 66.7882 71.5427C66.3234 72.3133 65.6657 72.9494 64.8801 73.3883C64.0945 73.8272 63.208 74.0538 62.3082 74.0456C59.7482 74.0456 57.2453 72.4913 57.2453 69.737C57.1925 68.8777 57.4012 68.0224 57.8439 67.284C58.2866 66.5455 58.9425 65.9584 59.7253 65.5999C61.2671 64.9663 62.9288 64.6777 64.5939 64.7542H66.6282C66.6282 62.4685 65.5882 61.6342 63.3596 61.6342C61.736 61.667 60.1657 62.2198 58.8796 63.2113L58.7768 60.0227ZM63.1996 71.337C63.7127 71.3502 64.2215 71.2397 64.683 71.015C65.1444 70.7902 65.5451 70.4577 65.851 70.0456C66.4342 69.1648 66.7113 68.1166 66.6396 67.0627H64.9939C63.3025 67.0627 60.7996 67.3485 60.7996 69.5656C60.7996 70.7999 61.8396 71.337 63.1882 71.337H63.1996Z" fill="#1D1D1B"/>
<path d="M73.7711 59.257H77.3482V61.2227H77.4054C77.9366 60.4674 78.6525 59.8607 79.4848 59.4606C80.317 59.0604 81.2379 58.8802 82.1596 58.937C85.5882 58.937 87.0854 61.3599 87.0854 64.6513V73.7941H83.3139V66.0113C83.3139 64.2399 83.3139 61.8513 80.8682 61.8513C78.1368 61.8513 77.5425 64.7999 77.5425 66.6627V73.7599H73.7711V59.257Z" fill="#1D1D1B"/>
<path d="M100.572 72.1257C100.037 72.779 99.3556 73.2974 98.5833 73.6389C97.811 73.9804 96.9692 74.1354 96.1259 74.0914C91.6802 74.0914 90.0459 70.4342 90.0459 66.4685C90.0459 62.5028 91.6802 58.9257 96.1259 58.9257C96.9576 58.888 97.786 59.0523 98.5403 59.4046C99.2946 59.7568 99.9524 60.2866 100.457 60.9485V52.6514H104.229V73.7485H100.572V72.1257ZM97.143 71.1657C99.6459 71.1657 100.457 68.5257 100.457 66.4685C100.457 64.4114 99.4973 61.8971 97.0288 61.8971C94.5602 61.8971 93.9088 64.5714 93.9088 66.4685C93.9088 68.3657 94.6745 71.1657 97.143 71.1657Z" fill="#1D1D1B"/>
<path d="M104.606 0H0V42.1257H104.606V0Z" fill="#005EB8"/>
<path d="M100.686 4.99443L98.4805 11.7487C96.126 10.6737 93.5597 10.1425 90.9719 10.1944C87.3605 10.1944 84.4348 10.7201 84.4348 13.4516C84.4348 18.2516 97.669 16.4687 97.669 26.7659C97.669 36.1373 88.9262 38.5716 81.0176 38.5716C77.4401 38.4813 73.8931 37.8888 70.4805 36.8116L72.629 29.9544C75.2276 31.2804 78.1122 31.9476 81.029 31.8973C83.8633 31.8973 88.2976 31.3601 88.2976 27.863C88.2976 22.423 75.0633 24.4344 75.0633 14.903C75.0519 6.103 82.7662 3.42871 90.2862 3.42871C94.4919 3.42871 98.4348 3.87443 100.732 4.93728" fill="white"/>
<path d="M74.4685 4.06836L67.3828 37.9655H58.2628L61.2913 23.4512H50.4913L47.4628 37.9655H38.3428L45.4285 4.06836H54.5485L51.8628 17.0398H62.6513L65.3371 4.06836H74.4685Z" fill="white"/>
<path d="M42.0568 4.06836L34.834 37.9655H23.5082L16.3768 14.5141H16.2854L11.5425 37.9655H2.94824L10.2282 4.06836H21.5997L28.5825 27.5769H28.674L33.4625 4.06836H42.0568Z" fill="white"/>
</g>
<defs>
<clipPath id="clip0_2034_305">
<rect width="104.606" height="80" fill="white"/>
</clipPath>
</defs>
</svg>
