<svg width="280" height="80" viewBox="0 0 280 80" fill="none" xmlns="http://www.w3.org/2000/svg">
<g clip-path="url(#clip0_2034_317)">
<path d="M137.749 48.0293C137.31 49.6338 134.78 54.4541 128.315 54.4541C122.297 54.4541 117.876 50.04 117.876 43.8149C117.876 37.5899 122.29 33.1758 128.315 33.1758C133.934 33.1758 138.348 37.5899 138.348 43.4088C138.348 44.008 138.269 44.494 138.229 44.8535L138.149 45.4128H122.896C123.335 48.2623 125.466 50.2264 128.315 50.2264C130.685 50.2264 132.13 48.8615 132.53 48.016H137.749V48.0293ZM133.335 42.0107C132.896 39.4008 131.165 37.3968 128.315 37.3968C125.266 37.3968 123.502 39.4008 122.896 42.0107H133.335Z" fill="#0066FF"/>
<path d="M146.385 25.9585H141.365V54.0544H146.385V25.9585Z" fill="#0066FF"/>
<path d="M169.254 48.0288C168.815 49.6333 166.285 54.4536 159.82 54.4536C153.801 54.4536 149.387 50.0395 149.387 43.8144C149.387 37.5894 153.801 33.1753 159.82 33.1753C165.439 33.1753 169.853 37.5894 169.853 43.4083C169.853 44.0075 169.773 44.4935 169.734 44.8531L169.654 45.4123H154.401C154.84 48.2618 156.971 50.2259 159.82 50.2259C162.19 50.2259 163.635 48.861 164.034 48.0155H169.254V48.0288ZM164.84 42.0102C164.401 39.4003 162.67 37.3963 159.82 37.3963C156.771 37.3963 155.007 39.4003 154.401 42.0102H164.84Z" fill="#0066FF"/>
<path d="M174.467 38.3951H171.058V33.5815H174.467V30.5722C174.467 27.5229 176.431 25.5522 179.487 25.5522H183.901V29.9664H180.892C180.086 29.9664 179.487 30.5656 179.487 31.3712V33.5815H183.901V38.3951H179.487V54.0476H174.467V38.3951Z" fill="#0066FF"/>
<path d="M205.526 43.8144C205.526 50.0395 201.111 54.4536 195.093 54.4536C189.074 54.4536 184.66 50.0395 184.66 43.8144C184.66 37.5894 189.074 33.1753 195.093 33.1753C201.111 33.1753 205.526 37.5894 205.526 43.8144ZM200.506 43.8144C200.506 40.1993 198.095 37.7958 195.086 37.7958C192.077 37.7958 189.667 40.2059 189.667 43.8144C189.667 47.423 192.077 49.8331 195.086 49.8331C198.095 49.8331 200.506 47.423 200.506 43.8144Z" fill="#0066FF"/>
<path d="M208.528 33.5816H213.142L213.542 35.5922H213.741C214.101 35.1528 214.587 34.7467 215.106 34.3872C216.032 33.788 217.437 33.1821 219.361 33.1821C223.974 33.1821 227.39 36.5909 227.39 41.8106V54.0543H222.37V42.2167C222.37 39.6069 220.566 37.8026 217.956 37.8026C215.346 37.8026 213.542 39.6069 213.542 42.2167V54.0543H208.522V33.5816H208.528Z" fill="#0066FF"/>
<path d="M259.327 46.4243C258.682 49.6334 256.158 54.4536 249.694 54.4536C243.675 54.4536 239.261 50.0395 239.261 43.8144C239.261 37.5894 243.675 33.1753 249.694 33.1753C256.158 33.1753 258.682 37.9889 259.327 41.0049H254.307C253.868 39.8397 252.703 37.7958 249.694 37.7958C246.684 37.7958 244.274 40.2059 244.274 43.8144C244.274 47.423 246.684 49.8331 249.694 49.8331C252.703 49.8331 253.868 47.8291 254.307 46.4243H259.327Z" fill="#0066FF"/>
<path d="M274.501 52.0436H274.301C273.941 52.4831 273.455 52.8892 272.896 53.2487C271.931 53.8479 270.526 54.4538 268.482 54.4538C263.828 54.4538 261.058 51.6042 261.058 48.2354C261.058 44.2207 263.868 41.4112 269.487 41.4112H274.101V41.0117C274.101 38.7614 272.736 37.1968 270.486 37.1968C268.236 37.1968 267.077 38.6415 266.871 39.8066H261.851C262.29 36.4378 265.02 33.1821 270.479 33.1821C275.939 33.1821 279.108 36.6375 279.108 41.0117V54.0543H274.893L274.494 52.0503L274.501 52.0436ZM274.101 45.2194H269.887C267.277 45.2194 266.072 46.2247 266.072 47.8293C266.072 49.4338 267.237 50.4391 269.281 50.4391C272.33 50.4391 274.101 48.6748 274.101 45.8253V45.2261V45.2194Z" fill="#0066FF"/>
<path d="M236.258 33.582H231.238V54.0547H236.258V33.582Z" fill="#0066FF"/>
<path d="M236.718 27.6696C236.718 26.0318 235.386 24.7002 233.748 24.7002C232.11 24.7002 230.779 26.0318 230.779 27.6696C230.779 29.3074 232.11 30.6389 233.748 30.6389C235.386 30.6389 236.718 29.3074 236.718 27.6696Z" fill="#0066FF"/>
<path d="M196.897 24.9531H202.11L197.296 30.772H193.082L196.897 24.9531Z" fill="#0066FF"/>
<path d="M106.484 30.9718H98.0555V25.9585H120.133V30.9718H111.704V54.0544H106.484V30.9718Z" fill="#0066FF"/>
<path d="M80 40C80 62.0905 62.0905 80 40 80C17.9095 80 0 62.0905 0 40C0 17.9095 17.9095 0 40 0C62.0905 0 80 17.9095 80 40Z" fill="#0066FF"/>
<path d="M30.8987 39.9997C30.8987 34.7533 34.0945 29.6668 39.5605 29.6668C45.0266 29.6668 48.1624 34.7533 48.1624 39.9997C48.1624 44.9264 45.5126 50.3392 39.5605 50.3392C33.6085 50.3392 30.8987 44.9264 30.8987 39.9997ZM25.486 39.9997C25.486 47.9024 31.225 54.4471 39.5539 54.4471C47.8828 54.4471 53.5685 47.8958 53.5685 39.9997C53.5685 31.6108 47.9427 25.5522 39.5539 25.5522C31.1651 25.5522 25.486 31.6108 25.486 39.9997Z" fill="white"/>
<path d="M61.1452 60.6386V58.7145H56.1518C58.1492 56.7571 60.759 54.3736 60.759 51.7837C60.759 49.3869 59.2544 48.2085 56.9241 48.2085C55.6791 48.2085 54.4008 48.5214 53.3023 49.0807L53.4954 51.1113C54.301 50.5853 55.2797 50.1326 56.3116 50.1326C57.3436 50.1326 58.309 50.6586 58.309 51.7771C58.309 54.0207 54.1611 57.4828 53.0227 58.588V60.6386H61.1452Z" fill="white"/>
</g>
<defs>
<clipPath id="clip0_2034_317">
<rect width="279.115" height="80" fill="white"/>
</clipPath>
</defs>
</svg>
