<svg width="252" height="80" viewBox="0 0 252 80" fill="none" xmlns="http://www.w3.org/2000/svg">
<g clip-path="url(#clip0_2034_296)">
<path d="M97.7975 0C96.3829 2.02975 64.4195 47.1967 64.4195 47.1967C63.21 48.9393 62.3898 49.7596 62.3898 49.7596C62.1029 50.1491 61.7542 50.354 61.4262 50.354C61.0982 50.354 60.7495 50.1491 60.4626 49.78C60.4626 49.78 45.1882 29.9542 43.876 28.1909V52.4864C44.04 52.6913 60.5651 74.8955 60.5651 74.8955C60.8315 75.2647 61.1802 75.4696 61.5286 75.4696C61.8773 75.4696 62.2053 75.2647 62.4924 74.8751C62.4924 74.8751 97.654 24.9516 97.7975 24.7464V0Z" fill="#D00058"/>
<path d="M133.368 10.21V79.0777H164.737C179.929 79.0777 189.012 70.9177 189.012 57.2631C189.012 48.2626 183.189 44.3262 179.704 42.7884L177.592 41.8453L179.56 40.6562C184.091 37.9293 186.572 33.3777 186.572 27.8422C186.572 16.6478 178.72 10.21 165.045 10.21H133.389H133.368ZM144.973 35.6946V20.9533H164.43C171.052 20.9533 174.435 23.6595 174.435 28.9697C174.435 32.5782 172.815 36.8837 165.147 36.8837H144.993V35.6946H144.973ZM144.973 66.7353V47.1144H165.249C172.815 47.1144 176.69 50.6 176.69 57.4886C176.69 64.3775 172.507 67.9449 165.249 67.9449H144.973V66.7557V66.7353Z" fill="#1D2E3F"/>
<path d="M226.04 10.0874C237.089 10.0874 245.087 14.721 249.905 23.7419C248.16 24.5417 240.533 28.0475 239.058 28.7242C236.187 23.9675 231.76 21.5278 225.853 21.5278C215.152 21.5278 208.222 30.6104 208.222 44.6751C208.222 58.7397 215.337 67.8224 225.936 67.8224C232.107 67.8224 236.107 65.4031 239.96 59.4164C241.458 60.298 248.265 64.3164 249.76 65.1982C244.84 74.5062 236.72 79.2628 225.547 79.2628C207.751 79.2628 196.228 65.6902 196.228 44.6751C196.228 23.6599 208.489 10.0669 226.04 10.0669V10.0874Z" fill="#1D2E3F"/>
<path d="M43.9355 10.21H55.6426V39.1184L43.915 23.7006L43.9355 10.21Z" fill="#1D2E3F"/>
<path d="M55.6439 74.0753V79.0777H44.6955L11.5226 29.3593L11.4816 79.0573H0.000167847V10.21H11.8506C12.5477 11.2556 43.9164 58.4933 43.9164 58.4933L55.6439 74.0753Z" fill="#1D2E3F"/>
<path d="M78.9549 21.8759L67.0225 39.18V10.21H78.9549V21.8759Z" fill="#1D2E3F"/>
<path d="M67.0225 74.7315C69.8518 70.6308 74.2802 64.2137 78.9549 57.4272V79.2419H67.0225V74.7315Z" fill="#1D2E3F"/>
<path d="M122.645 10.21V79.0573H110.733V49.1237H84.5314C87.4221 44.9206 90.2105 40.8817 92.5683 37.4782H110.733V10.21H122.645Z" fill="#1D2E3F"/>
</g>
<defs>
<clipPath id="clip0_2034_296">
<rect width="251.111" height="80" fill="white"/>
</clipPath>
</defs>
</svg>
