<svg width="32" height="32" viewBox="0 0 32 32" fill="none" xmlns="http://www.w3.org/2000/svg">
<g clip-path="url(#clip0_2137_773)">
<path d="M31.0625 0H0.9375C0.41975 0 0 0.41975 0 0.9375V31.0625C0 31.5802 0.41975 32 0.9375 32H31.0625C31.5802 32 32 31.5802 32 31.0625V0.9375C32 0.41975 31.5802 0 31.0625 0ZM30.125 30.125H1.875V1.875H30.125V30.125Z" fill="white" fill-opacity="0.6"/>
<path d="M21.625 11.3125C21.865 11.3125 22.1049 11.221 22.2879 11.0379L26.3125 7.01331V7.40169C26.3125 7.91944 26.7323 8.33919 27.25 8.33919C27.7678 8.33919 28.1875 7.91944 28.1875 7.40169V4.75C28.1875 4.23225 27.7678 3.8125 27.25 3.8125H24.5983C24.0806 3.8125 23.6608 4.23225 23.6608 4.75C23.6608 5.26775 24.0806 5.6875 24.5983 5.6875H24.9867L20.9621 9.71212C20.596 10.0782 20.596 10.6718 20.9621 11.0379C21.1452 11.221 21.3851 11.3125 21.625 11.3125Z" fill="white" fill-opacity="0.6"/>
<path d="M4.75 8.33912C5.26775 8.33912 5.6875 7.91938 5.6875 7.40163V7.01331L9.71212 11.0379C9.89512 11.221 10.1351 11.3125 10.375 11.3125C10.6149 11.3125 10.8549 11.221 11.0379 11.0379C11.404 10.6718 11.404 10.0782 11.0379 9.71206L7.01331 5.6875H7.40169C7.91944 5.6875 8.33919 5.26775 8.33919 4.75C8.33919 4.23225 7.91944 3.8125 7.40169 3.8125H4.75C4.23225 3.8125 3.8125 4.23225 3.8125 4.75V7.40163C3.8125 7.91938 4.23225 8.33912 4.75 8.33912Z" fill="white" fill-opacity="0.6"/>
<path d="M24.9867 26.3125H24.5983C24.0806 26.3125 23.6608 26.7322 23.6608 27.25C23.6608 27.7677 24.0806 28.1875 24.5983 28.1875H27.25C27.7678 28.1875 28.1875 27.7677 28.1875 27.25V24.5983C28.1875 24.0806 27.7678 23.6608 27.25 23.6608C26.7323 23.6608 26.3125 24.0806 26.3125 24.5983V24.9867L22.2879 20.9621C21.9218 20.596 21.3282 20.596 20.9621 20.9621C20.596 21.3282 20.596 21.9218 20.9621 22.2879L24.9867 26.3125Z" fill="white" fill-opacity="0.6"/>
<path d="M4.75 28.1875H7.40169C7.91944 28.1875 8.33919 27.7678 8.33919 27.25C8.33919 26.7323 7.91944 26.3125 7.40169 26.3125H7.01331L11.0379 22.2879C11.4041 21.9218 11.4041 21.3282 11.0379 20.9621C10.6719 20.596 10.0782 20.596 9.71212 20.9621L5.6875 24.9867V24.5984C5.6875 24.0807 5.26775 23.6609 4.75 23.6609C4.23225 23.6609 3.8125 24.0807 3.8125 24.5984V27.25C3.8125 27.7678 4.23225 28.1875 4.75 28.1875Z" fill="white" fill-opacity="0.6"/>
</g>
<defs>
<clipPath id="clip0_2137_773">
<rect width="32" height="32" fill="white"/>
</clipPath>
</defs>
</svg>
