<svg width="32" height="32" viewBox="0 0 32 32" fill="none" xmlns="http://www.w3.org/2000/svg">
<g clip-path="url(#clip0_2136_601)">
<path d="M31.0625 10.375H23.5625C23.0448 10.375 22.625 10.7947 22.625 11.3125V16.9375C22.625 19.2012 24.238 21.0951 26.375 21.5307V27.25H22.625V26.3125C22.625 20.9403 18.4706 16.5152 13.1875 16.0426V15.0625C13.1875 14.5448 12.7677 14.125 12.25 14.125C11.7323 14.125 11.3125 14.5448 11.3125 15.0625V16.0426C6.02944 16.5152 1.875 20.9403 1.875 26.3125V27.25H0.9375C0.41975 27.25 0 27.6698 0 28.1875C0 28.7052 0.41975 29.125 0.9375 29.125H31.0625C31.5802 29.125 32 28.7052 32 28.1875C32 27.6698 31.5802 27.25 31.0625 27.25H28.25V21.5307C30.387 21.0952 32 19.2013 32 16.9375V11.3125C32 10.7947 31.5802 10.375 31.0625 10.375ZM3.75 26.3125C3.75 21.6601 7.56306 17.875 12.25 17.875C16.9369 17.875 20.75 21.6601 20.75 26.3125V27.25H3.75V26.3125ZM30.125 16.9375C30.125 18.4883 28.8633 19.75 27.3125 19.75C25.7617 19.75 24.5 18.4883 24.5 16.9375V12.25H30.125V16.9375Z" fill="white" fill-opacity="0.6"/>
<path d="M17.9375 10.375H10.375C8.82419 10.375 7.5625 11.6367 7.5625 13.1875C7.5625 13.7052 7.98225 14.125 8.5 14.125C9.01775 14.125 9.4375 13.7052 9.4375 13.1875C9.4375 12.6706 9.85806 12.25 10.375 12.25H17.9375C19.4883 12.25 20.75 10.9883 20.75 9.4375C20.75 7.88669 19.4883 6.625 17.9375 6.625H14.125C13.6081 6.625 13.1875 6.20444 13.1875 5.6875V3.8125C13.1875 3.29475 12.7677 2.875 12.25 2.875C11.7323 2.875 11.3125 3.29475 11.3125 3.8125V5.6875C11.3125 7.23831 12.5742 8.5 14.125 8.5H17.9375C18.4544 8.5 18.875 8.92056 18.875 9.4375C18.875 9.95444 18.4544 10.375 17.9375 10.375Z" fill="white" fill-opacity="0.6"/>
</g>
<defs>
<clipPath id="clip0_2136_601">
<rect width="32" height="32" fill="white"/>
</clipPath>
</defs>
</svg>
