<svg width="32" height="32" viewBox="0 0 32 32" fill="none" xmlns="http://www.w3.org/2000/svg">
<g clip-path="url(#clip0_2136_606)">
<path d="M23.4146 29.6586H9.95119V24.5854H16.1951C16.8416 24.5854 17.3658 24.0612 17.3658 23.4147C17.3658 22.7681 16.8416 22.2439 16.1951 22.2439H8.7805C8.13394 22.2439 7.60975 22.7681 7.60975 23.4147V29.6585H2.34144C2.34144 17.4993 2.34144 18.3655 2.34144 8.58554C2.34144 7.93898 1.81725 7.41479 1.17069 7.41479C0.524125 7.41479 0 7.93898 0 8.58554V30.8293C0 31.4759 0.524188 32 1.17075 32H23.4146C24.0612 32 24.5854 31.4759 24.5854 30.8293C24.5854 30.1827 24.0613 29.6586 23.4146 29.6586Z" fill="white" fill-opacity="0.6"/>
<path d="M30.8293 0C30.4411 0 1.558 0 1.17069 0C0.524188 0 0 0.524188 0 1.17075C0 1.81731 0.524188 2.3415 1.17075 2.3415H7.41463V8.58537C7.41463 9.23194 7.93881 9.75613 8.58537 9.75613C9.23194 9.75613 9.75613 9.23194 9.75613 8.58537V2.34144H22.2439V8.58531C22.2439 9.23188 22.7681 9.75606 23.4147 9.75606H29.6586V14.8289C29.1096 14.8289 17.7183 14.8289 17.1707 14.8289V8.954C17.1707 8.30744 16.6466 7.78325 16 7.78325C15.3534 7.78325 14.8293 8.30744 14.8293 8.954V15.9997C14.8293 16.6462 15.3534 17.1704 16 17.1704C24.9304 17.1704 20.7058 17.1704 29.6586 17.1704V30.8293C29.6586 31.4759 30.1828 32.0001 30.8293 32.0001C31.4759 32.0001 32.0001 31.4759 32.0001 30.8293C32.0001 30.4421 32.0001 1.559 32.0001 1.17075C32 0.524188 31.4758 0 30.8293 0ZM29.6586 7.41463H24.5854V2.34144H29.6586V7.41463Z" fill="white" fill-opacity="0.6"/>
</g>
<defs>
<clipPath id="clip0_2136_606">
<rect width="32" height="32" fill="white"/>
</clipPath>
</defs>
</svg>
