<svg width="32" height="32" viewBox="0 0 32 32" fill="none" xmlns="http://www.w3.org/2000/svg">
<path d="M27.8324 3.7887C27.5661 3.17894 27.203 2.60907 26.7507 2.10382C25.5535 0.766814 23.8377 0 22.0431 0H9.95814C8.16357 0 6.44769 0.766814 5.25063 2.10382C4.79831 2.60901 4.43525 3.17888 4.16894 3.78863C2.48906 4.0252 1.28643 5.56095 1.47443 7.25839L3.02975 21.3019C3.13362 22.24 3.64012 23.0424 4.3655 23.5462L3.7465 29.7771C3.67925 30.4539 3.95381 31.1146 4.48094 31.5444C4.84731 31.8432 5.29844 32 5.7575 32C5.95894 32 6.16188 31.9698 6.35988 31.9082C6.95576 31.7229 7.44051 31.2627 7.65657 30.6771L10.0803 24.109H21.9209L24.3446 30.6772C24.5607 31.2627 25.0454 31.7229 25.6412 31.9082C25.8392 31.9698 26.0422 32 26.2437 32C26.7027 32 27.1539 31.8432 27.5202 31.5444C28.0474 31.1146 28.3219 30.4539 28.2547 29.7771L27.6357 23.5462C28.361 23.0424 28.8675 22.24 28.9714 21.3019L30.5267 7.25839C30.7148 5.56101 29.5122 4.02526 27.8324 3.7887ZM6.6475 3.35457C7.48938 2.41432 8.69601 1.875 9.95814 1.875H22.0431C23.3052 1.875 24.5119 2.41425 25.3537 3.35451C25.5675 3.59319 25.7526 3.85257 25.9081 4.12707C25.7379 4.21826 25.5745 4.32513 25.4205 4.44845C24.7626 4.97514 24.3492 5.72632 24.2565 6.56376L24.218 6.91108L23.6197 12.3141H8.38163L7.78326 6.91108L7.74482 6.56383C7.65207 5.72639 7.23876 4.97507 6.58094 4.44826C6.42694 4.32488 6.2635 4.21801 6.09332 4.12682C6.24875 3.85251 6.43388 3.59319 6.6475 3.35457ZM23.4119 14.1892L23.012 17.8003H8.9892L8.58926 14.1892H23.4119ZM5.89757 30.0281C5.88182 30.0708 5.8465 30.1044 5.803 30.1179C5.75281 30.1336 5.70663 30.1246 5.66594 30.0914C5.62519 30.0582 5.60719 30.0148 5.61244 29.9625L6.19394 24.1091H8.08163L5.89757 30.0281ZM26.3353 30.0914C26.2946 30.1246 26.2485 30.1336 26.1981 30.1179C26.1547 30.1044 26.1194 30.0708 26.1037 30.0281L23.9195 24.1091H25.8072L26.3887 29.9625C26.394 30.0149 26.376 30.0582 26.3353 30.0914ZM28.6632 7.05189L27.1079 21.0955C27.036 21.7446 26.4894 22.234 25.8363 22.234H6.16494C5.51194 22.234 4.96531 21.7446 4.89338 21.0955L3.338 7.05195C3.26037 6.35083 3.76762 5.71726 4.46956 5.63945C4.51769 5.63407 4.56569 5.63139 4.61344 5.63139C4.90194 5.63139 5.18 5.7287 5.40881 5.91189C5.67575 6.12564 5.84344 6.43045 5.88107 6.77026L7.21788 18.841C7.27044 19.316 7.67182 19.6754 8.14969 19.6754H23.8513C24.3292 19.6754 24.7305 19.316 24.7831 18.841L26.1199 6.7702C26.1575 6.43051 26.3252 6.12582 26.5921 5.9122C26.8589 5.69864 27.1928 5.60201 27.532 5.63945C27.5321 5.63945 27.5322 5.63951 27.5323 5.63951C28.2335 5.71707 28.7408 6.35076 28.6632 7.05189Z" fill="white" fill-opacity="0.6"/>
</svg>
