<svg width="32" height="32" viewBox="0 0 32 32" fill="none" xmlns="http://www.w3.org/2000/svg">
<g clip-path="url(#clip0_2136_578)">
<path d="M19.1581 24.7032H18.8143V12.7624L19.8764 11.6335H25.5018C26.0195 11.6335 26.4392 11.2137 26.4392 10.696V6.94604C26.4392 6.42829 26.0195 6.00854 25.5018 6.00854H6.50194C5.9842 6.00854 5.56445 6.42829 5.56445 6.94604V10.696C5.56445 11.2137 5.9842 11.6335 6.50194 11.6335H12.1273L13.1894 12.7624V24.7032H12.8456C12.3279 24.7032 11.9081 25.1229 11.9081 25.6407C11.9081 26.1584 12.3279 26.5782 12.8456 26.5782H19.1581C19.6758 26.5782 20.0956 26.1584 20.0956 25.6407C20.0956 25.1229 19.6758 24.7032 19.1581 24.7032ZM24.5643 9.75851H21.6405L23.4047 7.88353H24.5643V9.75851ZM20.8303 7.88353L16.0019 13.0154L11.1735 7.88353H20.8303ZM7.43943 9.75851V7.88353H8.59905L10.3632 9.75851H7.43943ZM15.319 15.0259C15.684 15.4138 16.3199 15.4136 16.6847 15.0259L16.9393 14.7552V24.7032H15.0644V14.7551C15.0644 14.7551 15.3189 15.0258 15.319 15.0259Z" fill="white" fill-opacity="0.6"/>
<path d="M31.9932 25.5302L31.2707 19.4284C31.7551 19.3181 32.073 18.8467 31.9854 18.3522C31.3493 14.7592 31.3493 10.116 31.9854 6.52295C32.0757 6.01308 31.7355 5.52665 31.2257 5.43634C30.7157 5.34627 30.2294 5.68621 30.1391 6.19602C29.7413 8.44337 29.5793 11.0802 29.6531 13.6447H25.1347C23.5839 13.6447 22.3223 14.9064 22.3223 16.4572V18.3321C22.3223 18.8499 22.742 19.2696 23.2598 19.2696H23.3954L22.6541 25.5302C22.5932 26.0444 22.9607 26.5106 23.4749 26.5714C23.5123 26.5758 23.5494 26.5779 23.5863 26.5779C24.0547 26.5779 24.4597 26.2274 24.5161 25.7506L25.2834 19.2696H29.3639L30.1313 25.7506C30.1876 26.2274 30.5925 26.5779 31.0611 26.5779C31.0978 26.5779 31.1351 26.5758 31.1724 26.5714C31.6867 26.5105 32.0542 26.0444 31.9932 25.5302ZM24.1972 16.4572C24.1972 15.9402 24.6178 15.5197 25.1347 15.5197H29.751C29.7996 16.1595 29.8637 16.7869 29.9431 17.3947H24.1972V16.4572Z" fill="white" fill-opacity="0.6"/>
<path d="M6.86521 13.6448H2.34682C2.42063 11.0802 2.25863 8.44343 1.86082 6.19601C1.77057 5.68627 1.28439 5.34627 0.774206 5.43633C0.264398 5.52658 -0.0757857 6.01308 0.0145259 6.52295C0.650645 10.1159 0.650645 14.7592 0.0145259 18.3522C-0.0730357 18.8468 0.244836 19.3181 0.729206 19.4284C0.729206 19.4284 0.007151 25.5269 0.00671351 25.5303C-0.0570984 26.0693 0.39146 26.5781 0.938829 26.5781C1.40732 26.5781 1.81226 26.2275 1.86863 25.7508L2.636 19.2698H6.71646C6.71646 19.2698 7.48333 25.7462 7.48383 25.7508C7.5432 26.2521 8.02263 26.6313 8.52501 26.5715C9.03919 26.5106 9.40662 26.0444 9.34575 25.5303L8.60444 19.2698H8.74013C9.25787 19.2698 9.67762 18.85 9.67762 18.3323V16.4573C9.67768 14.9064 8.41601 13.6448 6.86521 13.6448ZM6.86521 15.5197C7.38214 15.5197 7.8027 15.9403 7.8027 16.4572V17.3947H2.05676C2.13619 16.787 2.20032 16.1595 2.24888 15.5197H6.86521Z" fill="white" fill-opacity="0.6"/>
</g>
<defs>
<clipPath id="clip0_2136_578">
<rect width="32" height="32" fill="white"/>
</clipPath>
</defs>
</svg>
