<svg width="32" height="32" viewBox="0 0 32 32" fill="none" xmlns="http://www.w3.org/2000/svg">
<path d="M26.1144 3.75H14.3232V2.8125C14.3232 1.26169 13.0616 0 11.5107 0C9.95993 0 8.69824 1.26169 8.69824 2.8125V3.75H5.88574C5.36799 3.75 4.94824 4.16975 4.94824 4.6875V31.0625C4.94824 31.5802 5.36799 32 5.88574 32H26.1143C26.6321 32 27.0518 31.5802 27.0518 31.0625V4.6875C27.0519 4.16975 26.6321 3.75 26.1144 3.75ZM10.5732 2.8125C10.5732 2.29556 10.9938 1.875 11.5107 1.875C12.0277 1.875 12.4482 2.29556 12.4482 2.8125V3.75H10.5732V2.8125ZM25.1769 30.125H6.82324V5.625H12.4482V8.39913C12.4482 8.91606 12.0277 9.33663 11.5107 9.33663C10.9938 9.33663 10.5732 8.91606 10.5732 8.39913V7.8125C10.5732 7.29475 10.1535 6.875 9.63574 6.875C9.11799 6.875 8.69824 7.29475 8.69824 7.8125V8.39913C8.69824 9.94994 9.95993 11.2116 11.5107 11.2116C13.0616 11.2116 14.3232 9.94994 14.3232 8.39913V5.625H25.1768V30.125H25.1769Z" fill="white" fill-opacity="0.6"/>
<path d="M21.3517 15.4604H10.6475C10.1297 15.4604 9.70996 15.8802 9.70996 16.3979C9.70996 16.9157 10.1297 17.3354 10.6475 17.3354H21.3518C21.8695 17.3354 22.2893 16.9157 22.2893 16.3979C22.2893 15.8802 21.8695 15.4604 21.3517 15.4604Z" fill="white" fill-opacity="0.6"/>
<path d="M17.6631 11.2117H21.3523C21.87 11.2117 22.2898 10.7919 22.2898 10.2742C22.2898 9.75642 21.87 9.33667 21.3523 9.33667H17.6631C17.1453 9.33667 16.7256 9.75642 16.7256 10.2742C16.7256 10.7919 17.1453 11.2117 17.6631 11.2117Z" fill="white" fill-opacity="0.6"/>
<path d="M21.3517 19.6077H10.6475C10.1297 19.6077 9.70996 20.0274 9.70996 20.5452C9.70996 21.0629 10.1297 21.4827 10.6475 21.4827H21.3518C21.8695 21.4827 22.2893 21.0629 22.2893 20.5452C22.2893 20.0274 21.8695 19.6077 21.3517 19.6077Z" fill="white" fill-opacity="0.6"/>
<path d="M21.3517 23.7549H10.6475C10.1297 23.7549 9.70996 24.1746 9.70996 24.6924C9.70996 25.2101 10.1297 25.6299 10.6475 25.6299H21.3518C21.8695 25.6299 22.2893 25.2101 22.2893 24.6924C22.2893 24.1746 21.8695 23.7549 21.3517 23.7549Z" fill="white" fill-opacity="0.6"/>
</svg>
