<svg width="32" height="32" viewBox="0 0 32 32" fill="none" xmlns="http://www.w3.org/2000/svg">
<g clip-path="url(#clip0_2137_782)">
<path d="M25.4732 18.6245C26.5773 17.2964 27.1599 15.6213 27.1287 13.875H27.9375C28.6885 13.875 29.3947 13.5824 29.926 13.051C30.4574 12.5197 30.75 11.8135 30.75 11.0625C30.75 9.51169 29.4883 8.25 27.9375 8.25H27.1287V7.4375C27.1287 7.43225 27.1281 7.42719 27.128 7.422C27.1281 7.41681 27.1287 7.41175 27.1287 7.4065V4.42381C27.1287 1.9845 25.1442 0 22.7049 0H11.4459C10.9281 0 10.5084 0.41975 10.5084 0.9375C10.5084 0.948687 10.5084 2.21481 10.5084 2.22662C10.52 4.07769 11.3571 5.73925 12.6675 6.86194V8.25H11.8588C10.3079 8.25 9.04625 9.51169 9.04625 11.0625C9.015 12.5739 10.3476 13.9062 11.8588 13.875H12.6674C12.6336 15.6519 13.2536 17.3238 14.3097 18.6028C13.7937 18.9231 13.1526 19.3733 12.4759 19.9723C11.7391 18.4403 10.4197 17.2136 8.74956 16.6241C8.16387 16.3987 7.48269 16.8811 7.5 17.5081V22.0625H5.625V17.5081C5.64237 16.8809 4.961 16.3992 4.37544 16.6241C1.75838 17.5479 0 20.0348 0 22.8125C0 24.7351 0.814125 26.5126 2.25 27.7601V31.0625C2.25 31.5802 2.66975 32 3.1875 32H31.0625C31.5802 32 32 31.5802 32 31.0625C32 23.6443 27.6464 19.9864 25.4732 18.6245ZM19.8981 21.25C21.2811 21.25 22.6047 20.8643 23.7463 20.1439C23.6702 22.2134 21.9618 23.875 19.875 23.875C17.7764 23.875 16.0606 22.1945 16.0028 20.1087C17.1278 20.8309 18.4649 21.25 19.8981 21.25ZM27.9375 10.125C28.4544 10.125 28.875 10.5456 28.875 11.0625C28.875 11.3127 28.7774 11.5481 28.6003 11.7253C28.4231 11.9024 28.1877 12 27.9375 12H27.1287V10.125H27.9375ZM12.3834 1.875H22.705C24.1104 1.875 25.2537 3.01837 25.2537 4.42381V6.469H16.6649C14.3187 6.469 12.398 4.56063 12.3834 2.2185C12.3834 2.20662 12.3834 2.06256 12.3834 1.875ZM16.6649 8.344H25.2537V14.02C25.3132 16.8986 22.7767 19.4345 19.8982 19.375C16.9451 19.375 14.5426 16.9727 14.5426 14.02V7.96513C15.2049 8.21 15.9199 8.344 16.6649 8.344ZM11.8588 12C11.3554 12.0104 10.9108 11.5659 10.9213 11.0625C10.9213 10.5456 11.3418 10.125 11.8588 10.125H12.6674V12H11.8588ZM4.125 30.125V27.3131C4.125 27.0183 3.98625 26.7406 3.75056 26.5636C2.55862 25.6682 1.875 24.301 1.875 22.8125C1.875 21.3126 2.59244 19.9314 3.75 19.0616V23C3.75 23.5177 4.16975 23.9375 4.6875 23.9375H8.4375C8.95525 23.9375 9.375 23.5177 9.375 23V19.0616C10.5326 19.9314 11.25 21.3126 11.25 22.8125C11.25 24.301 10.5664 25.6682 9.37444 26.5636C9.13875 26.7406 9 27.0183 9 27.3131V30.125H4.125ZM10.875 30.125V27.7601C12.3109 26.5126 13.125 24.7351 13.125 22.8125C13.125 22.5358 13.1068 22.2621 13.0728 21.9925C13.4599 21.5943 13.8447 21.2536 14.2066 20.9658C14.6678 23.6772 17.0358 25.75 19.875 25.75C22.7146 25.75 25.0829 23.6767 25.5436 20.9647C26.1843 21.474 26.8911 22.1446 27.5573 23.0067C29.0892 24.9888 29.9421 27.3798 30.0986 30.1251H10.875V30.125Z" fill="white" fill-opacity="0.6"/>
<path d="M17.4609 12.75C17.9787 12.75 18.3984 12.3303 18.3984 11.8125C18.3984 11.2947 17.9787 10.875 17.4609 10.875C16.9432 10.875 16.5234 11.2947 16.5234 11.8125C16.5234 12.3303 16.9432 12.75 17.4609 12.75Z" fill="white" fill-opacity="0.6"/>
<path d="M22.3984 12.75C22.9162 12.75 23.3359 12.3303 23.3359 11.8125C23.3359 11.2947 22.9162 10.875 22.3984 10.875C21.8807 10.875 21.4609 11.2947 21.4609 11.8125C21.4609 12.3303 21.8807 12.75 22.3984 12.75Z" fill="white" fill-opacity="0.6"/>
</g>
<defs>
<clipPath id="clip0_2137_782">
<rect width="32" height="32" fill="white"/>
</clipPath>
</defs>
</svg>
