<svg width="32" height="32" viewBox="0 0 32 32" fill="none" xmlns="http://www.w3.org/2000/svg">
<g clip-path="url(#clip0_2233_844)">
<path d="M29.0694 22.9362C29.5302 22.3119 29.8034 21.5408 29.8034 20.707C29.8034 18.9303 28.5648 17.4383 26.906 17.0466C26.6219 15.4431 25.5206 14.1193 24.0486 13.5221C24.5094 12.8978 24.7826 12.1267 24.7826 11.2929C24.7826 9.22019 23.0974 7.53369 21.0252 7.53131C20.5159 6.85125 19.8259 6.31469 19.0277 5.99087C19.4886 5.36656 19.7617 4.5955 19.7617 3.76169C19.7618 1.6875 18.0742 0 16 0C13.9257 0 12.2382 1.6875 12.2382 3.76175C12.2382 4.59556 12.5114 5.36663 12.9722 5.99094C12.174 6.31475 11.4841 6.85131 10.9747 7.53137C8.9025 7.53375 7.21737 9.22019 7.21737 11.293C7.21737 12.1268 7.4905 12.8979 7.95138 13.5222C6.47931 14.1193 5.37794 15.4432 5.09394 17.0467C3.43512 17.4384 2.19656 18.9303 2.19656 20.7071C2.19656 21.5409 2.46969 22.3119 2.93056 22.9363C1.21419 23.6325 0 25.3166 0 27.2799V29.1875C0 30.7383 1.26169 32 2.8125 32H9.10419C9.824 32 10.4812 31.7279 10.9792 31.2816C11.4772 31.7279 12.1344 32 12.8542 32H19.1459C19.8657 32 20.5229 31.7279 21.0209 31.2816C21.5189 31.7279 22.1761 32 22.8959 32H29.1875C30.7383 32 32 30.7383 32 29.1875V27.2799C32 25.3166 30.7858 23.6325 29.0694 22.9362ZM26.0417 18.8203C27.0821 18.8203 27.9284 19.6667 27.9284 20.7071C27.9284 21.7474 27.082 22.5938 26.0417 22.5938C25.0014 22.5938 24.1549 21.7474 24.1549 20.707C24.1549 19.6666 25.0013 18.8203 26.0417 18.8203ZM21.0208 9.40625C22.0612 9.40625 22.9076 10.2526 22.9076 11.293C22.9076 12.3334 22.0612 13.1798 21.0208 13.1798C19.9804 13.1798 19.1341 12.3334 19.1341 11.293C19.1341 10.2526 19.9805 9.40625 21.0208 9.40625ZM16 1.875C17.0404 1.875 17.8867 2.72137 17.8867 3.76175C17.8867 4.80212 17.0404 5.64844 16 5.64844C14.9596 5.64844 14.1132 4.80206 14.1132 3.76169C14.1132 2.72131 14.9596 1.875 16 1.875ZM14.7279 7.52344H17.2721C17.9242 7.52344 18.5247 7.74725 19.0022 8.12125C17.9553 8.78988 17.2591 9.96131 17.2591 11.2929C17.2591 12.1267 17.5323 12.8978 17.9931 13.5221C17.1971 13.845 16.5088 14.3797 16 15.0571C15.4912 14.3797 14.8029 13.8451 14.0069 13.5221C14.4677 12.8978 14.7409 12.1267 14.7409 11.2929C14.7409 9.96125 14.0447 8.78988 12.9978 8.12125C13.4753 7.74725 14.0757 7.52344 14.7279 7.52344ZM17.8867 20.707C17.8867 21.7474 17.0404 22.5938 16 22.5938C14.9596 22.5938 14.1132 21.7474 14.1132 20.707C14.1132 19.6666 14.9596 18.8202 16 18.8202C17.0404 18.8202 17.8867 19.6667 17.8867 20.707ZM10.9792 9.40625C12.0196 9.40625 12.8659 10.2526 12.8659 11.293C12.8659 12.3334 12.0196 13.1798 10.9792 13.1798C9.93881 13.1798 9.09244 12.3334 9.09244 11.293C9.09244 10.2526 9.93881 9.40625 10.9792 9.40625ZM5.95831 18.8203C6.99869 18.8203 7.84506 19.6667 7.84506 20.7071C7.84506 21.7474 6.99869 22.5938 5.95831 22.5938C4.91794 22.5938 4.07156 21.7474 4.07156 20.707C4.07156 19.6666 4.918 18.8203 5.95831 18.8203ZM10.0417 29.1875C10.0417 29.7044 9.62113 30.125 9.10419 30.125H2.8125C2.29556 30.125 1.875 29.7044 1.875 29.1875V27.2799C1.875 25.7299 3.13612 24.4688 4.68619 24.4688H7.23044C8.7805 24.4688 10.0416 25.7299 10.0416 27.2799V29.1875H10.0417ZM10.9792 24.4711C10.4704 23.7937 9.78206 23.2591 8.98606 22.9362C9.44694 22.3119 9.72006 21.5408 9.72006 20.707C9.72006 18.9958 8.57106 17.5487 7.00437 17.0944C7.34062 15.9183 8.4245 15.0547 9.70706 15.0547H12.2514C13.5339 15.0547 14.6178 15.9184 14.9541 17.0944C13.3874 17.5487 12.2384 18.9958 12.2384 20.707C12.2384 21.5408 12.5115 22.3119 12.9724 22.9362C12.1762 23.2591 11.488 23.7937 10.9792 24.4711ZM20.0833 29.1875C20.0833 29.7044 19.6628 30.125 19.1458 30.125H12.8542C12.3373 30.125 11.9167 29.7044 11.9167 29.1875V27.2799C11.9167 25.7299 13.1778 24.4688 14.7279 24.4688H17.2721C18.8223 24.4688 20.0833 25.7299 20.0833 27.2799V29.1875ZM21.0208 24.4711C20.512 23.7937 19.8237 23.2591 19.0277 22.9362C19.4886 22.3119 19.7617 21.5408 19.7617 20.707C19.7617 18.9958 18.6127 17.5487 17.046 17.0944C17.3822 15.9183 18.4661 15.0547 19.7487 15.0547H22.2929C23.5755 15.0547 24.6594 15.9184 24.9956 17.0944C23.4289 17.5487 22.2799 18.9958 22.2799 20.707C22.2799 21.5408 22.5531 22.3119 23.0139 22.9362C22.2179 23.2591 21.5297 23.7937 21.0208 24.4711ZM30.125 29.1875C30.125 29.7044 29.7044 30.125 29.1875 30.125H22.8958C22.3789 30.125 21.9583 29.7044 21.9583 29.1875V27.2799C21.9583 25.7299 23.2194 24.4688 24.7695 24.4688H27.3137C28.8638 24.4688 30.1249 25.7299 30.1249 27.2799V29.1875H30.125Z" fill="white"/>
</g>
<defs>
<clipPath id="clip0_2233_844">
<rect width="32" height="32" fill="white"/>
</clipPath>
</defs>
</svg>
